<?xml version="1.0" encoding="UTF-8"?>
<svg id="a" version="1.1" viewBox="0 0 48 48" xmlns="http://www.w3.org/2000/svg">
 <defs id="defs4">
  <style id="style2">.b{fill:none;stroke:#000;stroke-width:2px;stroke-linecap:round;stroke-linejoin:round;}</style>
 </defs>
 <path id="path6" d="m24 1.5c-1.0791 0-2.0852 0.44038-3.1699 1.1465-1.4112 0.91847-2.272 1.1147-4.4707 0.97656-1.435-0.089855-2.545 0.1908-3.541 0.93359-0.2901 0.21654-0.57752 0.46852-0.83789 0.81641-0.26038 0.34789-0.51293 0.77179-0.94531 1.5078h2e-3c-0.6068 1.0315-1.7886 2.0253-3.168 2.584a1.0001 1.0001 0 0 0-0.00195 0c-1.0356 0.41995-1.8775 0.96335-2.4375 1.7891s-0.78968 1.8237-0.89258 3.0508c-0.18321 2.1817-0.44523 2.8769-1.6484 4.3887-0.75188 0.94406-1.2584 1.8537-1.3672 2.8789-0.1088 1.0252 0.18358 2.0322 0.70703 3.1719 0.75814 1.6493 0.87632 2.6932 0.50195 4.5039-0.2394 1.1576-0.25716 2.2029 0.11914 3.1582 0.3763 0.95532 1.0994 1.719 2.0723 2.4375 1.4503 1.0711 1.9579 1.8355 2.6133 4.0137 0.31041 1.0322 0.77802 1.9019 1.5234 2.5254 0.74542 0.62346 1.6874 0.95317 2.8203 1.1484 1.8737 0.32265 2.7014 0.75617 4.0293 2.1191a1.0001 1.0001 0 0 0 2e-3 2e-3c0.9091 0.93186 1.722 1.4971 2.668 1.7207 0.97711 0.23158 1.9447 0.11815 3.2617-0.31445 1.6405-0.53791 2.6878-0.53733 4.3359 0.0078 1.1791 0.3896 2.215 0.56085 3.2207 0.32227 1.0057-0.23859 1.8471-0.85958 2.6953-1.7344 1.3217-1.3636 2.1508-1.8006 4.0273-2.123 1.1333-0.19526 2.0768-0.52498 2.8223-1.1484 0.74543-0.62346 1.2127-1.4934 1.5234-2.5254 0.65538-2.1781 1.1617-2.9427 2.6113-4.0137 0.97324-0.71857 1.6979-1.4822 2.0742-2.4375 0.3763-0.95532 0.35812-2.0008 0.11914-3.1582-0.37433-1.8099-0.25749-2.8546 0.5-4.5039 0.52421-1.1408 0.81636-2.1499 0.70703-3.1758-0.10933-1.0258-0.61554-1.9342-1.3691-2.877-1.1599-1.4498-1.5144-2.4069-1.6738-4.5996-0.08325-1.1482-0.30445-2.1131-0.89453-2.9062-0.59018-0.79318-1.4491-1.3037-2.5646-1.7813-1.2746-0.54514-2.4871-1.5977-2.9941-2.4941-0.6939-1.2273-1.3297-2.1103-2.2227-2.6738-0.89292-0.5635-1.934-0.68715-3.1172-0.61328-2.1987 0.13819-3.0595-0.058094-4.4707-0.97656-1.0847-0.7061-2.0908-1.1465-3.1699-1.1465zm0 2c0.5387 0 1.1503 0.21697 2.0801 0.82227 1.6784 1.0923 3.2828 1.4479 5.6855 1.2969 0.992-0.061932 1.491 0.032243 1.9258 0.30664 0.43481 0.2744 0.91467 0.85061 1.5469 1.9688 0.80796 1.4284 2.2824 2.6367 3.9492 3.3496 0.97753 0.41852 1.4699 0.76346 1.7461 1.1348 0.27624 0.3713 0.43501 0.88032 0.50586 1.8574 0.1752 2.4101 0.76434 4.0267 2.1055 5.7031 0.6385 0.79875 0.88884 1.3302 0.94336 1.8418 0.05452 0.51158-0.08242 1.1374-0.53711 2.127-0.88191 1.9203-1.0735 3.6512-0.64062 5.7441 0.19621 0.95028 0.16857 1.539-0.02148 2.0215-0.19005 0.4825-0.58744 0.96032-1.4004 1.5605-1.6972 1.2538-2.6244 2.6692-3.3398 5.0469-0.24476 0.81288-0.51598 1.2531-0.89062 1.5664s-0.93185 0.5481-1.877 0.71094c-2.1377 0.36734-3.6183 1.1487-5.125 2.7031-0.72006 0.74261-1.2238 1.0638-1.7207 1.1816-0.49691 0.11789-1.1199 0.05931-2.1328-0.27539-1.9375-0.64086-3.654-0.64325-5.5859-0.0098-1.1828 0.38876-1.5512 0.41802-2.1777 0.26953-0.50665-0.11974-0.9064-0.36146-1.6973-1.1719h-2e-3c-1.5116-1.5512-2.9883-2.33-5.1211-2.6972-0.9447-0.16283-1.5023-0.3976-1.877-0.71094-0.37463-0.31334-0.64818-0.75371-0.89258-1.5664-0.71542-2.3777-1.64-3.793-3.3379-5.0469-0.81267-0.60025-1.2103-1.078-1.4004-1.5605-0.19005-0.4825-0.21994-1.0713-0.023438-2.0215 0.43283-2.0935 0.24204-3.8239-0.64062-5.7441-0.45405-0.98855-0.58946-1.6133-0.53516-2.125 0.054305-0.51172 0.30398-1.0434 0.94141-1.8438 1.3434-1.6879 1.8797-3.1064 2.0781-5.4688 0.089402-1.0662 0.27574-1.6853 0.55273-2.0938 0.277-0.40846 0.6921-0.71674 1.5352-1.0586 1.7586-0.7123 3.259-1.9252 4.1406-3.4238 0.42772-0.72808 0.66971-1.1211 0.82031-1.3223 0.15024-0.20074 0.19242-0.23209 0.43359-0.41211 0.72414-0.54001 1.0079-0.61696 2.2207-0.54102 2.4027 0.15101 4.0072-0.20455 5.6855-1.2969 0.92983-0.6053 1.5414-0.82227 2.0801-0.82227z" color="#000000" stroke-linecap="round" stroke-linejoin="round" style="-inkscape-stroke:none"/>
 <path id="path8" d="m24.043 7.791c-1.3101 0-2.3945 1.0843-2.3945 2.3945v2.1055a1 1 0 0 0 1 1 1 1 0 0 0 1-1v-2.1055c0-0.23093 0.16368-0.39453 0.39453-0.39453 0.23076 0 0.39453 0.16377 0.39453 0.39453v2.1426a1 1 0 0 0 1 1 1 1 0 0 0 1-1v-2.1426c0-1.3102-1.0843-2.3945-2.3945-2.3945z" color="#000000" stroke-linecap="round" stroke-linejoin="round" style="-inkscape-stroke:none"/>
 <path id="path10" d="m30.324 18.871c-0.40522 0-0.80796 0.04623-1.1973 0.14062a1 1 0 0 0-0.73633 1.207 1 1 0 0 0 1.209 0.73633c0.22372-0.05424 0.46923-0.08398 0.72461-0.08398 1.9381 0 3.498 1.5589 3.498 3.5059 0 1.3278-0.74466 2.4793-1.832 3.0703a1 1 0 0 0-0.40039 1.3555 1 1 0 0 0 1.3555 0.40234c1.7121-0.93058 2.877-2.7525 2.877-4.8281 0-3.0286-2.4752-5.5059-5.498-5.5059z" color="#000000" stroke-linecap="round" stroke-linejoin="round" style="-inkscape-stroke:none"/>
 <path id="line12" d="m35.143 19.121a1 1 0 0 0-1.4121 0.09766l-1.0723 1.2285a1 1 0 0 0 0.09766 1.4121 1 1 0 0 0 1.4102-0.09766l1.0723-1.2305a1 1 0 0 0-0.0957-1.4102z" color="#000000" stroke-linecap="round" stroke-linejoin="round" style="-inkscape-stroke:none"/>
 <path id="line14" d="m34.996 23.988a1 1 0 0 0-1.1582 0.8125 1 1 0 0 0 0.81055 1.1582l1.4531 0.25586a1 1 0 0 0 1.1582-0.81055 1 1 0 0 0-0.81055-1.1582z" color="#000000" stroke-linecap="round" stroke-linejoin="round" style="-inkscape-stroke:none"/>
 <path id="line16" d="m31.387 20.58a1 1 0 0 0-1 1 1 1 0 0 0 1 1h0.32031a1 1 0 0 0 1-1 1 1 0 0 0-1-1z" color="#000000" stroke-linecap="round" stroke-linejoin="round" style="-inkscape-stroke:none"/>
 <path id="line18" d="m33.791 24.939a1 1 0 0 0-1.4102 0.11328l-0.20898 0.24414a1 1 0 0 0 0.11133 1.4102 1 1 0 0 0 1.4102-0.11133l0.20898-0.24609a1 1 0 0 0-0.11133-1.4102z" color="#000000" stroke-linecap="round" stroke-linejoin="round" style="-inkscape-stroke:none"/>
 <path id="line20" d="m15.91 34.023a1 1 0 0 0-1.291 0.57812l-0.97656 2.5625a1 1 0 0 0 0.57617 1.291 1 1 0 0 0 1.291-0.57812l0.97852-2.5645a1 1 0 0 0-0.57812-1.2891z" color="#000000" stroke-linecap="round" stroke-linejoin="round" style="-inkscape-stroke:none"/>
 <path id="line22" d="m32.926 34.031a1 1 0 0 0-0.76562 0.0098 1 1 0 0 0-0.52344 1.3145l1.0762 2.4961a1 1 0 0 0 1.3145 0.5234 1 1 0 0 0 0.52148-1.3145l-1.0742-2.4961a1 1 0 0 0-0.54883-0.5332z" color="#000000" stroke-linecap="round" stroke-linejoin="round" style="-inkscape-stroke:none"/>
 <path id="circle24" d="m24.006 11.012c-2.4413 0-4.4414 2.0001-4.4414 4.4414s2.0001 4.4434 4.4414 4.4434c2.4413 0 4.4414-2.0021 4.4414-4.4434s-2.0001-4.4414-4.4414-4.4414zm0 2c1.3604 0 2.4414 1.081 2.4414 2.4414s-1.081 2.4434-2.4414 2.4434c-1.3604 0-2.4414-1.0829-2.4414-2.4434s1.081-2.4414 2.4414-2.4414z" color="#000000" stroke-linecap="round" stroke-linejoin="round" style="-inkscape-stroke:none"/>
 <path id="path26" d="m21.133 13.307a1 1 0 0 0-1.2852 0.58789l-6.5898 17.707c-0.64018 1.7184 0.2464 3.6588 1.9648 4.2988 1.7186 0.63969 3.6593-0.24839 4.2988-1.9668v-2e-3l4.4844-12.049 4.5 12.084h-2e-3c0.63889 1.7195 2.5797 2.6087 4.2988 1.9688 1.7185-0.63999 2.605-2.5805 1.9648-4.2988l-6.5898-17.707a1 1 0 0 0-1.2852-0.58789 1 1 0 0 0-0.58789 1.2852l6.5898 17.707a1.0001 1.0001 0 0 0 0 2e-3c0.26281 0.70543-0.08354 1.4619-0.78906 1.7246-0.70568 0.26268-1.4643-0.08319-1.7266-0.78906a1.0001 1.0001 0 0 0 0-2e-3l-5.4355-14.602a1.0001 1.0001 0 0 0-1.875 0l-5.4219 14.566a1.0001 1.0001 0 0 0 0 2e-3c-0.26231 0.70597-1.0188 1.0518-1.7246 0.78906-0.70555-0.26278-1.0519-1.0192-0.78906-1.7246a1.0001 1.0001 0 0 0 0-2e-3l6.5898-17.705a1 1 0 0 0-0.58984-1.2871z" color="#000000" stroke-linecap="round" stroke-linejoin="round" style="-inkscape-stroke:none"/>
 <path id="path28" d="m14.045 20.529c-0.74805-0.1657-1.5577-0.04912-2.248 0.39062-1.3803 0.88014-1.7935 2.7423-0.91406 4.123 1.073 1.6843 2.4552 3.1094 4.0449 4.2207a1 1 0 0 0 1.3926-0.24609 1 1 0 0 0-0.24609-1.3926c-1.3775-0.96291-2.5741-2.1967-3.5039-3.6562-0.29865-0.46885-0.16722-1.0618 0.30078-1.3613 0.46934-0.29896 1.0621-0.16842 1.3613 0.30078 0.57626 0.90458 1.2736 1.7073 2.0625 2.3926a1 1 0 0 0 1.4102-0.09961 1 1 0 0 0-0.09961-1.4102c-0.64512-0.56039-1.2136-1.2162-1.6855-1.957a1.0001 1.0001 0 0 0 0-2e-3c-0.44007-0.69014-1.127-1.137-1.875-1.3027zm12.396 4.9668c-0.93325 0.32369-1.9255 0.49609-2.9434 0.49609-0.72375 0-1.4349-0.08736-2.1211-0.25391a1 1 0 0 0-1.207 0.73633 1 1 0 0 0 0.73633 1.207c0.83918 0.20367 1.708 0.31055 2.5918 0.31055 1.2429 0 2.4583-0.2096 3.5996-0.60547a1 1 0 0 0 0.61719-1.2734 1 1 0 0 0-1.2734-0.61719zm1.3789 3.7246c-1.3697 0.48531-2.8283 0.74414-4.3223 0.74414-1.1915 0-2.361-0.16401-3.4805-0.47656a1 1 0 0 0-1.2324 0.69336 1 1 0 0 0 0.69531 1.2324c1.2924 0.36084 2.6425 0.55078 4.0176 0.55078 1.7242 0 3.4092-0.29919 4.9902-0.85938a1 1 0 0 0 0.60938-1.2754 1 1 0 0 0-1.2773-0.60938z" color="#000000" stroke-linecap="round" stroke-linejoin="round" style="-inkscape-stroke:none"/>
</svg>
