<?xml version="1.0" encoding="UTF-8"?>
<svg id="a" version="1.1" viewBox="0 0 48 48" xmlns="http://www.w3.org/2000/svg">
 <defs id="defs4">
  <style id="style2">.b{fill:none;stroke:#000;stroke-width:2px;stroke-linecap:round;stroke-linejoin:round;}</style>
 </defs>
 <path id="path6" d="m9.5 4.5c-2.7496 0-5 2.2504-5 5v29c0 2.7496 2.2504 5 5 5h29c2.7496 0 5-2.2504 5-5v-29c0-2.7496-2.2504-5-5-5zm0 2h29c1.6686 0 3 1.3314 3 3v29c0 1.6686-1.3314 3-3 3h-29c-1.6686 0-3-1.3314-3-3v-29c0-1.6686 1.3314-3 3-3z" color="#000000" stroke-linecap="round" stroke-linejoin="round" style="-inkscape-stroke:none"/>
 <path id="circle8" d="m20.139 19.938c-5.1141 0-9.2812 4.1671-9.2812 9.2812s4.1671 9.2812 9.2812 9.2812 9.2812-4.1671 9.2812-9.2812-4.1671-9.2812-9.2812-9.2812zm0 2c4.0332 0 7.2812 3.248 7.2812 7.2812s-3.248 7.2812-7.2812 7.2812-7.2812-3.248-7.2812-7.2812 3.248-7.2812 7.2812-7.2812z" color="#000000" stroke-linecap="round" stroke-linejoin="round" style="-inkscape-stroke:none"/>
 <path id="rect10" d="m14.41 9.5a1.0001 1.0001 0 0 0-1 1v4.8398a1.0001 1.0001 0 0 0 1 1h16.861a1.0001 1.0001 0 0 0 1-1v-4.8398a1.0001 1.0001 0 0 0-1-1zm1 2h14.861v2.8398h-14.861z" color="#000000" stroke-linecap="round" stroke-linejoin="round" style="-inkscape-stroke:none"/>
 <path id="rect12" d="m31.271 14.34a1.0001 1.0001 0 0 0-1 1v22.16a1.0001 1.0001 0 0 0 1 1h4.8711a1.0001 1.0001 0 0 0 1-1v-22.16a1.0001 1.0001 0 0 0-1-1zm1 2h2.8711v20.16h-2.8711z" color="#000000" stroke-linecap="round" stroke-linejoin="round" style="-inkscape-stroke:none"/>
</svg>
