<?xml version="1.0" encoding="UTF-8"?>
<svg id="svg32" version="1.1" viewBox="0 0 48 48" xmlns="http://www.w3.org/2000/svg">
 <defs id="defs4">
  <style id="style2">.b{fill:none;stroke:#000;stroke-linecap:round;stroke-linejoin:round;stroke-width:2px;}</style>
 </defs>
 <path id="path6" d="m9.8281 5.1445a1.0001 1.0001 0 0 0-1 1v1.709c0 0.72792-0.1188 1.1052-0.49219 1.8262-0.37338 0.72101-1.0182 1.7213-1.9238 3.3398-1.7251 3.0831-1.8531 5.2807-1.8691 5.666-0.00145 0.03473-0.04101 0.28273-0.041016 0.2832v0.0039c-1.47e-5 7e-3 -0.039063 17.938-0.039063 20.15 0 1.4511 0.83028 2.4779 1.582 3.0078 0.75175 0.52994 1.5098 0.69922 1.5098 0.69922a1.0001 1.0001 0 0 0 0.22266 0.02539h10.967a1.0001 1.0001 0 0 0 1-1v-22.922c0-2.6017-1.1656-4.7665-1.8789-6.002-0.94669-1.6397-1.634-2.6455-2.0332-3.3711-0.3992-0.72563-0.52734-1.0996-0.52734-1.8594v-1.5566a1.0001 1.0001 0 0 0-1-1zm1 2h2.4766v0.55664c0 1.0649 0.2903 1.946 0.77344 2.8242 0.48314 0.8782 1.1421 1.8256 2.0547 3.4062 0.66906 1.1589 1.6113 3.0127 1.6113 5.002v21.922h-9.7949c-0.047382-0.01232-0.37293-0.09218-0.75195-0.35938-0.40565-0.28596-0.73438-0.62311-0.73438-1.373 0-2.1895 0.039063-20.15 0.039063-20.15s-0.028257-1.9661 1.6562-4.9766c0.87797-1.5691 1.5031-2.5236 1.9551-3.3965 0.45202-0.87284 0.71484-1.7283 0.71484-2.7461z" color="#000000" stroke-linecap="round" stroke-linejoin="round" style="-inkscape-stroke:none"/>
 <path id="path8" d="m9.2969 9.9258a1 1 0 0 0-1 1 1 1 0 0 0 1 1h5.8496a1 1 0 0 0 1-1 1 1 0 0 0-1-1z" color="#000000" stroke-linecap="round" stroke-linejoin="round" style="-inkscape-stroke:none"/>
 <path id="path10" d="m10.275 7.457a1 1 0 0 0-1 1 1 1 0 0 0 1 1h3.5566a1 1 0 0 0 1-1 1 1 0 0 0-1-1z" color="#000000" stroke-linecap="round" stroke-linejoin="round" style="-inkscape-stroke:none"/>
 <path id="path12" d="m5.8887 17.979a1 1 0 0 0-1 1 1 1 0 0 0 1 1h12.443a1 1 0 0 0 1-1 1 1 0 0 0-1-1z" color="#000000" stroke-linecap="round" stroke-linejoin="round" style="-inkscape-stroke:none"/>
 <path id="circle14" d="m12.152 20.248c-2.5157 0-4.5762 2.0604-4.5762 4.5762 0 2.5157 2.0604 4.5762 4.5762 4.5762 2.5157 0 4.5762-2.0604 4.5762-4.5762 0-2.5157-2.0604-4.5762-4.5762-4.5762zm0 2c1.4349 0 2.5762 1.1413 2.5762 2.5762s-1.1413 2.5762-2.5762 2.5762-2.5762-1.1413-2.5762-2.5762 1.1413-2.5762 2.5762-2.5762z" color="#000000" stroke-linecap="round" stroke-linejoin="round" style="-inkscape-stroke:none"/>
 <path id="path16" d="m20.461 7.6855a1.0001 1.0001 0 0 0-1 1v1.6309l-1.7227 5.002a1.0001 1.0001 0 0 0-0.05469 0.32812l0.06055 26.209a1.0001 1.0001 0 0 0 1 0.99805h10.604a1.0001 1.0001 0 0 0 1-1v-26.203a1.0001 1.0001 0 0 0-0.05469-0.32422l-1.7227-5.0078v-1.6328a1.0001 1.0001 0 0 0-1-1zm1 2h5.1094v0.79883a1.0001 1.0001 0 0 0 0.05469 0.32617l1.7227 5.0078v25.035h-8.6055l-0.05859-25.043 1.7227-5a1.0001 1.0001 0 0 0 0.05469-0.32617z" color="#000000" stroke-linecap="round" stroke-linejoin="round" style="-inkscape-stroke:none"/>
 <path id="path18" d="m19.182 14.643a1 1 0 0 0-1 1 1 1 0 0 0 1 1h9.6387a1 1 0 0 0 1-1 1 1 0 0 0-1-1z" color="#000000" stroke-linecap="round" stroke-linejoin="round" style="-inkscape-stroke:none"/>
 <path id="path20" d="m20.529 9.7949a1 1 0 0 0-1 1 1 1 0 0 0 1 1h7.1484a1 1 0 0 0 1-1 1 1 0 0 0-1-1z" color="#000000" stroke-linecap="round" stroke-linejoin="round" style="-inkscape-stroke:none"/>
 <path id="path22" d="m19.105 29.377a1 1 0 0 0-1 1 1 1 0 0 0 1 1h9.7676a1 1 0 0 0 1-1 1 1 0 0 0-1-1z" color="#000000" stroke-linecap="round" stroke-linejoin="round" style="-inkscape-stroke:none"/>
 <path id="path24" d="m24.016 20.871c-0.8749 0-1.6382 0.30397-2.1797 0.75976-0.54151 0.4558-0.86884 1.025-1.0781 1.5508-0.21466 0.5393-0.16077 0.66757-0.20898 1.0508h-1.4043a1 1 0 0 0-1 1 1 1 0 0 0 1 1h2.2051a1.0001 1.0001 0 0 0 1-0.99609s0.01714-0.68526 0.26758-1.3145c0.12522-0.31459 0.29854-0.58526 0.50586-0.75977 0.20732-0.1745 0.4396-0.29102 0.89258-0.29102 0.45302 0 0.68526 0.11651 0.89258 0.29102 0.20732 0.1745 0.3826 0.44518 0.50781 0.75977 0.25042 0.62917 0.26562 1.3145 0.26562 1.3145a1.0001 1.0001 0 0 0 1 0.99609h2.1641a1 1 0 0 0 1-1 1 1 0 0 0-1-1h-1.3633c-0.0482-0.38322 0.0057-0.51147-0.20898-1.0508-0.20928-0.52581-0.53465-1.095-1.0762-1.5508-0.54152-0.4558-1.3067-0.75976-2.1816-0.75976z" color="#000000" stroke-linecap="round" stroke-linejoin="round" style="-inkscape-stroke:none"/>
 <path id="path26" d="m32.191 10.906a1.0001 1.0001 0 0 0-1 1v2.623c-0.27467 0.1528-0.45704 0.2405-0.92578 0.54883-0.36939 0.24298-0.74688 0.51039-1.0742 0.81055-0.32733 0.30015-0.75391 0.5555-0.75391 1.377 0 0.62959-0.08984 24.586-0.08984 24.586a1.0001 1.0001 0 0 0 1.9609 0.2793l-0.96094 0.72266h10.5a1.0001 1.0001 0 0 0 0.02148 0s0.8308-0.0032 1.709-0.39258c0.87819-0.38937 1.9219-1.3877 1.9219-2.9023v-20.375l-0.04297 0.29102s0.16233-0.6138 0.01953-1.332c-0.1428-0.71824-0.56668-1.6373-1.5039-2.5488l-1.3164-1.2812v-2.4062a1.0001 1.0001 0 0 0-1-1zm1 2h5.4648v1.8301a1.0001 1.0001 0 0 0 0.30273 0.7168l1.6191 1.5742c0.68222 0.66354 0.87111 1.1818 0.93555 1.5059 0.06444 0.32409 0.0293 0.35742 0.0293 0.35742a1.0001 1.0001 0 0 0-0.042972 0.29297v20.375c0 0.72505-0.28426 0.87356-0.73242 1.0723s-0.94141 0.22266-0.94141 0.22266h-9.4746c0.0067-1.7719 0.08414-22.11 0.08594-23.326 0.0088-0.02782 0.0238-0.09113 0.10547-0.16602 0.18897-0.17328 0.5013-0.40344 0.82031-0.61328 0.63802-0.41967 1.2949-0.76758 1.2949-0.76758a1.0001 1.0001 0 0 0 0.5332-0.88281z" color="#000000" stroke-linecap="round" stroke-linejoin="round" style="-inkscape-stroke:none"/>
 <path id="path28" d="m32.613 14.039a1 1 0 0 0-1 1 1 1 0 0 0 1 1h6.7871a1 1 0 0 0 1-1 1 1 0 0 0-1-1z" color="#000000" stroke-linecap="round" stroke-linejoin="round" style="-inkscape-stroke:none"/>
 <path id="path30" d="m38.234 36.318a1.0001 1.0001 0 0 0-1 1v1.6035a1.0001 1.0001 0 0 0 1 1h4.2656a1 1 0 0 0 1-1 1 1 0 0 0-0.46875-0.82422 1 1 0 0 0 0.46875-0.7793 1 1 0 0 0-1-1z" color="#000000" stroke-linecap="round" stroke-linejoin="round" style="-inkscape-stroke:none"/>
</svg>
