<?xml version="1.0" encoding="UTF-8"?>
<svg id="svg16" version="1.1" viewBox="0 0 48 48" xml:space="preserve" xmlns="http://www.w3.org/2000/svg"><defs id="defs4"><style id="style2">.b{fill:none;stroke:#000;stroke-linecap:round;stroke-linejoin:round;stroke-width:2px;}</style></defs><g id="g14" class="b"><path id="circle6" d="m22.021 7.7148c-8.9611 0-16.246 7.285-16.246 16.246 0 8.9611 7.285 16.246 16.246 16.246 8.9611 0 16.248-7.285 16.248-16.246 0-8.9611-7.2869-16.246-16.248-16.246zm0 2c7.8802 0 14.248 6.3659 14.248 14.246 0 7.8802-6.3678 14.246-14.248 14.246-7.8802 0-14.246-6.3659-14.246-14.246 0-7.8802 6.3659-14.246 14.246-14.246z" color="#000000" style="-inkscape-stroke:none"/><path id="circle8" d="m21.121 18.432c-3.0629 0-5.5684 2.5035-5.5684 5.5664s2.5055 5.5664 5.5684 5.5664 5.5664-2.5035 5.5664-5.5664-2.5035-5.5664-5.5664-5.5664zm0 2c1.982 0 3.5664 1.5844 3.5664 3.5664s-1.5844 3.5664-3.5664 3.5664-3.5684-1.5844-3.5684-3.5664 1.5864-3.5664 3.5684-3.5664z" color="#000000" style="-inkscape-stroke:none"/><path id="path10" d="m32.273 34.383a1 1 0 0 0-1 1 1 1 0 0 0 1 1h4.6758l-1.8125 1.8125h-13.379a1 1 0 0 0-1 1 1 1 0 0 0 1 1h13.793a1.0001 1.0001 0 0 0 0.70703-0.29297l3.8125-3.8125a1.0001 1.0001 0 0 0-0.70703-1.707z" color="#000000" style="-inkscape-stroke:none"/><path id="path12" d="m27.67 6.7344c-4.8992-0.34763-9.0527 1.3438-9.0527 1.3438a1 1 0 0 0-0.55469 1.3008 1 1 0 0 0 1.3027 0.55469s3.8033-1.5145 8.1641-1.2051 9.1457 2.2433 11.641 9.6328c1.9699 5.8342 0.22573 9.669-2 12.25s-4.9355 3.7441-4.9355 3.7441a1 1 0 0 0-0.5293 1.3125 1 1 0 0 0 1.3125 0.52734s3.1085-1.3116 5.666-4.2773c2.5575-2.9657 4.5602-7.7485 2.3828-14.197-2.719-8.0532-8.4972-10.639-13.396-10.986z" color="#000000" style="-inkscape-stroke:none"/></g></svg>
