<?xml version="1.0" encoding="UTF-8"?>
<svg id="svg20" version="1.1" viewBox="0 0 48 48" xml:space="preserve" xmlns="http://www.w3.org/2000/svg"><defs id="defs4"><style id="style2">.b{fill:none;stroke:#000;stroke-linecap:round;stroke-linejoin:round;stroke-width:2px;}</style></defs><path id="rect6" d="m9.5 4.5c-2.7527 0-5 2.2473-5 5v29c0 2.7527 2.2473 5 5 5h29c2.7527 0 5-2.2473 5-5v-29c0-2.7527-2.2473-5-5-5zm0 2h29c1.6793 0 3 1.3207 3 3v29c0 1.6793-1.3207 3-3 3h-29c-1.6793 0-3-1.3207-3-3v-29c0-1.6793 1.3207-3 3-3z" color="#000000" stroke-linecap="round" stroke-linejoin="round" style="-inkscape-stroke:none"/><path id="rect8" d="m12.5 9.5c-1.6447 0-3 1.3553-3 3v23c0 1.6447 1.3553 3 3 3h23c1.6447 0 3-1.3553 3-3v-23c0-1.6447-1.3553-3-3-3zm0 2h23c0.5713 0 1 0.4287 1 1v23c0 0.5713-0.4287 1-1 1h-23c-0.5713 0-1-0.4287-1-1v-23c0-0.5713 0.4287-1 1-1z" color="#000000" stroke-linecap="round" stroke-linejoin="round" style="-inkscape-stroke:none"/><path id="path10" d="m13.971 32.648a1 1 0 0 0-1 1 1 1 0 0 0 1 1h9.5586a1 1 0 0 0 1-1 1 1 0 0 0-1-1z" color="#000000" stroke-linecap="round" stroke-linejoin="round" style="-inkscape-stroke:none"/><path id="path12" d="m13.705 13.053a1.0001 1.0001 0 0 0-1 1v8a1 1 0 0 0 1 1 1 1 0 0 0 1-1v-1.627h1.6191c2.0223 0 3.6816-1.6625 3.6816-3.6855 0-2.0231-1.6594-3.6875-3.6816-3.6875zm1 2h1.6191c0.93897 0 1.6816 0.74304 1.6816 1.6875 0 0.94451-0.74253 1.6855-1.6816 1.6855h-1.6191z" color="#000000" stroke-linecap="round" stroke-linejoin="round" style="-inkscape-stroke:none"/><path id="line14" d="m15.619 18.719a1 1 0 0 0-2e-3 1.4141l2.6191 2.625a1 1 0 0 0 1.4141 2e-3 1 1 0 0 0 2e-3 -1.416l-2.6191-2.625a1 1 0 0 0-1.4141 0z" color="#000000" stroke-linecap="round" stroke-linejoin="round" style="-inkscape-stroke:none"/><path id="path16" d="m23.055 13.053a1.0001 1.0001 0 0 0-1 1v8a1 1 0 0 0 1 1 1 1 0 0 0 1-1v-1.627h1.6191c2.0223 0 3.6797-1.6625 3.6797-3.6855 0-2.0231-1.6575-3.6875-3.6797-3.6875zm1 2h1.6191c0.93897 0 1.6797 0.74304 1.6797 1.6875 0 0.94451-0.74058 1.6855-1.6797 1.6855h-1.6191z" color="#000000" stroke-linecap="round" stroke-linejoin="round" style="-inkscape-stroke:none"/><path id="line18" d="m24.967 18.719a1 1 0 0 0-2e-3 1.4141l2.6191 2.625a1 1 0 0 0 1.4141 2e-3 1 1 0 0 0 2e-3 -1.4161l-2.6191-2.625a1 1 0 0 0-1.4141 0z" color="#000000" stroke-linecap="round" stroke-linejoin="round" style="-inkscape-stroke:none"/></svg>
