<?xml version="1.0" encoding="UTF-8"?>
<svg id="b" version="1.1" viewBox="0 0 48 48" xmlns="http://www.w3.org/2000/svg">
 <defs id="defs1">
  <style id="style1">.c{fill:none;stroke:#000;stroke-width:2px;stroke-linecap:round;stroke-linejoin:round;}</style>
 </defs>
 <path id="path1" d="m25.869 3.2402c-3.6981 0-7.1626 0.94942-10.154 2.6035-0.02151 0.00416-0.07021 0.013633-0.07031 0.013672-3.3e-4 1.319e-4 -0.0646 0.035059-0.11719 0.0625-0.03043 0.015882-0.05249 0.024575-0.06836 0.035156-0.08659 0.057726-0.12512 0.095824-0.15625 0.12695a1 1 0 0 0-0.28125 0.73633c-7.07e-4 -0.011288-2e-3 -0.022015-2e-3 -0.029297a1.0001 1.0001 0 0 0 0.44531 0.77539 1 1 0 0 0 0.2207 0.091797 1.0001 1.0001 0 0 0 0.64062 0.00195 1 1 0 0 0 0.39062-0.16016c-0.0278 0.027796-0.06435 0.065035-0.14844 0.12109-0.01851 0.012337-0.04394 0.022488-0.08008 0.041016a1.0001 1.0001 0 0 0 0.02344 0c2.7294-1.5447 5.9278-2.4199 9.3574-2.4199 5.0358 0 9.6228 1.9817 12.955 5.6074 2.2635 2.453 3.8129 5.5083 4.5273 8.8711 0.90082 4.2741-2.3661 8.2617-6.7422 8.2617h-17.269c-0.91744 0-1.6907 0.58702-2.002 1.3262-0.31101 0.73865-0.19142 1.6932 0.44141 2.3535 4.3e-4 4.49e-4 -4.31e-4 0.0015 0 2e-3 2.1227 2.2318 5.1321 3.248 8.0898 3.248 2.9668 0 5.7925-0.77822 7.9902-2.2617 1.8163-1.2242 4.2721-0.73341 5.4727 1.1074a1.0001 1.0001 0 0 0 0.0039 0.0039c1.1912 1.8066 0.56159 4.3248-1.2832 5.5332a1.0001 1.0001 0 0 0-2e-3 2e-3c-3.3972 2.23-7.7255 3.4648-12.182 3.4648-5.0518 0-9.7153-1.7997-13.15-5.0645-3.6122-3.4327-5.6093-8.2723-5.6093-13.695 0-1.6767 0.20956-3.2928 0.59961-4.834 0.00882-0.02931 0.026669-0.08715 0.050781-0.18359a1 1 0 0 0-0.72656-1.2129 1 1 0 0 0-1.2129 0.72852c-0.010489 0.04196-0.039063 0.13476-0.039063 0.13476a1.0001 1.0001 0 0 0-0.00977 0.04102c-0.42995 1.6988-0.6621 3.4828-0.6621 5.3262 0 5.9169 2.2047 11.317 6.2324 15.145 3.8249 3.6352 8.9992 5.6152 14.527 5.6152 4.8239 0 9.5165-1.323 13.279-3.793 2.7352-1.7916 3.6842-5.5332 1.8555-8.3066-1.8007-2.7552-5.5415-3.5047-8.2637-1.6699-1.8022 1.2165-4.2579 1.9199-6.8711 1.9199-2.5005 0-4.9674-0.86352-6.6445-2.6289a1.0001 1.0001 0 0 0-0.0039-0.0039c-0.08604-0.08962-0.06784-0.12697-0.03906-0.19531 0.02878-0.06835 0.03564-0.10156 0.1582-0.10156h17.27c5.6032 0 9.8569-5.1926 8.6992-10.678-0.78533-3.6963-2.4963-7.0819-5.0117-9.8086l-2e-3 -0.00195c-3.7075-4.033-8.8625-6.252-14.426-6.252zm-10.615 4.1387a1 1 0 0 0 0.04883 0.11914 1 1 0 0 0 0.08789 0.037109c-0.04656-0.052777-0.07201-0.082968-0.13672-0.15625zm0.24609 0.25a1.0001 1.0001 0 0 0 0.08789 0.025391c-0.030333-0.0091752-0.077398-0.02223-0.08789-0.025391zm0.45117 0.13672a1 1 0 0 0 0.06641 0.019531c5e-5 0-0.05244-0.01529-0.06641-0.019531zm9.9199 5.3281c-3.4451 0-6.473 1.4713-8.4492 3.8691-1.2608 1.5298-0.08997 3.9551 1.8848 3.9551h12.529c1.9232 0 3.0991-2.3011 1.9629-3.8555-1.7965-2.4576-4.6433-3.9688-7.9277-3.9688zm0 2c2.6832 0 4.8714 1.179 6.3125 3.1504 0.23894 0.32686 0.05934 0.67383-0.34766 0.67383h-12.529c-0.41966 0-0.60188-0.36564-0.33984-0.68359 1.5978-1.9388 4.0227-3.1406 6.9043-3.1406z" stop-color="#000000" stroke-linecap="round" stroke-linejoin="round"/>
 <path id="path2" d="m10.188 4.3496c-2.4439 1.2638-5.8809 1.2793-5.8809 1.2793a1.0001 1.0001 0 0 0-1.0098 0.98242l-0.10938 6.1289c-0.016254 0.91614 0.090035 2.6179 1.0332 4.3652 0.94317 1.7474 2.7616 3.492 5.8789 4.3828a1.0001 1.0001 0 0 0 0.98242-0.25391l-0.4668 0.26367c3.1469-0.77975 5.0287-2.459 6.0332-4.1719 1.0045-1.7128 1.1694-3.41 1.1855-4.3262l0.10938-6.1289a1.0001 1.0001 0 0 0-0.97656-1.0176s-3.4326-0.13672-5.8301-1.4863a1.0001 1.0001 0 0 0-0.94922-0.017578zm0.44141 1.918c2.2456 1.1152 4.2577 1.4124 5.2988 1.4824l-0.09375 5.2148c-0.0125 0.70714-0.15471 2.0581-0.91211 3.3496-0.72589 1.2378-2.0513 2.4389-4.5273 3.127-2.4497-0.77536-3.7325-2.0225-4.4141-3.2852-0.71116-1.3175-0.80551-2.6717-0.79297-3.3789l0.091797-5.2148c1.0433-0.033116 3.0657-0.2595 5.3496-1.2949z" stop-color="#000000" stroke-linecap="round" stroke-linejoin="round"/>
</svg>
