<?xml version="1.0" encoding="UTF-8"?>
<svg id="svg12" version="1.1" viewBox="0 0 48 48" xmlns="http://www.w3.org/2000/svg">
 <defs id="defs4">
  <style id="style2">.b{fill:none;stroke:#000;stroke-width:2px;stroke-linecap:round;stroke-linejoin:round;}</style>
 </defs>
 <path id="circle6" d="m24 1.5c-12.415 0-22.5 10.085-22.5 22.5s10.085 22.5 22.5 22.5 22.5-10.085 22.5-22.5-10.085-22.5-22.5-22.5zm0 2c11.334 0 20.5 9.1663 20.5 20.5s-9.1663 20.5-20.5 20.5-20.5-9.1663-20.5-20.5 9.1663-20.5 20.5-20.5z" color="#000000" stroke-linecap="round" stroke-linejoin="round" style="-inkscape-stroke:none"/>
 <path id="path8" d="m15.715 10.336a1.0001 1.0001 0 0 0-1.041 0.9082c-0.34003 3.7827 0.01788 7.3151-3.4863 11.332-2.7528 3.155-2.9802 6.4326-2.1172 9.2246s2.6587 5.2007 3.8125 7.2148a1.0001 1.0001 0 0 0 1.8633-0.39453c0.38854-3.7781 0.45981-6.7408 2.9414-9.4023 2.4419-2.6182 3.0759-5.9038 2.6113-9.123s-1.9625-6.4322-3.7852-9.2988l0.15625 0.53516a1.0001 1.0001 0 0 0-0.95508-0.99609zm0.60352 4.3457c0.94682 1.902 1.7327 3.8355 2.002 5.7012 0.40348 2.7962-0.09163 5.3239-2.0957 7.4727-2.2076 2.3676-2.7407 5.0225-3.0742 7.7266-0.87209-1.4325-1.709-2.8863-2.168-4.3711-0.72221-2.3364-0.65429-4.6073 1.7129-7.3203 2.8493-3.2662 3.368-6.3475 3.623-9.209z" color="#000000" stroke-linecap="round" stroke-linejoin="round" style="-inkscape-stroke:none"/>
 <path id="path10" d="m26.889 8.5039a1.0001 1.0001 0 0 0-0.80078 0.96289c-0.07771 4.8324-3.8956 7.8814-7.3242 10.605a1 1 0 0 0-0.16211 1.4043 1 1 0 0 0 1.4062 0.16211c2.5634-2.0367 5.7632-4.5449 7.25-8.1367 0.67898 2.5882 1.0347 5.1515 0.56055 7.4004-0.69574 3.2998-2.6622 5.9687-6.6777 7.4766-2.5616 0.96226-4.176 2.6449-5.3379 4.4219-1.1619 1.777-1.93 3.6458-2.8984 5.1836a1.0001 1.0001 0 0 0 1.4902 1.2988c2.4319-2.05 6.5746-5.2582 11.146-5.4668 4.1885-0.19208 7.4762-2.0858 9.7148-5.3281 2.2386-3.2423 3.5077-7.7581 4.1133-13.377a1.0001 1.0001 0 0 0-1.7637-0.74414c-1.7191 2.0767-4.7552 4.2529-7.6309 5.0879 0.27348-3.3701-0.46983-6.9742-1.9727-10.377a1.0001 1.0001 0 0 0-1.1133-0.57422zm9.9648 9.1562c-0.67865 4.0081-1.6748 7.4185-3.2441 9.6914-1.9411 2.8115-4.4987 4.2989-8.1602 4.4668-3.4383 0.15685-6.2322 1.6444-8.6309 3.2559 0.21392-0.38332 0.42403-0.82153 0.6582-1.1797 1.0239-1.566 2.2488-2.8468 4.3672-3.6426 4.4475-1.6701 6.9515-4.9074 7.834-8.6445 2.7211-0.55269 5.123-2.143 7.1758-3.9473z" color="#000000" stroke-linecap="round" stroke-linejoin="round" style="-inkscape-stroke:none"/>
</svg>
