<?xml version="1.0" encoding="UTF-8"?>
<svg id="svg16" version="1.1" viewBox="0 0 48 48" xml:space="preserve" xmlns="http://www.w3.org/2000/svg"><defs id="defs4"><style id="style2">.b{fill:none;stroke:#000;stroke-linecap:round;stroke-linejoin:round;stroke-width:2px;}</style></defs><path id="rect6" d="m9.5 4.5c-2.7527 0-5 2.2473-5 5v29c0 2.7527 2.2473 5 5 5h29c2.7527 0 5-2.2473 5-5v-29c0-2.7527-2.2473-5-5-5zm0 2h29c1.6793 0 3 1.3207 3 3v29c0 1.6793-1.3207 3-3 3h-29c-1.6793 0-3-1.3207-3-3v-29c0-1.6793 1.3207-3 3-3z" color="#000000" stroke-linecap="round" stroke-linejoin="round" style="-inkscape-stroke:none"/><path id="path8" d="m23.607 6.2773-14.547 8.3594a1.0001 1.0001 0 0 0-0.00195 1.7324l14.049 8.1113v16.23a1.0001 1.0001 0 0 0 1.5 0.86719l14.514-8.3789a1.0001 1.0001 0 0 0 0.5-0.86719v-16.807a1.0001 1.0001 0 0 0-0.5-0.86719l-14.516-8.3789a1.0001 1.0001 0 0 0-0.99805-0.00195zm0.49805 2.0215 13.516 7.8027v15.654l-12.514 7.2246v-15.076a1.0001 1.0001 0 0 0-0.5-0.86719l-13.045-7.5332z" color="#000000" stroke-linecap="round" stroke-linejoin="round" style="-inkscape-stroke:none"/><path id="path10" d="m9.5273 14.539a1 1 0 0 0-1 1v16.848a1 1 0 0 0 1 1 1 1 0 0 0 1-1v-16.848a1 1 0 0 0-1-1z" color="#000000" stroke-linecap="round" stroke-linejoin="round" style="-inkscape-stroke:none"/><path id="path12" d="m23.844 23.191a1 1 0 0 0-0.75977 0.10352l-14.051 8.2305a1 1 0 0 0-0.35742 1.3672 1 1 0 0 0 1.3691 0.35742l14.051-8.2285a1 1 0 0 0 0.35742-1.3691 1 1 0 0 0-0.60938-0.46094z" color="#000000" stroke-linecap="round" stroke-linejoin="round" style="-inkscape-stroke:none"/><path id="path14" d="m38.09 14.699-14.477 8.3574a1 1 0 0 0-0.36523 1.3672 1 1 0 0 0 1.3652 0.36523l14.477-8.3574a1 1 0 0 0 0.36523-1.3652 1 1 0 0 0-1.3652-0.36719z" color="#000000" stroke-linecap="round" stroke-linejoin="round" style="-inkscape-stroke:none"/></svg>
