<?xml version="1.0" encoding="UTF-8"?>
<svg id="svg7" class="a" version="1.1" viewBox="0 0 48 48" xmlns="http://www.w3.org/2000/svg">
 <style id="style1">.b{fill:none;stroke:#000;stroke-width:2px;stroke-linecap:round;stroke-linejoin:round;}</style>
 <path id="path1" d="m14.186 7.6426c-5.7919 3.4752-9.2852 9.6137-9.2852 16.357 0 10.54 8.5596 19.1 19.1 19.1 1.2627 0 2.4977-0.12328 3.6934-0.35742a1 1 0 0 0 0.78906-1.1719 1 1 0 0 0-1.1738-0.78906c-1.0699 0.20952-2.1753 0.31836-3.3086 0.31836-9.46 0-17.1-7.6396-17.1-17.1 0-5.3305 2.5108-10.101 6.6387-13.322 0.10162 3.8198 2.2277 7.1126 5.3613 8.8516v16.67a1.0001 1.0001 0 0 0 0.29297 0.70703l4.0996 4.1016a1.0001 1.0001 0 0 0 1.4141 0l3.5-3.502a1 1 0 0 0 0-1.4141 1 1 0 0 0-1.4141 0l-2.793 2.793-3.0996-3.0996v-16.785a1.0001 1.0001 0 0 0-0.57617-0.90625c-2.8491-1.3355-4.8242-4.2793-4.8242-7.6934 0-0.60476 0.08555-1.1363 0.18555-1.7363a1.0001 1.0001 0 0 0-1.5-1.0215zm19.635 0.00391a1.0001 1.0001 0 0 0-1.4824 1.1289c0.15853 0.55486 0.16211 1.025 0.16211 1.625 0 3.414-1.9751 6.3578-4.8242 7.6934a1.0001 1.0001 0 0 0-0.57422 0.85547l-0.20117 4a1.0001 1.0001 0 0 0 0.29297 0.75781l2.1914 2.1934-2.1914 2.1914a1.0001 1.0001 0 0 0 0 1.416l1.8066 1.8066a1 1 0 0 0 1.416 0 1 1 0 0 0 0-1.4141l-1.0996-1.0996 2.1914-2.1934a1.0001 1.0001 0 0 0 0-1.4141l-2.5879-2.5859 0.15234-3.0645c3.1418-1.7315 5.2751-5.0228 5.3848-8.8438 4.0655 3.2405 6.6426 8.0821 6.6426 13.301 0 1.5784-0.21264 3.1042-0.61133 4.5527a1 1 0 0 0 0.69922 1.2285 1 1 0 0 0 1.2285-0.69727c0.44569-1.6193 0.68359-3.3254 0.68359-5.084 0-6.6598-3.5861-12.874-9.2793-16.354z" stop-color="#000000" stroke-linecap="round" stroke-linejoin="round"/>
 <path id="path2" d="m22.699 20.1a1 1 0 0 0-1 1v13.6a1 1 0 0 0 1 1 1 1 0 0 0 1-1v-13.6a1 1 0 0 0-1-1z" stop-color="#000000" stroke-linecap="round" stroke-linejoin="round"/>
 <path id="path3" d="m24 4.9004c-1.1007 0-2.2006 0.11143-3.2988 0.30078a1 1 0 0 0-2e-3 -0.00195 1 1 0 0 0-0.0039 0.00195c-0.05786 0.00999-0.11598 0.00511-0.17383 0.015625a1 1 0 0 0-0.05469 0.078125 1 1 0 0 0-0.76758 0.9043c0-0.066667-0.0043 0.029297-0.0293 0.1543-0.025 0.125-0.07031 0.28021-0.07031 0.54688 0 2.4263 1.9741 4.4004 4.4004 4.4004s4.4004-1.9741 4.4004-4.4004c0-0.26667-0.04531-0.42188-0.07031-0.54688s-0.0293-0.22096-0.0293-0.1543a1.0001 1.0001 0 0 0-0.82222-0.98242c-1.1577-0.21049-2.3179-0.31641-3.4785-0.31641zm0 2c0.77144 0 1.5438 0.10666 2.3164 0.21094-0.11601 1.2468-1.0272 2.1895-2.3164 2.1895-1.2892 0-2.2004-0.9427-2.3164-2.1895 0.77263-0.10428 1.545-0.21094 2.3164-0.21094z" stop-color="#000000" stroke-linecap="round" stroke-linejoin="round"/>
 <path id="path4" d="m24 1.5c-12.438 0-22.5 10.062-22.5 22.5s10.062 22.5 22.5 22.5c1.721 0 3.3987-0.1921 5.0098-0.55664a1 1 0 0 0 0.75391-1.1973 1 1 0 0 0-1.1953-0.75391c-1.4673 0.33202-2.9962 0.50781-4.5684 0.50781-11.362 0-20.5-9.1378-20.5-20.5s9.1378-20.5 20.5-20.5 20.5 9.1378 20.5 20.5c0 2.3786-0.40048 4.6569-1.1387 6.7754a1 1 0 0 0 0.61523 1.2734 1 1 0 0 0 1.2734-0.61523c0.81076-2.3267 1.25-4.8298 1.25-7.4336 0-12.438-10.062-22.5-22.5-22.5z" stop-color="#000000" stroke-linecap="round" stroke-linejoin="round"/>
 <path id="path5" d="m44.633 30.16a1 1 0 0 0-1.2734 0.61524v2e-3a1 1 0 0 0 0.61523 1.2734 1 1 0 0 0 1.2734-0.61523v-2e-3a1 1 0 0 0-0.61524-1.2734z" stop-color="#000000" stroke-linecap="round" stroke-linejoin="round"/>
 <path id="path6" d="m28.566 43.992a1 1 0 0 0-0.75391 1.1973 1 1 0 0 0 1.1953 0.75391h0.0039a1 1 0 0 0 0.75586-1.1973 1 1 0 0 0-1.1973-0.75391z" stop-color="#000000" stroke-linecap="round" stroke-linejoin="round"/>
 <path id="path7" d="m36.5 23.5c-3.3018 0-6 2.6982-6 6v1a1 1 0 0 0 1 1 1 1 0 0 0 1-1v-1c0-2.221 1.779-4 4-4s4 1.779 4 4v1a1 1 0 0 0 1 1 1 1 0 0 0 1-1v-1c0-3.3018-2.6982-6-6-6z" stop-color="#000000" stroke-linecap="round" stroke-linejoin="round"/>
 <path id="rect7" d="m30.5 29.5c-2.1987 0-4 1.8013-4 4v9c0 2.1987 1.8013 4 4 4h12c2.1987 0 4-1.8013 4-4v-9c0-2.1987-1.8013-4-4-4zm0 2h12c1.1253 0 2 0.8747 2 2v9c0 1.1253-0.8747 2-2 2h-12c-1.1253 0-2-0.8747-2-2v-9c0-1.1253 0.8747-2 2-2z" stop-color="#000000" stroke-linecap="round" stroke-linejoin="round"/>
</svg>
