<?xml version="1.0" encoding="UTF-8"?>
<svg id="b" version="1.1" viewBox="0 0 48 48" xmlns="http://www.w3.org/2000/svg">
 <defs id="defs4">
  <style id="style2">.c{fill:none;stroke:#000;stroke-width:2px;stroke-linecap:round;stroke-linejoin:round;}</style>
 </defs>
 <path id="path6" d="m11.5 4.5c-2.7496 0-5 2.2504-5 5v25.746c0 1.1473 0.65897 2.2007 1.6914 2.7012l15.373 7.4531a1.0001 1.0001 0 0 0 0.87109 0l15.373-7.4531c1.0324-0.5005 1.6914-1.5539 1.6914-2.7012v-25.746c0-2.7496-2.2504-5-5-5zm0 2h25c1.6686 0 3 1.3314 3 3v25.746c0 0.38534-0.21769 0.73229-0.56445 0.90039l-14.936 7.2422-14.936-7.2422c-0.34676-0.1681-0.56445-0.51506-0.56445-0.90039v-25.746c0-1.6686 1.3314-3 3-3z" color="#000000" stroke-linecap="round" stroke-linejoin="round" style="-inkscape-stroke:none"/>
 <path id="line8" d="m17.926 37.299a1 1 0 0 0-1 1 1 1 0 0 0 1 1h12.148a1 1 0 0 0 1-1 1 1 0 0 0-1-1z" color="#000000" stroke-linecap="round" stroke-linejoin="round" style="-inkscape-stroke:none"/>
 <path id="polyline10" d="m12.512 11a1.0001 1.0001 0 0 0-1 1v16a1.0001 1.0001 0 0 0 1 1h4a1 1 0 0 0 1-1 1 1 0 0 0-1-1h-3v-14h3a1 1 0 0 0 1-1 1 1 0 0 0-1-1z" color="#000000" stroke-linecap="round" stroke-linejoin="round" style="-inkscape-stroke:none"/>
 <path id="path12" d="m32.512 11c-1.645 0-3 1.355-3 3v12c0 1.645 1.355 3 3 3h1c1.645 0 3-1.355 3-3v-3a1 1 0 0 0-1-1 1 1 0 0 0-1 1v3c0 0.56419-0.43581 1-1 1h-1c-0.56419 0-1-0.43581-1-1v-12c0-0.56419 0.43581-1 1-1h1c0.56419 0 1 0.43581 1 1v3a1 1 0 0 0 1 1 1 1 0 0 0 1-1v-3c0-1.645-1.355-3-3-3z" color="#000000" stroke-linecap="round" stroke-linejoin="round" style="-inkscape-stroke:none"/>
 <path id="path14" d="m19.512 11a1.0001 1.0001 0 0 0-1 1v16a1 1 0 0 0 1 1 1 1 0 0 0 1-1v-7.0762l1.9453 0.04297a1.0001 1.0001 0 0 0 0.0059 0c1.6633 0.0271 3.0488-1.3365 3.0488-3v-3.9668c0-1.645-1.355-3-3-3zm1 2h2c0.56419 0 1 0.43581 1 1v3.9668c0 0.5711-0.44452 1.0093-1.0156 1l-1.9844-0.04297z" color="#000000" stroke-linecap="round" stroke-linejoin="round" style="-inkscape-stroke:none"/>
 <path id="line16" d="m12.488 19a1 1 0 0 0-1 1 1 1 0 0 0 1 1h4a1 1 0 0 0 1-1 1 1 0 0 0-1-1z" color="#000000" stroke-linecap="round" stroke-linejoin="round" style="-inkscape-stroke:none"/>
 <path id="line18" d="m27.512 11a1 1 0 0 0-1 1v16a1 1 0 0 0 1 1 1 1 0 0 0 1-1v-16a1 1 0 0 0-1-1z" color="#000000" stroke-linecap="round" stroke-linejoin="round" style="-inkscape-stroke:none"/>
</svg>
