<?xml version="1.0" encoding="UTF-8"?>
<svg id="a" version="1.1" viewBox="0 0 48 48" xmlns="http://www.w3.org/2000/svg">
 <defs id="defs4">
  <style id="style2">.d{fill:none;stroke:#000;stroke-width:2px;stroke-linecap:round;stroke-linejoin:round;}</style>
 </defs>
 <path id="rect6" d="m9.5 4.5c-2.7527 0-5 2.2473-5 5v29c0 2.7527 2.2473 5 5 5h29c2.7527 0 5-2.2473 5-5v-29c0-2.7527-2.2473-5-5-5zm0 2h29c1.6793 0 3 1.3207 3 3v29c0 1.6793-1.3207 3-3 3h-29c-1.6793 0-3-1.3207-3-3v-29c0-1.6793 1.3207-3 3-3z" color="#000000" stroke-linecap="round" stroke-linejoin="round" style="-inkscape-stroke:none"/>
 <path id="path8" d="m19.375 9.125a1.0001 1.0001 0 0 0-1 1v3.625h-3.625a1.0001 1.0001 0 0 0-1 1v8.25h-2.625v-3.625a1.0001 1.0001 0 0 0-1-1h-4.625a1 1 0 0 0-1 1 1 1 0 0 0 1 1h3.625v3.625a1.0001 1.0001 0 0 0 1 1h4.625a1.0001 1.0001 0 0 0 1-1v-8.25h3.625a1.0001 1.0001 0 0 0 1-1v-3.625h2.625v8.25a1.0001 1.0001 0 0 0 1 1h4.625a1.0001 1.0001 0 0 0 1-1v-3.625h2.625v3.625a1.0001 1.0001 0 0 0 1 1h4.625a1.0001 1.0001 0 0 0 1-1v-3.625h3.625a1 1 0 0 0 1-1 1 1 0 0 0-1-1h-4.625a1.0001 1.0001 0 0 0-1 1v3.625h-2.625v-3.623a1.0001 1.0001 0 0 0-1-1l-4.625-0.001953a1.0001 1.0001 0 0 0-1 1v3.625h-2.625v-8.25a1.0001 1.0001 0 0 0-1-1z" color="#000000" stroke-linecap="round" stroke-linejoin="round" style="-inkscape-stroke:none"/>
 <path id="path10" d="m18.307 25.551c-1.703 0-3.2603 0.4595-4.4512 1.2715-1.1909 0.81198-2.0488 2.0467-2.0488 3.4785 0 1.4319 0.85792 2.6665 2.0488 3.4785s2.7481 1.2715 4.4512 1.2715c3.6761 0 5.6147-2.1444 6.5-3.2773 0.88504 1.1327 2.8234 3.2773 6.5 3.2773 1.703 0 3.2622-0.4595 4.4531-1.2715s2.0469-2.0467 2.0469-3.4785c0-1.4319-0.85596-2.6665-2.0469-3.4785-1.1909-0.81198-2.7501-1.2715-4.4531-1.2715-3.6772 0-5.6153 2.1468-6.5 3.2793-0.88501-1.1327-2.8233-3.2793-6.5-3.2793zm0 2c2.9397 0 4.5963 1.9993 5.1641 2.75-0.56719 0.75004-2.2236 2.75-5.1641 2.75-1.3346 0-2.5265-0.37859-3.3262-0.92383s-1.1738-1.1869-1.1738-1.8262 0.37414-1.2809 1.1738-1.8262c0.79969-0.54524 1.9916-0.92383 3.3262-0.92383zm13 0c1.3346 0 2.5265 0.37859 3.3262 0.92383 0.79969 0.54524 1.1738 1.1869 1.1738 1.8262s-0.37414 1.2809-1.1738 1.8262c-0.79969 0.54524-1.9916 0.92383-3.3262 0.92383-2.9405 0-4.5969-2-5.1641-2.75 0.56778-0.75065 2.2243-2.75 5.1641-2.75z" color="#000000" stroke-linecap="round" stroke-linejoin="round" style="-inkscape-stroke:none"/>
</svg>
