<?xml version="1.0" encoding="UTF-8"?>
<svg id="svg12" version="1.1" viewBox="0 0 48 48" xmlns="http://www.w3.org/2000/svg">
 <defs id="defs4">
  <style id="style2">.a{fill:none;stroke:#000;stroke-width:2px;stroke-linecap:round;stroke-linejoin:round;}</style>
 </defs>
 <path id="path6" d="m23.936 4.5c-0.97403-2.808e-4 -1.9481 0.21118-2.8516 0.63281l-13.863 6.4688c-2.4707 1.1531-2.4719 4.8181-0.0019531 5.9727l13.994 6.541c1.8064 0.84438 3.8963 0.84529 5.7031 2e-3l13.863-6.4707c2.4699-1.1534 2.4712-4.8159 2e-3 -5.9707l-13.996-6.5411c-0.90319-0.42215-1.8756-0.63448-2.8496-0.63477zm-2e-3 2c0.68466 1.974e-4 1.3702 0.14823 2.0059 0.44531l13.994 6.541c1.0596 0.49553 1.0598 1.8527 0 2.3477l-13.863 6.4707c-1.2715 0.59348-2.7386 0.59226-4.0098-2e-3l-13.996-6.541c-1.0599-0.49544-1.0583-1.8528 0.0019532-2.3477l13.863-6.4688c0.63578-0.29672 1.3192-0.44551 2.0039-0.44531z" color="#000000" stroke-linecap="round" stroke-linejoin="round" style="-inkscape-stroke:none"/>
 <path id="path8" d="m12.805 18.371-5.584 2.6074c-2.4707 1.1531-2.4719 4.8162-0.0019531 5.9707l13.994 6.541c1.8064 0.84438 3.8963 0.84529 5.7031 2e-3l13.863-6.4707c2.4707-1.1531 2.4719-4.8162 2e-3 -5.9707l-5.584-2.6094a1 1 0 0 0-1.3301 0.48242 1 1 0 0 0 0.48242 1.3301l5.5859 2.6094c1.0599 0.49544 1.0583 1.8509-2e-3 2.3457l-13.863 6.4707c-1.2715 0.59348-2.7386 0.59421-4.0098 0l-13.996-6.543c-1.0599-0.49544-1.0583-1.8509 0.00195-2.3457l5.584-2.6074a1 1 0 0 0 0.48242-1.3281 1 1 0 0 0-1.3281-0.48438z" color="#000000" stroke-linecap="round" stroke-linejoin="round" style="-inkscape-stroke:none"/>
 <path id="path10" d="m13.568 27.713a1 1 0 0 0-0.76367 0.03516l-5.584 2.6055c-2.4707 1.1531-2.4719 4.8162-0.0019531 5.9707l13.996 6.541c1.8064 0.84431 3.8943 0.84522 5.7012 2e-3l13.863-6.4688c2.4707-1.1531 2.4719-4.8181 2e-3 -5.9727l-5.584-2.6094a1 1 0 0 0-1.3301 0.48242 1 1 0 0 0 0.48242 1.3301l5.5859 2.6094c1.0599 0.49544 1.0583 1.8528-2e-3 2.3477l-13.863 6.4688c-1.2716 0.59344-2.7385 0.59417-4.0098 0l-13.996-6.5411c-1.0599-0.49544-1.0583-1.8528 0.0019532-2.3477l5.584-2.6055a1 1 0 0 0 0.48242-1.3301 1 1 0 0 0-0.56445-0.51758z" color="#000000" stroke-linecap="round" stroke-linejoin="round" style="-inkscape-stroke:none"/>
</svg>
