<?xml version="1.0" encoding="UTF-8"?>
<svg id="svg26" version="1.1" viewBox="0 0 48 48" xmlns="http://www.w3.org/2000/svg">
 <defs id="defs4">
  <style id="style2">.a{fill:none;stroke:#000;stroke-width:2px;stroke-linecap:round;stroke-linejoin:round;}</style>
 </defs>
 <path id="path6" d="m34.762 19.07a1.0001 1.0001 0 0 0-0.97266 1v4.9297a1.0001 1.0001 0 0 0 0.38477 0.78711l3.082 2.4141-0.08398 0.0957a1.0001 1.0001 0 0 0-0.24805 0.75195l0.25977 2.9297a1.0001 1.0001 0 0 0 0.60938 0.83398l1.9297 0.81055a1 1 0 0 0 1.3086-0.53516 1 1 0 0 0-0.53516-1.3105l-1.373-0.57617-0.16797-1.9004 0.50195-0.56641a1.0001 1.0001 0 0 0-0.13086-1.4512l-3.5371-2.7695v-3.2461c0.3436 0.06953 0.82141 0.06366 1.0137 0.20703 0.37633 0.28064 0.6582 0.72489 0.6582 1.8945a1.0001 1.0001 0 0 0 0.1875 0.58594l2.6211 3.6309a1.0001 1.0001 0 0 0 0.57617 0.38672l0.68164 0.16406 0.88867 1.6758-0.56641 1.7148a1 1 0 0 0 0.63672 1.2617 1 1 0 0 0 1.2637-0.63476l0.69922-2.1211a1.0001 1.0001 0 0 0-0.06641-0.78125l-1.2988-2.4512a1.0001 1.0001 0 0 0-0.65039-0.50391l-0.75976-0.18164-2.291-3.1758c-0.095715-1.3361-0.53929-2.4374-1.3828-3.0664-0.94117-0.70186-2.0945-0.83589-3.2383-0.80274z" color="#000000" stroke-linecap="round" stroke-linejoin="round" style="-inkscape-stroke:none"/>
 <path id="line8" d="m40.771 26.051-2.3691 1.0898a1 1 0 0 0-0.49024 1.3281 1 1 0 0 0 1.3262 0.49023l2.3691-1.0898a1 1 0 0 0 0.49023-1.3262 1 1 0 0 0-1.3262-0.49219z" color="#000000" stroke-linecap="round" stroke-linejoin="round" style="-inkscape-stroke:none"/>
 <path id="path10" d="m24.004 21.902c-1.8371-0.01097-3.1415 1.3674-3.3926 2.8457-0.20043 1.18 0.42904 2.375 1.5039 3.1719l-0.95508 4.6074a1.0001 1.0001 0 0 0 0.71484 1.168l1.8613 0.50977a1.0001 1.0001 0 0 0 0.53125-2e-3l1.8398-0.50977a1.0001 1.0001 0 0 0 0.71094-1.166l-0.95312-4.6074c1.0706-0.7936 1.7008-1.9813 1.5059-3.1582-0.24442-1.4759-1.5358-2.8561-3.3672-2.8594zm-0.01172 1.998a1.0001 1.0001 0 0 0 0.0059 0c0.90053 9.27e-4 1.2916 0.53087 1.4004 1.1875 0.10874 0.65663-0.08925 1.285-0.94141 1.5762a1.0001 1.0001 0 0 0-0.33789 0.5918 1.0001 1.0001 0 0 0-0.5957-0.5918c-0.85676-0.29268-1.0533-0.92352-0.94141-1.582 0.11185-0.65851 0.50481-1.1883 1.4102-1.1816zm-2e-3 4.8262 0.68164 3.2891-0.67383 0.1875-0.68945-0.18945z" color="#000000" stroke-linecap="round" stroke-linejoin="round" style="-inkscape-stroke:none"/>
 <path id="path12" d="m33.811 30.721a1 1 0 0 0-1 1 1 1 0 0 0 1 1h1.1699c-0.08988 0-0.16506-0.08304-0.0918 0.0078 0.07326 0.09085 0.2055 0.33441 0.31055 0.67383 0.2101 0.67884 0.33522 1.7173 0.32422 2.7461-0.01101 1.0287-0.15851 2.0665-0.38867 2.7422-0.11508 0.33782-0.25544 0.57856-0.33789 0.67383-0.08245 0.09527-0.02965 0.03516 0.02344 0.03516h-6.2363c-0.01799-0.0663-0.02902-0.08222-0.04687-0.16211-0.11091-0.49635-0.21411-1.2219-0.28125-1.9316a1 1 0 0 0-1.0898-0.90234 1 1 0 0 0-0.90234 1.0898c0.07286 0.77027 0.18068 1.546 0.32226 2.1797 0.0708 0.31682 0.14337 0.59311 0.26172 0.86523 0.05917 0.13606 0.12335 0.27355 0.26367 0.43945 0.14032 0.1659 0.43156 0.42188 0.87891 0.42188h6.8301c0.61059 0 1.1505-0.3362 1.4883-0.72656 0.33783-0.39036 0.55024-0.84321 0.71875-1.3379 0.33703-0.98935 0.48335-2.174 0.49609-3.3652 0.01274-1.1913-0.10885-2.3713-0.41406-3.3574-0.15261-0.49308-0.34572-0.94312-0.66406-1.3379-0.31834-0.39477-0.84996-0.75391-1.4648-0.75391z" color="#000000" stroke-linecap="round" stroke-linejoin="round" style="-inkscape-stroke:none"/>
 <path id="path14" d="m13.238 19.07c-1.1438-0.033153-2.2971 0.10088-3.2383 0.80274-0.84352 0.62904-1.2871 1.7303-1.3828 3.0664l-2.291 3.1758-0.75977 0.18164a1.0001 1.0001 0 0 0-0.65039 0.50391l-1.2988 2.4512a1.0001 1.0001 0 0 0-0.066406 0.78125l0.69922 2.1211a1 1 0 0 0 1.2637 0.63476 1 1 0 0 0 0.63672-1.2617l-0.56641-1.7148 0.88867-1.6758 0.68164-0.16406a1.0001 1.0001 0 0 0 0.57617-0.38672l2.6211-3.6309a1.0001 1.0001 0 0 0 0.1875-0.58594c0-1.1696 0.28187-1.6139 0.6582-1.8945 0.19226-0.14337 0.67007-0.1375 1.0137-0.20703v3.2441l-3.5352 2.75a1.0001 1.0001 0 0 0-0.13281 1.4512l0.50195 0.56836-0.16797 1.9004-1.373 0.57617a1 1 0 0 0-0.53516 1.3086 1 1 0 0 0 1.3086 0.53516l1.9297-0.80859a1.0001 1.0001 0 0 0 0.60938-0.83398l0.25977-2.9297a1.0001 1.0001 0 0 0-0.24805-0.75391l-0.08203-0.0918 3.0781-2.3945a1.0001 1.0001 0 0 0 0.38672-0.78906v-4.9297a1.0001 1.0001 0 0 0-0.97266-1z" color="#000000" stroke-linecap="round" stroke-linejoin="round" style="-inkscape-stroke:none"/>
 <path id="line16" d="m7.3379 26.051a1 1 0 0 0-1.3262 0.49219 1 1 0 0 0 0.49023 1.3262l2.3711 1.0898a1 1 0 0 0 1.3262-0.49023 1 1 0 0 0-0.49219-1.3281z" color="#000000" stroke-linecap="round" stroke-linejoin="round" style="-inkscape-stroke:none"/>
 <path id="path18" d="m13.131 30.721c-0.61488 0-1.1487 0.35892-1.4668 0.75391-0.3181 0.39499-0.50996 0.84479-0.66211 1.3379-0.3043 0.98621-0.42552 2.1683-0.41211 3.3594 0.01341 1.1911 0.15981 2.3745 0.49609 3.3633 0.16814 0.4944 0.3801 0.94561 0.7168 1.3359 0.3367 0.39032 0.8755 0.72852 1.4863 0.72852h6.8301c0.43583 0 0.73115-0.24625 0.875-0.41211 0.14385-0.16586 0.21065-0.30615 0.27148-0.44336 0.12167-0.27441 0.19589-0.55146 0.26758-0.86914 0.14338-0.63536 0.2494-1.4114 0.32227-2.1816a1 1 0 0 0-0.90039-1.0898 1 1 0 0 0-1.0898 0.90234c-0.06714 0.70973-0.17158 1.4351-0.2832 1.9297-0.01836 0.08137-0.02838 0.09707-0.04687 0.16406h-6.2461c0.05583 0 0.10955 0.06014 0.02734-0.03516-0.08221-0.0953-0.22095-0.33573-0.33594-0.67383-0.22997-0.6762-0.37904-1.7133-0.39062-2.7422-0.01159-1.0289 0.11282-2.0673 0.32226-2.7461 0.10472-0.3394 0.23756-0.58319 0.31055-0.67383 0.07299-0.09063-0.0019-0.0078-0.0918-0.0078h1.1797a1 1 0 0 0 1-1 1 1 0 0 0-1-1z" color="#000000" stroke-linecap="round" stroke-linejoin="round" style="-inkscape-stroke:none"/>
 <path id="path20" d="m19.619 12.816c-1.0966 0-2.2717 0.80115-2.4863 2.1113a1.0001 1.0001 0 0 0-0.01367 0.16211v0.75976a1.0001 1.0001 0 0 0 1 1h3a1.0001 1.0001 0 0 0 1-1v-0.75976a1.0001 1.0001 0 0 0-0.01172-0.16211c-0.21466-1.3102-1.3917-2.1113-2.4883-2.1113zm8.8105 0c-1.0966 0-2.2717 0.80115-2.4863 2.1113a1.0001 1.0001 0 0 0-0.01367 0.16211v0.75976a1.0001 1.0001 0 0 0 1 1h3a1.0001 1.0001 0 0 0 1-1v-0.75976a1.0001 1.0001 0 0 0-0.01367-0.16211c-0.21467-1.3102-1.3898-2.1113-2.4863-2.1113zm-8.8105 2c0.02012 0 0.01988 0.03253 0.03906 0.0332h-0.07813c0.01922-6.79e-4 0.0189-0.0332 0.03906-0.0332zm8.8105 0c0.02012 0 0.01988 0.03253 0.03906 0.0332h-0.07813c0.01918-6.76e-4 0.01895-0.0332 0.03906-0.0332z" color="#000000" stroke-linecap="round" stroke-linejoin="round" style="-inkscape-stroke:none"/>
 <path id="path22" d="m14.689 18.59c-1.3578 0-2.4785 1.1226-2.4785 2.4805v6.2402c0 6.4996 5.2895 11.789 11.789 11.789s11.789-5.2895 11.789-11.789v-6.2402c1e-6 -1.3578-1.1207-2.4805-2.4785-2.4805zm0 2h18.621c0.27694 0 0.47852 0.20353 0.47852 0.48047v6.2402c0 5.4187-4.3704 9.7891-9.7891 9.7891s-9.7891-4.3704-9.7891-9.7891v-6.2402c0-0.27694 0.20157-0.48047 0.47852-0.48047z" color="#000000" stroke-linecap="round" stroke-linejoin="round" style="-inkscape-stroke:none"/>
 <path id="path24" d="m24 6.3105c-6.5038-0.00603-11.801 5.2852-11.801 11.789 0 1.3633 1.1269 2.4902 2.4902 2.4902h18.611c1.3633 0 2.4883-1.1269 2.4883-2.4902 0-6.4996-5.2895-11.789-11.789-11.789zm0 2c5.4187 0 9.7891 4.3704 9.7891 9.7891 0 0.28246-0.20582 0.49024-0.48828 0.49024h-18.611c-0.28246 0-0.49023-0.20777-0.49023-0.49024-3e-6 -5.4223 4.3785-9.7941 9.8008-9.7891z" color="#000000" stroke-linecap="round" stroke-linejoin="round" style="-inkscape-stroke:none"/>
</svg>
