<?xml version="1.0" encoding="UTF-8"?>
<svg id="a" version="1.1" viewBox="0 0 48 48" xmlns="http://www.w3.org/2000/svg">
 <defs id="defs4">
  <style id="style2">.b{fill:none;stroke:#000;stroke-width:2px;stroke-linecap:round;stroke-linejoin:round;}</style>
 </defs>
 <path id="rect6" d="m10.5 3.5c-1.6447 0-3 1.3553-3 3v35c0 1.6447 1.3553 3 3 3h27c1.6447 0 3-1.3553 3-3v-35c0-1.6447-1.3553-3-3-3zm0 2h27c0.5713 0 1 0.4287 1 1v35c0 0.5713-0.4287 1-1 1h-27c-0.5713 0-1-0.4287-1-1v-35c0-0.5713 0.4287-1 1-1z" color="#000000" stroke-linecap="round" stroke-linejoin="round" style="-inkscape-stroke:none"/>
 <path id="rect8" d="m10.5 35.5c-1.6447 0-3 1.3553-3 3v3c0 1.6447 1.3553 3 3 3h27c1.6447 0 3-1.3553 3-3v-3c0-1.6447-1.3553-3-3-3zm0 2h27c0.5713 0 1 0.4287 1 1v3c0 0.5713-0.4287 1-1 1h-27c-0.5713 0-1-0.4287-1-1v-3c0-0.5713 0.4287-1 1-1z" color="#000000" stroke-linecap="round" stroke-linejoin="round" style="-inkscape-stroke:none"/>
</svg>
