<?xml version="1.0" encoding="UTF-8"?>
<svg id="b" version="1.1" viewBox="0 0 48 48" xmlns="http://www.w3.org/2000/svg">
 <defs id="defs4">
  <style id="style2">.h{fill:none;stroke:#000;stroke-width:2px;stroke-linecap:round;stroke-linejoin:round;}</style>
 </defs>
 <path id="c" d="m5.5 34.562a1 1 0 0 0-0.70703 0.29297 1 1 0 0 0-0.29297 0.70703v6.9375a1.0001 1.0001 0 0 0 1 1h3.8535a1.0001 1.0001 0 0 0 1-1v-6.9375a1.0001 1.0001 0 0 0-1-1zm1 2h1.8535v4.9375h-1.8535z" color="#000000" stroke-linecap="round" stroke-linejoin="round" style="-inkscape-stroke:none"/>
 <path id="d" d="m13.787 26.854a1 1 0 0 0-0.70703 0.29297 1 1 0 0 0-0.29297 0.70703v14.646a1.0001 1.0001 0 0 0 1 1h3.8535a1.0001 1.0001 0 0 0 1-1v-14.646a1.0001 1.0001 0 0 0-1-1zm1 2h1.8535v12.646h-1.8535z" color="#000000" stroke-linecap="round" stroke-linejoin="round" style="-inkscape-stroke:none"/>
 <path id="e" d="m22.072 19.146a1 1 0 0 0-0.70703 0.29297 1 1 0 0 0-0.29297 0.70703v22.352a1.0001 1.0001 0 0 0 1 1h3.8555a1.0001 1.0001 0 0 0 1-1v-22.352a1.0001 1.0001 0 0 0-1-1zm1 2h1.8555v20.352h-1.8555z" color="#000000" stroke-linecap="round" stroke-linejoin="round" style="-inkscape-stroke:none"/>
 <path id="f" d="m30.359 11.438a1 1 0 0 0-0.70703 0.29297 1 1 0 0 0-0.29297 0.70703v30.062a1.0001 1.0001 0 0 0 1 1h3.8535a1.0001 1.0001 0 0 0 1-1v-30.062a1.0001 1.0001 0 0 0-1-1zm1 2h1.8535v28.062h-1.8535z" color="#000000" stroke-linecap="round" stroke-linejoin="round" style="-inkscape-stroke:none"/>
 <path id="g" d="m38.646 4.5a1 1 0 0 0-0.70703 0.29297 1 1 0 0 0-0.29297 0.70703v37a1.0001 1.0001 0 0 0 1 1h3.8535a1.0001 1.0001 0 0 0 1-1v-37a1.0001 1.0001 0 0 0-1-1zm1 2h1.8535v35h-1.8535z" color="#000000" stroke-linecap="round" stroke-linejoin="round" style="-inkscape-stroke:none"/>
</svg>
