<?xml version="1.0" encoding="UTF-8"?>
<svg id="svg50" version="1.1" viewBox="0 0 48 48" xml:space="preserve" xmlns="http://www.w3.org/2000/svg"><defs id="defs4"><style id="style2">.b{fill:none;stroke:#000;stroke-linecap:round;stroke-linejoin:round;stroke-width:2px;}</style></defs><path id="rect6" d="m9.5 4.5c-2.7527 0-5 2.2473-5 5v29c0 2.7527 2.2473 5 5 5h29c2.7527 0 5-2.2473 5-5v-29c0-2.7527-2.2473-5-5-5zm0 2h29c1.6793 0 3 1.3207 3 3v29c0 1.6793-1.3207 3-3 3h-29c-1.6793 0-3-1.3207-3-3v-29c0-1.6793 1.3207-3 3-3z" color="#000000" stroke-linecap="round" stroke-linejoin="round" style="-inkscape-stroke:none"/><g id="g48" class="b"><path id="circle8" d="m36.434 7.5879c-2.3811 0-4.334 1.9529-4.334 4.334 0 2.3811 1.9529 4.332 4.334 4.332 2.3811 0 4.332-1.9509 4.332-4.332 0-2.3811-1.9509-4.334-4.332-4.334zm0 2c1.3002 0 2.332 1.0338 2.332 2.334s-1.0318 2.332-2.332 2.332-2.334-1.0318-2.334-2.332 1.0338-2.334 2.334-2.334z" color="#000000" style="-inkscape-stroke:none"/><path id="circle10" d="m36.434 32.029c-2.3811 0-4.334 1.9509-4.334 4.332s1.9529 4.334 4.334 4.334c2.3811 0 4.332-1.9529 4.332-4.334s-1.9509-4.332-4.332-4.332zm0 2c1.3002 0 2.332 1.0318 2.332 2.332s-1.0318 2.334-2.332 2.334-2.334-1.0338-2.334-2.334 1.0338-2.332 2.334-2.332z" color="#000000" style="-inkscape-stroke:none"/><path id="circle12" d="m29.768 26.475c-1.7676 0-3.2207 1.4531-3.2207 3.2207 0 1.7676 1.4531 3.2227 3.2207 3.2227s3.2227-1.4551 3.2227-3.2227c0-1.7676-1.4551-3.2207-3.2227-3.2207zm0 2c0.68668 0 1.2227 0.53402 1.2227 1.2207 0 0.68668-0.53598 1.2227-1.2227 1.2227s-1.2207-0.53598-1.2207-1.2227c0-0.68668 0.53402-1.2207 1.2207-1.2207z" color="#000000" style="-inkscape-stroke:none"/><path id="circle14" d="m29.768 15.365c-1.7676 0-3.2207 1.4551-3.2207 3.2227 0 1.7676 1.4531 3.2207 3.2207 3.2207s3.2227-1.4531 3.2227-3.2207c0-1.7676-1.4551-3.2227-3.2227-3.2227zm0 2c0.68668 0 1.2227 0.53598 1.2227 1.2227 0 0.68668-0.53598 1.2207-1.2227 1.2207s-1.2207-0.53402-1.2207-1.2207c0-0.68668 0.53402-1.2227 1.2207-1.2227z" color="#000000" style="-inkscape-stroke:none"/><path id="circle16" d="m11.992 7.5879c-2.3811 0-4.332 1.9529-4.332 4.334 0 2.3811 1.9509 4.332 4.332 4.332 2.3811 0 4.334-1.9509 4.334-4.332 0-2.3811-1.9529-4.334-4.334-4.334zm0 2c1.3002 0 2.334 1.0338 2.334 2.334s-1.0338 2.332-2.334 2.332c-1.3002 0-2.332-1.0318-2.332-2.332s1.0318-2.334 2.332-2.334z" color="#000000" style="-inkscape-stroke:none"/><path id="circle18" d="m11.992 32.029c-2.3811 0-4.332 1.9509-4.332 4.332 0 2.3811 1.9509 4.334 4.332 4.334 2.3811 0 4.334-1.9529 4.334-4.334s-1.9529-4.332-4.334-4.332zm0 2c1.3002 0 2.334 1.0318 2.334 2.332s-1.0338 2.334-2.334 2.334c-1.3002 0-2.332-1.0338-2.332-2.334s1.0318-2.332 2.332-2.332z" color="#000000" style="-inkscape-stroke:none"/><path id="circle20" d="m18.658 15.365c-1.7676 0-3.2227 1.4551-3.2227 3.2227 0 1.7676 1.4551 3.2207 3.2227 3.2207s3.2227-1.4531 3.2227-3.2207c0-1.7676-1.4551-3.2227-3.2227-3.2227zm0 2c0.68668 0 1.2227 0.53598 1.2227 1.2227 0 0.68668-0.53598 1.2207-1.2227 1.2207s-1.2227-0.53402-1.2227-1.2207c0-0.68668 0.53598-1.2227 1.2227-1.2227z" color="#000000" style="-inkscape-stroke:none"/><path id="circle22" d="m18.658 26.475c-1.7676 0-3.2227 1.4531-3.2227 3.2207 0 1.7676 1.4551 3.2227 3.2227 3.2227s3.2227-1.4551 3.2227-3.2227c0-1.7676-1.4551-3.2207-3.2227-3.2207zm0 2c0.68668 0 1.2227 0.53402 1.2227 1.2207 0 0.68668-0.53598 1.2227-1.2227 1.2227s-1.2227-0.53598-1.2227-1.2227c0-0.68668 0.53598-1.2207 1.2227-1.2207z" color="#000000" style="-inkscape-stroke:none"/><path id="path24" d="m15.326 10.922a1 1 0 0 0-1 1 1 1 0 0 0 1 1h17.775a1 1 0 0 0 1-1 1 1 0 0 0-1-1z" color="#000000" style="-inkscape-stroke:none"/><path id="path26" d="m36.434 14.254a1 1 0 0 0-1 1v17.775a1 1 0 0 0 1 1 1 1 0 0 0 1-1v-17.775a1 1 0 0 0-1-1z" color="#000000" style="-inkscape-stroke:none"/><path id="path28" d="m15.326 35.361a1 1 0 0 0-1 1 1 1 0 0 0 1 1h17.775a1 1 0 0 0 1-1 1 1 0 0 0-1-1z" color="#000000" style="-inkscape-stroke:none"/><path id="path30" d="m11.992 14.254a1 1 0 0 0-1 1v17.775a1 1 0 0 0 1 1 1 1 0 0 0 1-1v-17.775a1 1 0 0 0-1-1z" color="#000000" style="-inkscape-stroke:none"/><path id="path32" d="m18.658 19.809a1 1 0 0 0-1 1v6.666a1 1 0 0 0 1 1 1 1 0 0 0 1-1v-6.666a1 1 0 0 0-1-1z" color="#000000" style="-inkscape-stroke:none"/><path id="path34" d="m29.768 19.809a1 1 0 0 0-1 1v6.666a1 1 0 0 0 1 1 1 1 0 0 0 1-1v-6.666a1 1 0 0 0-1-1z" color="#000000" style="-inkscape-stroke:none"/><path id="path36" d="m20.881 17.588a1 1 0 0 0-1 1 1 1 0 0 0 1 1h6.666a1 1 0 0 0 1-1 1 1 0 0 0-1-1z" color="#000000" style="-inkscape-stroke:none"/><path id="path38" d="m20.881 28.695a1 1 0 0 0-1 1 1 1 0 0 0 1 1h6.6641a1 1 0 0 0 1-1 1 1 0 0 0-1-1z" color="#000000" style="-inkscape-stroke:none"/><path id="path40" d="m31.574 29.988a1 1 0 0 0-0.70703 0.29297 1 1 0 0 0 0 1.4141l2.7734 2.7734a1 1 0 0 0 1.4141 0 1 1 0 0 0 0-1.4141l-2.7734-2.7734a1 1 0 0 0-0.70703-0.29297z" color="#000000" style="-inkscape-stroke:none"/><path id="path42" d="m34.482 13.234a1 1 0 0 0-1.4141 0.05664l-2.6543 2.8789a1 1 0 0 0 0.05859 1.4121 1 1 0 0 0 1.4121-0.05664l2.6543-2.8789a1 1 0 0 0-0.05664-1.4121z" color="#000000" style="-inkscape-stroke:none"/><path id="path44" d="m14.596 13.004a1 1 0 0 0-0.70703 0.29102 1 1 0 0 0 0 1.416l2.7734 2.7734a1 1 0 0 0 1.4141 0 1 1 0 0 0 0-1.4141l-2.7734-2.7754a1 1 0 0 0-0.70703-0.29102z" color="#000000" style="-inkscape-stroke:none"/><path id="path46" d="m16.789 29.898a1 1 0 0 0-0.70703 0.29297l-2.7969 2.7969a1 1 0 0 0 0 1.4141 1 1 0 0 0 1.4141 0l2.7988-2.7969a1 1 0 0 0 0-1.4141 1 1 0 0 0-0.70898-0.29297z" color="#000000" style="-inkscape-stroke:none"/></g></svg>
