<?xml version="1.0" encoding="UTF-8"?>
<svg id="b" version="1.1" viewBox="0 0 48 48" xmlns="http://www.w3.org/2000/svg">
 <defs id="defs4">
  <style id="style2">.c{fill:none;stroke:#000;stroke-width:2px;stroke-linecap:round;stroke-linejoin:round;}</style>
 </defs>
 <path id="rect6" d="m6.5 8.8516c-1.6447 0-3 1.3553-3 3v21.283c0 1.6447 1.3553 3 3 3h31.986c1.6447 0 3-1.3553 3-3v-21.283c0-1.6447-1.3553-3-3-3zm0 2h31.986c0.5713 0 1 0.4287 1 1v21.283c0 0.5713-0.4287 1-1 1h-31.986c-0.5713 0-1-0.4287-1-1v-21.283c0-0.5713 0.4287-1 1-1z" color="#000000" stroke-linecap="round" stroke-linejoin="round" style="-inkscape-stroke:none"/>
 <path id="path8" d="m40.486 21.383a1 1 0 0 0-1 1 1 1 0 0 0 1 1h1.0137c0.56419 0 1 0.43581 1 1v11.766c0 0.56419-0.43581 1-1 1h-18.439c-0.56419 0-1-0.43581-1-1v-1.0137a1 1 0 0 0-1-1 1 1 0 0 0-1 1v1.0137c0 1.645 1.355 3 3 3h18.439c1.645 0 3-1.355 3-3v-11.766c0-1.645-1.355-3-3-3z" color="#000000" stroke-linecap="round" stroke-linejoin="round" style="-inkscape-stroke:none"/>
</svg>
