<?xml version="1.0" encoding="UTF-8"?>
<svg id="b" version="1.1" viewBox="0 0 48 48" xmlns="http://www.w3.org/2000/svg">
 <defs id="defs4">
  <style id="style2">.c{fill:none;stroke:#000;stroke-width:2px;stroke-linecap:round;stroke-linejoin:round;}</style>
 </defs>
 <path id="path6" d="m17.771 14.805a1.0001 1.0001 0 0 0-0.51172 0.87305v12.703a1.0001 1.0001 0 0 0 0.47656 0.85156l8.2949 5.082a1.0001 1.0001 0 0 0 1.5215-0.85352v-12.701a1.0001 1.0001 0 0 0-0.47656-0.85352l-8.2949-5.082a1.0001 1.0001 0 0 0-1.0098-0.01953zm1.4883 2.6602 6.293 3.8535v10.357l-6.293-3.8555z" color="#000000" stroke-linecap="round" stroke-linejoin="round" style="-inkscape-stroke:none"/>
 <path id="path8" d="m14.195 6.0859c-0.46567-0.077834-0.95185-0.074974-1.4414 0.046875-0.48955 0.12185-0.99161 0.39719-1.3457 0.85547-0.3541 0.45828-0.5293 1.0594-0.5293 1.7031v20.324c0 0.95275-0.01797 1.7989 0.18945 2.625 0.20743 0.82607 0.76457 1.644 1.6406 2.0801l-0.07617-0.04102 16.586 10.162-0.0293-0.01953c1.2128 0.80504 2.6208 0.85847 3.668 0.2793 1.0471-0.57918 1.7129-1.7301 1.7129-3.0176v-19.055c0-1.9054 0.04677-3.0901-0.39258-4.1836-0.43934-1.0935-1.3794-1.763-2.7148-2.4277l-15.906-8.8711a1.0001 1.0001 0 0 0-0.04102-0.021484c-0.40826-0.20322-0.85464-0.36162-1.3203-0.43945zm-0.95703 1.9883c0.29682-0.073877 0.92538 0.013523 1.3848 0.24219l15.908 8.8691a1.0001 1.0001 0 0 0 0.04102 0.02148c1.2164 0.60552 1.5514 0.89044 1.75 1.3848 0.19861 0.49433 0.24805 1.5321 0.24805 3.4375v19.055c0 0.61788-0.29339 1.0528-0.68164 1.2676-0.38825 0.21475-0.89284 0.26995-1.5938-0.19531a1.0001 1.0001 0 0 0-0.03125-0.01953l-16.586-10.164a1.0001 1.0001 0 0 0-0.07813-0.04102c-0.39984-0.19902-0.48024-0.33311-0.59179-0.77734-0.11155-0.44423-0.12891-1.1859-0.12891-2.1387v-20.324c0-0.30894 0.0667-0.4227 0.11133-0.48047 0.04463-0.057764 0.09964-0.09978 0.24805-0.13672z" color="#000000" stroke-linecap="round" stroke-linejoin="round" style="-inkscape-stroke:none"/>
 <path id="path10" d="m20.955 16.33a1 1 0 0 0-1 1v9.1445a1.0001 1.0001 0 0 0 0.49609 0.86328l5.5957 3.2695a1 1 0 0 0 1.3691-0.35938 1 1 0 0 0-0.35938-1.3672l-5.1016-2.9805v-8.5703a1 1 0 0 0-1-1z" color="#000000" stroke-linecap="round" stroke-linejoin="round" style="-inkscape-stroke:none"/>
 <path id="path12" d="m16.748 3.5449c-0.46567-0.077834-0.95185-0.074974-1.4414 0.046875-0.48955 0.12185-0.99356 0.39719-1.3477 0.85547-0.3541 0.45828-0.52734 1.0594-0.52734 1.7031v1.0234a1 1 0 0 0 1 1 1 1 0 0 0 1-1v-1.0234c0-0.30894 0.06474-0.4227 0.10938-0.48047 0.04463-0.057764 0.09964-0.09978 0.24805-0.13672 0.296-0.073675 0.92376 0.014917 1.3828 0.24219 0.0013 6.23e-4 0.0027-6.25e-4 0.0039 0l15.906 8.8691a1.0001 1.0001 0 0 0 0.04102 0.02344c1.2164 0.60552 1.5533 0.88848 1.752 1.3828s0.24609 1.5321 0.24609 3.4375v19.055c0 0.96756-0.608 1.5225-1.4609 1.4023a1 1 0 0 0-1.1309 0.85156 1 1 0 0 0 0.85156 1.1289c2.0025 0.2822 3.7402-1.3668 3.7402-3.3828v-19.055c0-1.9054 0.04872-3.0901-0.39062-4.1836-0.43934-1.0935-1.3794-1.763-2.7148-2.4277l-15.908-8.8711a1.0001 1.0001 0 0 0-0.041016-0.021484c-0.40826-0.20322-0.85269-0.36162-1.3184-0.43945z" color="#000000" stroke-linecap="round" stroke-linejoin="round" style="-inkscape-stroke:none"/>
</svg>
