<?xml version="1.0" encoding="UTF-8"?>
<svg id="a" version="1.1" viewBox="0 0 48 48" xmlns="http://www.w3.org/2000/svg">
 <defs id="defs4">
  <style id="style2">.e{fill:none;stroke:#000;stroke-width:2px;stroke-linecap:round;stroke-linejoin:round;}</style>
 </defs>
 <path id="path6" d="m24 1.5c-10.611 0-19.524 7.3572-21.887 17.258a1.0001 1.0001 0 0 0 0.97266 1.2324h19.904a1 1 0 0 0 1-1 1 1 0 0 0-1-1h-18.525c2.576-8.3725 10.305-14.49 19.535-14.49 11.334 0 20.5 9.1664 20.5 20.5a1 1 0 0 0 1 1 1 1 0 0 0 1-1c0-12.415-10.085-22.5-22.5-22.5z" color="#000000" stroke-linecap="round" stroke-linejoin="round" style="-inkscape-stroke:none"/>
 <path id="polyline8" d="m17.758 13.756a1 1 0 0 0 0 1.4141l3.8184 3.8203-3.8184 3.8203a1 1 0 0 0 0 1.4141 1 1 0 0 0 1.4141 0l4.5254-4.5273a1.0001 1.0001 0 0 0 0-1.4141l-4.5254-4.5273a1 1 0 0 0-1.4141 0z" color="#000000" stroke-linecap="round" stroke-linejoin="round" style="-inkscape-stroke:none"/>
 <path id="path10" d="m2.5 23a1 1 0 0 0-1 1c0 12.415 10.085 22.5 22.5 22.5 10.611 0 19.524-7.3573 21.887-17.258a1.0001 1.0001 0 0 0-0.97266-1.2324h-19.904a1 1 0 0 0-1 1 1 1 0 0 0 1 1h18.523c-2.576 8.3723-10.303 14.49-19.533 14.49-11.334 0-20.5-9.1664-20.5-20.5a1 1 0 0 0-1-1z" color="#000000" stroke-linecap="round" stroke-linejoin="round" style="-inkscape-stroke:none"/>
 <path id="polyline12" d="m28.828 23.775-4.5254 4.5273a1.0001 1.0001 0 0 0 0 1.4141l4.5254 4.5273a1 1 0 0 0 1.4141 0 1 1 0 0 0 0-1.4141l-3.8184-3.8203 3.8184-3.8203a1 1 0 0 0 0-1.4141 1 1 0 0 0-1.4141 0z" color="#000000" stroke-linecap="round" stroke-linejoin="round" style="-inkscape-stroke:none"/>
</svg>
