<?xml version="1.0" encoding="UTF-8"?>
<svg id="svg18" version="1.1" viewBox="0 0 48 48" xmlns="http://www.w3.org/2000/svg">
 <defs id="defs4">
  <style id="style2">.b{fill:none;stroke:#000;stroke-width:2px;stroke-linecap:round;stroke-linejoin:round;}</style>
 </defs>
 <path id="rect6" d="m9.5 4.5c-2.7527 0-5 2.2473-5 5v29c0 2.7527 2.2473 5 5 5h29c2.7527 0 5-2.2473 5-5v-29c0-2.7527-2.2473-5-5-5zm0 2h29c1.6793 0 3 1.3207 3 3v29c0 1.6793-1.3207 3-3 3h-29c-1.6793 0-3-1.3207-3-3v-29c0-1.6793 1.3207-3 3-3z" color="#000000" stroke-linecap="round" stroke-linejoin="round" style="-inkscape-stroke:none"/>
 <path id="path8" d="m16.477 10.426a1.0001 1.0001 0 0 0-1 1v25.131a1.0001 1.0001 0 0 0 1 1h3.002a1.0001 1.0001 0 0 0 1-1v-9.8711h1.5957l7.5098 10.393a1.0001 1.0001 0 0 0 0.81055 0.41406h4.2305a1.0001 1.0001 0 0 0 0.81641-1.5781l-7.4473-10.535c1.3884-0.72617 4.8366-2.7922 4.8008-7.7891-0.02155-3.0068-1.5076-4.9183-2.957-5.9238-1.4495-1.0055-2.9141-1.2285-2.9141-1.2285a1.0001 1.0001 0 0 0-0.15234-0.01172zm1 2h9.168c0.02648 0.0043 1.0141 0.1623 2.0527 0.88281 1.0525 0.73011 2.0805 1.9029 2.0977 4.2949 0.03404 4.7509-4.5742 6.6094-4.5742 6.6094l0.06445 0.05273a1.0001 1.0001 0 0 0-0.66602 0.67578 1.0001 1.0001 0 0 0 0.26758 0.75195l-0.10352 0.02148 6.9121 9.7773h-1.7891l-7.5117-10.393a1.0001 1.0001 0 0 0-0.80859-0.41406h-3.1074a1.0001 1.0001 0 0 0-1 1v9.8711h-1.002z" color="#000000" stroke-linecap="round" stroke-linejoin="round" style="-inkscape-stroke:none"/>
 <path id="path10" d="m20.854 12.746c-0.85535 0.04943-1.418 0.14453-1.418 0.14453a1.0001 1.0001 0 0 0-0.83789 0.98828v9.1152a1.0001 1.0001 0 0 0 0.92969 0.99805s2.2559 0.17382 4.5898-0.41992c1.167-0.29687 2.3834-0.78397 3.3613-1.6699 0.97789-0.88595 1.6641-2.2175 1.6641-3.8652 0-1.6477-0.70092-2.9595-1.7051-3.7754s-2.2356-1.1902-3.4082-1.3789c-1.1726-0.18872-2.3204-0.18615-3.1758-0.13672zm2.8574 2.1113c0.96361 0.15508 1.8688 0.47112 2.4668 0.95703 0.59802 0.48591 0.96484 1.0865 0.96484 2.2227 0 1.1362-0.38157 1.8172-1.0059 2.3828-0.62429 0.5656-1.5444 0.96826-2.5137 1.2148-1.4836 0.37741-2.3894 0.29245-3.0254 0.27734v-7.0488c0.60116-0.07272 1.5947-0.25025 3.1133-0.0059z" color="#000000" stroke-linecap="round" stroke-linejoin="round" style="-inkscape-stroke:none"/>
 <path id="path12" d="m16.746 30.82a1 1 0 0 0-0.76367 0.05664l-10.932 5.5078a1 1 0 0 0-0.44336 1.3418 1 1 0 0 0 1.3418 0.44336l10.934-5.5078a1 1 0 0 0 0.44141-1.3438 1 1 0 0 0-0.57812-0.49805z" color="#000000" stroke-linecap="round" stroke-linejoin="round" style="-inkscape-stroke:none"/>
 <path id="path14" d="m23.662 27.072-4.5273 2.2246a1 1 0 0 0-0.45703 1.3379 1 1 0 0 0 1.3379 0.45703l4.5293-2.2246a1 1 0 0 0 0.45703-1.3379 1 1 0 0 0-1.3398-0.45703z" color="#000000" stroke-linecap="round" stroke-linejoin="round" style="-inkscape-stroke:none"/>
 <path id="path16" d="m42.814 17.832a1 1 0 0 0-0.76367 0.05664l-14.758 7.4141a1 1 0 0 0-0.44531 1.3438 1 1 0 0 0 1.3418 0.44336l14.76-7.4141a1 1 0 0 0 0.44336-1.3438 1 1 0 0 0-0.57812-0.5z" color="#000000" stroke-linecap="round" stroke-linejoin="round" style="-inkscape-stroke:none"/>
</svg>
