<?xml version="1.0" encoding="UTF-8"?>
<svg id="a" version="1.1" viewBox="0 0 48 48" xmlns="http://www.w3.org/2000/svg">
 <defs id="defs1">
  <style id="style1">.d{fill:none;stroke:#000;stroke-width:2px;stroke-linecap:round;stroke-linejoin:round;}</style>
 </defs>
 <path id="path1" d="m9.5 4.5c-2.7527 0-5 2.2473-5 5v29c0 2.7527 2.2473 5 5 5h23.271a1 1 0 0 0 1-1 1 1 0 0 0-1-1h-23.271c-1.6793 0-3-1.3207-3-3v-29c0-1.6793 1.3207-3 3-3h29c1.6793 0 3 1.3207 3 3v23.258a1 1 0 0 0 1 1 1 1 0 0 0 1-1v-23.258c0-2.7527-2.2473-5-5-5z" stop-color="#000000" stroke-linecap="round" stroke-linejoin="round"/>
 <path id="circle1" d="m24 18.5c-3.0257 0-5.5 2.4743-5.5 5.5s2.4743 5.5 5.5 5.5 5.5-2.4743 5.5-5.5-2.4743-5.5-5.5-5.5zm0 2c1.9448 0 3.5 1.5552 3.5 3.5s-1.5552 3.5-3.5 3.5-3.5-1.5552-3.5-3.5 1.5552-3.5 3.5-3.5z" stop-color="#000000" stroke-linecap="round" stroke-linejoin="round"/>
 <path id="path2" d="m19.361 9.6445a1.0001 1.0001 0 0 0-0.66992 0.26562l-0.02539-0.15039-4.332 2.5a1.0001 1.0001 0 0 0-0.36523 1.3652l2.9297 5.0723c-0.41566 0.56054-0.75974 1.1616-1.0352 1.8027h-5.8633a1.0001 1.0001 0 0 0-1 1v5a1.0001 1.0001 0 0 0 1 1h5.8633c0.27542 0.64118 0.61949 1.2422 1.0352 1.8027l-2.9297 5.0723a1.0001 1.0001 0 0 0 0.36523 1.3672l4.332 2.5a1.0001 1.0001 0 0 0 1.3672-0.36719l2.8848-4.998c0.35639 0.04754 0.71034 0.11847 1.0703 0.12305a1.0001 1.0001 0 0 0 0.02539 0c0.36036-0.0046 0.71355-0.07541 1.0703-0.12305l2.8848 4.998a1.0001 1.0001 0 0 0 1.3652 0.36719l3.3945-1.959a1 1 0 0 0 0.41211-1.0195 1 1 0 0 0 0.23047-0.03125 1 1 0 0 0 0.36719-1.3672l-2.6348-4.5625c0.4155-0.56043 0.75983-1.1617 1.0352-1.8027h5.8613a1.0001 1.0001 0 0 0 1-1v-5a1.0001 1.0001 0 0 0-1-1h-5.8496c-0.27722-0.6438-0.62438-1.2464-1.043-1.8086l2.9238-5.0664a1.0001 1.0001 0 0 0-0.36523-1.3652l-4.332-2.5a1.0001 1.0001 0 0 0-1.3652 0.36523l-2.8789 4.9883c-0.36279-0.044774-0.72384-0.11295-1.0898-0.11328a1.0001 1.0001 0 0 0-0.01367 0c-0.36036 0.0046-0.71355 0.07541-1.0703 0.12305l-2.8848-4.998-0.087891 0.12109a1.0001 1.0001 0 0 0-0.58008-0.60156zm9.8379 2.3457 2.6016 1.502-2.7012 4.6777a1.0001 1.0001 0 0 0 0.11914 1.166c0.64153 0.71838 1.1289 1.5616 1.4297 2.4766a1.0001 1.0001 0 0 0 0.94922 0.6875h5.4023v3h-5.416a1.0001 1.0001 0 0 0-0.95117 0.68945c-0.2989 0.91241-0.78207 1.7531-1.4199 2.4707a1.0001 1.0001 0 0 0-0.11719 1.1641l2.7227 4.7148a1 1 0 0 0-0.08984 0.01172l-2.5293 1.459-2.7109-4.6973a1.0001 1.0001 0 0 0-1.0801-0.47656c-0.46266 0.10215-0.93447 0.15528-1.4082 0.16211-0.47309-7e-3 -0.94617-0.0601-1.4082-0.16211a1.0001 1.0001 0 0 0-1.0801 0.47656l-2.7109 4.6973-2.5996-1.5 2.7051-4.6855a1.0001 1.0001 0 0 0-0.11914-1.1641c-0.63785-0.71763-1.121-1.5583-1.4199-2.4707a1.0001 1.0001 0 0 0-0.95117-0.68945h-5.416v-3h5.416a1.0001 1.0001 0 0 0 0.95117-0.68945c0.2989-0.91241 0.78208-1.7531 1.4199-2.4707a1.0001 1.0001 0 0 0 0.11914-1.1641l-2.7051-4.6836 2.5996-1.5 2.7109 4.6953a1.0001 1.0001 0 0 0 1.0801 0.47656c0.46464-0.10259 0.94024-0.15761 1.416-0.16406 0.47746 9.67e-4 0.95259 0.05055 1.4199 0.14844a1.0001 1.0001 0 0 0 1.0703-0.47852z" stop-color="#000000" stroke-linecap="round" stroke-linejoin="round"/>
 <path id="circle2" d="m38.5 30.5c-4.4064 0-8 3.5936-8 8s3.5936 8 8 8 8-3.5936 8-8-3.5936-8-8-8zm0 2c3.3256 0 6 2.6744 6 6s-2.6744 6-6 6-6-2.6744-6-6 2.6744-6 6-6z" stop-color="#000000" stroke-linecap="round" stroke-linejoin="round"/>
 <path id="line2" d="m36.5 37.5a1 1 0 0 0-1 1 1 1 0 0 0 1 1h4a1 1 0 0 0 1-1 1 1 0 0 0-1-1z" stop-color="#000000" stroke-linecap="round" stroke-linejoin="round"/>
</svg>
