<?xml version="1.0" encoding="UTF-8"?>
<svg id="a" version="1.1" viewBox="0 0 48 48" xmlns="http://www.w3.org/2000/svg">
 <defs id="defs4">
  <style id="style2">.d{fill:none;stroke:#000;stroke-width:2px;stroke-linecap:round;stroke-linejoin:round;}</style>
 </defs>
 <path id="rect6" d="m9.5 4.5c-2.7527 0-5 2.2473-5 5v29c0 2.7527 2.2473 5 5 5h29c2.7527 0 5-2.2473 5-5v-29c0-2.7527-2.2473-5-5-5zm0 2h29c1.6793 0 3 1.3207 3 3v29c0 1.6793-1.3207 3-3 3h-29c-1.6793 0-3-1.3207-3-3v-29c0-1.6793 1.3207-3 3-3z" color="#000000" stroke-linecap="round" stroke-linejoin="round" style="-inkscape-stroke:none"/>
 <path id="circle8" d="m24 18.5c-3.0257 0-5.5 2.4743-5.5 5.5s2.4743 5.5 5.5 5.5 5.5-2.4743 5.5-5.5-2.4743-5.5-5.5-5.5zm0 2c1.9448 0 3.5 1.5552 3.5 3.5s-1.5552 3.5-3.5 3.5-3.5-1.5552-3.5-3.5 1.5552-3.5 3.5-3.5z" color="#000000" stroke-linecap="round" stroke-linejoin="round" style="-inkscape-stroke:none"/>
 <path id="path10" d="m19.361 9.6445a1.0001 1.0001 0 0 0-0.66992 0.26562l-0.02539-0.15039-4.332 2.5a1.0001 1.0001 0 0 0-0.36523 1.3652l2.9277 5.0723c-0.4155 0.56043-0.75983 1.1617-1.0352 1.8027h-5.8613a1.0001 1.0001 0 0 0-1 1v5a1.0001 1.0001 0 0 0 1 1h5.8613c0.27533 0.64102 0.61965 1.2423 1.0352 1.8027l-2.9277 5.0723a1.0001 1.0001 0 0 0 0.36523 1.3652l4.332 2.5a1.0001 1.0001 0 0 0 1.3652-0.36523l2.8848-4.998c0.35676 0.04764 0.70996 0.11846 1.0703 0.12305a1.0001 1.0001 0 0 0 0.02539 0c0.35997-0.0046 0.71392-0.0755 1.0703-0.12305l2.8848 4.998a1.0001 1.0001 0 0 0 1.3672 0.36523l4.332-2.5a1.0001 1.0001 0 0 0 0.36523-1.3652l-2.9297-5.0723c0.41566-0.56054 0.75974-1.1616 1.0352-1.8027h5.8633a1.0001 1.0001 0 0 0 1-1v-5a1.0001 1.0001 0 0 0-1-1h-5.8496c-0.27722-0.6438-0.62438-1.2464-1.043-1.8086l2.9238-5.0664a1.0001 1.0001 0 0 0-0.36523-1.3652l-4.332-2.5a1.0001 1.0001 0 0 0-1.3672 0.36523l-2.8789 4.9883c-0.36215-0.044616-0.72254-0.11295-1.0879-0.11328a1.0001 1.0001 0 0 0-0.01367 0c-0.36035 0.0046-0.71355 0.07541-1.0703 0.12305l-2.8848-4.998-0.01172 0.01758a1.0001 1.0001 0 0 0-0.6582-0.49805zm-0.56055 2.3457 2.709 4.6973a1.0001 1.0001 0 0 0 1.082 0.47656c0.46464-0.10259 0.93829-0.15761 1.4141-0.16406 0.47746 9.66e-4 0.95454 0.05055 1.4219 0.14844a1.0001 1.0001 0 0 0 1.0703-0.47852l2.7012-4.6797 2.5996 1.5-2.7012 4.6797a1.0001 1.0001 0 0 0 0.12109 1.166c0.64153 0.71838 1.1269 1.5616 1.4277 2.4766a1.0001 1.0001 0 0 0 0.95117 0.6875h5.4023v3h-5.416a1.0001 1.0001 0 0 0-0.95117 0.68945c-0.2989 0.91241-0.78208 1.7531-1.4199 2.4707a1.0001 1.0001 0 0 0-0.11914 1.1641l2.7051 4.6855-2.5996 1.5-2.7109-4.6973a1.0001 1.0001 0 0 0-1.0801-0.47656c-0.46204 0.10202-0.93511 0.15515-1.4082 0.16211-0.47374-0.0068-0.94554-0.05996-1.4082-0.16211a1.0001 1.0001 0 0 0-1.0801 0.47656l-2.7109 4.6973-2.6016-1.5 2.7051-4.6855a1.0001 1.0001 0 0 0-0.11719-1.1641c-0.63785-0.71763-1.121-1.5583-1.4199-2.4707a1.0001 1.0001 0 0 0-0.95117-0.68945h-5.416v-3h5.416a1.0001 1.0001 0 0 0 0.95117-0.68945c0.2989-0.91241 0.78208-1.7531 1.4199-2.4707a1.0001 1.0001 0 0 0 0.11719-1.1641l-2.7051-4.6855z" color="#000000" stroke-linecap="round" stroke-linejoin="round" style="-inkscape-stroke:none"/>
</svg>
