<?xml version="1.0" encoding="UTF-8"?>
<svg id="a" version="1.1" viewBox="0 0 48 48" xmlns="http://www.w3.org/2000/svg">
 <defs id="defs1">
  <style id="style1">.b{fill:none;stroke:#000;stroke-width:2px;stroke-linecap:round;stroke-linejoin:round;}</style>
 </defs>
 <path id="path1" d="m32.863 4.5c-0.83929 0-1.5046 0.37229-2.2285 0.82812-0.7239 0.45583-1.4671 1.0441-2.1719 1.6641-0.70476 0.62-1.3674 1.2705-1.9043 1.8477-0.5369 0.57718-0.92916 1.0297-1.1895 1.4805a1 1 0 0 0 0.36523 1.3672 1 1 0 0 0 1.3672-0.36719c0.06015-0.10418 0.43378-0.59248 0.92188-1.1172 0.48809-0.52471 1.11-1.1373 1.7598-1.709s1.3307-1.1041 1.916-1.4727c0.53033-0.33394 0.93177-0.44611 1.0547-0.47266 0.07916 0.062856 0.18143 0.14566 0.31836 0.30273 0.32638 0.3744 0.74691 1.001 1.1484 1.8613 0.80306 1.7206 1.543 4.3819 1.543 8.002a1.0001 1.0001 0 0 0 0.37109 0.77734c3.0588 2.4735 3.4374 5.5078 2.168 8.1797-1.2694 2.6719-4.3453 4.9311-8.5469 5.2363a1.0001 1.0001 0 0 0-0.79297 1.4961c0.13244 0.22941 0.36667 1.2056 0.42188 2.1465 0.05521 0.94092-0.02732 1.9501-0.11133 2.2637a1.0001 1.0001 0 0 0 0.09961 0.75977c0.57484 0.99568 1.3613 4.0427 1.3613 4.9258a1 1 0 0 0 1 1 1 1 0 0 0 1-1c0-1.5733-0.65326-3.9903-1.502-5.6055 0.1341-0.72397 0.20483-1.5331 0.15039-2.4609-0.03688-0.62856-0.26066-1.1642-0.39648-1.7422 4.292-0.64702 7.6355-3.0312 9.123-6.1621 1.5553-3.2735 0.91902-7.2927-2.3867-10.229-0.060347-3.6616-0.78941-6.5052-1.6895-8.4336-0.46895-1.0047-0.96942-1.7733-1.4531-2.3281-0.24185-0.27743-0.47811-0.50183-0.73242-0.68164-0.25431-0.17981-0.51147-0.35742-0.98438-0.35742z" stop-color="#000000" stroke-linecap="round" stroke-linejoin="round"/>
 <path id="path2" d="m24.553 40.459a1 1 0 0 0-0.76367 0.07031 1 1 0 0 0-0.41992 1.3496c0.32643 0.62071 0.87891 1.248 0.87891 1.248a1 1 0 0 0 1.4062 0.15039 1 1 0 0 0 0.15039-1.4062s-0.6027-0.80519-0.66406-0.92188a1 1 0 0 0-0.58789-0.49024z" stop-color="#000000" stroke-linecap="round" stroke-linejoin="round"/>
 <path id="path3" d="m24.951 9.5781c-0.75424-0.058381-1.548-0.026212-2.3379 0.072266-1.5799 0.19696-3.1256 0.65067-4.2305 1.5527a1 1 0 0 0-0.14258 1.4062 1 1 0 0 0 1.4082 0.14258c0.59421-0.48513 1.8856-0.95172 3.2129-1.1172 1.3273-0.16547 2.7103-0.03615 3.416 0.26172a1 1 0 0 0 1.3105-0.5332 1 1 0 0 0-0.5332-1.3105c-0.6338-0.26752-1.3493-0.41623-2.1035-0.47461z" stop-color="#000000" stroke-linecap="round" stroke-linejoin="round"/>
 <path id="path4" d="m32.062 6.7246c-1.6553 1.6553-1.973 3.8817-1.793 5.752a1.0001 1.0001 0 0 0 0.28906 0.61133c0.80577 0.80577 1.8848 1.1543 1.8848 1.1543a1 1 0 0 0 1.2969-0.56836 1 1 0 0 0-0.56836-1.2949s-0.51111-0.28698-0.88477-0.51953c-0.05937-1.3637 0.18241-2.7137 1.1895-3.7207a1 1 0 0 0 0-1.4141 1 1 0 0 0-1.4141 0z" stop-color="#000000" stroke-linecap="round" stroke-linejoin="round"/>
 <path id="path5" d="m10.811 9.9707a1 1 0 0 0-1 1 1 1 0 0 0 1 1c0.66464 0 1.5327 0.42255 2.2129 0.95898 0.23688 0.18682 0.40515 0.36616 0.58008 0.54492-0.09157 0.05888-0.17102 0.11349-0.26367 0.17188-0.47972 0.30229-0.92774 0.57031-0.92774 0.57031a1 1 0 0 0-0.3418 1.373 1 1 0 0 0 1.3711 0.3418s0.46284-0.27546 0.96484-0.5918c0.251-0.15817 0.51093-0.32628 0.73828-0.48047s0.38034-0.24166 0.59961-0.46094a1.0001 1.0001 0 0 0 0.25976-0.9668c-0.15027-0.56086-0.3541-0.70194-0.64062-1.0312-0.28653-0.32932-0.65796-0.69117-1.1016-1.041-0.8872-0.6997-2.0641-1.3887-3.4512-1.3887z" stop-color="#000000" stroke-linecap="round" stroke-linejoin="round"/>
 <path id="path6" d="m10.68 8.2598c-0.85381 0.063948-1.5149 0.059718-2.1738 0.71875-0.56475 0.56475-0.81898 1.2917-0.99609 2.0996s-0.25196 1.7173-0.25781 2.6758c-0.011157 1.8261 0.25901 3.7871 0.66992 5.4199-1.0005 2.0609-1.283 5.0279-0.060547 7.8086 1.1256 2.5604 3.7113 4.6657 7.7812 5.2285-1.157 1.211-2.371 2.4246-3.332 3.8105-1.1243 1.6215-1.9527 3.3353-1.875 5.0449-0.39832 0.17999-0.8718 0.43359-1.3125 0.43359a1 1 0 0 0-1 1 1 1 0 0 0 1 1c1.5482 0 2.8711-0.89062 2.8711-0.89062a1.0001 1.0001 0 0 0 0.45703-1.1211c-0.26821-1.001 0.30596-2.6013 1.502-4.3262s2.9001-3.5173 4.3848-5.002a1.0001 1.0001 0 0 0-0.70703-1.707c-4.732 0-6.917-1.9542-7.9375-4.2754-1.0205-2.3212-0.66425-5.1813 0.09375-6.4941a1.0001 1.0001 0 0 0 0.099609-0.75781c-0.38997-1.4555-0.64525-3.4434-0.63477-5.1602 0.00524-0.85836 0.077448-1.6509 0.21094-2.2598 0.13349-0.6089 0.35554-1.0118 0.45703-1.1133-0.21676 0.21678 0.24205-0.08878 0.9082-0.13867 0.66616-0.04989 1.5659-0.01764 2.5176 0.12305 1.9033 0.28137 4.0082 1.0355 5.1426 2.1699a1 1 0 0 0 1.4141 0 1 1 0 0 0 0-1.416c-1.6478-1.6478-4.0922-2.4114-6.2637-2.7324-1.0857-0.1605-2.1052-0.20262-2.959-0.13867z" stop-color="#000000" stroke-linecap="round" stroke-linejoin="round"/>
 <path id="path7" d="m26.508 21.375a1.0001 1.0001 0 0 0-0.86523 0.5c-0.04286 0.07423-0.30861 0.36999-0.57422 0.5625-0.26561 0.19251-0.64818 0.24609-0.36914 0.24609a1 1 0 0 0-1 1 1 1 0 0 0 1 1c0.75024 0 1.1062-0.31036 1.543-0.62695 0.08368-0.06065 0.13615-0.1621 0.2168-0.22656 0.38696 0.31258 0.86819 0.54688 1.4688 0.54688a1 1 0 0 0 1-1 1 1 0 0 0-1-1c-0.21699 0-0.32708-0.11118-0.55273-0.50195a1.0001 1.0001 0 0 0-0.86719-0.5z" stop-color="#000000" stroke-linecap="round" stroke-linejoin="round"/>
 <path id="path8" d="m26.768 20.143a1 1 0 0 0-0.55469 0.18945l0.06445 0.04687a1 1 0 0 0-0.11719-0.02734 1 1 0 0 0-0.11719 0.03906l0.06055-0.05273a1 1 0 0 0-1.2227 0.26562 1 1 0 0 0 0.22266 1.3945l0.5293 0.38281a1.0001 1.0001 0 0 0 1.248-0.06055l0.48633-0.42969a1 1 0 0 0 0.08789-1.4121 1 1 0 0 0-0.6875-0.33594z" stop-color="#000000" stroke-linecap="round" stroke-linejoin="round"/>
 <path id="circle8" d="m19.824 19.449c-1.2308 0-2.25 1.0192-2.25 2.25s1.0192 2.25 2.25 2.25 2.25-1.0192 2.25-2.25-1.0192-2.25-2.25-2.25zm0 2c0.14992 0 0.25 0.10008 0.25 0.25s-0.10008 0.25-0.25 0.25-0.25-0.10008-0.25-0.25 0.10008-0.25 0.25-0.25z" stop-color="#000000" stroke-linecap="round" stroke-linejoin="round"/>
 <path id="circle9" d="m30.926 18.49c-1.2308 0-2.25 1.0192-2.25 2.25s1.0192 2.25 2.25 2.25 2.25-1.0192 2.25-2.25-1.0192-2.25-2.25-2.25zm0 2c0.14992 0 0.25 0.10008 0.25 0.25 0 0.14992-0.10008 0.25-0.25 0.25s-0.25-0.10008-0.25-0.25c0-0.14992 0.10008-0.25 0.25-0.25z" stop-color="#000000" stroke-linecap="round" stroke-linejoin="round"/>
 <path id="path9" d="m23.078 9.625a1 1 0 0 0-0.66406 1.248c0.31634 1.0366 0.42774 3.2031 0.42774 3.2031a1 1 0 0 0 1.0352 0.96484 1 1 0 0 0 0.96484-1.0332s-0.03916-2.1575-0.51562-3.7188a1 1 0 0 0-1.248-0.66406z" stop-color="#000000" stroke-linecap="round" stroke-linejoin="round"/>
 <path id="path10" d="m26.334 9.8184a1 1 0 0 0-0.76367 0.025391 1 1 0 0 0-0.5 1.3223c0.3132 0.6921 0.40855 2.0197 0.30859 2.7461a1 1 0 0 0 0.85352 1.127 1 1 0 0 0 1.127-0.85352c0.15085-1.0962 0.10941-2.5704-0.4668-3.8438a1 1 0 0 0-0.55859-0.52344z" stop-color="#000000" stroke-linecap="round" stroke-linejoin="round"/>
 <path id="path11" d="m19.984 10.334a1 1 0 0 0-0.85352 1.127c0.07278 0.52646 0.22724 1.21 0.39648 1.8633 0.16925 0.65333 0.31973 1.2014 0.50781 1.623a1 1 0 0 0 1.3203 0.50586 1 1 0 0 0 0.50586-1.3203c-0.040918-0.091735-0.24186-0.70612-0.39844-1.3105-0.15658-0.60442-0.30144-1.2722-0.35156-1.6348a1 1 0 0 0-1.127-0.85352z" stop-color="#000000" stroke-linecap="round" stroke-linejoin="round"/>
 <path id="path12" d="m38.395 20.449c-0.34639 8.08e-4 -0.69388 6e-3 -0.98633 0.01758-0.14622 0.0058-0.27795 0.01267-0.39844 0.02344-0.12049 0.01077-0.16683-0.01363-0.4375 0.08203a1 1 0 0 0-0.60938 1.2773 1 1 0 0 0 1.2754 0.60938c-0.20517 0.07251-0.1168 0.02934-0.05078 0.02344 0.06602-0.0059 0.17285-0.01259 0.29883-0.01758 0.25195-0.01 0.58504-0.01486 0.91406-0.01563 0.32902-7.67e-4 0.65728 0.0033 0.90625 0.0098 0.12448 0.0032 0.22834 0.0059 0.29688 0.0098 0.06853 0.0039 0.2124 0.05076-0.03516-0.01563a1 1 0 0 0 1.2246-0.70703 1 1 0 0 0-0.70508-1.2246c-0.29268-0.07848-0.26645-0.04297-0.36914-0.04883-0.10269-0.0059-0.2238-0.01008-0.36133-0.01367-0.27506-0.0072-0.6165-0.01057-0.96289-0.0098z" stop-color="#000000" stroke-linecap="round" stroke-linejoin="round"/>
 <path id="path13" d="m39.633 22.879c-0.33497 0.08977-0.96563 0.13826-1.5059 0.13477-0.54022-0.0035-1.1215-0.07309-1.0488-0.05859a1 1 0 0 0-1.1758 0.78516 1 1 0 0 0 0.78516 1.1758c0.3767 0.07509 0.79221 0.09355 1.4277 0.09766 0.63553 0.0041 1.3589-0.0219 2.0352-0.20312a1 1 0 0 0 0.70703-1.2246 1 1 0 0 0-1.2246-0.70703z" stop-color="#000000" stroke-linecap="round" stroke-linejoin="round"/>
 <path id="path14" d="m12.934 22.725s-1.0012 0.10748-2.1191 0.24805c-1.118 0.14057-2.2551 0.27962-2.9316 0.4668a1 1 0 0 0-0.69727 1.2305 1 1 0 0 0 1.2305 0.69726c0.24186-0.06692 1.5508-0.27215 2.6484-0.41016 1.0976-0.13801 2.084-0.24414 2.084-0.24414a1 1 0 0 0 0.88672-1.1016 1 1 0 0 0-1.1016-0.88672z" stop-color="#000000" stroke-linecap="round" stroke-linejoin="round"/>
 <path id="path15" d="m12.57 25.516c-0.68329 0.39449-2.5732 0.61968-3.5371 0.64648a1 1 0 0 0-0.9707 1.0273 1 1 0 0 0 1.0273 0.9707c1.0643-0.0296 3.0108-0.0636 4.4805-0.91211a1 1 0 0 0 0.36523-1.3672 1 1 0 0 0-1.3652-0.36523z" stop-color="#000000" stroke-linecap="round" stroke-linejoin="round"/>
 <path id="path16" d="m16.648 32.703c-0.20998-0.0073-0.42049-1.79e-4 -0.61523 0.0098-0.38949 0.01989-0.72656 0.05664-0.72656 0.05664a1 1 0 0 0-0.88281 1.1035 1 1 0 0 0 1.1035 0.88476s0.28994-0.03252 0.60938-0.04883c0.15972-0.0082 0.32399-0.0099 0.44141-0.0059 0.11742 0.0041 0.22604 0.0549 0.04687-0.01758a1 1 0 0 0 1.3008-0.55272 1 1 0 0 0-0.55078-1.3027c-0.34332-0.13888-0.51658-0.11969-0.72656-0.12695z" stop-color="#000000" stroke-linecap="round" stroke-linejoin="round"/>
 <path id="path17" d="m14.885 35.572c-0.62054-0.06325-1.2907-0.08736-1.8965 0.0098a1 1 0 0 0-0.82812 1.1445 1 1 0 0 0 1.1445 0.83008c0.27361-0.04387 0.8828-0.04646 1.377 0.0039 0.24708 0.02519 0.47316 0.06271 0.61719 0.0957s0.2672 0.21633-0.06055-0.09961a1 1 0 0 0 1.4121-0.02539 1 1 0 0 0-0.02539-1.4141c-0.44295-0.42699-0.61669-0.35008-0.87891-0.41016-0.26222-0.06007-0.55106-0.10314-0.86133-0.13476z" stop-color="#000000" stroke-linecap="round" stroke-linejoin="round"/>
 <path id="path18" d="m13.145 38.891c-0.72747 0.03943-1.3985 0.08493-1.9688 0.25391a1 1 0 0 0-0.67383 1.2422 1 1 0 0 0 1.2422 0.67578c0.10639-0.03153 0.85601-0.14034 1.5098-0.17578 0.65376-0.03544 1.4371 0.01833 1.3535 0a1 1 0 0 0 1.1914-0.76172 1 1 0 0 0-0.76172-1.1914c-0.60652-0.13293-1.1651-0.0824-1.8926-0.04297z" stop-color="#000000" stroke-linecap="round" stroke-linejoin="round"/>
</svg>
