<?xml version="1.0" encoding="UTF-8"?>
<svg id="b" version="1.1" viewBox="0 0 48 48" xmlns="http://www.w3.org/2000/svg">
 <defs id="defs4">
  <style id="style2">.c{fill:none;stroke:#000;stroke-width:2px;stroke-linecap:round;stroke-linejoin:round;}</style>
 </defs>
 <path id="rect6" d="m3.5 19.051a1.0001 1.0001 0 0 0-1 1v7.8984a1.0001 1.0001 0 0 0 1 1h41a1.0001 1.0001 0 0 0 1-1v-7.8984a1.0001 1.0001 0 0 0-1-1zm1 2h39v5.8984h-39z" color="#000000" stroke-linecap="round" stroke-linejoin="round" style="-inkscape-stroke:none"/>
 <path id="line8" d="m9.4648 19.051a1 1 0 0 0-1 1v7.8984a1 1 0 0 0 1 1 1 1 0 0 0 1-1v-7.8984a1 1 0 0 0-1-1z" color="#000000" stroke-linecap="round" stroke-linejoin="round" style="-inkscape-stroke:none"/>
 <path id="line10" d="m15.43 19.051a1 1 0 0 0-1 1v7.8984a1 1 0 0 0 1 1 1 1 0 0 0 1-1v-7.8984a1 1 0 0 0-1-1z" color="#000000" stroke-linecap="round" stroke-linejoin="round" style="-inkscape-stroke:none"/>
 <path id="line12" d="m21.395 19.051a1 1 0 0 0-1 1v7.8984a1 1 0 0 0 1 1 1 1 0 0 0 1-1v-7.8984a1 1 0 0 0-1-1z" color="#000000" stroke-linecap="round" stroke-linejoin="round" style="-inkscape-stroke:none"/>
</svg>
