<?xml version="1.0" encoding="UTF-8"?>
<svg id="b" version="1.1" viewBox="0 0 48 48" xmlns="http://www.w3.org/2000/svg">
 <defs id="defs4">
  <style id="style2">.c{fill:none;stroke:#000;stroke-width:2px;stroke-linecap:round;stroke-linejoin:round;}</style>
 </defs>
 <path id="path6" d="m26.979 4.7773c-0.28137-0.085486-0.7095-0.17695-1.1641 0.13086s-0.532 0.82042-0.52344 1.0977c0.01713 0.55448 0.19162 0.90126 0.36914 1.3418 0.35505 0.88107 0.82792 1.9628 0.90234 2.459 0.17821 1.1881 0.93816 1.9955 1.5117 2.668 0.57356 0.67245 0.86914 1.2472 0.86914 1.2246 0-0.07243 0.05543-0.08945-0.10352 0.05664-0.15894 0.14609-0.48457 0.36353-0.88867 0.60742-0.8082 0.48779-1.9338 1.0972-2.8145 2.1445-1.2347 1.4682-2.9468 2.7221-4.1582 3.3066-1.1419-0.46744-2.1676-1.1832-3.3867-1.9492-1.3427-0.84372-2.9721-1.6348-5.1465-1.6348-2.1711 0-3.762 0.79577-4.832 1.8086-1.07 1.0128-1.6644 2.1993-2.1113 2.9629-0.095957 0.16392-0.68918 0.64325-1.2617 0.94141-0.57254 0.29816-1.0781 0.48047-1.0781 0.48047a1.0001 1.0001 0 0 0-0.36914 0.23242v2e-3a1.0001 1.0001 0 0 0 0.19336 1.5645s0.59887 0.36001 1.2539 0.91406c0.65504 0.55405 1.2926 1.3243 1.4219 1.7969 0.2053 0.75054 0.29682 2.0494 0.96289 3.2715s2.1 2.2305 4.2969 2.2305c3.8336 0 5.5783-0.70264 8.334-1.9902 0.87637 0.26846 1.8012 0.40042 2.8848 0.61328 1.2676 0.24902 2.6379 0.63123 3.9375 1.4414 1.1144 0.69469 2.4304 1.1193 3.3613 1.5098 0.38878 0.16309 0.63178 0.30401 0.79883 0.41211-0.24268 0.59204-0.5889 1.1361-1.0371 1.7305-0.514 0.6816-1.1162 1.4636-1.2793 2.5508-0.08668 0.57788-0.44924 1.4869-0.68945 2.2734-0.12011 0.39327-0.28178 0.71682-0.15039 1.3242 0.06569 0.3037 0.35151 0.741 0.74414 0.90039s0.70994 0.10029 0.97266 0.0293a1.0001 1.0001 0 0 0 2e-3 0c2.0143-0.54442 3.3462-2.491 4.5371-4.3379 0.59545-0.92345 1.1306-1.8464 1.5938-2.6055 0.46315-0.75908 0.89472-1.3705 1.0723-1.543 0.48683-0.4729 2.2148-1.6031 3.7988-2.9902 1.4086-1.2335 2.6838-2.8195 3.1191-4.7285 0.84083-0.27952 1.5097-0.79632 1.875-1.3242 0.46463-0.67154 0.66011-1.3262 0.66011-1.3262a1.0001 1.0001 0 0 0 0-0.58008s-0.19547-0.65665-0.66016-1.3281c-0.3511-0.50735-0.9895-0.99618-1.7793-1.2891-0.44436-1.992-1.9836-3.5737-3.5508-4.8496-1.7359-1.4133-3.6332-2.5991-4.0781-3.0312-0.48451-0.47064-1.9301-2.4249-3.4609-4.2637-1.5309-1.8388-3.0885-3.6904-4.9492-4.2559zm0.95312 3.0078c0.77604 0.67901 1.6394 1.5429 2.459 2.5273 1.4715 1.7676 2.7148 3.5547 3.6035 4.418 0.9283 0.90173 2.6217 1.8546 4.2109 3.1484 1.5892 1.2939 2.8715 2.8095 2.9844 4.1074a1.0001 1.0001 0 0 0 0.92578 0.91016c0.4466 0.03116 0.76614 0.31744 1.0371 0.70898 0.16922 0.24452 0.18535 0.33519 0.24414 0.48047-0.05892 0.14541-0.07548 0.23479-0.24414 0.47852-0.27095 0.39154-0.59044 0.67587-1.0371 0.70703a1.0001 1.0001 0 0 0-0.92578 0.91211c-0.11763 1.3531-1.2717 2.8093-2.7051 4.0645-1.4334 1.2552-2.9886 2.1995-3.875 3.0605-0.50906 0.49449-0.90384 1.1473-1.3848 1.9355-0.48093 0.78822-1.0064 1.6929-1.5684 2.5645-0.6997 1.0851-1.4563 1.9462-2.1699 2.5996 0.16192-0.47296 0.33228-0.86302 0.41406-1.4082 0.07232-0.48212 0.39889-0.98209 0.89844-1.6445s1.1447-1.4669 1.498-2.584c0.11232-0.35496 0.08154-0.79074-0.06641-1.1133-0.14795-0.32254-0.36421-0.53922-0.58008-0.71289-0.43173-0.34734-0.91383-0.55963-1.4375-0.7793-1.0473-0.43934-2.2765-0.86477-3.0762-1.3633-1.5954-0.99452-3.2308-1.4362-4.6094-1.707-1.3786-0.27083-2.5437-0.41848-3.0098-0.60742a1.0001 1.0001 0 0 0-0.80078 0.02344c-2.9592 1.3914-4.0185 1.9238-7.7949 1.9238-1.6873 0-2.153-0.47556-2.541-1.1875-0.38803-0.71194-0.50256-1.7944-0.78906-2.8418-0.34091-1.2461-1.268-2.1282-2.0586-2.7969-0.044735-0.03784-0.041715-0.0262-0.085937-0.0625 0.63806-0.34367 1.3265-0.76163 1.7793-1.5352 0.49466-0.84512 0.99756-1.7962 1.7617-2.5195 0.76416-0.7233 1.7439-1.2617 3.457-1.2617 1.7098 0 2.8667 0.56323 4.084 1.3281 1.2173 0.7649 2.4539 1.7667 4.1465 2.3457a1.0001 1.0001 0 0 0 0.69922-0.019531c1.7002-0.68922 3.7325-2.2342 5.293-4.0898 0.57092-0.67895 1.467-1.2061 2.3164-1.7188 0.42472-0.25634 0.83704-0.50578 1.209-0.84766 0.37195-0.34188 0.75-0.86837 0.75-1.5293 0-1.1996-0.78341-1.86-1.3477-2.5215-0.56424-0.66153-0.99945-1.2867-1.0566-1.668-0.095392-0.63594-0.36879-1.1541-0.60742-1.7246z" color="#000000" stroke-linecap="round" stroke-linejoin="round" style="-inkscape-stroke:none"/>
 <path id="circle8" d="m33.945 16.379c-3.8457 0-6.9844 3.1406-6.9844 6.9863s3.1387 6.9844 6.9844 6.9844c3.8457 0 6.9844-3.1387 6.9844-6.9844s-3.1387-6.9863-6.9844-6.9863zm0 2c2.7648 0 4.9844 2.2215 4.9844 4.9863 0 2.7648-2.2196 4.9844-4.9844 4.9844-2.7648 0-4.9844-2.2196-4.9844-4.9844 0-2.7648 2.2196-4.9863 4.9844-4.9863z" color="#000000" stroke-linecap="round" stroke-linejoin="round" style="-inkscape-stroke:none"/>
 <path id="circle10" d="m34.814 19.58c-2.0777 0-3.7852 1.7074-3.7852 3.7852 0 2.0777 1.7074 3.7832 3.7852 3.7832 2.0777 0 3.7832-1.7055 3.7832-3.7832 0-2.0777-1.7055-3.7852-3.7832-3.7852zm0 2c0.99684 0 1.7832 0.78831 1.7832 1.7852 0 0.99684-0.78636 1.7832-1.7832 1.7832-0.99684 0-1.7852-0.78636-1.7852-1.7832 0-0.99684 0.78831-1.7852 1.7852-1.7852z" color="#000000" stroke-linecap="round" stroke-linejoin="round" style="-inkscape-stroke:none"/>
 <path id="line12" d="m25.961 22.365a1 1 0 0 0-1 1 1 1 0 0 0 1 1h1.832a1 1 0 0 0 1-1 1 1 0 0 0-1-1z" color="#000000" stroke-linecap="round" stroke-linejoin="round" style="-inkscape-stroke:none"/>
 <path id="path14" d="m22.658 22.242a1 1 0 0 0-1.3691 0.35156c-0.49599 0.83949-0.41742 1.7046-0.10156 2.4629a1 1 0 0 0 1.3066 0.53906 1 1 0 0 0 0.53906-1.3086c-0.07634-0.18327-0.03745-0.65207-0.02344-0.67578a1 1 0 0 0-0.35156-1.3691z" color="#000000" stroke-linecap="round" stroke-linejoin="round" style="-inkscape-stroke:none"/>
 <path id="path16" d="m20.361 22.643a1 1 0 0 0-1.3418 0.44727c-0.40889 0.81853-0.33914 1.6176-0.08203 2.3477a1 1 0 0 0 1.2754 0.61133 1 1 0 0 0 0.61133-1.2754c-0.07449-0.21153-0.03794-0.74635-0.01563-0.79102a1 1 0 0 0-0.44727-1.3398z" color="#000000" stroke-linecap="round" stroke-linejoin="round" style="-inkscape-stroke:none"/>
 <path id="path18" d="m18.051 23.008a1 1 0 0 0-1.1895 0.76562c-0.08745 0.40336-0.0682 0.70428-0.01758 1.0352a1 1 0 0 0 1.1406 0.83594 1 1 0 0 0 0.83594-1.1387c-0.01097-0.07173 0.0035-0.34295-0.0039-0.30859a1 1 0 0 0-0.76562-1.1895z" color="#000000" stroke-linecap="round" stroke-linejoin="round" style="-inkscape-stroke:none"/>
 <path id="path20" d="m20.576 20.051c-1.0294 0.47908-4.2617 1.0817-7.4375 1.3828-3.1758 0.3011-6.4895 0.35893-7.8223 0.15039a1 1 0 0 0-1.1426 0.83398 1 1 0 0 0 0.83398 1.1426c1.8192 0.28466 5.0502 0.17509 8.3184-0.13477 3.2682-0.30985 6.3775-0.76182 8.0938-1.5605a1 1 0 0 0 0.48438-1.3281 1 1 0 0 0-1.3281-0.48633z" color="#000000" stroke-linecap="round" stroke-linejoin="round" style="-inkscape-stroke:none"/>
 <path id="path22" d="m4.5391 23.084a1 1 0 0 0-1.0078 0.99414 1 1 0 0 0 0.99414 1.0059c1.2759 0.0081 4.0429 1.0087 6.7871 2.1992 2.7442 1.1905 5.5262 2.5242 7.5586 3.0957a1 1 0 0 0 1.2344-0.69336 1 1 0 0 0-0.69336-1.2324c-1.6883-0.47472-4.5196-1.7957-7.3047-3.0039-2.7851-1.2082-5.4616-2.3518-7.5684-2.3652z" color="#000000" stroke-linecap="round" stroke-linejoin="round" style="-inkscape-stroke:none"/>
</svg>
