<?xml version="1.0" encoding="UTF-8"?>
<svg id="a" version="1.1" viewBox="0 0 48 48" xmlns="http://www.w3.org/2000/svg">
 <defs id="defs4">
  <style id="style2">.c{fill:none;stroke:#000;stroke-width:2px;stroke-linecap:round;stroke-linejoin:round;}</style>
 </defs>
 <path id="line6" d="m18.811 27.088a1 1 0 0 0-1 1v4.0879a1 1 0 0 0 1 1 1 1 0 0 0 1-1v-4.0879a1 1 0 0 0-1-1z" color="#000000" stroke-linecap="round" stroke-linejoin="round" style="-inkscape-stroke:none"/>
 <path id="polyline8" d="m23.447 17.096-9.0625 6.0742a1.0001 1.0001 0 0 0-0.41992 0.60938l-1.3867 6.1328a1.0001 1.0001 0 0 0-0.0098 0.39062l1.3867 8.0469a1 1 0 0 0 1.1562 0.81641 1 1 0 0 0 0.81445-1.1562l-1.3535-7.8516 1.2559-5.5488 8.7324-5.8535a1 1 0 0 0 0.27344-1.3867 1 1 0 0 0-1.3867-0.27344z" color="#000000" stroke-linecap="round" stroke-linejoin="round" style="-inkscape-stroke:none"/>
 <path id="line10" d="m12.035 15.408a1 1 0 0 0-1 1v2.9199a1 1 0 0 0 1 1 1 1 0 0 0 1-1v-2.9199a1 1 0 0 0-1-1z" color="#000000" stroke-linecap="round" stroke-linejoin="round" style="-inkscape-stroke:none"/>
 <path id="polygon12" d="m24 2.5a1.0001 1.0001 0 0 0-0.73242 0.32031l-2.3867 2.5684a1.0001 1.0001 0 0 0-0.26758 0.68164v4.3301l-1.0801 0.93164a1.0001 1.0001 0 0 0-0.12109-0.3418l-1.459-1.8105a1.0001 1.0001 0 0 0-1.5898 0.044922l-1.3438 1.8691a1.0001 1.0001 0 0 0-0.1875 0.58203v3.709l-3.4746 3.209a1.0001 1.0001 0 0 0-0.32227 0.73438v2.5039l-2.8555 7.5371a1.0001 1.0001 0 0 0-0.00391 0.69922l2.1602 5.8984a1.0001 1.0001 0 0 0 0.36719 0.47656l12.725 8.877a1.0001 1.0001 0 0 0 1.1445 0l12.725-8.877a1.0001 1.0001 0 0 0 0.36719-0.47656l2.1602-5.8984a1.0001 1.0001 0 0 0-0.0039-0.69922l-2.8555-7.5371v-2.5039a1.0001 1.0001 0 0 0-0.32227-0.73438l-3.4746-3.209v-3.709a1.0001 1.0001 0 0 0-0.1875-0.58203l-1.3438-1.8691a1.0001 1.0001 0 0 0-1.5898-0.044922l-1.459 1.8105a1.0001 1.0001 0 0 0-0.12109 0.3418l-1.0801-0.93164v-4.3301a1.0001 1.0001 0 0 0-0.26758-0.68164l-2.3867-2.5684a1.0001 1.0001 0 0 0-0.73242-0.32031zm0 2.4688 1.3867 1.4941v4.3965a1.0001 1.0001 0 0 0 0.34766 0.75586l2.9785 2.5703a1.0001 1.0001 0 0 0 1.6523-0.75586v-1.459l0.41406-0.51367 0.38867 0.54102v3.8262a1.0001 1.0001 0 0 0 0.32226 0.73438l3.4746 3.207v2.248a1.0001 1.0001 0 0 0 0.06445 0.35547l2.7891 7.3594-1.9238 5.2539-11.895 8.2988-11.895-8.2988-1.9238-5.2539 2.7891-7.3594a1.0001 1.0001 0 0 0 0.06445-0.35547v-2.248l3.4746-3.207a1.0001 1.0001 0 0 0 0.32226-0.73438v-3.8262l0.38867-0.54102 0.41406 0.51367v1.459a1.0001 1.0001 0 0 0 1.6523 0.75586l2.9785-2.5703a1.0001 1.0001 0 0 0 0.34766-0.75586v-4.3965z" color="#000000" stroke-linecap="round" stroke-linejoin="round" style="-inkscape-stroke:none"/>
 <path id="line14" d="m29.189 27.088a1 1 0 0 0-1 1v4.0879a1 1 0 0 0 1 1 1 1 0 0 0 1-1v-4.0879a1 1 0 0 0-1-1z" color="#000000" stroke-linecap="round" stroke-linejoin="round" style="-inkscape-stroke:none"/>
 <path id="polyline16" d="m24.553 17.096a1 1 0 0 0-1.3867 0.27344 1 1 0 0 0 0.27344 1.3867l8.7324 5.8535 1.2559 5.5488-1.3535 7.8516a1 1 0 0 0 0.81445 1.1562 1 1 0 0 0 1.1562-0.81641l1.3867-8.0469a1.0001 1.0001 0 0 0-0.0098-0.39062l-1.3867-6.1328a1.0001 1.0001 0 0 0-0.41992-0.60938z" color="#000000" stroke-linecap="round" stroke-linejoin="round" style="-inkscape-stroke:none"/>
 <path id="line18" d="m35.965 15.408a1 1 0 0 0-1 1v2.9199a1 1 0 0 0 1 1 1 1 0 0 0 1-1v-2.9199a1 1 0 0 0-1-1z" color="#000000" stroke-linecap="round" stroke-linejoin="round" style="-inkscape-stroke:none"/>
</svg>
