<?xml version="1.0" encoding="UTF-8"?>
<svg id="svg30" version="1.1" viewBox="0 0 48 48" xmlns="http://www.w3.org/2000/svg">
 <defs id="defs4">
  <style id="style2">.d{fill:none;stroke:#000;stroke-width:2px;stroke-linecap:round;stroke-linejoin:round;}.c{fill:#000;stroke-width:0px;}</style>
 </defs>
 <path id="path6" d="m24.49 5.3203c-0.14692-0.011457-0.29497-0.00809-0.44141 0.00977a1.0001 1.0001 0 0 0-0.0039 0l-18.115 2.2832c-1.1922 0.14651-2.0606 1.2569-1.9141 2.4492a1.0001 1.0001 0 0 0 0.00195 0.01172c-0.00372-0.02728-0.00338-0.02363 0.00195 0.01367l3.2227 25.574c0.14896 1.1913 1.2575 2.0556 2.4492 1.9082a1.0001 1.0001 0 0 0 0.00977 0v-2e-3l7.3809-0.92969-0.0332 0.18555c-0.21366 1.1818 0.58968 2.3418 1.7715 2.5566l17.969 3.2695c1.1814 0.21534 2.3369-0.58338 2.5547-1.7637 1.54e-4 -6.64e-4 0.0017-0.0067 2e-3 -0.0078l4.6172-25.373v-2e-3c0.16932-0.91469-0.37035-1.6834-1.127-2.1445a1 1 0 0 0-0.61523-0.4043c-0.0049-9.59e-4 -0.0068-0.0069-0.01172-0.0078-8.95e-4 -1.5e-4 -0.01202-0.0016-0.0039 0a1 1 0 0 0-0.0039 0 1 1 0 0 0-0.0078-2e-3l-15.322-2.787-0.36719-2.916v-0.00195c-0.12766-1.0249-0.97003-1.8244-1.998-1.9121a1.0001 1.0001 0 0 0-0.01172-0.00781c-0.0013-1.036e-4 -0.0026 1.013e-4 -0.0039 0zm-0.19922 1.9941c0.01466-0.00179 0.03012-0.00118 0.04492 0a1.0001 1.0001 0 0 0 2e-3 0c0.10021 0.0077 0.16928 0.073935 0.18164 0.17383a1.0001 1.0001 0 0 0 0 0.00195l0.28906 2.293-0.58008-0.10742h-0.0039a1.0001 1.0001 0 0 0-0.0098-0.00195c-1.183-0.21153-2.3373 0.5923-2.5488 1.7754l-1.2617 6.9277c-0.54134-0.09934-1.1029-0.09782-1.6543 0.06641-0.65432 0.19488-1.2148 0.67416-1.6934 1.2715-0.72687-0.54145-1.4851-0.92537-2.2461-0.96875-1.1083-0.06317-2.1232 0.40408-2.8027 1.1523-1.359 1.4965-1.3048 4.2037 0.92383 5.9238l4.418 3.4258a1.0001 1.0001 0 0 0 1.1016-0.13672l-0.99414 5.4648-8.0078 1.0098a1.0001 1.0001 0 0 0-0.00391 0c-0.12014 0.01486-0.2039-0.05179-0.21875-0.17188a1.0001 1.0001 0 0 0 0-2e-3l-3.2246-25.59a1.0001 1.0001 0 0 0 0-0.00391c-0.014682-0.11947 0.050373-0.20406 0.16992-0.21875a1.0001 1.0001 0 0 0 0.00391-0.00195zm-0.42774 4.3281a1.0001 1.0001 0 0 0 2e-3 0l1.9238 0.35156a1 1 0 0 0 2e-3 2e-3l16.033 2.9141c0.02345 0.0045 0.02702 0.0053 0.0098 2e-3h2e-3a1.0001 1.0001 0 0 0 0.0039 2e-3c0.11731 0.02183 0.17808 0.10923 0.15625 0.22656a1.0001 1.0001 0 0 0 0 0.0039l-4.6152 25.361a1.0001 1.0001 0 0 0-0.0039 0.01758c-0.02177 0.11939-0.11097 0.18194-0.23047 0.16016l-17.967-3.2697a1.0001 1.0001 0 0 0-2e-3 0c-0.12485-0.02259-0.18279-0.10724-0.16016-0.23242l0.27539-1.5254 1.7734-9.7363a1.0001 1.0001 0 0 0-2e-3 -0.0039l1.0957-6.0234a1.0001 1.0001 0 0 0 2e-3 -2e-3l1.4727-8.0859a1.0001 1.0001 0 0 0 0-2e-3c0.02126-0.1189 0.10956-0.18143 0.22852-0.16016zm-4.543 8.7168c0.23241-0.06922 0.46241 0.05961 0.70508 0.10352l-0.88281 4.8555-1.3555 1.7383-3.6309-2.8164a1.0001 1.0001 0 0 0-2e-3 -2e-3c-1.5226-1.1752-1.2753-2.3233-0.66602-2.9941 0.30463-0.33544 0.71664-0.53002 1.209-0.50195 0.49235 0.02806 1.1231 0.28048 1.8262 1.0898a1.0001 1.0001 0 0 0 1.6953-0.3125c0.2695-0.73715 0.66754-1.0309 1.1016-1.1602z" color="#000000" stroke-linecap="round" stroke-linejoin="round" style="-inkscape-stroke:none"/>
 <path id="path8" d="m31.184 19.213c-0.6059 0.15836-1.1947 0.49234-1.6875 1.0039-1.9041 1.9783-3.3992 4.8808-3.8066 7.623-0.18701 1.2558-0.09877 2.8656 1.0703 3.9551 1.5609 1.4563 4.0708 2.048 6.0742 1.0293 0.74232-0.37794 1.155-1.047 1.4004-1.6641s0.35588-1.2357 0.44531-1.7344c0.214-1.1998 0.03201-2.6271-0.16016-3.8457-0.18431-1.1687-0.39212-2.0318-0.41016-2.1074-0.02283-0.23386-0.0279-0.25275-0.04297-0.44922a1.0001 1.0001 0 0 0 1.0605-1.0527c-0.15595-1.3003-1.0289-2.334-2.1523-2.7109-0.56171-0.18845-1.1851-0.20523-1.791-0.04687zm0.5 1.9121c0.23477-0.06091 0.45354-0.0361 0.6543 0.03125 0.02286 0.0077 0.02255 0.05154 0.04492 0.06055-0.19787 0.2221-0.29 0.4589-0.33398 0.65234-0.18288 0.8042 0.02446 1.36 0.07422 1.8496a1.0001 1.0001 0 0 0 0.02344 0.13281s0.21778 0.90777 0.39648 2.041c0.17871 1.1333 0.28547 2.5229 0.16797 3.1816-0.08637 0.48157-0.19021 0.97924-0.33594 1.3457s-0.30239 0.54733-0.44727 0.62109c-0.97773 0.49713-2.9201 0.11452-3.8027-0.70898-0.37512-0.34956-0.58122-1.3633-0.45703-2.1973 0.32849-2.2131 1.6996-4.9002 3.2695-6.5312 0.26164-0.27163 0.51132-0.41761 0.74609-0.47852z" color="#000000" stroke-linecap="round" stroke-linejoin="round" style="-inkscape-stroke:none"/>
 <path id="path10" d="m26.807 21.811c-0.66212 0.13414-1.2309 0.44664-1.6465 0.90039-0.83118 0.9075-1.1577 2.0872-1.4863 3.2656a1.0001 1.0001 0 0 0 1.4844 1.1211c0.6425-0.39313 1.1564-0.87012 1.5449-1.1113 0.19428-0.1206 0.34184-0.1722 0.40039-0.18164 0.05856-0.0094 0.02352-0.02062 0.08594 0.01758a1 1 0 0 0 1.375-0.33008 1 1 0 0 0-0.33008-1.375c-0.39893-0.24414-0.86909-0.2897-1.2891-0.25586 0.27678-0.18407 0.60883-0.25683 1.4336 0.01758a1 1 0 0 0 1.2637-0.63281 1 1 0 0 0-0.63281-1.2637c-0.78671-0.26175-1.541-0.30601-2.2031-0.17188z" color="#000000" stroke-linecap="round" stroke-linejoin="round" style="-inkscape-stroke:none"/>
 <path id="path12" d="m33.314 22.754a1 1 0 0 0-0.88086 1.1074 1 1 0 0 0 1.1055 0.87891c0.22545-0.02565 0.2827 0.1506 0.42774 0.19531-0.44923 0.15845-0.83982 0.3958-1.123 0.7793a1 1 0 0 0 0.21094 1.3984 1 1 0 0 0 1.3047-0.15234c0.16868 0.2711 0.36466 0.68803 0.88281 1.1777a1.0001 1.0001 0 0 0 1.6797-0.59961c0.16058-1.2686-0.0201-2.4637-0.62891-3.3984-0.60881-0.9347-1.7531-1.5262-2.9785-1.3867z" color="#000000" stroke-linecap="round" stroke-linejoin="round" style="-inkscape-stroke:none"/>
 <path id="path14" d="m27.652 30.338c-1.4068-0.07073-2.4707 0.0074-3.3301 0.24023-0.8594 0.23285-1.5345 0.65466-1.9609 1.2168-0.85285 1.1243-0.67072 2.376-0.74023 3.1719a1.0001 1.0001 0 0 0 1.2773 1.0469c0.6763-0.19802 1.1251-0.47662 1.5078-0.63086 0.03297-0.01329 0.08669-0.0033 0.11914-0.01563-0.04956 0.20852-0.14535 0.41571-0.17383 0.625-0.0972 0.71443-0.05895 1.5208 0.45703 2.1816a1.0001 1.0001 0 0 0 1.0742 0.3418c1.2561-0.37437 2.0695-1.0871 2.7812-1.8008 0.59606 1.1634 1.3022 2.2919 2.6562 2.7578a1.0001 1.0001 0 0 0 1.2109-0.48047c0.24693-0.471 0.4273-0.80266 0.54297-1.2871 0.04702-0.19692 0.096-0.64695 0.13476-0.9043 0.27414 0.24223 0.54587 0.55052 0.70312 0.83789a1.0001 1.0001 0 0 0 1.7051 0.08008c0.6831-1.0088 1.0422-1.8685 1.0508-2.7148 0.0086-0.84629-0.42247-1.5774-0.91992-2.0332-0.9949-0.91151-2.1958-1.2901-2.6152-1.6953a1 1 0 0 0-1.4141 0.02539 1 1 0 0 0 0.02539 1.4141c0.98225 0.94896 2.2004 1.3164 2.6523 1.7305 0.22599 0.20704 0.27406 0.28256 0.27148 0.53711-5.28e-4 0.05204-0.12983 0.2546-0.14453 0.33008-0.05382-0.04729-0.07876-0.115-0.13476-0.16016-0.53268-0.42945-1.1741-0.78184-1.9492-0.80078a1.0001 1.0001 0 0 0-1.0176 0.86914c-0.127 0.96542-0.17956 1.3159-0.23633 1.6328-0.45704-0.54186-0.91127-1.26-1.3691-2.2266a1.0001 1.0001 0 0 0-1.6113-0.27734c-0.64674 0.64875-1.1967 1.1746-1.7852 1.6074 0.08462-0.40844 0.20379-0.86269 0.4043-1.4043a1.0001 1.0001 0 0 0-0.8418-1.3418c-0.88032-0.08572-1.5484 0.087-2.1055 0.28711 0.03564-0.12033 0.01859-0.41566 0.07813-0.49414 0.12888-0.16989 0.33556-0.34623 0.88867-0.49609 0.55311-0.14986 1.4327-0.238 2.709-0.17383a1 1 0 0 0 1.0488-0.94726 1 1 0 0 0-0.94922-1.0488z" color="#000000" stroke-linecap="round" stroke-linejoin="round" style="-inkscape-stroke:none"/>
 <path id="path16" d="m27.631 28.439a1 1 0 0 0-0.15039 1.4062c0.62988 0.77887 1.411 1.3321 2.3047 1.4883 0.89365 0.15623 1.8093-0.1126 2.6094-0.64453a1 1 0 0 0 0.2793-1.3848 1 1 0 0 0-1.3867-0.2793c-0.49644 0.33007-0.84802 0.39212-1.1582 0.33789-0.31018-0.05422-0.67068-0.25271-1.0918-0.77344a1 1 0 0 0-1.4062-0.15039z" color="#000000" stroke-linecap="round" stroke-linejoin="round" style="-inkscape-stroke:none"/>
 <path id="path18" class="c" d="M29.8364,27.3623c0,.4142-.3358.75-.75.75s-.75-.3358-.75-.75.3358-.75.75-.75.75.3358.75.75Z"/>
 <path id="path20" class="c" d="M32.1779,27.716c0,.4142-.3358.75-.75.75s-.75-.3358-.75-.75.3358-.75.75-.75h0c.4142,0,.75.3358.75.75h0Z"/>
 <path id="path22" d="m29.578 24.373c-0.81805 0.12541-1.7096 0.45825-2.6602 1.0117a1 1 0 0 0-0.35938 1.3672 1 1 0 0 0 1.3672 0.36133c1.5944-0.92835 2.4647-0.93084 3.1074-0.66211s1.2455 0.99225 1.834 2.0098a1 1 0 0 0 1.3672 0.36524 1 1 0 0 0 0.36328-1.3672c-0.66347-1.1471-1.4671-2.2972-2.793-2.8516-0.66294-0.2772-1.4085-0.35979-2.2266-0.23438z" color="#000000" stroke-linecap="round" stroke-linejoin="round" style="-inkscape-stroke:none"/>
 <path id="path24" d="m29.186 12.389a1 1 0 0 0-1.1602 0.80859l-1.0625 5.9707c-0.09937 0.55743-0.62808 0.92555-1.1855 0.82617-0.55743-0.09937-0.92555-0.62808-0.82617-1.1855l0.125-0.69531a1 1 0 0 0-0.80859-1.1602 1 1 0 0 0-1.1602 0.80859l-0.125 0.69531c-0.29082 1.6313 0.81199 3.215 2.4434 3.5059 1.6313 0.29082 3.215-0.81394 3.5059-2.4453l1.0625-5.9688a1 1 0 0 0-0.80859-1.1602z" color="#000000" stroke-linecap="round" stroke-linejoin="round" style="-inkscape-stroke:none"/>
 <path id="path26" d="m11.867 13.691-3.5977 0.53906a1 1 0 0 0-0.83984 1.1367 1 1 0 0 0 1.1367 0.8418l3.5977-0.53906a1 1 0 0 0 0.83984-1.1387 1 1 0 0 0-1.1367-0.83984z" color="#000000" stroke-linecap="round" stroke-linejoin="round" style="-inkscape-stroke:none"/>
 <path id="path28" d="m9.2754 8.6641a1.0001 1.0001 0 0 0-0.83594 0.8125l-1.5 8.4004a1 1 0 0 0 0.80664 1.1602 1 1 0 0 0 1.1621-0.80859l0.97852-5.4824 2.543 4.9551a1 1 0 0 0 1.3457 0.43164 1 1 0 0 0 0.43359-1.3457l-3.8965-7.5918a1.0001 1.0001 0 0 0-1.0371-0.53125z" color="#000000" stroke-linecap="round" stroke-linejoin="round" style="-inkscape-stroke:none"/>
</svg>
