<?xml version="1.0" encoding="UTF-8"?>
<svg id="svg9" version="1.1" viewBox="0 0 48 48" xmlns="http://www.w3.org/2000/svg">
 <defs id="defs1">
  <style id="style1">.a{fill:none;stroke:#000;stroke-width:2px;stroke-linecap:round;stroke-linejoin:round;}</style>
 </defs>
 <path id="path1" d="m24.52 7.0352a1.0001 1.0001 0 0 0-0.76172 0.00195c-3.7391 1.5504-7.5345 3.4198-11.459 3.3828a1.0001 1.0001 0 0 0-1.0098 1v9.2695a1.0001 1.0001 0 0 0 2e-3 0.01172c0.08175 7.1841 1.8181 12 4.2461 15.432 2.428 3.4313 5.5004 5.4497 8.084 7.1953a1.0001 1.0001 0 0 0 1.1895-0.05078c2.177-1.7658 5.1448-3.6201 7.5488-6.9609s4.1797-8.1458 4.1797-15.676v-9.2012a1.0001 1.0001 0 0 0-1-1c-3.6867 0-7.0485-1.7793-11.02-3.4043zm-0.38281 2.0059c3.4012 1.4183 6.6704 3.023 10.402 3.291v8.3086c0 7.22-1.6518 11.519-3.8027 14.508-1.9734 2.7424-4.3978 4.3894-6.582 6.0996-2.4263-1.6437-4.9665-3.4171-6.9863-6.2715-2.1806-3.0818-3.7988-7.4186-3.8789-14.287v-8.3672c3.9892-0.23342 7.5805-1.9059 10.848-3.2813z" stop-color="#000000" stroke-linecap="round" stroke-linejoin="round"/>
 <path id="path2" d="m23.846 13.338c-2.1983 0.77802-4.4612 1.3547-6.7637 1.7246a1.0001 1.0001 0 0 0-0.83984 0.93164c-0.48489 8.532 2.6124 14.619 7.2363 19.16a1.0001 1.0001 0 0 0 1.4004 2e-3c4.7664-4.6512 6.8724-10.984 6.8008-18.795a1.0001 1.0001 0 0 0-0.81641-0.97466c-2.1631-0.40114-4.2663-1.077-6.2578-2.0117a1.0001 1.0001 0 0 0-0.75977-0.03711zm0.31055 1.9766c1.7557 0.79172 3.6001 1.3491 5.4805 1.7617-0.05873 6.6431-1.8083 11.821-5.4727 15.812-3.7372-3.9748-6.1213-8.9641-5.8945-16.074 1.9949-0.36597 3.9682-0.84059 5.8867-1.5z" stop-color="#000000" stroke-linecap="round" stroke-linejoin="round"/>
 <path id="path3" d="m33.914 31.951a1 1 0 0 0-1.4043 0.17578 1 1 0 0 0 0.17578 1.4023c2.3078 1.7936 3.8886 3.7671 5.3008 5.7832-1.9833-1.3349-3.8539-2.827-5.4473-4.625a1 1 0 0 0-1.4121-0.08594 1 1 0 0 0-0.08594 1.4121c2.7428 3.0952 6.0893 5.5964 9.834 7.3516a1.0001 1.0001 0 0 0 1.2695-1.4395c-2.0611-3.256-4.2139-6.853-8.2305-9.9746z" stop-color="#000000" stroke-linecap="round" stroke-linejoin="round"/>
 <path id="path4" d="m13.906 31.652c-3.9982 3.4502-6.9012 6.7357-8.3496 10.201a1.0001 1.0001 0 0 0 1.4355 1.2461c3.3432-1.99 6.484-3.7261 9.6836-7.5469a1 1 0 0 0-0.12305-1.4102 1 1 0 0 0-1.4102 0.125c-1.816 2.1686-3.6143 3.5556-5.4727 4.7891 1.4225-1.8995 3.1683-3.8394 5.543-5.8887a1 1 0 0 0 0.10352-1.4121 1 1 0 0 0-1.4102-0.10352z" stop-color="#000000" stroke-linecap="round" stroke-linejoin="round"/>
 <path id="line4" d="m6.0215 5.123a1 1 0 0 0 0.00195 1.4141l5.5996 5.5898a1 1 0 0 0 1.4141 0 1 1 0 0 0 0-1.4141l-5.6016-5.5898a1 1 0 0 0-1.4141 0z" stop-color="#000000" stroke-linecap="round" stroke-linejoin="round"/>
 <path id="line5" d="m14.719 6.6738a1 1 0 0 0-0.72852 0.23633l-3.2695 2.7891a1 1 0 0 0-0.11133 1.4102 1 1 0 0 0 1.4102 0.11133l3.2695-2.7891a1 1 0 0 0 0.11133-1.4102 1 1 0 0 0-0.68164-0.34766z" stop-color="#000000" stroke-linecap="round" stroke-linejoin="round"/>
 <path id="line6" d="m12.02 9.6992a1 1 0 0 0-1.4102 0.11133l-2.791 3.2695a1 1 0 0 0 0.11328 1.4102 1 1 0 0 0 1.4082-0.11133l2.791-3.2695a1 1 0 0 0-0.11133-1.4102z" stop-color="#000000" stroke-linecap="round" stroke-linejoin="round"/>
 <path id="line7" d="m41.17 4.8398a1 1 0 0 0-0.70703 0.29297l-5.5898 5.6016a1 1 0 0 0 0 1.4141 1 1 0 0 0 1.4141-2e-3l5.5898-5.5996a1 1 0 0 0 0-1.4141 1 1 0 0 0-0.70703-0.29297z" stop-color="#000000" stroke-linecap="round" stroke-linejoin="round"/>
 <path id="line8" d="m35.891 9.7188a1 1 0 0 0-0.11133 1.4102l2.7891 3.2695a1 1 0 0 0 1.4102 0.11133 1 1 0 0 0 0.11133-1.4082l-2.7891-3.2715a1 1 0 0 0-1.4102-0.11133z" stop-color="#000000" stroke-linecap="round" stroke-linejoin="round"/>
 <path id="line9" d="m33.193 6.6836a1 1 0 0 0-0.68359 0.3457 1 1 0 0 0 0.10938 1.4102l3.2695 2.8008a1 1 0 0 0 1.4102-0.10938 1 1 0 0 0-0.10938-1.4102l-3.2695-2.8008a1 1 0 0 0-0.72656-0.23633z" stop-color="#000000" stroke-linecap="round" stroke-linejoin="round"/>
</svg>
