<?xml version="1.0" encoding="UTF-8"?>
<svg id="a" version="1.1" viewBox="0 0 48 48" xmlns="http://www.w3.org/2000/svg">
 <defs id="defs1">
  <style id="style1">.b{fill:none;stroke:#000;stroke-width:2px;stroke-linecap:round;stroke-linejoin:round;}.c{fill:#000;stroke-width:0px;}</style>
 </defs>
 <path id="path1" d="m31.428 27.135a1 1 0 0 0-1.3652 0.36523c-0.6663 1.1541-1.648 2.0936-2.8301 2.709a1 1 0 0 0-0.42578 1.3496 1 1 0 0 0 1.3496 0.42383c1.5196-0.79106 2.7821-1.9988 3.6387-3.4824a1 1 0 0 0-0.36719-1.3652z" stop-color="#000000" stroke-linecap="round" stroke-linejoin="round"/>
 <path id="path2" d="m15.75 8.7148a1.0001 1.0001 0 0 0-0.86523 0.5l-8.25 14.285a1.0001 1.0001 0 0 0 0 1l8.25 14.285a1.0001 1.0001 0 0 0 0.86523 0.5h16.5a1.0001 1.0001 0 0 0 0.86523-0.5l8.25-14.285a1.0001 1.0001 0 0 0 0-1l-8.25-14.285a1.0001 1.0001 0 0 0-0.86523-0.5zm0.57617 2h15.346l7.6738 13.285-7.6738 13.285h-15.344l-7.6738-13.285z" stop-color="#000000" stroke-linecap="round" stroke-linejoin="round"/>
 <path id="path3" d="m32.75 8.8535a1 1 0 0 0-1.3652 0.36719l-2.5 4.3262a1 1 0 0 0 0.36523 1.3652 1 1 0 0 0 1.3652-0.36523l2.5-4.3262a1 1 0 0 0-0.36523-1.3672zm-17.5 0.00195a1 1 0 0 0-0.36523 1.3652l2.5 4.3281a1 1 0 0 0 1.3652 0.36524 1 1 0 0 0 0.36523-1.3672l-2.5-4.3262a1 1 0 0 0-1.3652-0.36523zm-7.75 14.145a1 1 0 0 0-1 1 1 1 0 0 0 1 1h5a1 1 0 0 0 1-1 1 1 0 0 0-1-1zm28 0a1 1 0 0 0-1 1 1 1 0 0 0 1 1h5a1 1 0 0 0 1-1 1 1 0 0 0-1-1zm-16.75 10.086a1 1 0 0 0-1.3652 0.36524l-2.5 4.3262a1 1 0 0 0 0.36523 1.3672 1 1 0 0 0 1.3652-0.36719l2.5-4.3262a1 1 0 0 0-0.36523-1.3652zm10.5 0a1 1 0 0 0-0.36523 1.3672l2.5 4.3262a1 1 0 0 0 1.3652 0.36523 1 1 0 0 0 0.36523-1.3652l-2.5-4.3281a1 1 0 0 0-1.3652-0.36524z" stop-color="#000000" stroke-linecap="round" stroke-linejoin="round"/>
 <path id="path4" d="m24 15c-3.7802 1.2e-5 -7.1641 2.3698-8.457 5.9219-0.35964 0.98807-0.47654 2.0048-0.48242 3.0176a1 1 0 0 0-0.060547 0.060547 1 1 0 0 0 0.07031 0.07031c0.01966 2.2179 0.78952 4.3884 2.3301 6.0488 0.16919 0.18236 0.36817 0.34662 0.64453 0.45312s0.66219 0.13213 0.99609-0.01563c0.66781-0.2955 0.81642-0.94114 0.81641-1.4277v-4.1289c0-1.0927-0.90728-2-2-2h-0.73242c0.06796-0.46803 0.1305-0.93745 0.29688-1.3945 1.0077-2.7685 3.6319-4.6055 6.5781-4.6055 2.9462 0 5.5704 1.837 6.5781 4.6055 0.16638 0.45712 0.23087 0.92646 0.29883 1.3945h-0.73438c-1.0927 0-2 0.90727-2 2v4.1289c1.2e-5 0.4866 0.14868 1.1322 0.81641 1.4277 0.33386 0.14776 0.71971 0.1221 0.99609 0.01563 0.27638-0.10648 0.47533-0.27077 0.64453-0.45312 1.5412-1.661 2.3128-3.8322 2.332-6.0508a1 1 0 0 0 0.068359-0.068364 1 1 0 0 0-0.05859-0.05859c-0.0057-1.0134-0.1245-2.0308-0.48438-3.0195-1.2929-3.5521-4.6769-5.9219-8.457-5.9219zm-6.8848 10h0.74219v2.3164c-0.39083-0.72385-0.62439-1.5059-0.74219-2.3164zm13.027 0h0.74414c-0.1178 0.81057-0.35326 1.5925-0.74414 2.3164z" stop-color="#000000" stroke-linecap="round" stroke-linejoin="round"/>
 <path id="path5" d="m26.406 29.547c-0.47153 0.08314-0.89328 0.29541-1.2148 0.63867s-0.5497 0.87286-0.45117 1.4316c0.09853 0.55876 0.49255 0.97687 0.91211 1.1895s0.88981 0.26867 1.3613 0.18555c0.47153-0.08314 0.89133-0.2954 1.2129-0.63867 0.32156-0.34327 0.55165-0.87286 0.45312-1.4316-0.09853-0.55876-0.4945-0.97687-0.91406-1.1895s-0.88786-0.26867-1.3594-0.18555z" stop-color="#000000" stroke-linecap="round" stroke-linejoin="round"/>
 <circle id="circle5" class="c" cx="24" cy="27.875" r="1.5"/>
 <path id="line5" d="m24 18.875a1 1 0 0 0-1 1v5.9492a1 1 0 0 0 1 1 1 1 0 0 0 1-1v-5.9492a1 1 0 0 0-1-1z" stop-color="#000000" stroke-linecap="round" stroke-linejoin="round"/>
 <path id="path6" d="m24 1.5a1.0001 1.0001 0 0 0-0.86523 0.5l-4.166 7.2148a1 1 0 0 0 0.36523 1.3672 1 1 0 0 0 1.3672-0.36719l3.2988-5.7148 3.2988 5.7148a1 1 0 0 0 1.3672 0.36719 1 1 0 0 0 0.36523-1.3672l-4.1641-7.2148a1.0001 1.0001 0 0 0-0.86719-0.5zm-18.619 10.75a1.0001 1.0001 0 0 0-0.86523 1.5l4.1621 7.209a1 1 0 0 0 1.3652 0.36719 1 1 0 0 0 0.36719-1.3652l-3.2969-5.7109h6.5957a1 1 0 0 0 1-1 1 1 0 0 0-1-1zm28.91 0a1 1 0 0 0-1 1 1 1 0 0 0 1 1h6.5977l-3.2988 5.7109a1 1 0 0 0 0.36523 1.3652 1 1 0 0 0 1.3672-0.36524l4.1641-7.2109a1.0001 1.0001 0 0 0-0.86719-1.5zm-25.006 14.322a1 1 0 0 0-0.60742 0.4668l-4.1621 7.2109a1.0001 1.0001 0 0 0 0.86523 1.5h8.3281a1 1 0 0 0 1-1 1 1 0 0 0-1-1h-6.5957l3.2969-5.7109a1 1 0 0 0-0.36523-1.3652 1 1 0 0 0-0.75977-0.10156zm29.43 2e-3a1 1 0 0 0-0.75781 0.09961 1 1 0 0 0-0.36719 1.3672l3.2969 5.7089h-6.5957a1 1 0 0 0-1 1 1 1 0 0 0 1 1h8.3281a1.0001 1.0001 0 0 0 0.86523-1.5l-4.1621-7.209a1 1 0 0 0-0.60742-0.4668zm-10.809 10.744a1 1 0 0 0-0.60742 0.4668l-3.2988 5.7148-3.2988-5.7148a1 1 0 0 0-1.3672-0.36719 1 1 0 0 0-0.36523 1.3672l4.1641 7.2148a1.0001 1.0001 0 0 0 1.7324 0l4.166-7.2148a1 1 0 0 0-0.36719-1.3652 1 1 0 0 0-0.75781-0.10156z" stop-color="#000000" stroke-linecap="round" stroke-linejoin="round"/>
</svg>
