<?xml version="1.0" encoding="UTF-8"?>
<svg id="b" version="1.1" viewBox="0 0 48 48" xmlns="http://www.w3.org/2000/svg">
 <defs id="defs4">
  <style id="style2">.c{fill:none;stroke:#000;stroke-width:2px;stroke-linecap:round;stroke-linejoin:round;}</style>
 </defs>
 <path id="path6" d="m25.375 9.1797a1 1 0 0 0-1 1 1 1 0 0 0 1 1c4.186 0 7.4776 3.8122 7.3008 8.7246a1 1 0 0 0 0.96289 1.0352 1 1 0 0 0 1.0352-0.96289c0.21115-5.8652-3.897-10.797-9.2988-10.797z" color="#000000" stroke-linecap="round" stroke-linejoin="round" style="-inkscape-stroke:none"/>
 <path id="path8" d="m30.039 15.859a1 1 0 0 0-1.3711 0.3418 1 1 0 0 0 0.34375 1.373c0.31504 0.18894 0.49865 0.44826 1.4766 1.2305 0.95272 0.76213 2.0918 1.6164 3.2441 2.3848 0.43733 0.29156 0.46048 0.39109 0.49023 0.51758 0.02976 0.12649 0.01075 0.45029-0.08203 1.0059-0.20504 1.2277-0.37112 2.9793 0.25 4.4707 0.19878 0.47686 0.24899 0.62416 0.2832 0.67578-0.03337 0.02368-0.01106 0.01209-0.0625 0.04297-0.57992 0.34831-1.2134 0.94467-1.4531 1.8184s-0.13777 1.8895 0.26367 3.2441c0.26282 0.88775 0.02054 2.1882-0.625 3.5762-0.64554 1.3879-1.6518 2.8268-2.6348 3.9883-0.45861 0.5419-0.62384 0.58054-0.94922 0.86914 0.10565-1.0766 0.21712-2.1948 0.16211-4.8516-0.04395-2.11-0.09404-4.2111-0.05469-6.2891 0.0079-0.43755-0.05115-0.81457-0.06055-1.1211s0.0592-0.48277 0.0293-0.4375c-0.0038 0.0057 0.23121-0.18542 0.63672-0.36328 0.40551-0.17786 0.92521-0.34213 1.4375-0.75195 0.37604-0.3008 0.66505-0.55695 0.90234-0.83789 0.2373-0.28094 0.46619-0.62307 0.48242-1.1035 0.01623-0.48044-0.25597-0.90797-0.49609-1.1387-0.24013-0.2307-0.47525-0.37036-0.72461-0.51758-0.45468-0.2686-0.79924-0.55012-1.3145-0.8125-0.51521-0.26238-1.1736-0.4375-1.9941-0.4375-0.96211 0-1.8539 0.4172-2.4648 1.0859-0.61093 0.66874-0.97266 1.5484-1.1367 2.5312-0.13433 0.80732-0.3008 1.4695-0.46289 1.8086-0.07805 0.1633-0.14469 0.23245-0.16211 0.24805h-0.0098a1 1 0 0 0-1 1 1 1 0 0 0 1 1h0.03516c0.44969 0 0.90875-0.17496 1.2363-0.44336s0.54096-0.59803 0.70508-0.94141c0.32823-0.68676 0.48754-1.4707 0.63281-2.3438h-2e-3c0.11644-0.69754 0.36486-1.2079 0.64062-1.5098s0.55049-0.43555 0.98828-0.43555c0.58028 0 0.80765 0.07703 1.0859 0.21875 0.2716 0.13832 0.62716 0.40933 1.1758 0.73633-0.11036 0.10449-0.17548 0.18024-0.36524 0.33203-0.11011 0.08808-0.51815 0.27255-0.99219 0.48047s-1.0704 0.44001-1.502 1.0938c-0.38201 0.57827-0.37528 1.1449-0.36133 1.5996 0.01395 0.45475 0.06356 0.85629 0.06055 1.0234-0.04045 2.136 0.01279 4.264 0.05664 6.3691 0.06829 3.2982-0.06008 4.9915-0.18359 5.7871-0.06176 0.39781-0.12539 0.57066-0.12695 0.57422-7.8e-4 0.0018 0.01519-0.0396 0.07617-0.11328 0.03049-0.03684 0.0714-0.08146 0.12891-0.12695 0.05751-0.0455 0.2168-0.12891 0.2168-0.12891a1.0001 1.0001 0 0 0 0.29297 1.9121s0.28573 0.0102 0.51172-0.04102c0.22599-0.05122 0.50259-0.15165 0.82617-0.33008 0.64717-0.35686 1.4879-1.0218 2.5703-2.3008 1.0714-1.266 2.1652-2.8148 2.9199-4.4375 0.75473-1.6227 1.2139-3.3552 0.73047-4.9883-0.34556-1.1661-0.33883-1.8299-0.25195-2.1465 0.08688-0.31663 0.19946-0.42063 0.55273-0.63281 0.28372-0.17028 0.53415-0.34132 0.75586-0.61914s0.36183-0.70635 0.34766-1.0508c-0.02835-0.68887-0.29017-1.0111-0.50781-1.5332-0.31228-0.74983-0.29221-2.3582-0.12305-3.3711 0.09432-0.56473 0.21356-1.1279 0.05664-1.7949s-0.64545-1.2675-1.3281-1.7227c-1.0883-0.72563-2.1906-1.5513-3.1055-2.2832-0.88889-0.711-1.0789-1.012-1.6973-1.3828z" color="#000000" stroke-linecap="round" stroke-linejoin="round" style="-inkscape-stroke:none"/>
 <path id="path10" d="m22.625 9.1797c-5.4018 0-9.5101 4.9317-9.2988 10.797a1 1 0 0 0 1.0352 0.96289 1 1 0 0 0 0.96289-1.0352c-0.17694-4.9124 3.1148-8.7246 7.3008-8.7246a1 1 0 0 0 1-1 1 1 0 0 0-1-1z" color="#000000" stroke-linecap="round" stroke-linejoin="round" style="-inkscape-stroke:none"/>
 <path id="path12" d="m23.143 3.5c-0.68124 0-1.3569 0.31516-1.6641 0.80273-0.30715 0.48758-0.26953 0.93833-0.26953 1.0781 0 0.12859 0.0059 0.13261 0.01172 0.21289 0.0058 0.080281 0.0131 0.18417 0.02344 0.31055 0.02068 0.25275 0.05087 0.59575 0.08594 0.99805 0.07013 0.8046 0.16253 1.849 0.25586 2.8848 0.18667 2.0716 0.37305 4.1074 0.37305 4.1074a1 1 0 0 0 1.0879 0.9043 1 1 0 0 0 0.9043-1.0879s-0.18656-2.0339-0.37305-4.1035c-0.09324-1.0348-0.18606-2.0781-0.25586-2.8789-0.0349-0.40042-0.06385-0.74021-0.08398-0.98633-0.0083-0.10092-0.01456-0.17433-0.01953-0.24023h1.5625c-5e-3 0.065904-0.01128 0.13931-0.01953 0.24023-0.02014 0.24612-0.04908 0.58591-0.08398 0.98633-0.0698 0.80084-0.16262 1.8441-0.25586 2.8789-0.18648 2.0696-0.37305 4.1035-0.37305 4.1035a1 1 0 0 0 0.9043 1.0879 1 1 0 0 0 1.0879-0.9043s0.18638-2.0358 0.37305-4.1074c0.09333-1.0358 0.18768-2.0802 0.25781-2.8848 0.03506-0.4023 0.06331-0.7453 0.08398-0.99805 0.01034-0.12637 0.01954-0.23027 0.02539-0.31055 0.0058-0.080281 0.0098-0.084301 0.0098-0.21289 0-0.1398 0.03761-0.59055-0.26953-1.0781-0.30718-0.48758-0.98286-0.80273-1.6641-0.80273a1.0001 1.0001 0 0 0-2e-3 0.00195h-1.7129a1.0001 1.0001 0 0 0 0-0.00195z" color="#000000" stroke-linecap="round" stroke-linejoin="round" style="-inkscape-stroke:none"/>
 <path id="path14" d="m18.717 15.746a1 1 0 0 0-0.75586 0.11328c-0.61832 0.37083-0.80826 0.67171-1.6973 1.3828-0.91488 0.73186-2.0172 1.5576-3.1055 2.2832-0.68266 0.45513-1.1712 1.0556-1.3281 1.7227s-0.03773 1.2301 0.05664 1.7949c0.16923 1.0128 0.18926 2.6212-0.12305 3.3711-0.21769 0.52212-0.47946 0.84428-0.50781 1.5332-0.01417 0.34446 0.1259 0.77296 0.34766 1.0508 0.22175 0.27783 0.4721 0.44888 0.75586 0.61914 0.35319 0.21212 0.46584 0.31615 0.55273 0.63281 0.08689 0.31666 0.0936 0.98039-0.25195 2.1465-0.48348 1.633-0.02426 3.3656 0.73047 4.9883 0.75473 1.6227 1.8485 3.1716 2.9199 4.4375 1.0824 1.279 1.9231 1.9439 2.5703 2.3008 0.32359 0.17843 0.60018 0.27886 0.82617 0.33008 0.22599 0.05122 0.51172 0.04102 0.51172 0.04102a1.0001 1.0001 0 0 0 0.29297-1.9121s0.15929 0.08341 0.2168 0.12891c0.05751 0.0455 0.09841 0.09011 0.12891 0.12695 0.06098 0.07368 0.07695 0.11506 0.07617 0.11328-0.0016-0.0036-0.0652-0.17641-0.12695-0.57422-0.12352-0.79561-0.24994-2.4889-0.18164-5.7871 0.04385-2.1052 0.09514-4.2331 0.05469-6.3691-3e-3 -0.16702 0.04658-0.56866 0.06055-1.0234 0.01395-0.45424 0.01938-1.022-0.36133-1.5996-0.43159-0.65374-1.0279-0.88583-1.502-1.0938s-0.88208-0.39239-0.99219-0.48047c-0.18976-0.15179-0.25487-0.22754-0.36524-0.33203 0.54859-0.32703 0.9042-0.59803 1.1758-0.73633 0.27827-0.1417 0.50564-0.21875 1.0859-0.21875 0.43779 0 0.71251 0.13369 0.98828 0.43555s0.52419 0.81222 0.64062 1.5098c0.14527 0.87312 0.30263 1.657 0.63086 2.3438 0.16411 0.34338 0.37748 0.67301 0.70508 0.94141 0.3276 0.2684 0.78666 0.44336 1.2363 0.44336h0.03516a1 1 0 0 0 1-1 1 1 0 0 0-1-1h-0.0098c-0.0174-0.01558-0.08407-0.08476-0.16211-0.24805-0.16207-0.33911-0.32856-1.0012-0.46289-1.8086-0.16406-0.98285-0.52579-1.8625-1.1367-2.5312-0.61093-0.66874-1.5027-1.0859-2.4648-1.0859-0.8205 0-1.4789 0.17513-1.9941 0.4375-0.51523 0.26237-0.85973 0.54384-1.3145 0.8125-0.24936 0.14721-0.48448 0.28688-0.72461 0.51758-0.24013 0.2307-0.51232 0.65823-0.49609 1.1387 0.01623 0.48044 0.24512 0.82257 0.48242 1.1035 0.2373 0.28094 0.5263 0.53709 0.90234 0.83789 0.51229 0.40982 1.032 0.5741 1.4375 0.75195 0.40551 0.17786 0.64051 0.36902 0.63672 0.36328-0.02986-0.04519 0.03871 0.131 0.0293 0.4375-0.0094 0.3065-0.06844 0.68351-0.06055 1.1211 0.03935 2.078-0.01074 4.179-0.05469 6.2891-0.05501 2.6568 0.05646 3.7749 0.16211 4.8516-0.32538-0.2886-0.49061-0.32724-0.94922-0.86914-0.98298-1.1614-1.9892-2.6004-2.6348-3.9883-0.64554-1.3879-0.88782-2.6884-0.625-3.5762 0.40145-1.3547 0.50341-2.3705 0.26367-3.2441-0.23974-0.87369-0.87322-1.4701-1.4531-1.8184-0.05144-0.03087-0.02913-0.01929-0.0625-0.04297 0.03421-0.05161 0.08439-0.19894 0.2832-0.67578 0.6211-1.4913 0.45517-3.2429 0.25-4.4707-0.09283-0.55552-0.11179-0.87939-0.08203-1.0059 0.02976-0.12647 0.0529-0.226 0.49023-0.51758 1.1523-0.76837 2.2914-1.6226 3.2441-2.3848 0.978-0.78229 1.1615-1.0415 1.4766-1.2305a1 1 0 0 0 0.34375-1.373 1 1 0 0 0-0.61523-0.45508z" color="#000000" stroke-linecap="round" stroke-linejoin="round" style="-inkscape-stroke:none"/>
</svg>
