<?xml version="1.0" encoding="UTF-8"?>
<svg id="a" version="1.1" viewBox="0 0 48 48" xmlns="http://www.w3.org/2000/svg">
 <defs id="defs4">
  <style id="style2">.b{fill:none;stroke:#000;stroke-width:2px;stroke-linecap:round;stroke-linejoin:round;}</style>
 </defs>
 <path id="path6" d="m24 6.9902c-9.3828 0-17.01 7.6269-17.01 17.01 0 1.1729 0.11901 2.32 0.3457 3.4277a1 1 0 0 0 1.1797 0.7793 1 1 0 0 0 0.7793-1.1816c-0.1999-0.97684-0.30469-1.9876-0.30469-3.0254 0-8.302 6.7078-15.01 15.01-15.01s15.01 6.7078 15.01 15.01c0 1.0566-0.10743 2.0869-0.31445 3.0801a1 1 0 0 0 0.77344 1.1816 1 1 0 0 0 1.1836-0.77344c0.23478-1.1264 0.35742-2.2941 0.35742-3.4883 0-9.3828-7.6269-17.01-17.01-17.01z" color="#000000" stroke-linecap="round" stroke-linejoin="round" style="-inkscape-stroke:none"/>
 <path id="line8" d="m24 1.5a1 1 0 0 0-1 1v9.8926a1 1 0 0 0 1 1 1 1 0 0 0 1-1v-9.8926a1 1 0 0 0-1-1z" color="#000000" stroke-linecap="round" stroke-linejoin="round" style="-inkscape-stroke:none"/>
 <path id="line10" d="m38.496 8.0898-6.9961 6.9961a1 1 0 0 0 0 1.4141 1 1 0 0 0 1.4141 0l6.9961-6.9961a1 1 0 0 0 0-1.4141 1 1 0 0 0-1.4141 0z" color="#000000" stroke-linecap="round" stroke-linejoin="round" style="-inkscape-stroke:none"/>
 <path id="line12" d="m35.607 23a1 1 0 0 0-1 1 1 1 0 0 0 1 1h9.8926a1 1 0 0 0 1-1 1 1 0 0 0-1-1z" color="#000000" stroke-linecap="round" stroke-linejoin="round" style="-inkscape-stroke:none"/>
 <path id="line14" d="m8.7969 7.7969a1 1 0 0 0-0.70703 0.29297 1 1 0 0 0 0 1.4141l6.9961 6.9961a1 1 0 0 0 1.4141 0 1 1 0 0 0 0-1.4141l-6.9961-6.9961a1 1 0 0 0-0.70703-0.29297z" color="#000000" stroke-linecap="round" stroke-linejoin="round" style="-inkscape-stroke:none"/>
 <path id="line16" d="m2.5 23a1 1 0 0 0-1 1 1 1 0 0 0 1 1h9.8926a1 1 0 0 0 1-1 1 1 0 0 0-1-1z" color="#000000" stroke-linecap="round" stroke-linejoin="round" style="-inkscape-stroke:none"/>
 <path id="path18" d="m18.502 26.283c-1.4671 0-2.5961 0.96974-3.4004 2.0098-0.80425 1.04-1.3574 2.1691-1.3574 3.3066 0 0.58228 0.01165 1.2779 0.46484 1.9414 0.45319 0.66346 1.3297 1.0254 2.3242 1.0254 1.6044 0 2.9073-0.74016 3.7461-1.6992 0.83882-0.95906 1.2793-2.1087 1.2793-3.1914 0-0.83985-0.02357-1.6446-0.54688-2.3691-0.52331-0.72456-1.461-1.0234-2.5098-1.0234zm0 2c0.74038 0 0.8305 0.11478 0.88867 0.19531 0.05817 0.08054 0.16797 0.47172 0.16797 1.1973 0 0.48269-0.26342 1.2788-0.7832 1.873-0.51978 0.59429-1.2299 1.0176-2.2422 1.0176-0.61568 0-0.63307-0.09748-0.67188-0.1543-0.03881-0.05682-0.11719-0.34368-0.11719-0.8125 0-0.29377 0.35156-1.3237 0.93945-2.084s1.3398-1.2324 1.8184-1.2324z" color="#000000" stroke-linecap="round" stroke-linejoin="round" style="-inkscape-stroke:none"/>
 <path id="path20" d="m24 18.434c-4.2957 0-7.497 1.5028-9.5039 4.0723-2.0069 2.5694-2.8203 6.0744-2.8203 10.035v3.1816a1.0001 1.0001 0 0 0 1 1c4.072 0 5.5547 3.3926 5.5547 3.3926a1.0001 1.0001 0 0 0 1.8867-0.20898c0.20084-0.94846 0.57863-1.7181 1.1602-2.248s1.3941-0.88477 2.7227-0.88477c1.3286 0 2.1411 0.35479 2.7227 0.88477 0.58153 0.52997 0.95932 1.2996 1.1602 2.248a1.0001 1.0001 0 0 0 1.8867 0.20898s1.4827-3.3926 5.5547-3.3926a1.0001 1.0001 0 0 0 1-1v-3.1816c0-3.9608-0.81338-7.4657-2.8203-10.035-2.0069-2.5694-5.2082-4.0723-9.5039-4.0723zm0 2c3.8485 0 6.3082 1.2293 7.9277 3.3027s2.3965 5.1213 2.3965 8.8047v2.3945c-2.7116 0.35835-4.1985 1.5323-5.1387 2.7227-0.28412-0.54232-0.64406-1.0491-1.1152-1.4785-0.97357-0.88725-2.3592-1.4062-4.0703-1.4062-1.7111 0-3.0967 0.51901-4.0703 1.4062-0.47118 0.4294-0.83111 0.93619-1.1152 1.4785-0.9402-1.1903-2.4271-2.3643-5.1387-2.7227v-2.3945c0-3.6833 0.77698-6.7313 2.3965-8.8047s4.0793-3.3027 7.9277-3.3027z" color="#000000" stroke-linecap="round" stroke-linejoin="round" style="-inkscape-stroke:none"/>
 <path id="path22" d="m23.5 26.924a1.0001 1.0001 0 0 0-0.92773 0.62695s-0.2925 0.72437-0.58594 1.6113-0.61523 1.8679-0.61523 2.7891a1.0001 1.0001 0 0 0 0.76953 0.97461l1.6289 0.38477a1.0001 1.0001 0 0 0 0.46094 0l1.6289-0.38477a1.0001 1.0001 0 0 0 0.76953-0.97461c0-0.92121-0.32179-1.9021-0.61523-2.7891-0.29344-0.88695-0.58594-1.6113-0.58594-1.6113a1.0001 1.0001 0 0 0-0.92773-0.62695zm0.5 2.5508c0.0549 0.15549 0.05778 0.14276 0.11523 0.31641 0.1771 0.53528 0.24283 0.95576 0.33594 1.4121l-0.45117 0.10547-0.45117-0.10547c0.09311-0.45633 0.15884-0.87681 0.33594-1.4121 0.05745-0.17365 0.06034-0.16092 0.11523-0.31641z" color="#000000" stroke-linecap="round" stroke-linejoin="round" style="-inkscape-stroke:none"/>
 <path id="path24" d="m29.498 26.283c-1.0487 0-1.9865 0.29888-2.5098 1.0234-0.52331 0.72456-0.54688 1.5293-0.54688 2.3691 0 1.0827 0.44048 2.2324 1.2793 3.1914 0.83882 0.95906 2.1417 1.6992 3.7461 1.6992 0.99452 0 1.871-0.36193 2.3242-1.0254 0.45319-0.66346 0.46484-1.3591 0.46484-1.9414 0-1.1375-0.55317-2.2666-1.3574-3.3066-0.80425-1.04-1.9333-2.0098-3.4004-2.0098zm0 2c0.47854 0 1.2305 0.47218 1.8184 1.2324s0.93945 1.7902 0.93945 2.084c0 0.46882-0.07838 0.75568-0.11719 0.8125-0.03881 0.05682-0.05619 0.1543-0.67188 0.1543-1.0122 0-1.7224-0.42329-2.2422-1.0176-0.51978-0.59429-0.7832-1.3904-0.7832-1.873 0-0.72555 0.1098-1.1167 0.16797-1.1973 0.05817-0.08054 0.1483-0.19531 0.88867-0.19531z" color="#000000" stroke-linecap="round" stroke-linejoin="round" style="-inkscape-stroke:none"/>
</svg>
