<?xml version="1.0" encoding="UTF-8"?>
<svg id="a" version="1.1" viewBox="0 0 48 48" xmlns="http://www.w3.org/2000/svg">
 <defs id="defs4">
  <style id="style2">.b{fill:none;stroke:#000;stroke-width:2px;stroke-linecap:round;stroke-linejoin:round;}</style>
 </defs>
 <path id="rect6" d="m11.5 4.5c-3.8607 0-7 3.1393-7 7v25c0 3.8607 3.1393 7 7 7h25c3.8607 0 7-3.1393 7-7v-25c0-3.8607-3.1393-7-7-7zm0 2h25c2.7873 0 5 2.2127 5 5v25c0 2.7873-2.2127 5-5 5h-25c-2.7873 0-5-2.2127-5-5v-25c0-2.7873 2.2127-5 5-5z" color="#000000" stroke-linecap="round" stroke-linejoin="round" style="-inkscape-stroke:none"/>
 <path id="line8" d="m14.918 30.793-5 5a1 1 0 0 0 0 1.4141 1 1 0 0 0 1.4141 0l5-5a1 1 0 0 0 0-1.4141 1 1 0 0 0-1.4141 0z" color="#000000" stroke-linecap="round" stroke-linejoin="round" style="-inkscape-stroke:none"/>
 <path id="line10" d="m10.625 30.5a1 1 0 0 0-0.70703 0.29297 1 1 0 0 0 0 1.4141l5 5a1 1 0 0 0 1.4141 0 1 1 0 0 0 0-1.4141l-5-5a1 1 0 0 0-0.70703-0.29297z" color="#000000" stroke-linecap="round" stroke-linejoin="round" style="-inkscape-stroke:none"/>
 <path id="line12" d="m36.668 30.793-5 5a1 1 0 0 0 0 1.4141 1 1 0 0 0 1.4141 0l5-5a1 1 0 0 0 0-1.4141 1 1 0 0 0-1.4141 0z" color="#000000" stroke-linecap="round" stroke-linejoin="round" style="-inkscape-stroke:none"/>
 <path id="line14" d="m31.668 30.793a1 1 0 0 0 0 1.4141l5 5a1 1 0 0 0 1.4141 0 1 1 0 0 0 0-1.4141l-5-5a1 1 0 0 0-1.4141 0z" color="#000000" stroke-linecap="round" stroke-linejoin="round" style="-inkscape-stroke:none"/>
 <path id="path16" d="m24 33c-1.5661 0-3.0013 0.45481-4.0938 1.2539-1.0924 0.7991-1.8613 2.0007-1.8613 3.3711a1.0001 1.0001 0 0 0 1 1h0.8418c0.06898 0.27169 0.0272 0.5366 0.20703 0.80078 0.40435 0.59404 1.1955 0.97461 2.0352 0.97461 0.54896 0 1.0662-0.22852 1.4062-0.53711 0.3401-0.30859 0.5303-0.66476 0.65625-0.98047 0.05362-0.1344 0.02227-0.13324 0.05664-0.25781h4.707a1.0001 1.0001 0 0 0 1-1c0-1.3704-0.76892-2.572-1.8613-3.3711-1.0924-0.7991-2.5276-1.2539-4.0937-1.2539zm0 2c1.1708 0 2.2129 0.35624 2.9141 0.86914 0.31756 0.2323 0.53747 0.49037 0.70898 0.75586h-2.3203c-0.7464-0.76376-1.6775-1.3242-2.9082-1.3242-0.11768 0-0.20231 0.07819-0.31641 0.08398 0.57198-0.22166 1.2042-0.38476 1.9219-0.38476zm-1.6055 2.3008c0.14733 0 0.18935 0.04285 0.30469 0.05078a1.0001 1.0001 0 0 0-0.23828 0.22656s-0.02489 0.30863-0.12695 0.56445c-0.05103 0.12791-0.11599 0.21416-0.14258 0.23828-0.02659 0.02413 0.01239 0.01953-0.0625 0.01953-0.37992 0-0.34011-0.0417-0.38086-0.10156-0.04075-0.05986-0.11914-0.30726-0.11914-0.67383 0-0.27643 0.0071-0.20312 0.01758-0.21094 0.01049-0.0078 0.23668-0.11328 0.74805-0.11328z" color="#000000" stroke-linecap="round" stroke-linejoin="round" style="-inkscape-stroke:none"/>
</svg>
