<?xml version="1.0" encoding="UTF-8"?>
<svg id="a" version="1.1" viewBox="0 0 48 48" xmlns="http://www.w3.org/2000/svg">
 <defs id="defs1">
  <style id="style1">.d{fill:none;stroke:#000;stroke-width:2px;stroke-linejoin:round;stroke-linecap:rouond;}</style>
 </defs>
 <path id="path1" d="m10.84 4.5a1.0001 1.0001 0 0 0-1 1v1.6699h-1.6699a1.0001 1.0001 0 0 0-1 1v1.6699h-1.6699a1.0001 1.0001 0 0 0-1 1v23.648a1.0001 1.0001 0 0 0 1 1h1.6699v1.6719a1.0001 1.0001 0 0 0 1 1h1.6699v4.3398a1.0001 1.0001 0 0 0 1 1h7.8203a1.0001 1.0001 0 0 0 1-1v-2.6699a1.0001 1.0001 0 0 0-1-1h-4.3398v-7.0117a1.0001 1.0001 0 0 0-1-1h-4.1504v-0.66992h6.0098v4.3398a1.0001 1.0001 0 0 0 1 1h2.6699a1.0001 1.0001 0 0 0 1-1v-1.6699h8.2988v1.6699a1.0001 1.0001 0 0 0 1 1h2.6719a1.0001 1.0001 0 0 0 1-1v-4.3398h6.0098v0.66992h-4.1504a1.0001 1.0001 0 0 0-1 1v7.0117h-4.3398a1.0001 1.0001 0 0 0-1 1v2.6699a1.0001 1.0001 0 0 0 1 1h7.8203a1.0001 1.0001 0 0 0 1-1v-4.3398h1.6699a1.0001 1.0001 0 0 0 1-1v-1.6719h1.6699a1.0001 1.0001 0 0 0 1-1v-23.648a1.0001 1.0001 0 0 0-1-1h-1.6699v-1.6699a1.0001 1.0001 0 0 0-1-1h-1.6699v-1.6699a1.0001 1.0001 0 0 0-1-1zm1 2h24.32v1.6699a1.0001 1.0001 0 0 0 1 1h1.6699v1.6699a1.0001 1.0001 0 0 0 1 1h1.6699v21.648h-1.6699a1.0001 1.0001 0 0 0-1 1v1.6719h-1.6699a1.0001 1.0001 0 0 0-1 1v4.3398h-5.8203v-0.66992h4.3398a1.0001 1.0001 0 0 0 1-1v-7.0117h4.1504a1.0001 1.0001 0 0 0 1-1v-2.6699a1.0001 1.0001 0 0 0-1-1h-8.0098a1.0001 1.0001 0 0 0-1 1v4.3398h-0.67188v-1.6699a1.0001 1.0001 0 0 0-1-1h-10.299a1.0001 1.0001 0 0 0-1 1v1.6699h-0.66992v-4.3398a1.0001 1.0001 0 0 0-1-1h-8.0098a1.0001 1.0001 0 0 0-1 1v2.6699a1.0001 1.0001 0 0 0 1 1h4.1504v7.0117a1.0001 1.0001 0 0 0 1 1h4.3398v0.66992h-5.8203v-4.3398a1.0001 1.0001 0 0 0-1-1h-1.6699v-1.6719a1.0001 1.0001 0 0 0-1-1h-1.6699v-21.648h1.6699a1.0001 1.0001 0 0 0 1-1v-1.6699h1.6699a1.0001 1.0001 0 0 0 1-1zm-1 6.0098a1.0001 1.0001 0 0 0-1 1v5.3398a1.0001 1.0001 0 0 0 1 1h2.6699a1.0001 1.0001 0 0 0 1-1v-1.6699h0.48047v1.6699a1.0001 1.0001 0 0 0 1 1h2.8594a1.0001 1.0001 0 0 0 1-1v-5.3398a1.0001 1.0001 0 0 0-1-1zm18.309 0a1.0001 1.0001 0 0 0-1 1v5.3398a1.0001 1.0001 0 0 0 1 1h2.6699a1.0001 1.0001 0 0 0 1-1v-1.6699h0.48047v1.6699a1.0001 1.0001 0 0 0 1 1h2.8613a1.0001 1.0001 0 0 0 1-1v-5.3398a1.0001 1.0001 0 0 0-1-1zm-17.309 2h6.0098v3.3398h-0.85938v-1.6699a1.0001 1.0001 0 0 0-1-1h-2.4805a1.0001 1.0001 0 0 0-1 1v1.6699h-0.66992zm18.309 0h6.0117v3.3398h-0.86133v-1.6699a1.0001 1.0001 0 0 0-1-1h-2.4805a1.0001 1.0001 0 0 0-1 1v1.6699h-0.66992z" stop-color="#000000" stroke-linejoin="round"/>
</svg>
