<?xml version="1.0" encoding="UTF-8"?>
<svg id="a" version="1.1" viewBox="0 0 48 48" xmlns="http://www.w3.org/2000/svg">
 <defs id="defs4">
  <style id="style2">.b{fill:none;stroke:#000;stroke-width:2px;stroke-linecap:round;stroke-linejoin:round;}</style>
 </defs>
 <path id="path6" d="m23.848 1.498c-8.7675 0.06851-17.072 5.2902-20.635 13.893-4.7508 11.469 0.70791 24.646 12.178 29.396 11.47 4.7508 24.646-0.70793 29.396-12.178a1.0001 1.0001 0 0 0-0.54102-1.3047l-7.3906-3.0625a1.0001 1.0001 0 0 0-1.3066 0.54102c-2.6464 6.389-9.9422 9.4118-16.332 6.7656-6.3884-2.6461-9.4105-9.9427-6.7656-16.332v-2e-3c2.6469-6.3879 9.9447-9.4096 16.334-6.7637 3.1946 1.3233 5.5409 3.807 6.7656 6.7637a1.0001 1.0001 0 0 0 1.3066 0.54102l7.3906-3.0605a1.0001 1.0001 0 0 0 0.54102-1.3066c-2.2029-5.3185-6.4432-9.8018-12.178-12.178a1.0001 1.0001 0 0 0 0 0.00195c-5.89e-4 -2.439e-4 -0.0014 2.439e-4 -2e-3 0-2.8667-1.1872-5.8398-1.7377-8.7617-1.7148zm0.0059 1.9941c2.663-0.018768 5.3745 0.48407 7.9922 1.5684 5.42e-4 2.245e-4 0.0014-2.246e-4 2e-3 0 4.9002 2.031 8.5249 5.7651 10.623 10.207l-5.545 2.2949c-1.505-3.0231-4.017-5.5672-7.377-6.959-7.3882-3.0596-15.885 0.46007-18.945 7.8477-3.0596 7.3882 0.46007 15.885 7.8477 18.945 7.0718 2.9286 15.106-0.21352 18.469-6.9629l5.543 2.2969c-4.6459 9.8282-16.152 14.415-26.307 10.209-10.471-4.3372-15.433-16.313-11.096-26.783a1.0001 1.0001 0 0 0 0-2e-3c3.2529-7.8534 10.804-12.606 18.793-12.662z" color="#000000" stroke-linecap="round" stroke-linejoin="round" style="-inkscape-stroke:none"/>
 <path id="path8" d="m15.391 3.2129a1 1 0 0 0-0.54102 1.3066l3.0605 7.3906a1 1 0 0 0 1.3066 0.54102 1 1 0 0 0 0.54102-1.3066l-3.0605-7.3906a1 1 0 0 0-1.3066-0.54102zm17.221 0a1 1 0 0 0-1.3066 0.54102l-3.0625 7.3906a1 1 0 0 0 0.54102 1.3066 1 1 0 0 0 1.3066-0.54102l3.0625-7.3906a1 1 0 0 0-0.54102-1.3066zm-28.092 11.635a1 1 0 0 0-1.3066 0.54102 1 1 0 0 0 0.54102 1.3066l7.3906 3.0625a1 1 0 0 0 1.3066-0.54102 1 1 0 0 0-0.54102-1.3066zm6.625 13.395-7.3906 3.0605a1 1 0 0 0-0.54102 1.3066 1 1 0 0 0 1.3066 0.54297l7.3906-3.0625a1 1 0 0 0 0.54102-1.3066 1 1 0 0 0-1.3066-0.54102zm7.3066 7.3066a1 1 0 0 0-0.54102 0.54102l-3.0605 7.3906a1 1 0 0 0 0.54102 1.3066 1 1 0 0 0 1.3066-0.54102l3.0605-7.3906a1 1 0 0 0-0.54102-1.3066 1 1 0 0 0-0.76562 0zm10.332 0a1 1 0 0 0-0.54102 1.3066l3.0625 7.3906a1 1 0 0 0 1.3066 0.54102 1 1 0 0 0 0.54102-1.3066l-3.0625-7.3906a1 1 0 0 0-1.3066-0.54102z" color="#000000" stroke-linecap="round" stroke-linejoin="round" style="-inkscape-stroke:none"/>
</svg>
