<?xml version="1.0" encoding="UTF-8"?>
<svg id="a" version="1.1" viewBox="0 0 48 48" xmlns="http://www.w3.org/2000/svg">
 <defs id="defs4">
  <style id="style2">.d{fill:none;stroke:#000;stroke-width:2px;stroke-linecap:round;stroke-linejoin:round;}</style>
 </defs>
 <path id="circle6" d="m24 1.5c-12.415 0-22.5 10.085-22.5 22.5s10.085 22.5 22.5 22.5 22.5-10.085 22.5-22.5-10.085-22.5-22.5-22.5zm0 2c11.334 0 20.5 9.1663 20.5 20.5s-9.1663 20.5-20.5 20.5-20.5-9.1663-20.5-20.5 9.1663-20.5 20.5-20.5z" color="#000000" stroke-linecap="round" stroke-linejoin="round" style="-inkscape-stroke:none"/>
 <path id="path8" d="m16.338 12.326c-1.3836 0.03866-2.7474 0.79217-3.3691 2.2383l-8.5078 19.789a1.0001 1.0001 0 0 0 0.91797 1.3945h5.8047a1.0001 1.0001 0 0 0 0.91797-0.60352l4.2227-9.8223 4.1074 8.252c1.4388 2.89 5.698 2.8901 7.1367 0l4.1074-8.25 4.2227 9.8203a1.0001 1.0001 0 0 0 0.91797 0.60352h5.8047a1.0001 1.0001 0 0 0 0.91797-1.3945l-8.5078-19.789c-1.2434-2.8922-5.4545-3.0097-6.8574-0.19141l-4.1738 8.3848-4.1738-8.3848c-0.70149-1.4091-2.1047-2.0855-3.4883-2.0469zm0.05273 1.9023c0.6406-0.0179 1.2927 0.32442 1.6465 1.0352l5.0684 10.182a1.0001 1.0001 0 0 0 1.7891 0l5.0684-10.182c0.70763-1.4215 2.6033-1.3689 3.2305 0.08984l7.9082 18.395h-3.627l-4.8125-11.195a1.0001 1.0001 0 0 0-1.8145-0.05078l-5.0684 10.182c-0.75932 1.5253-2.7992 1.5254-3.5586 0l-5.0684-10.182a1.0001 1.0001 0 0 0-1.8125 0.05078l-4.8145 11.195h-3.627l7.9082-18.395c0.31358-0.72939 0.94338-1.1071 1.584-1.125z" color="#000000" stroke-linecap="round" stroke-linejoin="round" style="-inkscape-stroke:none"/>
 <path id="path10" d="m11.184 33.748a1 1 0 0 0-1 1 1 1 0 0 0 1 1h25.633a1 1 0 0 0 1-1 1 1 0 0 0-1-1z" color="#000000" stroke-linecap="round" stroke-linejoin="round" style="-inkscape-stroke:none"/>
 <path id="path12" d="m7.9004 37.248a1 1 0 0 0-1 1 1 1 0 0 0 1 1h32.199a1 1 0 0 0 1-1 1 1 0 0 0-1-1z" color="#000000" stroke-linecap="round" stroke-linejoin="round" style="-inkscape-stroke:none"/>
 <path id="path14" d="m5.3516 12.301a1 1 0 0 0-1 1 1 1 0 0 0 1 1h6.0137a1 1 0 0 0 1-1 1 1 0 0 0-1-1zm16.166 0a1 1 0 0 0-1 1 1 1 0 0 0 1 1h4.9648a1 1 0 0 0 1-1 1 1 0 0 0-1-1zm15.119 0a1 1 0 0 0-1 1 1 1 0 0 0 1 1h6.0137a1 1 0 0 0 1-1 1 1 0 0 0-1-1z" color="#000000" stroke-linecap="round" stroke-linejoin="round" style="-inkscape-stroke:none"/>
 <path id="path16" d="m18.594 2.2188a1 1 0 0 0-0.54688 0.53516l-3.1426 7.3086a1 1 0 0 0 0.52344 1.3125 1 1 0 0 0 1.3145-0.52344l3.1406-7.3086a1 1 0 0 0-0.52344-1.3145 1 1 0 0 0-0.76562-0.0097656z" color="#000000" stroke-linecap="round" stroke-linejoin="round" style="-inkscape-stroke:none"/>
 <path id="path18" d="m29.406 2.2188a1 1 0 0 0-0.76562 0.00977 1 1 0 0 0-0.52344 1.3145l3.1406 7.3086a1 1 0 0 0 1.3145 0.52343 1 1 0 0 0 0.52344-1.3125l-3.1426-7.3086a1 1 0 0 0-0.54688-0.53516z" color="#000000" stroke-linecap="round" stroke-linejoin="round" style="-inkscape-stroke:none"/>
</svg>
