<?xml version="1.0" encoding="UTF-8"?>
<svg id="a" version="1.1" viewBox="0 0 48 48" xmlns="http://www.w3.org/2000/svg">
 <defs id="defs4">
  <style id="style2">.c{fill:none;stroke:#000;stroke-width:2px;stroke-linecap:round;stroke-linejoin:round;}</style>
 </defs>
 <path id="polyline6" d="m13.359 24.727a1 1 0 0 0-1.0254 0.97461l-0.20508 7.9785a1.0001 1.0001 0 0 0 0.55078 0.91992l10.873 5.4336a1 1 0 0 0 1.3418-0.44922 1 1 0 0 0-0.44726-1.3418l-10.303-5.1465 0.1875-7.3438a1 1 0 0 0-0.97266-1.0254z" color="#000000" stroke-linecap="round" stroke-linejoin="round" style="-inkscape-stroke:none"/>
 <path id="polyline8" d="m14.6 38.988a1.0001 1.0001 0 0 0-0.67773 0.71094l-0.09766 0.37891-0.76758-0.5a1.0001 1.0001 0 0 0-1.4473 0.4043l-0.76367 1.5859a1 1 0 0 0 0.4668 1.334 1 1 0 0 0 1.3359-0.4668l0.26953-0.56055 0.98633 0.64258a1.0001 1.0001 0 0 0 1.5137-0.5918l0.0332-0.13281 2.209 1.9824a1.0001 1.0001 0 0 0 1.3691-0.03125l1.1699-1.1504 3.3145 1.8398a1 1 0 0 0 1.3613-0.38867 1 1 0 0 0-0.38867-1.3594l-3.9688-2.2031a1.0001 1.0001 0 0 0-1.1875 0.16016l-1.0332 1.0156-2.7383-2.457a1.0001 1.0001 0 0 0-0.95898-0.21289z" color="#000000" stroke-linecap="round" stroke-linejoin="round" style="-inkscape-stroke:none"/>
 <path id="polyline10" d="m16.91 11.834a1.0001 1.0001 0 0 0-0.90039 0.38281l-2.2051 2.8496a1.0001 1.0001 0 0 0-0.18359 0.39453l-0.2207 0.99219-0.47656 1.2871a1.0001 1.0001 0 0 0-0.06055 0.28516l-0.25391 4.0742-0.41406 1.0586a1.0001 1.0001 0 0 0-0.0625 0.45703l0.20508 2.2031a1.0001 1.0001 0 0 0 0.34375 0.66602l1.1641 1.002 1.3379 1.957v1.9531a1.0001 1.0001 0 0 0 0.48633 0.85742l3.4375 2.0645 2.6289 2.4004a1.0001 1.0001 0 0 0 1.2188 0.09961l1.5879-1.0273a1 1 0 0 0 0.29688-1.3828 1 1 0 0 0-1.3828-0.29688l-0.94141 0.60938-2.1328-1.9473a1.0001 1.0001 0 0 0-0.16016-0.11914l-3.0391-1.8242v-1.6953a1.0001 1.0001 0 0 0-0.17383-0.56445l-1.5879-2.3223a1.0001 1.0001 0 0 0-0.17383-0.19336l-0.95703-0.82422-0.14648-1.5645 0.38477-0.98438a1.0001 1.0001 0 0 0 0.06641-0.30078l0.25586-4.084 0.44726-1.2148a1.0001 1.0001 0 0 0 0.03906-0.12891l0.18555-0.83984 1.7246-2.2285 4.1719 0.4668a1.0001 1.0001 0 0 0 0.05078 0.0039l2.4707 0.14648a1 1 0 0 0 1.0566-0.9375 1 1 0 0 0-0.93945-1.0586l-2.4434-0.14453z" color="#000000" stroke-linecap="round" stroke-linejoin="round" style="-inkscape-stroke:none"/>
 <path id="polyline12" d="m18.506 12.043a1 1 0 0 0-1.2852 0.58984l-1.5059 4.0488a1.0001 1.0001 0 0 0-0.04883 0.1875l-0.46875 2.877-0.5293 3.2012a1.0001 1.0001 0 0 0-0.0078 0.27148l0.32227 2.9961a1 1 0 0 0 1.1016 0.88672 1 1 0 0 0 0.88672-1.1016l-0.30859-2.8594 0.50781-3.0684a1.0001 1.0001 0 0 0 2e-3 -2e-3l0.45308-2.7832 1.4707-3.959a1 1 0 0 0-0.58984-1.2852z" color="#000000" stroke-linecap="round" stroke-linejoin="round" style="-inkscape-stroke:none"/>
 <path id="line14" d="m19.121 20.613a1 1 0 0 0-1 1v4.9648a1 1 0 0 0 1 1 1 1 0 0 0 1-1v-4.9648a1 1 0 0 0-1-1z" color="#000000" stroke-linecap="round" stroke-linejoin="round" style="-inkscape-stroke:none"/>
 <path id="polyline16" d="m23.742 30.576-2.5293 0.67578a1.0001 1.0001 0 0 0-0.33203 0.16016l-1.7637 1.293a1 1 0 0 0-0.21484 1.3984 1 1 0 0 0 1.3984 0.21484l1.6094-1.1816 2.3477-0.62695a1 1 0 0 0 0.70898-1.2246 1 1 0 0 0-1.2246-0.70898z" color="#000000" stroke-linecap="round" stroke-linejoin="round" style="-inkscape-stroke:none"/>
 <path id="polyline18" d="m23.717 3.041-6.1719 1.8223a1.0001 1.0001 0 0 0-0.32227 0.16406l-5.7012 4.3477a1.0001 1.0001 0 0 0-0.38281 0.65234l-1.0488 7.2891-1.2207 4.707a1.0001 1.0001 0 0 0 0.033203 0.60352l1.0527 2.7891-1.0703 3.3711a1.0001 1.0001 0 0 0-0.042969 0.39062l0.50195 5.7148-1.8594 3.5293a1.0001 1.0001 0 0 0-0.11523 0.52539l0.20703 3.4668a1.0001 1.0001 0 0 0 1.7539 0.59375l1.1797-1.3652 0.31445 0.74805a1.0001 1.0001 0 0 0 0.16211 0.25977l1.7031 1.998a1 1 0 0 0 1.4102 0.11328 1 1 0 0 0 0.11133-1.4102l-1.6035-1.8809-0.87891-2.0898a1.0001 1.0001 0 0 0-1.6797-0.26562l-0.62305 0.7207-0.042969-0.72852 1.8672-3.543a1.0001 1.0001 0 0 0 0.11133-0.55469l-0.50976-5.8086 1.1133-3.5098a1.0001 1.0001 0 0 0-0.01758-0.65625l-1.0625-2.8164 1.1543-4.4531a1.0001 1.0001 0 0 0 0.02148-0.10938l1-6.9395 5.2285-3.9883 5.7109-1.6855 5.7109 1.6855 5.2285 3.9883 1 6.9395a1.0001 1.0001 0 0 0 0.02148 0.10938l1.1543 4.4531-1.0625 2.8164a1.0001 1.0001 0 0 0-0.01758 0.65625l1.1133 3.5098-0.50976 5.8086a1.0001 1.0001 0 0 0 0.11133 0.55469l1.8672 3.543-0.04297 0.72852-0.62305-0.7207a1.0001 1.0001 0 0 0-1.6797 0.26562l-0.87891 2.0898-1.6035 1.8809a1 1 0 0 0 0.11133 1.4102 1 1 0 0 0 1.4102-0.11328l1.7031-1.998a1.0001 1.0001 0 0 0 0.16211-0.25977l0.31445-0.74805 1.1797 1.3652a1.0001 1.0001 0 0 0 1.7539-0.59375l0.20703-3.4668a1.0001 1.0001 0 0 0-0.11523-0.52539l-1.8594-3.5293 0.50195-5.7148a1.0001 1.0001 0 0 0-0.04297-0.39062l-1.0703-3.3711 1.0527-2.7891a1.0001 1.0001 0 0 0 0.0332-0.60352l-1.2207-4.707-1.0488-7.2891a1.0001 1.0001 0 0 0-0.38281-0.65234l-5.7012-4.3477a1.0001 1.0001 0 0 0-0.32227-0.16406l-6.1719-1.8223a1.0001 1.0001 0 0 0-0.56641 0z" color="#000000" stroke-linecap="round" stroke-linejoin="round" style="-inkscape-stroke:none"/>
 <path id="polyline20" d="m34.641 24.727a1 1 0 0 0-0.97266 1.0254l0.1875 7.3438-10.303 5.1465a1 1 0 0 0-0.44726 1.3418 1 1 0 0 0 1.3418 0.44922l10.873-5.4336a1.0001 1.0001 0 0 0 0.55078-0.91992l-0.20508-7.9785a1 1 0 0 0-1.0254-0.97461z" color="#000000" stroke-linecap="round" stroke-linejoin="round" style="-inkscape-stroke:none"/>
 <path id="polyline22" d="m33.4 38.988a1.0001 1.0001 0 0 0-0.95898 0.21289l-2.7383 2.457-1.0332-1.0156a1.0001 1.0001 0 0 0-1.1875-0.16016l-3.9688 2.2031a1 1 0 0 0-0.38867 1.3594 1 1 0 0 0 1.3613 0.38867l3.3145-1.8398 1.1699 1.1504a1.0001 1.0001 0 0 0 1.3691 0.03125l2.209-1.9824 0.0332 0.13281a1.0001 1.0001 0 0 0 1.5137 0.5918l0.98633-0.64258 0.26953 0.56055a1 1 0 0 0 1.3359 0.4668 1 1 0 0 0 0.4668-1.334l-0.76367-1.5859a1.0001 1.0001 0 0 0-1.4473-0.4043l-0.76758 0.5-0.09766-0.37891a1.0001 1.0001 0 0 0-0.67773-0.71094z" color="#000000" stroke-linecap="round" stroke-linejoin="round" style="-inkscape-stroke:none"/>
 <path id="polyline24" d="m31.09 11.834-4.7051 0.52734-2.4434 0.14453a1 1 0 0 0-0.93945 1.0586 1 1 0 0 0 1.0566 0.9375l2.4707-0.14648a1.0001 1.0001 0 0 0 0.05078-0.0039l4.1719-0.4668 1.7246 2.2285 0.18555 0.83984a1.0001 1.0001 0 0 0 0.03906 0.12891l0.44726 1.2148 0.25586 4.084a1.0001 1.0001 0 0 0 0.06641 0.30078l0.38477 0.98438-0.14648 1.5645-0.95703 0.82422a1.0001 1.0001 0 0 0-0.17383 0.19336l-1.5879 2.3223a1.0001 1.0001 0 0 0-0.17383 0.56445v1.6953l-3.0391 1.8242a1.0001 1.0001 0 0 0-0.16016 0.11914l-2.1328 1.9473-0.94141-0.60938a1 1 0 0 0-1.3828 0.29688 1 1 0 0 0 0.29688 1.3828l1.5879 1.0273a1.0001 1.0001 0 0 0 1.2188-0.09961l2.6289-2.4004 3.4375-2.0645a1.0001 1.0001 0 0 0 0.48633-0.85742v-1.9531l1.3379-1.957 1.1641-1.002a1.0001 1.0001 0 0 0 0.34375-0.66602l0.20508-2.2031a1.0001 1.0001 0 0 0-0.0625-0.45703l-0.41406-1.0586-0.25391-4.0742a1.0001 1.0001 0 0 0-0.06055-0.28516l-0.47656-1.2871-0.2207-0.99219a1.0001 1.0001 0 0 0-0.18359-0.39453l-2.2051-2.8496a1.0001 1.0001 0 0 0-0.90039-0.38281z" color="#000000" stroke-linecap="round" stroke-linejoin="round" style="-inkscape-stroke:none"/>
 <path id="line26" d="m28.879 20.613a1 1 0 0 0-1 1v4.9648a1 1 0 0 0 1 1 1 1 0 0 0 1-1v-4.9648a1 1 0 0 0-1-1z" color="#000000" stroke-linecap="round" stroke-linejoin="round" style="-inkscape-stroke:none"/>
 <path id="polyline28" d="m24.258 30.576a1 1 0 0 0-1.2246 0.70898 1 1 0 0 0 0.70898 1.2246l2.3477 0.62695 1.6094 1.1816a1 1 0 0 0 1.3984-0.21484 1 1 0 0 0-0.21484-1.3984l-1.7637-1.293a1.0001 1.0001 0 0 0-0.33203-0.16016z" color="#000000" stroke-linecap="round" stroke-linejoin="round" style="-inkscape-stroke:none"/>
</svg>
