<?xml version="1.0" encoding="UTF-8"?>
<svg id="a" version="1.1" viewBox="0 0 48 48" xmlns="http://www.w3.org/2000/svg">
 <defs id="defs4">
  <style id="style2">.b{fill:none;stroke:#000;stroke-width:2px;stroke-linecap:round;stroke-linejoin:round;}</style>
 </defs>
 <path id="line6" d="m33.984 8.8418a1 1 0 0 0-1 1v10.1a1 1 0 0 0 1 1 1 1 0 0 0 1-1v-10.1a1 1 0 0 0-1-1z" color="#000000" stroke-linecap="round" stroke-linejoin="round" style="-inkscape-stroke:none"/>
 <path id="path8" d="m14.373 19.006a1.0001 1.0001 0 0 0-1.3574 0.93555v16.727a1.0001 1.0001 0 0 0 0.43555 0.82617l9.9844 6.832a1 1 0 0 0 1.3906-0.26172 1 1 0 0 0-0.26172-1.3906l-9.5488-6.5332v-15.012c2.6847 0.67439 6.2511 0.85156 8.9844 0.85156a1 1 0 0 0 1-1 1 1 0 0 0-1-1c-3.0937 0-7.7146-0.24323-9.627-0.97461z" color="#000000" stroke-linecap="round" stroke-linejoin="round" style="-inkscape-stroke:none"/>
 <path id="path10" d="m33.627 19.006c-1.9118 0.73201-6.533 0.97461-9.627 0.97461a1 1 0 0 0-1 1 1 1 0 0 0 1 1c2.7331 0 6.2993-0.17654 8.9844-0.85156v15.012l-9.5488 6.5332a1 1 0 0 0-0.26172 1.3906 1 1 0 0 0 1.3906 0.26172l9.9844-6.832a1.0001 1.0001 0 0 0 0.43555-0.82617v-16.727a1.0001 1.0001 0 0 0-1.3574-0.93555z" color="#000000" stroke-linecap="round" stroke-linejoin="round" style="-inkscape-stroke:none"/>
 <path id="line12" d="m29.055 25.896a1 1 0 0 0-1 1v4.7695a1 1 0 0 0 1 1 1 1 0 0 0 1-1v-4.7695a1 1 0 0 0-1-1z" color="#000000" stroke-linecap="round" stroke-linejoin="round" style="-inkscape-stroke:none"/>
 <path id="path14" d="m32.623 4.2422c-1.9266 0-3.5098 1.5831-3.5098 3.5098 1.4e-4 1.2608 0.68094 2.428 1.7773 3.0508a1 1 0 0 0 1.3633-0.375 1 1 0 0 0-0.37695-1.3633c-0.4736-0.26902-0.76361-0.7677-0.76367-1.3125 0-0.84578 0.66399-1.5098 1.5098-1.5098s1.5098 0.66399 1.5098 1.5098c-1.2e-4 0.51409-0.25921 0.98898-0.69141 1.2676a1 1 0 0 0-0.29883 1.3828 1 1 0 0 0 1.3828 0.29883c1.0012-0.6454 1.6071-1.7581 1.6074-2.9492 0-1.9266-1.5831-3.5098-3.5098-3.5098z" color="#000000" stroke-linecap="round" stroke-linejoin="round" style="-inkscape-stroke:none"/>
 <path id="path16" d="m23.998 3.5c-1.9266 0-3.5098 1.5831-3.5098 3.5098 0 0.97312 0.44813 1.7998 1.0547 2.4629l-0.064453 3.2773c-1.3042-0.02339-2.5855-0.07916-3.8633-0.25586v-2.5625a1 1 0 0 0-1-1 1 1 0 0 0-1 1v3.4902a1.0001 1.0001 0 0 0 0.81055 0.98242c2.1476 0.4136 4.1154 0.36392 6.0078 0.41211a1.0001 1.0001 0 0 0 1.0234-0.98047l0.0918-4.6563a1.0001 1.0001 0 0 0-0.375-0.80078c-0.39959-0.32043-0.68555-0.85469-0.68555-1.3691 0-0.84578 0.66399-1.5098 1.5098-1.5098 0.84353 0 1.5062 0.66134 1.5098 1.5039-0.0071 0.54898-0.26873 1.061-0.71094 1.3867a1.0001 1.0001 0 0 0-0.40625 0.83789l0.15039 4.6211a1.0001 1.0001 0 0 0 1.0234 0.9668c1.8924-0.04819 3.8595 3.26e-4 6.0078-0.41211a1.0001 1.0001 0 0 0 0.81055-0.98242v-3.4902a1 1 0 0 0-1-1 1 1 0 0 0-1 1v2.5625c-1.2829 0.17691-2.568 0.23241-3.877 0.25586l-0.10547-3.2402c0.64895-0.68176 1.0995-1.5337 1.1094-2.4902a1.0001 1.0001 0 0 0 0-0.00977c0-1.9266-1.5851-3.5098-3.5117-3.5098z" color="#000000" stroke-linecap="round" stroke-linejoin="round" style="-inkscape-stroke:none"/>
 <path id="line18" d="m14.016 8.8418a1 1 0 0 0-1 1v10.1a1 1 0 0 0 1 1 1 1 0 0 0 1-1v-10.1a1 1 0 0 0-1-1z" color="#000000" stroke-linecap="round" stroke-linejoin="round" style="-inkscape-stroke:none"/>
 <path id="line20" d="m18.945 25.896a1 1 0 0 0-1 1v4.7695a1 1 0 0 0 1 1 1 1 0 0 0 1-1v-4.7695a1 1 0 0 0-1-1z" color="#000000" stroke-linecap="round" stroke-linejoin="round" style="-inkscape-stroke:none"/>
 <path id="path22" d="m15.377 4.2422c-1.9261 0-3.5089 1.5818-3.5098 3.5078-1.4e-4 1.1916 0.60582 2.3055 1.6074 2.9512a1 1 0 0 0 1.3828-0.29883 1 1 0 0 0-0.29883-1.3828c-0.4324-0.27874-0.69147-0.75314-0.69141-1.2676 3.66e-4 -0.84555 0.66426-1.5098 1.5098-1.5098 0.84578 0 1.5098 0.66399 1.5098 1.5098-3.02e-4 0.54451-0.29024 1.0416-0.76367 1.3105a1 1 0 0 0-0.37695 1.3652 1 1 0 0 0 1.3633 0.375c1.0958-0.6226 1.7766-1.7905 1.7773-3.0508 0-1.9266-1.5831-3.5098-3.5098-3.5098z" color="#000000" stroke-linecap="round" stroke-linejoin="round" style="-inkscape-stroke:none"/>
</svg>
