<?xml version="1.0" encoding="UTF-8"?>
<svg id="a" version="1.1" viewBox="0 0 48 48" xmlns="http://www.w3.org/2000/svg">
 <defs id="defs4">
  <style id="style2">.b{fill:none;stroke:#000;stroke-width:2px;stroke-linecap:round;stroke-linejoin:round;}</style>
 </defs>
 <path id="path6" d="m14.836 7.8223 0.02734 0.12695a1.0001 1.0001 0 0 0-0.51758-0.021484 1.0001 1.0001 0 0 0-0.46289 0.9668l-0.08984-0.054687 0.14062 8.2031a1.0001 1.0001 0 0 0 0.38086 0.76953c1.9603 1.5391 4.2871 4.3742 4.2871 8.0742 0 4.0672-0.10712 5.2128-4.002 9.9102a1.0001 1.0001 0 0 0 0.48438 1.5977c1.9935 0.59381 3.6071 0.65161 4.8828 0.31445 1.2757-0.33715 2.2038-1.1004 2.6582-2.0234 0.43874-0.89121 0.286-1.8371-0.0059-2.3594-0.07008-0.1254-0.11171-0.16844-0.17383-0.25586 0.01281-0.01365 0.01381-0.01698 0.02734-0.03125 0.11541-0.12168 0.25522-0.26322 0.39844-0.46094 0.14322-0.19772 0.33203-0.47198 0.33203-0.92969 0-0.22061-0.13216-0.37502-0.22656-0.56055 0.2173-0.16016 0.56445-0.49314 0.56445-1.0293 0-0.76775-0.36326-0.98453-0.48828-1.1777-0.04654-0.07192-0.03679-0.11591-0.0625-0.16797 0.11826-0.04715 0.20007-0.08468 0.38086-0.14648 0.29778-0.1018 0.64482-0.20796 1.0137-0.44336 0.36885-0.2354 0.82617-0.76104 0.82617-1.4023 0-0.40398-0.11148-0.63538-0.22656-0.89844-0.11509-0.26306-0.25985-0.52924-0.42578-0.81445-0.33187-0.57044-0.75048-1.2072-1.1641-1.8301-0.41358-0.62286-0.82192-1.2321-1.1113-1.7109-0.13659-0.226-0.23985-0.41487-0.30664-0.55274 0.02379-0.01947 0.0081-0.0063 0.04297-0.0332 0.27152-0.20909 0.88672-0.84397 0.88672-1.668 0-0.331-0.05472-0.55352-0.13672-0.92774-0.082-0.37422-0.20063-0.83391-0.35742-1.3574-0.31355-1.047-0.77793-2.3417-1.4043-3.6309-0.62632-1.2892-1.4105-2.5747-2.4102-3.5996-0.99965-1.0249-2.2658-1.8116-3.7617-1.875zm0.98047 2.3027c0.4595 0.2142 0.90965 0.5177 1.3496 0.96875 0.77338 0.79289 1.4773 1.9139 2.043 3.0781s0.99976 2.3707 1.2871 3.3301c0.14367 0.47971 0.2495 0.89864 0.31836 1.2129 0.06886 0.31425 0.0918 0.59068 0.0918 0.49805 0 0.1295 0.1177-0.08938-0.10742 0.08398-0.11256 0.08668-0.31187 0.21726-0.51758 0.47852-0.2057 0.26126-0.36914 0.67906-0.36914 1.0859 0 0.43922 0.12317 0.62702 0.23828 0.87109 0.11511 0.24408 0.25741 0.49546 0.42188 0.76758 0.32893 0.54424 0.74538 1.1664 1.1562 1.7852 0.41086 0.61876 0.81509 1.2342 1.1016 1.7266 0.11903 0.2046 0.20028 0.36778 0.26758 0.50976-0.11012 0.04828-0.19206 0.09047-0.37305 0.15234-0.2833 0.09685-0.61243 0.19234-0.9707 0.39648-0.35827 0.20414-0.86914 0.69235-0.86914 1.3594 0 0.58068 0.22957 0.98402 0.41602 1.3066-0.06011 0.0311-0.09671 0.04049-0.16797 0.08594-0.10177 0.06491-0.22306 0.14769-0.35352 0.30664s-0.27148 0.43354-0.27148 0.74414c0 0.40454 0.2491 0.71027 0.43164 0.88281-0.09679 0.10176-0.19791 0.2052-0.31055 0.35742-0.14227 0.19227-0.33984 0.45643-0.33984 0.92578 1e-6 0.53287 0.23262 0.76468 0.34766 0.92383 0.11504 0.15915 0.19352 0.2613 0.23633 0.33789 0.08561 0.15319 0.15399 0.10186-0.04297 0.50195-0.18131 0.3683-0.56474 0.75851-1.375 0.97266-0.54592 0.14428-1.3717 0.11957-2.332-0.02148 2.9703-3.8951 3.4785-6.1379 3.4785-9.8672 0-4.2825-2.4687-7.441-4.6758-9.2969z" color="#000000" stroke-linecap="round" stroke-linejoin="round" style="-inkscape-stroke:none"/>
 <path id="path8" d="m8.8613 16.244a1 1 0 0 0-0.76562 0.005859c-2.1151 0.89465-3.5957 2.9942-3.5957 5.4238 0 3.2394 2.6473 5.8867 5.8867 5.8867 3.2394 0 5.8867-2.6473 5.8867-5.8867 0-2.2081-1.2234-4.1457-3.0332-5.1504a1 1 0 0 0-1.3594 0.38867 1 1 0 0 0 0.38867 1.3594c1.194 0.66287 2.0039 1.931 2.0039 3.4023 0 2.1586-1.7282 3.8867-3.8867 3.8867s-3.8867-1.7282-3.8867-3.8867c0-1.619 0.98213-2.9929 2.375-3.582a1 1 0 0 0 0.53125-1.3105 1 1 0 0 0-0.54492-0.53711z" color="#000000" stroke-linecap="round" stroke-linejoin="round" style="-inkscape-stroke:none"/>
 <path id="line10" d="m12.783 6.334a1 1 0 0 0-1.002 0.99609l-0.02539 10.064a1 1 0 0 0 0.99805 1.002 1 1 0 0 0 1.002-0.99609l0.02539-10.064a1 1 0 0 0-0.99805-1.002z" color="#000000" stroke-linecap="round" stroke-linejoin="round" style="-inkscape-stroke:none"/>
 <path id="path12" d="m20.885 5.0137c-6.1803 0-10.801 2.3047-10.801 2.3047a1.0001 1.0001 0 0 0-0.5293 0.67188l-2.0449 8.957a1 1 0 0 0 0.75195 1.1973 1 1 0 0 0 1.1973-0.75195l1.9258-8.4355c0.556-0.26173 4.227-1.9434 9.5-1.9434 4.7644 0 9.9907 1.5622 13.951 4.4727 3.9605 2.9105 6.6641 7.089 6.6641 12.541 0 5.4352-2.8366 9.6038-6.875 12.508s-9.2788 4.4512-13.74 4.4512c-3.7445 0-6.2362-0.46678-7.7676-0.91406-1.5314-0.44729-2.0117-0.81055-2.0117-0.81055a1 1 0 0 0-1.3926 0.24023 1 1 0 0 0 0.24023 1.3926s0.87024 0.59139 2.6035 1.0977c1.7333 0.50626 4.4176 0.99414 8.3281 0.99414 4.9153 0 10.484-1.6465 14.908-4.8281s7.707-7.9908 7.707-14.131c0-6.1233-3.1237-10.953-7.4805-14.154-4.3567-3.2016-9.9395-4.8594-15.135-4.8594z" color="#000000" stroke-linecap="round" stroke-linejoin="round" style="-inkscape-stroke:none"/>
 <path id="path14" d="m21.297 7.8066c-2.4693-0.3118-4.7985-0.27572-6.6641 0.029297a1 1 0 0 0-0.82617 1.1484 1 1 0 0 0 1.1484 0.82422c3.2352-0.52896 8.6233-0.094768 13.021 1.8789 4.3982 1.9737 7.7754 5.2774 7.7754 10.775 0 5.5375-3.0863 8.892-6.9141 10.971-3.8277 2.0787-8.4308 2.7027-10.719 2.4844a1 1 0 0 0-1.0898 0.90039 1 1 0 0 0 0.90039 1.0898c2.8507 0.27205 7.6121-0.40813 11.863-2.7168 4.2511-2.3087 7.959-6.4259 7.959-12.729 0-6.3422-4.1175-10.428-8.957-12.6-2.4198-1.0859-5.0288-1.7448-7.498-2.0566z" color="#000000" stroke-linecap="round" stroke-linejoin="round" style="-inkscape-stroke:none"/>
</svg>
