<?xml version="1.0" encoding="UTF-8"?>
<svg id="svg16" version="1.1" viewBox="0 0 48 48" xml:space="preserve" xmlns="http://www.w3.org/2000/svg"><defs id="defs4"><style id="style2">.b{fill:none;stroke:#000;stroke-linecap:round;stroke-linejoin:round;stroke-width:2px;}</style></defs><path id="rect6" d="m9.5 4.5c-2.7527 0-5 2.2473-5 5v29c0 2.7527 2.2473 5 5 5h29c2.7527 0 5-2.2473 5-5v-29c0-2.7527-2.2473-5-5-5zm0 2h29c1.6793 0 3 1.3207 3 3v29c0 1.6793-1.3207 3-3 3h-29c-1.6793 0-3-1.3207-3-3v-29c0-1.6793 1.3207-3 3-3z" color="#000000" stroke-linecap="round" stroke-linejoin="round" style="-inkscape-stroke:none"/><path id="path8" d="m23.355 7.3613-13.674 7.8945a1.0001 1.0001 0 0 0-0.5 0.85938l-0.097656 15.893a1.0001 1.0001 0 0 0 0.49805 0.87305l13.842 7.9902a1.0001 1.0001 0 0 0 1 0l13.877-8.0117a1.0001 1.0001 0 0 0 0.5-0.86523v-15.715a1.0001 1.0001 0 0 0-0.5-0.86523l-13.945-8.0527a1.0001 1.0001 0 0 0-1 0zm0.5 2.0215 12.945 7.4746v14.559l-12.877 7.4336-12.838-7.4102 0.0918-14.738z" color="#000000" stroke-linecap="round" stroke-linejoin="round" style="-inkscape-stroke:none"/><path id="path10" d="m37.307 15.434-13.768 7.791a1.0001 1.0001 0 0 0-0.50781 0.86328l-0.10352 15.873a1 1 0 0 0 0.99219 1.0059 1 1 0 0 0 1.0078-0.99414l0.09961-15.293 13.264-7.5059a1 1 0 0 0 0.37891-1.3633 1 1 0 0 0-1.3633-0.37695z" color="#000000" stroke-linecap="round" stroke-linejoin="round" style="-inkscape-stroke:none"/><path id="path12" d="m10.691 15.262a1 1 0 0 0-1.3672 0.36719 1 1 0 0 0 0.36719 1.3652l13.836 7.9805a1 1 0 0 0 1.3652-0.36719 1 1 0 0 0-0.36523-1.3652z" color="#000000" stroke-linecap="round" stroke-linejoin="round" style="-inkscape-stroke:none"/><path id="path14" d="m32.799 29.578a1 1 0 0 0-0.75977 0.09961l-5.2734 3.0469a1 1 0 0 0-0.36719 1.3652 1 1 0 0 0 1.3672 0.36523l5.2734-3.0449a1 1 0 0 0 0.36719-1.3652 1 1 0 0 0-0.60742-0.4668z" color="#000000" stroke-linecap="round" stroke-linejoin="round" style="-inkscape-stroke:none"/></svg>
