<?xml version="1.0" encoding="UTF-8"?>
<svg id="svg28" version="1.1" viewBox="0 0 48 48" xmlns="http://www.w3.org/2000/svg">
 <defs id="defs4">
  <style id="style2">.a{fill:none;stroke:#fff;stroke-width:2px;stroke-linecap:round;stroke-linejoin:round;}</style>
 </defs>
 <path id="circle6" d="m24 1.5c-12.415 0-22.5 10.085-22.5 22.5s10.085 22.5 22.5 22.5 22.5-10.085 22.5-22.5-10.085-22.5-22.5-22.5zm0 2c11.334 0 20.5 9.1663 20.5 20.5s-9.1663 20.5-20.5 20.5-20.5-9.1663-20.5-20.5 9.1663-20.5 20.5-20.5z" color="#000000" fill="#fff" stroke-linecap="round" stroke-linejoin="round" style="-inkscape-stroke:none"/>
 <path id="circle8" d="m28.348 21.424c-2.1596 0-3.9316 1.772-3.9316 3.9316 0 2.1596 1.772 3.9316 3.9316 3.9316 2.1596 0 3.9316-1.772 3.9316-3.9316 0-2.1596-1.772-3.9316-3.9316-3.9316zm0 2c1.0787 0 1.9316 0.85289 1.9316 1.9316s-0.85289 1.9316-1.9316 1.9316-1.9316-0.85289-1.9316-1.9316 0.85289-1.9316 1.9316-1.9316z" color="#000000" fill="#fff" stroke-linecap="round" stroke-linejoin="round" style="-inkscape-stroke:none"/>
 <path id="circle10" d="m13.748 20.869c-1.7172 0-3.1309 1.4136-3.1309 3.1309 0 1.7172 1.4136 3.1309 3.1309 3.1309s3.1309-1.4136 3.1309-3.1309-1.4136-3.1309-3.1309-3.1309zm0 2c0.63637 0 1.1309 0.49449 1.1309 1.1309s-0.49449 1.1309-1.1309 1.1309c-0.63637 0-1.1309-0.49449-1.1309-1.1309s0.49449-1.1309 1.1309-1.1309z" color="#000000" fill="#fff" stroke-linecap="round" stroke-linejoin="round" style="-inkscape-stroke:none"/>
 <path id="circle12" d="m26.857 6.127c-1.7172 0-3.1309 1.4136-3.1309 3.1309 0 1.7172 1.4136 3.1309 3.1309 3.1309s3.1309-1.4136 3.1309-3.1309c0-1.7172-1.4136-3.1309-3.1309-3.1309zm0 2c0.63637 0 1.1309 0.49449 1.1309 1.1309s-0.49449 1.1309-1.1309 1.1309c-0.63637 0-1.1309-0.49449-1.1309-1.1309s0.49449-1.1309 1.1309-1.1309z" color="#000000" fill="#fff" stroke-linecap="round" stroke-linejoin="round" style="-inkscape-stroke:none"/>
 <path id="circle14" d="m21.869 26.229c-1.7172 0-3.1309 1.4136-3.1309 3.1309s1.4136 3.1309 3.1309 3.1309c1.7172 0 3.1309-1.4136 3.1309-3.1309s-1.4136-3.1309-3.1309-3.1309zm0 2c0.63637 0 1.1309 0.49449 1.1309 1.1309s-0.49449 1.1309-1.1309 1.1309c-0.63637 0-1.1309-0.49449-1.1309-1.1309s0.49449-1.1309 1.1309-1.1309z" color="#000000" fill="#fff" stroke-linecap="round" stroke-linejoin="round" style="-inkscape-stroke:none"/>
 <path id="line16" d="m28.348 27.287a1 1 0 0 0-1 1v16.629a1 1 0 0 0 1 1 1 1 0 0 0 1-1v-16.629a1 1 0 0 0-1-1z" color="#000000" fill="#fff" stroke-linecap="round" stroke-linejoin="round" style="-inkscape-stroke:none"/>
 <path id="line18" d="m8.3555 8.2578a1 1 0 0 0-1 1 1 1 0 0 0 1 1h16.371a1 1 0 0 0 1-1 1 1 0 0 0-1-1z" color="#000000" fill="#fff" stroke-linecap="round" stroke-linejoin="round" style="-inkscape-stroke:none"/>
 <path id="line20" d="m5.7734 11.594a1 1 0 0 0-1 1v22.607a1 1 0 0 0 1 1 1 1 0 0 0 1-1v-22.607a1 1 0 0 0-1-1z" color="#000000" fill="#fff" stroke-linecap="round" stroke-linejoin="round" style="-inkscape-stroke:none"/>
 <path id="polyline22" d="m34.85 4.4355a1 1 0 0 0-1 1v10.465h-20.102a1.0001 1.0001 0 0 0-1 1v4.9688a1 1 0 0 0 1 1 1 1 0 0 0 1-1v-3.9688h20.102a1.0001 1.0001 0 0 0 1-1v-11.465a1 1 0 0 0-1-1z" color="#000000" fill="#fff" stroke-linecap="round" stroke-linejoin="round" style="-inkscape-stroke:none"/>
 <path id="polyline24" d="m34.85 24.355a1.0001 1.0001 0 0 0-1 1v17.207a1 1 0 0 0 1 1 1 1 0 0 0 1-1v-16.207h9.6074a1 1 0 0 0 1-1 1 1 0 0 0-1-1z" color="#000000" fill="#fff" stroke-linecap="round" stroke-linejoin="round" style="-inkscape-stroke:none"/>
 <path id="polyline26" d="m13.748 28.359a1.0001 1.0001 0 0 0-1 1v13.543a1 1 0 0 0 1 1 1 1 0 0 0 1-1v-12.543h4.9902a1 1 0 0 0 1-1 1 1 0 0 0-1-1z" color="#000000" fill="#fff" stroke-linecap="round" stroke-linejoin="round" style="-inkscape-stroke:none"/>
</svg>
