<?xml version="1.0" encoding="UTF-8"?>
<svg id="svg14" version="1.1" viewBox="0 0 48 48" xml:space="preserve" xmlns="http://www.w3.org/2000/svg"><defs id="defs4"><style id="style2">.b{fill:none;stroke:#fff;stroke-linecap:round;stroke-linejoin:round;stroke-width:2px;}</style></defs><g id="g12" class="b" fill="#fff"><path id="circle6" d="m24.049 1.6426c-12.32 0-22.328 10.009-22.328 22.328 0 12.32 10.009 22.328 22.328 22.328 12.32 0 22.328-10.009 22.328-22.328 0-12.32-10.009-22.328-22.328-22.328zm0 2c11.239 0 20.328 9.0894 20.328 20.328s-9.0894 20.328-20.328 20.328-20.328-9.0894-20.328-20.328 9.0894-20.328 20.328-20.328z" color="#000000" style="-inkscape-stroke:none"/><path id="circle8" d="m24.266 7.7148c-8.9611 0-16.248 7.285-16.248 16.246 0 8.9611 7.2869 16.246 16.248 16.246s16.246-7.285 16.246-16.246c0-8.9611-7.285-16.246-16.246-16.246zm0 2c7.8802 0 14.246 6.3659 14.246 14.246 0 7.8802-6.3659 14.246-14.246 14.246s-14.248-6.3659-14.248-14.246c0-7.8802 6.3678-14.246 14.248-14.246z" color="#000000" style="-inkscape-stroke:none"/><path id="circle10" d="m17.195 13.08c-2.3636 0-4.3008 1.9372-4.3008 4.3008s1.9372 4.3008 4.3008 4.3008c2.3636 0 4.3027-1.9372 4.3027-4.3008s-1.9392-4.3008-4.3027-4.3008zm0 2c1.2827 0 2.3027 1.0181 2.3027 2.3008 0 1.2827-1.02 2.3008-2.3027 2.3008-1.2827 0-2.3008-1.0181-2.3008-2.3008 0-1.2827 1.0181-2.3008 2.3008-2.3008z" color="#000000" style="-inkscape-stroke:none"/></g></svg>
