<?xml version="1.0" encoding="UTF-8"?>
<svg id="svg5" version="1.1" viewBox="0 0 48 48" xml:space="preserve" xmlns="http://www.w3.org/2000/svg">

<defs id="defs1"><style id="style1">
    .cls-1 {
      fill:none;
      stroke:#fff;
      stroke-width:2px;
      stroke-linecap:round;
      stroke-linejoin:round;
      stroke-opacity:1;
    }
</style></defs>
     <path id="appimagehub-logo" d="m22.312 5a1.0001 1.0001 0 0 0-0.93164 0.63672l-3.0664 7.8516c-3.6524 0.73636-6.8822 2.103-9.2402 4.0254-2.4907 2.0305-4.0742 4.6826-4.0742 7.6113 0 3.4133 2.1813 6.3841 5.4355 8.5332l-3.1172 7.9785a1.0001 1.0001 0 0 0 0.93164 1.3633h6.75a1.0001 1.0001 0 0 0 0.92773-0.62891l2.2676-5.668c1.8461 0.38165 3.764 0.67188 5.8047 0.67188 2.0984 0 4.0776-0.28873 5.9688-0.69141a1.0001 1.0001 0 0 0-0.01758 0.38672l2.1211 5.3008a1.0001 1.0001 0 0 0 0.92774 0.62891h6.75a1.0001 1.0001 0 0 0 0.93164-1.3633l-2.9824-7.6348a1.0001 1.0001 0 0 0-0.26172-0.25195c3.3293-2.1546 5.5625-5.1653 5.5625-8.625 0-4.2362-3.2691-7.802-7.9473-9.9551-0.41026-0.96834-1.2262-1.7324-2.334-1.7324-1.1426 0-1.9485 0.82122-2.3359 1.8359l-3.7637-9.6367a1.0001 1.0001 0 0 0-0.93164-0.63672zm0.68359 2h2.0078l8.4844 21.719c-1.2304 0.68125-2.619 1.1899-4.1133 1.5312l-4.4473-11.121a1.0001 1.0001 0 0 0-1.8555 0l-5.1934 12.979a1.0001 1.0001 0 0 0 0.72656 1.3516c1.6925 0.35134 3.5065 0.54102 5.3945 0.54102 4.4262 0 8.4485-1.0332 11.439-2.7734 2.9909-1.7402 5.0293-4.2778 5.0293-7.2266 0-0.67746-0.16435-1.3168-0.36523-1.9453 0.5272 0.98816 0.89648 2.009 0.89648 3.0703 0 2.772-1.8774 5.3843-5.1543 7.3184a1.0001 1.0001 0 0 0-0.0098 0.0059c-1.6909 1.0241-3.603 1.7444-5.6074 2.2051a1.0001 1.0001 0 0 0-0.0098 0.0039c-1.9241 0.46232-4.023 0.71676-6.2187 0.71676s-4.2945-0.25444-6.2188-0.7168a1.0001 1.0001 0 0 0-1.1621 0.59961l-2.2969 5.7422h-4.6074l2.8633-7.332a1.0001 1.0001 0 0 0-0.42383-1.2246c-3.2769-1.934-5.1543-4.5464-5.1543-7.3184 0-1.2531 0.4685-2.4434 1.1895-3.5801-0.32879 0.7908-0.6582 1.5867-0.6582 2.4551 0 2.8716 1.9372 5.3563 4.7969 7.0879a1.0001 1.0001 0 0 0 1.4492-0.49024l5.7285-14.664a1.0001 1.0001 0 0 0-0.12891-0.75586 1.0001 1.0001 0 0 0 0.62305-0.51172zm9.7227 8.4375c0.36657 0 0.64978 0.26817 0.6875 0.61523a1.0001 1.0001 0 0 0 0.29297 0.40039 1.0001 1.0001 0 0 0-0.43164 0.09961c-0.12795 0.16529-0.31922 0.26953-0.54883 0.26953-0.39245 0-0.69336-0.29896-0.69336-0.69141 0-0.3931 0.30091-0.69336 0.69336-0.69336zm-15.844 1.7324-4.4473 11.383c-1.7599-1.3603-2.8965-2.9097-2.8965-4.5527 0-1.5671 0.84094-3.0763 2.459-4.4102 1.2156-1.0021 2.9534-1.7903 4.8848-2.4199zm14.709 1.1797c0.36885 0.19136 0.6944 0.47266 1.1348 0.47266 0.5019 0 0.95202-0.16956 1.3574-0.41211 2.7416 1.5224 4.3926 3.5115 4.3926 5.5898 0 1.6382-1.1574 3.1766-2.9062 4.5332zm-7.584 3.8418 3.7461 9.3672c-1.2247 0.19134-2.4137 0.44141-3.7461 0.44141-1.326 0-2.5521-0.19015-3.7715-0.37891zm12.197 13.465 2.0879 5.3438h-4.6074l-1.5-3.75c1.3868-0.40554 2.7296-0.93668 4.0195-1.5938z" fill="#fff" stop-color="#000000" stroke-linecap="round" stroke-linejoin="round"/></svg>
