<?xml version="1.0" encoding="UTF-8"?>
<svg id="svg16" version="1.1" viewBox="0 0 48 48" xml:space="preserve" xmlns="http://www.w3.org/2000/svg"><defs id="defs4"><style id="style2">.b{fill:none;stroke:#fff;stroke-linecap:round;stroke-linejoin:round;stroke-width:2px;}</style></defs><path id="rect6" d="m9.5 4.5c-2.7527 0-5 2.2473-5 5v29c0 2.7527 2.2473 5 5 5h29c2.7527 0 5-2.2473 5-5v-29c0-2.7527-2.2473-5-5-5zm0 2h29c1.6793 0 3 1.3207 3 3v29c0 1.6793-1.3207 3-3 3h-29c-1.6793 0-3-1.3207-3-3v-29c0-1.6793 1.3207-3 3-3z" color="#000000" fill="#fff" stroke-linecap="round" stroke-linejoin="round" style="-inkscape-stroke:none"/><path id="rect8" d="m12.5 9.5c-1.6447 0-3 1.3553-3 3v23c0 1.6447 1.3553 3 3 3h23c1.6447 0 3-1.3553 3-3v-23c0-1.6447-1.3553-3-3-3zm0 2h23c0.5713 0 1 0.4287 1 1v23c0 0.5713-0.4287 1-1 1h-23c-0.5713 0-1-0.4287-1-1v-23c0-0.5713 0.4287-1 1-1z" color="#000000" fill="#fff" stroke-linecap="round" stroke-linejoin="round" style="-inkscape-stroke:none"/><path id="path10" d="m13.971 32.648a1 1 0 0 0-1 1 1 1 0 0 0 1 1h9.5586a1 1 0 0 0 1-1 1 1 0 0 0-1-1z" color="#000000" fill="#fff" stroke-linecap="round" stroke-linejoin="round" style="-inkscape-stroke:none"/><path id="path12" d="m24.689 13.068c-1.6462 0-3.002 1.3557-3.002 3.002 0 1.6438 1.3542 2.998 2.998 2.998h1.3066c0.56175 0 0.99609 0.43238 0.99609 0.99414v0.0098c0 0.56176-0.43433 0.99609-0.99609 0.99609h-1.1855c-0.67049 0-0.85034-0.07281-1.168-0.48633a1 1 0 0 0-1.4023-0.18359 1 1 0 0 0-0.18359 1.4023c0.66349 0.8638 1.7128 1.2676 2.7539 1.2676h1.1855c1.6426 0 2.9961-1.3535 2.9961-2.9961v-0.0098c0-1.6426-1.3535-2.9941-2.9961-2.9941h-1.3066c-0.56297 0-0.99805-0.43514-0.99805-0.99805 0-0.56538 0.43656-1.002 1.002-1.002h1.1777c0.6705 0 0.85043 0.07093 1.168 0.48438a1 1 0 0 0 1.4023 0.18359 1 1 0 0 0 0.18555-1.4004c-0.66346-0.86385-1.7147-1.2676-2.7559-1.2676z" color="#000000" fill="#fff" stroke-linecap="round" stroke-linejoin="round" style="-inkscape-stroke:none"/><path id="path14" d="m13.684 13.068a1.0001 1.0001 0 0 0-1 1v8a1.0001 1.0001 0 0 0 1 1h1.8008c2.4734 0 4.5-2.0266 4.5-4.5v-1c0-2.4734-2.0266-4.5-4.5-4.5zm1 2h0.80078c1.3926 0 2.5 1.1074 2.5 2.5v1c0 1.3926-1.1074 2.5-2.5 2.5h-0.80078z" color="#000000" fill="#fff" stroke-linecap="round" stroke-linejoin="round" style="-inkscape-stroke:none"/></svg>
