<?xml version="1.0" encoding="UTF-8"?>
<svg id="svg16" version="1.1" viewBox="0 0 48 48" xml:space="preserve" xmlns="http://www.w3.org/2000/svg"><defs id="defs4"><style id="style2">.b{fill:none;stroke:#fff;stroke-linecap:round;stroke-linejoin:round;stroke-width:2px;}</style></defs><path id="rect6" d="m9.5 4.5c-2.7527 0-5 2.2473-5 5v29c0 2.7527 2.2473 5 5 5h29c2.7527 0 5-2.2473 5-5v-29c0-2.7527-2.2473-5-5-5zm0 2h29c1.6793 0 3 1.3207 3 3v29c0 1.6793-1.3207 3-3 3h-29c-1.6793 0-3-1.3207-3-3v-29c0-1.6793 1.3207-3 3-3z" color="#000000" fill="#fff" stroke-linecap="round" stroke-linejoin="round" style="-inkscape-stroke:none"/><path id="rect8" d="m12.5 9.5c-1.6447 0-3 1.3553-3 3v23c0 1.6447 1.3553 3 3 3h23c1.6447 0 3-1.3553 3-3v-23c0-1.6447-1.3553-3-3-3zm0 2h23c0.5713 0 1 0.4287 1 1v23c0 0.5713-0.4287 1-1 1h-23c-0.5713 0-1-0.4287-1-1v-23c0-0.5713 0.4287-1 1-1z" color="#000000" fill="#fff" stroke-linecap="round" stroke-linejoin="round" style="-inkscape-stroke:none"/><path id="path10" d="m13.832 12.99a1.0001 1.0001 0 0 0-1 1v8a1 1 0 0 0 1 1 1 1 0 0 0 1-1v-1.627h1.6191c2.0223 0 3.6816-1.6644 3.6816-3.6875 0-2.0231-1.6594-3.6855-3.6816-3.6855zm1 2h1.6191c0.93897 0 1.6816 0.74108 1.6816 1.6855 0 0.94451-0.74253 1.6875-1.6816 1.6875h-1.6191z" color="#000000" fill="#fff" stroke-linecap="round" stroke-linejoin="round" style="-inkscape-stroke:none"/><path id="path12" d="m25.764 12.99c-2.004 0-3.6504 1.6464-3.6504 3.6504v2.6992c0 2.004 1.6464 3.6504 3.6504 3.6504s3.6484-1.6464 3.6484-3.6504v-0.0332a1 1 0 0 0-1-1 1 1 0 0 0-1 1v0.0332c0 0.9232-0.72524 1.6504-1.6484 1.6504-0.9232 0-1.6504-0.7272-1.6504-1.6504v-2.6992c0-0.9232 0.72719-1.6504 1.6504-1.6504 0.9232 2e-6 1.6484 0.7272 1.6484 1.6504v0.03125a1 1 0 0 0 1 1 1 1 0 0 0 1-1v-0.03125c0-2.004-1.6444-3.6504-3.6484-3.6504z" color="#000000" fill="#fff" stroke-linecap="round" stroke-linejoin="round" style="-inkscape-stroke:none"/><path id="path14" d="m13.945 32.641a1 1 0 0 0-1 1 1 1 0 0 0 1 1h9.5586a1 1 0 0 0 1-1 1 1 0 0 0-1-1z" color="#000000" fill="#fff" stroke-linecap="round" stroke-linejoin="round" style="-inkscape-stroke:none"/></svg>
