<?xml version="1.0" encoding="UTF-8"?>
<svg id="Layer_2" data-name="Layer 2" version="1.1" viewBox="0 0 48 48" xmlns="http://www.w3.org/2000/svg">
 <defs id="defs4">
  <style id="style2">.cls-1{fill:none;stroke:#fff;stroke-width:2px;stroke-linecap:round;stroke-linejoin:round;}</style>
 </defs>
 <path id="path6" d="m24 19c-0.69015 0-1.047 0.33212-1.4199 0.66211-0.37296 0.33-0.73623 0.74427-1.1133 1.2324-0.7541 0.97631-1.552 2.2435-2.2773 3.5645-0.72534 1.3209-1.372 2.687-1.8027 3.873-0.21539 0.59302-0.37838 1.1393-0.46484 1.6445-0.08646 0.50522-0.16139 0.97475 0.12109 1.5469 0.29424 0.59593 0.76309 0.8135 1.2324 1.0059 0.46933 0.19236 1.0035 0.32605 1.6035 0.43359 1.2001 0.21508 2.6579 0.31314 4.1211 0.3125 1.4632-6.46e-4 2.9215-0.09912 4.1211-0.31445 0.59979-0.10766 1.1328-0.24202 1.6016-0.43359 0.46875-0.19158 0.93663-0.40663 1.2324-1.002 0.28457-0.57275 0.20922-1.0423 0.12305-1.5469-0.08618-0.50453-0.24792-1.0479-0.46289-1.6406-0.42993-1.1855-1.0761-2.5534-1.8008-3.875-0.72472-1.3216-1.5226-2.5891-2.2773-3.5664-0.37738-0.48868-0.73933-0.90395-1.1133-1.2344-0.37395-0.33043-0.7349-0.66211-1.4238-0.66211zm0 2c-0.28142 0-0.12277-0.03461 0.09766 0.16016 0.22042 0.19477 0.52856 0.53313 0.85742 0.95898 0.65773 0.8517 1.4202 2.055 2.1055 3.3047s1.2982 2.5546 1.6758 3.5957c0.18878 0.52054 0.31664 0.97809 0.37109 1.2969 0.05445 0.31879-0.03043 0.49361 0.05664 0.31836 0.09829-0.19783 0.06468-0.06604-0.19726 0.04102-0.26195 0.10706-0.68745 0.22454-1.1992 0.31641-1.0235 0.18373-2.3983 0.2826-3.7676 0.2832-1.3693 6.04e-4 -2.7445-0.0979-3.7676-0.28125-0.51152-0.09168-0.93589-0.20732-1.1973-0.31445-0.26137-0.10713-0.29596-0.2389-0.19922-0.04297 0.08499 0.17212 2e-3 -0.0047 0.05664-0.32422 0.05467-0.31947 0.18391-0.77614 0.37305-1.2969 0.37828-1.0415 0.99183-2.3447 1.6777-3.5938 0.68591-1.2491 1.45-2.4535 2.1074-3.3047 0.32873-0.4256 0.63347-0.76234 0.85352-0.95703 0.22004-0.1947 0.38085-0.16016 0.0957-0.16016z" color="#000000" fill="#fff" stroke-linecap="round" stroke-linejoin="round" style="-inkscape-stroke:none"/>
 <path id="path8" d="m24 4.5c-1.0983 0-1.9782 0.62972-2.9492 1.4883-0.97102 0.85856-2.0073 2.0327-3.0957 3.4414-2.1768 2.8173-4.5473 6.5726-6.6934 10.482-2.146 3.9098-4.0624 7.9646-5.3047 11.395-0.62114 1.7149-1.0749 3.2712-1.3008 4.6074-0.22592 1.3363-0.28797 2.4592 0.19922 3.4336 0.49761 0.99522 1.4734 1.5637 2.6797 2.0566 1.2063 0.49297 2.7067 0.8764 4.4258 1.1836 3.4382 0.61439 7.7454 0.91136 12.057 0.9082 4.3112-0.0032 8.615-0.30598 12.049-0.92188 1.7169-0.30795 3.215-0.69114 4.418-1.1816s2.1745-1.0539 2.6699-2.0469c0.48501-0.97206 0.41949-2.0877 0.19141-3.4199-0.22809-1.3322-0.68482-2.8842-1.3066-4.5977-1.2436-3.4269-3.1581-7.4857-5.3027-11.398-2.1446-3.9127-4.5136-7.6709-6.6895-10.492-1.0879-1.4106-2.1244-2.5873-3.0957-3.4473s-1.8518-1.4902-2.9512-1.4902zm0 2c0.1256 0 0.80886 0.26394 1.627 0.98828 0.81809 0.72435 1.7964 1.822 2.8359 3.1699 2.0791 2.6959 4.4142 6.3934 6.5195 10.234 2.1053 3.841 3.9864 7.8344 5.1777 11.117 0.59568 1.6414 1.0186 3.1074 1.2148 4.2539s0.10022 1.969-0.0098 2.1895c-0.09956 0.19954-0.64001 0.68148-1.6367 1.0879-0.9967 0.40641-2.3865 0.77224-4.0156 1.0645-3.2583 0.58442-7.4797 0.88753-11.697 0.89062-4.2175 0.00309-8.4416-0.29416-11.703-0.87695-1.6307-0.2914-3.0225-0.65621-4.0215-1.0645-0.99898-0.40824-1.5416-0.89178-1.6465-1.1016-0.11531-0.23063-0.21189-1.0558-0.017578-2.2051s0.61614-2.6175 1.2109-4.2598c1.1896-3.2845 3.0693-7.2775 5.1758-11.115s4.4434-7.5287 6.5234-10.221c1.04-1.346 2.0199-2.4428 2.8379-3.166s1.5008-0.98633 1.625-0.98633zm0 5.3301c-0.88724 0-1.4966 0.47501-2.1582 1.0605-0.66163 0.58554-1.3502 1.3676-2.0703 2.3008-1.4403 1.8663-2.9965 4.3372-4.4062 6.9102-1.4098 2.573-2.6676 5.241-3.4883 7.5137-0.41033 1.1363-0.71258 2.1697-0.86523 3.0781-0.15266 0.90843-0.21788 1.6966 0.16406 2.4629 0.39297 0.78843 1.107 1.1788 1.9336 1.5176s1.8286 0.59433 2.9707 0.79883c2.2843 0.409 5.1209 0.60215 7.9629 0.59961 2.842-0.0025 5.678-0.20116 7.959-0.61133 1.1405-0.20508 2.1408-0.46029 2.9648-0.79688 0.82401-0.33659 1.5351-0.72012 1.9277-1.5078a1.0001 1.0001 0 0 0 0.0039-0.0078c0.37397-0.76762 0.29778-1.5441 0.13867-2.4473-0.1591-0.90319-0.46598-1.936-0.88085-3.0703-0.82974-2.2686-2.0953-4.9362-3.5098-7.5117-1.4145-2.5755-2.9741-5.05-4.416-6.9199-0.72095-0.93497-1.4084-1.7179-2.0703-2.3047-0.66186-0.58679-1.2716-1.0645-2.1602-1.0645zm0 2c-0.08854 0 0.32491 0.10922 0.83398 0.56055 0.50907 0.45133 1.1397 1.1568 1.8125 2.0293 1.3456 1.7451 2.8706 4.1576 4.2461 6.6621 1.3755 2.5045 2.607 5.1099 3.3848 7.2363 0.38888 1.0632 0.66223 2.0086 0.78906 2.7285 0.12622 0.71651 0.04192 1.2019 0.03516 1.2188 2.48e-4 -0.0026-0.27548 0.2956-0.89062 0.54688-0.61771 0.25232-1.5099 0.4904-2.5625 0.67969-2.1053 0.37858-4.8594 0.57762-7.6074 0.58008-2.748 0.0025-5.5024-0.19111-7.6094-0.56836-1.0535-0.18862-1.9456-0.42804-2.5645-0.68164-0.61884-0.2536-0.90032-0.55452-0.90234-0.55859-0.01306-0.0262-0.10172-0.51675 0.01953-1.2383 0.12125-0.72153 0.3894-1.6689 0.77344-2.7324 0.76808-2.127 1.9911-4.7297 3.3613-7.2305s2.8929-4.9076 4.2363-6.6484c0.67174-0.87044 1.302-1.5753 1.8105-2.0254 0.50853-0.45005 0.92122-0.55859 0.83398-0.55859z" color="#000000" fill="#fff" stroke-linecap="round" stroke-linejoin="round" style="-inkscape-stroke:none"/>
</svg>
