<?xml version="1.0" encoding="UTF-8"?>
<svg id="a" version="1.1" viewBox="0 0 48 48" xmlns="http://www.w3.org/2000/svg">
 <defs id="defs4">
  <style id="style2">.b{fill:none;stroke:#fff;stroke-width:2px;stroke-linecap:round;stroke-linejoin:round;}</style>
 </defs>
 <path id="path6" d="m10.299 21.941a1 1 0 0 0-0.60742 0.4668 1 1 0 0 0 0.36719 1.3652l11.086 6.4023-11.086 6.4043a1 1 0 0 0-0.36719 1.3652 1 1 0 0 0 1.3672 0.36719l12.586-7.2695a1.0001 1.0001 0 0 0 0-1.7324l-12.586-7.2676a1 1 0 0 0-0.75977-0.10156zm14.145 14.504a1 1 0 0 0-1 1 1 1 0 0 0 1 1h13.443a1 1 0 0 0 1-1 1 1 0 0 0-1-1z" color="#000000" fill="#fff" stroke-linecap="round" stroke-linejoin="round" style="-inkscape-stroke:none"/>
 <path id="path8" d="m9.5 4.5c-2.7496 0-5 2.2504-5 5v29c0 2.7496 2.2504 5 5 5h29c2.7496 0 5-2.2504 5-5v-29c0-2.7496-2.2504-5-5-5zm0 2h29c1.6686 0 3 1.3314 3 3v29c0 1.6686-1.3314 3-3 3h-29c-1.6686 0-3-1.3314-3-3v-29c0-1.6686 1.3314-3 3-3z" color="#000000" fill="#fff" stroke-linecap="round" stroke-linejoin="round" style="-inkscape-stroke:none"/>
 <path id="path10" d="m29.051 11.666a1 1 0 0 0-1.3418 0.44726 1 1 0 0 0 0.21289 1.0723 1 1 0 0 0-0.21289 1.0723 1 1 0 0 0 1.3418 0.44726l1.25-0.625a1.0001 1.0001 0 0 0 0-1.7891z" color="#000000" fill="#fff" stroke-linecap="round" stroke-linejoin="round" style="-inkscape-stroke:none"/>
 <path id="path12" d="m32.078 12.186a1 1 0 0 0-1 1 1 1 0 0 0 1 1h1.5a1 1 0 0 0 1-1 1 1 0 0 0-1-1z" color="#000000" fill="#fff" stroke-linecap="round" stroke-linejoin="round" style="-inkscape-stroke:none"/>
 <path id="path14" d="m30.953 7.1855c-3.302 0-6 2.6982-6 6v6c0 0.79576 0.30302 1.5286 0.83008 1.9668 0.52706 0.43817 1.1659 0.5573 1.7246 0.52734 0.55874-0.02996 1.0724-0.19597 1.5195-0.48438 0.03888-0.02508 0.07034-0.07365 0.10938-0.10156 0.47062 0.29222 0.99349 0.5918 1.8164 0.5918 0.82308 0 1.3477-0.2995 1.8184-0.5918 0.03903 0.02792 0.0705 0.07649 0.10938 0.10156 0.44718 0.28841 0.96078 0.45442 1.5195 0.48438s1.1976-0.08916 1.7246-0.52734c0.52706-0.43818 0.82812-1.171 0.82812-1.9668v-6c0-3.3018-2.698-6-6-6zm0 2c2.2208 4e-7 4 1.7791 4 4v6c0 0.36503-0.07198 0.40022-0.10742 0.42969-0.03544 0.02946-0.14664 0.07666-0.33789 0.06641-0.19125-0.01026-0.42765-0.09164-0.54297-0.16602-0.11532-0.07438-0.01172-0.07998-0.01172 0.16992a1.0001 1.0001 0 0 0-1.9434-0.33203s0.03232-0.03028-0.08594 0.07031c-0.11826 0.10059-0.34871 0.26172-0.9707 0.26172s-0.85049-0.16113-0.96875-0.26172-0.08789-0.07031-0.08789-0.07031a1.0001 1.0001 0 0 0-1.9434 0.33203c0-0.24992 0.10556-0.2443-0.0098-0.16992-0.11532 0.07438-0.35171 0.15576-0.54297 0.16602-0.19126 0.01026-0.30245-0.03694-0.33789-0.06641-0.03544-0.02946-0.10938-0.06467-0.10938-0.42969v-6c0-2.2209 1.7792-4 4-4z" color="#000000" fill="#fff" stroke-linecap="round" stroke-linejoin="round" style="-inkscape-stroke:none"/>
</svg>
