<?xml version="1.0" encoding="UTF-8"?>
<svg id="b" version="1.1" viewBox="0 0 48 48" xmlns="http://www.w3.org/2000/svg">
 <defs id="defs4">
  <style id="style2">.c{fill:none;stroke:#fff;stroke-width:2px;stroke-linecap:round;stroke-linejoin:round;}</style>
 </defs>
 <path id="path6" d="m7.5 4.5c-1.645 0-3 1.355-3 3v27c0 4.9587 4.0413 9 9 9h3a1.0001 1.0001 0 0 0 1-1v-35c0-1.645-1.355-3-3-3zm0 2h7c0.56419 0 1 0.43581 1 1v34h-2c-3.8779 0-7-3.1221-7-7v-27c0-0.56419 0.43581-1 1-1z" color="#000000" fill="#fff" stroke-linecap="round" stroke-linejoin="round" style="-inkscape-stroke:none"/>
 <path id="path8" d="m18.5 4.5c-1.645 0-3 1.355-3 3v7c0 1.645 1.355 3 3 3h16c4.9587 0 9-4.0413 9-9v-3a1.0001 1.0001 0 0 0-1-1zm0 2h23v2c0 3.8779-3.1221 7-7 7h-16c-0.56419 0-1-0.43581-1-1v-7c0-0.56419 0.43581-1 1-1z" color="#000000" fill="#fff" stroke-linecap="round" stroke-linejoin="round" style="-inkscape-stroke:none"/>
 <path id="path10" d="m17.357 16.086c-0.98191 0.091189-1.8574 0.91627-1.8574 1.9844v11.654c0 1.4242 1.5553 2.4149 2.8457 1.8125l12.484-5.8281c1.4748-0.68832 1.4748-2.9347 0-3.623l-12.484-5.8281c-0.32263-0.15061-0.66098-0.20227-0.98828-0.17188zm0.14258 1.9844 12.482 5.8281-12.482 5.8262z" color="#000000" fill="#fff" stroke-linecap="round" stroke-linejoin="round" style="-inkscape-stroke:none"/>
</svg>
