<?xml version="1.0" encoding="UTF-8"?>
<svg id="svg12" version="1.1" viewBox="0 0 48 48" xmlns="http://www.w3.org/2000/svg">
 <defs id="defs4">
  <style id="style2">.b{fill:none;stroke:#fff;stroke-width:2px;stroke-linecap:round;stroke-linejoin:round}</style>
 </defs>
 <path id="path6" d="m22.578 3.8457c-5.7283 0.49677-10.875 3.7113-14.043 8.1367-2.6995-0.16638-4.6728 1.4161-5.2695 3.3867-0.57648 1.9039 0.011408 4.1211 1.7324 5.3379-0.69311 5.792 0.3177 13.168 5.8008 18.111 5.6639 5.1066 15.826 7.3019 32.83 2.5977l-0.26562 0.03516a1.0001 1.0001 0 0 0 0.4043-1.9141c-1.9345-0.85775-2.5628-2.1072-2.6934-3.6504-0.13061-1.5432 0.39927-3.3721 1.1172-4.8223 1.2531-2.5328 1.2939-6.2006 0.89062-10.127 1.8063-1.4549 2.32-3.7319 1.6328-5.5879-0.69359-1.8732-2.6123-3.2754-5.0117-3.1426-5.0366-6.462-11.334-8.8635-17.125-8.3613zm0.17383 1.9922c5.2655-0.45664 10.961 1.6073 15.709 7.9512a1.0001 1.0001 0 0 0 0.96875 0.38672c1.8319-0.3103 2.95 0.62631 3.4102 1.8691s0.20492 2.7008-1.2988 3.627a1.0001 1.0001 0 0 0-0.46875 0.96484c0.4484 3.9661 0.27246 7.6322-0.67188 9.541-0.83208 1.6808-1.4958 3.7809-1.3184 5.877 0.11804 1.3947 0.73126 2.7641 1.8359 3.8711-15.168 3.7559-24.032 1.688-28.781-2.5938-4.9926-4.5014-5.895-11.526-5.127-16.943a1.0001 1.0001 0 0 0-0.56445-1.0449c-1.2435-0.58454-1.6663-2.0711-1.2656-3.3945 0.40072-1.3234 1.4278-2.3727 3.6602-1.998a1.0001 1.0001 0 0 0 0.99609-0.42969c2.791-4.1532 7.6505-7.227 12.916-7.6836z" color="#000000" fill="#fff" stroke-linecap="round" stroke-linejoin="round" style="-inkscape-stroke:none"/>
 <path id="ellipse8" transform="rotate(8)" d="m20.627 8.9277c-1.5262 0-2.857 0.8866-3.7441 2.1445-0.88709 1.2579-1.3965 2.9152-1.3965 4.7266 0 1.8113 0.50939 3.4686 1.3965 4.7266 0.88709 1.2579 2.218 2.1426 3.7441 2.1426s2.8551-0.88465 3.7422-2.1426c0.88709-1.2579 1.3965-2.9152 1.3965-4.7266 0-1.8113-0.50939-3.4686-1.3965-4.7266-0.88709-1.2579-2.216-2.1445-3.7422-2.1445zm0 2c0.7598 0 1.4984 0.4305 2.1094 1.2969 0.61097 0.86637 1.0293 2.144 1.0293 3.5742 0 1.4302-0.41833 2.7059-1.0293 3.5723-0.61097 0.86637-1.3496 1.2969-2.1094 1.2969s-1.5004-0.4305-2.1113-1.2969c-0.61097-0.86637-1.0293-2.142-1.0293-3.5723 0-1.4302 0.41833-2.7078 1.0293-3.5742 0.61097-0.86637 1.3515-1.2969 2.1113-1.2969z" color="#000000" fill="#fff" stroke-linecap="round" stroke-linejoin="round" style="-inkscape-stroke:none"/>
 <path id="ellipse10" transform="rotate(-8)" d="m26.975 15.619c-1.5262 0-2.857 0.88465-3.7441 2.1426-0.88709 1.2579-1.3945 2.9152-1.3945 4.7266 0 1.8113 0.50744 3.4686 1.3945 4.7266 0.88709 1.2579 2.218 2.1445 3.7441 2.1445 1.5262 0 2.857-0.8866 3.7441-2.1445 0.88709-1.2579 1.3945-2.9152 1.3945-4.7266 0-1.8113-0.50744-3.4686-1.3945-4.7266-0.88709-1.2579-2.218-2.1426-3.7441-2.1426zm0 2c0.7598 0 1.4984 0.42855 2.1094 1.2949 0.61097 0.86637 1.0293 2.144 1.0293 3.5742 0 1.4302-0.41833 2.7078-1.0293 3.5742-0.61097 0.86637-1.3496 1.2969-2.1094 1.2969s-1.4984-0.4305-2.1094-1.2969c-0.61097-0.86637-1.0293-2.144-1.0293-3.5742 0-1.4302 0.41833-2.7078 1.0293-3.5742 0.61097-0.86637 1.3496-1.2949 2.1094-1.2949z" color="#000000" fill="#fff" stroke-linecap="round" stroke-linejoin="round" style="-inkscape-stroke:none"/>
</svg>
