<?xml version="1.0" encoding="UTF-8"?>
<svg id="Layer_1" data-name="Layer 1" version="1.1" viewBox="0 0 48 48" xml:space="preserve" xmlns="http://www.w3.org/2000/svg">

<defs id="defs1"><style id="style1">
      .cls-1 {
        fill: none;
        stroke: #fff;
        stroke-width:2px;
        stroke-linecap: round;
        stroke-linejoin: round;
      }
</style></defs>
<path id="path1" d="m5.5801 5.5664a1.0001 1.0001 0 0 0-0.58008 0.9082v35.051a1.0001 1.0001 0 0 0 1.6484 0.76172l10.289-8.7676 7.0664-6.0098 7.0586 6.0098 10.289 8.7676a1.0001 1.0001 0 0 0 1.6484-0.76172v-35.051a1.0001 1.0001 0 0 0-1.6484-0.76172l-10.289 8.7617-7.0586 6.0078-7.0664-6.0078-10.289-8.7617a1.0001 1.0001 0 0 0-1.0684-0.14648zm1.4199 3.0742 8.6406 7.3555a1.0001 1.0001 0 0 0 0 2e-3l7.7148 6.5586a1.0001 1.0001 0 0 0 1.2969 0l16.348-13.916v30.719l-8.6406-7.3633-7.707-6.5605a1.0001 1.0001 0 0 0-1.2969 0l-7.7148 6.5605-8.6406 7.3633v-15.363z" fill="#fff" stop-color="#000000" stroke-linecap="round" stroke-linejoin="round"/></svg>
