<?xml version="1.0" encoding="UTF-8"?>
<svg id="Layer_2" data-name="Layer 2" version="1.1" viewBox="0 0 48 48" xmlns="http://www.w3.org/2000/svg">
 <defs id="defs4">
  <style id="style2">.cls-1{fill:none;stroke:#fff;stroke-width:2px;stroke-linecap:round;stroke-linejoin:round;fill-rule:evenodd;}</style>
 </defs>
 <path id="path6" d="m24 1.5c-11.033-0.0056686-20.453 8.0064-22.221 18.896-1.7674 10.89 4.6374 21.469 15.105 24.953a1.0001 1.0001 0 0 0 0.13281 0.0332c0.75485 0.13979 1.5022-0.02513 1.9883-0.45898 0.48612-0.43385 0.66406-1.0127 0.66406-1.5234v-3.6504a1.0001 1.0001 0 0 0-1.2109-0.97656c-2.7693 0.60001-4.1842-0.04867-5.0195-0.74414-0.83536-0.69547-1.0508-1.4434-1.0508-1.4434a1.0001 1.0001 0 0 0 0-0.0039c-0.14924-0.49732-0.43992-0.92142-0.69531-1.3652 1.0952 1.7645 2.6439 2.58 4.0352 2.7051 1.4341 0.12898 2.6608-0.31494 3.3711-0.625a1.0001 1.0001 0 0 0 0.5957-0.82617c0.07792-0.85568 0.45952-1.6555 1.0742-2.2559a1.0001 1.0001 0 0 0-0.58789-1.709c-2.3029-0.26016-4.5441-0.83461-6.1602-2.1934-1.6161-1.3587-2.752-3.5147-2.752-7.4316a1.0001 1.0001 0 0 0 0-0.01563c-0.02787-1.8801 0.67225-3.6976 1.9531-5.0742a1.0001 1.0001 0 0 0 0.20898-1.0176c-0.50672-1.4195-0.43072-2.9444 0.04687-4.3613 0.13886 0.01069 0.21696 2.24e-4 0.42969 0.04492 0.80844 0.16987 2.1685 0.65823 4.1406 1.9922a1.0001 1.0001 0 0 0 0.82422 0.13476c3.3503-0.9131 6.8841-0.9131 10.234 0a1.0001 1.0001 0 0 0 0.82226-0.13476c1.9721-1.334 3.3341-1.8223 4.1426-1.9922 0.21228-0.0446 0.28902-0.0342 0.42773-0.04492 0.47418 1.4187 0.54933 2.9438 0.04687 4.3652a1.0001 1.0001 0 0 0 0.21094 1.0137c1.2782 1.3772 1.9726 3.1935 1.9414 5.0723a1.0001 1.0001 0 0 0 0 0.01758c0 3.9282-1.129 6.0807-2.7422 7.4336-1.6132 1.3529-3.8577 1.9212-6.1777 2.1816a1.0001 1.0001 0 0 0-0.60156 1.6973c0.84077 0.85189 1.2701 2.0256 1.1758 3.2188a1.0001 1.0001 0 0 0-0.0039 0.07813v5.9004c0 0.5381 0.16106 1.1886 0.69922 1.6289 0.53816 0.44032 1.2757 0.50628 1.9961 0.34766a1.0001 1.0001 0 0 0 0.10156-0.0293c10.457-3.4971 16.847-14.076 15.072-24.959-1.7744-10.883-11.192-18.885-22.219-18.879zm0 2c10.059-0.00518 18.625 7.2728 20.244 17.201 1.6169 9.917-4.1786 19.525-13.699 22.727-0.16374 0.01699-0.28462 6.21e-4 -0.23047 0.04492 0.07066 0.05782 0.03516 0.08987 0.03516-0.08203v-5.9004l-2e-3 0.07813c0.09564-1.2099-0.28652-2.3458-0.86328-3.3867 2.0311-0.35315 4.0794-0.9284 5.7578-2.3359 2.0876-1.7507 3.4548-4.6292 3.457-8.9551 0.03516-2.2039-0.79234-4.2959-2.1836-5.9902 0.55127-1.9464 0.49722-4.02-0.32031-5.8828a1.0001 1.0001 0 0 0-0.60933-0.54883s-0.28417-0.08062-0.60547-0.0957c-0.3213-0.01508-0.76078 0.0074-1.3203 0.125-1.0494 0.22049-2.5586 0.83356-4.5 2.0938-3.4-0.84532-6.9399-0.84532-10.34 0-1.9414-1.2602-3.4506-1.8733-4.5-2.0938-0.55953-0.11757-1.001-0.14008-1.3223-0.125-0.3213 0.01508-0.60547 0.0957-0.60547 0.0957a1.0001 1.0001 0 0 0-0.60742 0.54688c-0.82406 1.862-0.87625 3.9361-0.32031 5.8828-1.3952 1.6939-2.2271 3.7861-2.1953 5.9922 0.00224 4.3172 1.3776 7.1983 3.4648 8.9531 1.6506 1.3877 3.6553 1.966 5.6465 2.3262-0.23029 0.42977-0.35853 0.89206-0.4707 1.3691-0.55754 0.20888-1.25 0.45843-2.0039 0.39062-0.89958-0.0809-1.7791-0.43716-2.5996-1.8398l-0.0039-0.0039c-0.84974-1.4715-2.3307-2.4715-4.0137-2.707a1.0001 1.0001 0 0 0-0.12891-0.0098s-0.19-7.32e-4 -0.41992 0.02539c-0.22992 0.02612-0.51712 0.04729-0.89453 0.26367-0.18871 0.10819-0.42869 0.29409-0.57227 0.62305s-0.112 0.7401 0.00391 1.0176c0.23182 0.55495 0.6046 0.82811 1.1602 1.207a1.0001 1.0001 0 0 0 0.03125 0.02148c0.96466 0.60527 1.6766 1.5401 2.0039 2.6309 2e-3 0.0066 0.40603 1.3413 1.6875 2.4082 1.0945 0.91119 3.0138 1.4283 5.5098 1.1855v2.6484c0 0.02926-0.01722 0.0501 0.0039 0.03125 0.01687-0.01505-0.07063 3e-3 -0.23242-0.01172-9.5041-3.2044-15.296-12.795-13.688-22.703 1.6124-9.9352 10.181-17.222 20.246-17.217z" color="#000000" fill="#fff" fill-rule="evenodd" stroke-linecap="round" stroke-linejoin="round" style="-inkscape-stroke:none"/>
</svg>
