<?xml version="1.0" encoding="UTF-8"?>
<svg id="b" version="1.1" viewBox="0 0 48 48" xmlns="http://www.w3.org/2000/svg">
 <defs id="defs4">
  <style id="style2">.c{fill:none;stroke:#fff;stroke-width:2px;stroke-linecap:round;stroke-linejoin:round;}</style>
 </defs>
 <path id="path6" d="m20.033 2.3613-12.064 6.4961a1.0001 1.0001 0 0 0-0.00195 0.00195c-3.0983 1.6762-5.0312 4.9207-5.0312 8.4434v13.396c0 3.523 1.9325 6.7672 5.0312 8.4434a1 1 0 0 0 1.3555-0.40429 1 1 0 0 0-0.40234-1.3555c-2.456-1.3285-3.9844-3.8914-3.9844-6.6836v-13.396c0-2.7914 1.5256-5.3548 3.9805-6.6836l12.064-6.498a1 1 0 0 0 0.40625-1.3535 1 1 0 0 0-1.3535-0.40625z" color="#000000" fill="#fff" stroke-linecap="round" stroke-linejoin="round" style="-inkscape-stroke:none"/>
 <path id="path8" d="m16.834 18.506a1 1 0 0 0-1 1v4.0723c0 3.497 1.9053 6.7212 4.9688 8.4082l2.8262 1.5566a1 1 0 0 0 1.3574-0.39453 1 1 0 0 0-0.39258-1.3574l-2.8262-1.5566c-2.428-1.337-3.9336-3.8847-3.9336-6.6562v-4.0723a1 1 0 0 0-1-1z" color="#000000" fill="#fff" stroke-linecap="round" stroke-linejoin="round" style="-inkscape-stroke:none"/>
 <path id="path10" d="m31.166 18.275a1 1 0 0 0-1 1v4.4512c0 2.7922-1.5283 5.3551-3.9844 6.6836l-11.465 6.2012c-2.0408 1.1039-4.4581 1.2086-6.5703 0.31641a1.0001 1.0001 0 0 0-0.94531 1.752c0.24661 0.16493 0.50211 0.32033 0.76562 0.46289l11.467 6.2012c2.8484 1.5407 6.2844 1.5407 9.1328 0l11.465-6.2012c3.0987-1.676 5.0332-4.9203 5.0332-8.4434a1 1 0 0 0-1-1 1 1 0 0 0-1 1c0 2.7923-1.5285 5.3552-3.9844 6.6836l-11.465 6.2012c-2.2568 1.2207-4.9737 1.2207-7.2305 0l-7.9668-4.3086c1.1135-0.15732 2.2329-0.35411 3.25-0.9043l11.465-6.2031c3.0988-1.6761 5.0332-4.9184 5.0332-8.4414v-4.4512a1 1 0 0 0-1-1z" color="#000000" fill="#fff" stroke-linecap="round" stroke-linejoin="round" style="-inkscape-stroke:none"/>
 <path id="path12" d="m24.363 1.5078c-1.4497-0.054834-2.9101 0.21836-4.2637 0.82031a1.0001 1.0001 0 0 0-0.16602 0.09375c-2.5518 1.7829-4.0996 4.7137-4.0996 7.8672v8.9863a1.0001 1.0001 0 0 0 1.4512 0.89258l3.2871-1.6621c2.156-1.0893 4.6995-1.0893 6.8555 0l11.465 5.793c2.5099 1.2683 4.1079 3.8116 4.1699 6.6133a1.0001 1.0001 0 0 0 2 0.0039c3.98e-4 -0.01579-3.01e-4 -0.03117 0-0.04687 0.0011-0.05693 2e-3 -0.11425 2e-3 -0.16992v-13.396c0-3.5226-1.9329-6.7671-5.0312-8.4434l-11.465-6.2031c-1.3147-0.71132-2.7554-1.0936-4.2051-1.1484zm-0.07617 1.998c1.1474 0.043316 2.2865 0.34657 3.3281 0.91016l11.467 6.2031-0.52539-0.88086a1.0001 1.0001 0 0 0 1 1l-0.47461-0.11914c2.4557 1.3286 3.9824 3.8917 3.9824 6.6836v8.0391c-0.86772-1.1493-1.9372-2.1549-3.2695-2.8281l-11.467-5.793c-2.7214-1.3751-5.9368-1.3751-8.6582 0l-1.8359 0.92773v-7.3594c0-2.4652 1.2108-4.738 3.1816-6.1543 1.0436-0.4465 2.1593-0.6709 3.2715-0.62891z" color="#000000" fill="#fff" stroke-linecap="round" stroke-linejoin="round" style="-inkscape-stroke:none"/>
</svg>
