<?xml version="1.0" encoding="UTF-8"?>
<svg id="b" version="1.1" viewBox="0 0 48 48" xmlns="http://www.w3.org/2000/svg">
 <defs id="defs4">
  <style id="style2">.c{fill:none;stroke:#fff;stroke-width:2px;stroke-linecap:round;stroke-linejoin:round;}</style>
 </defs>
 <path id="path6" d="m24.43 19.092a1.0001 1.0001 0 0 0-1 1v8.3262a1.0001 1.0001 0 0 0 1 1h10.107c-0.63644 1.8602-1.7069 3.5012-3.4102 4.6367a1 1 0 0 0-0.27734 1.3867 1 1 0 0 0 1.3867 0.27734c2.4969-1.6646 4.1889-4.1792 4.7461-7.1152a1.0001 1.0001 0 0 0-0.98242-1.1855h-10.57v-6.3262h18.338c0.16034 1.1042 0.30273 2.2173 0.30273 3.3965 0 6.309-2.2421 11.526-6.0898 15.078a1 1 0 0 0-0.05664 1.4121 1 1 0 0 0 1.4141 0.05664c4.2832-3.9537 6.7324-9.7603 6.7324-16.547 0-1.5843-0.14172-3.1093-0.40625-4.5742a1.0001 1.0001 0 0 0-0.98438-0.82226z" color="#000000" fill="#fff" stroke-linecap="round" stroke-linejoin="round" style="-inkscape-stroke:none"/>
 <path id="path8" d="m12.072 27.156a1 1 0 0 0-0.63086 1.2656c1.8311 5.4719 6.9484 9.5371 12.988 9.5371 2.7683 0 5.1299-0.75378 7.1094-1.916l5.4805 4.252c-3.2668 2.6275-7.4927 4.2051-12.59 4.2051-8.0215 0-14.927-4.604-18.301-11.295a1 1 0 0 0-1.3418-0.44336 1 1 0 0 0-0.44336 1.3438c3.702 7.3427 11.299 12.395 20.086 12.395 6.025 0 11.159-2.0044 14.908-5.4648a1.0001 1.0001 0 0 0-0.06641-1.5234l-6.9766-5.4141a1.0001 1.0001 0 0 0-1.1719-0.04102c-1.744 1.1745-3.9807 1.9023-6.6934 1.9023-5.1401 0-9.5218-3.4802-11.092-8.1719a1 1 0 0 0-1.2656-0.63085z" color="#000000" fill="#fff" stroke-linecap="round" stroke-linejoin="round" style="-inkscape-stroke:none"/>
 <path id="path10" d="m5.6875 13.473a1 1 0 0 0-1.3438 0.43945c-1.5333 3.0258-2.4141 6.4477-2.4141 10.088s0.88072 7.0621 2.4141 10.088a1.0001 1.0001 0 0 0 1.5078 0.33789l5.5664-4.3379 1.5801-1.209a1.0001 1.0001 0 0 0 0.33984-1.1094c-0.40029-1.2009-0.63281-2.4615-0.63281-3.7695s0.23252-2.5686 0.63281-3.7695a1 1 0 0 0-0.63086-1.2637 1 1 0 0 0-1.2656 0.63281c-0.4597 1.3791-0.73633 2.8549-0.73633 4.4004 0 1.2815 0.28452 2.478 0.61133 3.6484l-1.1172 0.85352a1.0001 1.0001 0 0 0-0.0059 0.0059l-4.498 3.5039c-1.0698-2.469-1.7656-5.1372-1.7656-8.0117 0-3.318 0.80076-6.424 2.1992-9.1836a1 1 0 0 0-0.44141-1.3438z" color="#000000" fill="#fff" stroke-linecap="round" stroke-linejoin="round" style="-inkscape-stroke:none"/>
 <path id="path12" d="m24.43 1.5c-8.7874 0-16.384 5.0517-20.086 12.414a1.0001 1.0001 0 0 0 0.2793 1.2402l7.1543 5.5508a1.0001 1.0001 0 0 0 1.5605-0.47266c1.5699-4.6917 5.9517-8.1719 11.092-8.1719 2.936 0 5.4751 0.99165 7.5449 2.9355a1.0001 1.0001 0 0 0 1.3906-0.02344l6.1582-6.1562a1.0001 1.0001 0 0 0-0.02539-1.4375c-3.9001-3.6346-9.0187-5.8789-15.068-5.8789zm0 2c5.161 0 9.436 1.7918 12.881 4.6992l-4.8066 4.8066c-2.2959-1.8446-5.0257-2.9453-8.0742-2.9453-5.561 0-10.217 3.5148-12.369 8.332l-5.4746-4.2461c3.495-6.3172 10.113-10.646 17.844-10.646z" color="#000000" fill="#fff" stroke-linecap="round" stroke-linejoin="round" style="-inkscape-stroke:none"/>
</svg>
