<?xml version="1.0" encoding="UTF-8"?>
<svg id="b" version="1.1" viewBox="0 0 48 48" xmlns="http://www.w3.org/2000/svg">
 <defs id="defs4">
  <style id="style2">.c{fill:none;stroke:#fff;stroke-width:2px;stroke-linecap:round;stroke-linejoin:round;}</style>
 </defs>
 <path id="path6" d="m36.072 33.5a1.0001 1.0001 0 0 0-1 1v8a1.0001 1.0001 0 0 0 1 1h3.3008c1.645 0 3-1.355 3-3 0-0.777-0.34356-1.4646-0.83594-2 0.49238-0.53536 0.83594-1.223 0.83594-2 0-1.645-1.355-3-3-3zm1 2h2.3008c0.56419 0 1 0.43581 1 1s-0.43581 1-1 1a1.0001 1.0001 0 0 0 0 2c0.56419 0 1 0.43581 1 1s-0.43581 1-1 1h-2.3008z" color="#000000" fill="#fff" stroke-linecap="round" stroke-linejoin="round" style="-inkscape-stroke:none"/>
 <path id="line8" d="m36.072 37.5a1 1 0 0 0-1 1 1 1 0 0 0 1 1h3.3008a1 1 0 0 0 1-1 1 1 0 0 0-1-1z" color="#000000" fill="#fff" stroke-linecap="round" stroke-linejoin="round" style="-inkscape-stroke:none"/>
 <path id="path10" d="m22.793 1.5605c-2.9165 0.15587-5.8511 0.8861-8.6387 2.2461-11.15 5.44-15.788 18.916-10.348 30.066 5.44 11.15 18.916 15.79 30.066 10.35a1 1 0 0 0 0.46094-1.3359 1 1 0 0 0-1.3379-0.46094c-10.179 4.966-22.427 0.74909-27.393-9.4297-4.966-10.179-0.75113-22.427 9.4277-27.393 10.179-4.966 22.429-0.75104 27.395 9.4277 2.7658 5.669 2.7652 12.294 0 17.963a1 1 0 0 0 0.46094 1.3379 1 1 0 0 0 1.3379-0.46094c3.0344-6.2212 3.0331-13.496-0.001953-19.717-4.08-8.3627-12.68-13.061-21.43-12.594z" color="#000000" fill="#fff" stroke-linecap="round" stroke-linejoin="round" style="-inkscape-stroke:none"/>
 <path id="circle12" d="m38.5 30.5c-4.4064 0-8 3.5936-8 8s3.5936 8 8 8 8-3.5936 8-8-3.5936-8-8-8zm0 2c3.3256 0 6 2.6744 6 6s-2.6744 6-6 6-6-2.6744-6-6 2.6744-6 6-6z" color="#000000" fill="#fff" stroke-linecap="round" stroke-linejoin="round" style="-inkscape-stroke:none"/>
 <path id="circle14" d="m24.18 14.02c-5.511 0-10 4.489-10 10 0 5.511 4.489 10 10 10 5.511 0 10-4.489 10-10 0-5.511-4.489-10-10-10zm0 2c4.4301 0 8 3.5699 8 8 0 4.4301-3.5699 8-8 8-4.4301 0-8-3.5699-8-8s3.5699-8 8-8z" color="#000000" fill="#fff" stroke-linecap="round" stroke-linejoin="round" style="-inkscape-stroke:none"/>
 <path id="line16" d="m24.18 14.02a1 1 0 0 0-1 1 1 1 0 0 0 1 1h19.359a1 1 0 0 0 1-1 1 1 0 0 0-1-1z" color="#000000" fill="#fff" stroke-linecap="round" stroke-linejoin="round" style="-inkscape-stroke:none"/>
 <path id="line18" d="m6.9648 10.787a1 1 0 0 0-0.75977 0.10156 1 1 0 0 0-0.36523 1.3652l9.6797 16.766a1 1 0 0 0 1.3672 0.36719 1 1 0 0 0 0.36523-1.3672l-9.6797-16.766a1 1 0 0 0-0.60742-0.4668z" color="#000000" fill="#fff" stroke-linecap="round" stroke-linejoin="round" style="-inkscape-stroke:none"/>
 <path id="line20" d="m31.715 27.555a1 1 0 0 0-0.60742 0.46484l-9.6797 16.766a1 1 0 0 0 0.36719 1.3672 1 1 0 0 0 1.3652-0.36719l9.6797-16.766a1 1 0 0 0-0.36524-1.3652 1 1 0 0 0-0.75976-0.09961z" color="#000000" fill="#fff" stroke-linecap="round" stroke-linejoin="round" style="-inkscape-stroke:none"/>
</svg>
