<?xml version="1.0" encoding="UTF-8"?>
<svg id="svg10" version="1.1" viewBox="0 0 48 48" xml:space="preserve" xmlns="http://www.w3.org/2000/svg"><defs id="defs4"><style id="style2">.b{fill:none;stroke:#fff;stroke-linecap:round;stroke-linejoin:round;stroke-width:2px;}</style></defs><path id="circle6" d="m24.111 1.6152c-12.415 0-22.5 10.085-22.5 22.5 0 12.415 10.085 22.5 22.5 22.5s22.5-10.085 22.5-22.5c0-12.415-10.085-22.5-22.5-22.5zm0 2c11.334 0 20.5 9.1663 20.5 20.5 0 11.334-9.1663 20.5-20.5 20.5s-20.5-9.1663-20.5-20.5c0-11.334 9.1663-20.5 20.5-20.5z" color="#000000" fill="#fff" stroke-linecap="round" stroke-linejoin="round" style="-inkscape-stroke:none"/><path id="path8" d="m25.564 12.977a1.0001 1.0001 0 0 0-1.0312 0.82617l-1.2832 7.3516-0.54492-7.0352a1.0001 1.0001 0 0 0-1.9863-0.06641l-1.4355 9.9531-0.38281-4.7773a1.0001 1.0001 0 0 0-1.9629-0.17773l-1.4648 5.4688h-8.7344a1 1 0 0 0-1 1 1 1 0 0 0 1 1h9.502a1.0001 1.0001 0 0 0 0.96484-0.74219l0.16406-0.61524 0.63476 7.8945a1.0001 1.0001 0 0 0 1.9863 0.0625l1.418-9.8418 0.46289 5.9648a1.0001 1.0001 0 0 0 1.9824 0.09375l1.3145-7.5293 0.73633 8.877a1.0001 1.0001 0 0 0 1.9707 0.13672l1.5625-6.9648 0.4082 1.8262a1.0001 1.0001 0 0 0 0.97656 0.7832h10.715a1 1 0 0 0 1-1 1 1 0 0 0-1-1h-9.9141l-1.207-5.4043a1.0001 1.0001 0 0 0-1.9512-2e-3l-1.1094 4.9453-0.83984-10.111a1.0001 1.0001 0 0 0-0.95117-0.91602z" color="#000000" fill="#fff" stroke-linecap="round" stroke-linejoin="round" style="-inkscape-stroke:none"/></svg>
