<?xml version="1.0" encoding="UTF-8"?>
<svg id="svg12" version="1.1" viewBox="0 0 48 48" xmlns="http://www.w3.org/2000/svg">
 <defs id="defs4">
  <style id="style2">.b{fill:none;stroke:#fff;stroke-width:2px;stroke-linecap:round;stroke-linejoin:round}</style>
 </defs>
 <path id="path6" d="m28.625 12.73a1.0001 1.0001 0 0 0-0.54883 0.89258v24a1.0001 1.0001 0 0 0 1.5938 0.80469l16.223-12a1.0001 1.0001 0 0 0 0-1.6094l-16.223-12a1.0001 1.0001 0 0 0-1.0449-0.08789zm1.4512 2.877 13.539 10.016-13.539 10.016z" color="#000000" fill="#fff" stroke-linecap="round" stroke-linejoin="round" style="-inkscape-stroke:none"/>
 <path id="path8" d="m20.576 6.7793a1.0001 1.0001 0 0 0-0.7793 1.625l3.8281 4.7734-0.099609 27.039a1 1 0 0 0 0.99609 1.0039 1 1 0 0 0 1.0039-0.99609l0.099609-27.053 3.7383-4.7773a1.0001 1.0001 0 0 0-0.78711-1.6152zm2.0859 2h3.8613l-1.9082 2.4355z" color="#000000" fill="#fff" stroke-linecap="round" stroke-linejoin="round" style="-inkscape-stroke:none"/>
 <path id="path10" d="m18.158 13a1 1 0 0 0-1 1 1 1 0 0 0 1 1h2.3105a1 1 0 0 0 1-1 1 1 0 0 0-1-1zm-6.8965 5.75a1 1 0 0 0-1 1 1 1 0 0 0 1 1h9.207a1 1 0 0 0 1-1 1 1 0 0 0-1-1zm-8.5605 5.75a1 1 0 0 0-1 1 1 1 0 0 0 1 1h17.768a1 1 0 0 0 1-1 1 1 0 0 0-1-1zm10.563 5.75a1 1 0 0 0-1 1 1 1 0 0 0 1 1h7.2051a1 1 0 0 0 1-1 1 1 0 0 0-1-1zm2.8145 5.75a1 1 0 0 0-1 1 1 1 0 0 0 1 1h4.3906a1 1 0 0 0 1-1 1 1 0 0 0-1-1z" color="#000000" fill="#fff" stroke-linecap="round" stroke-linejoin="round" style="-inkscape-stroke:none"/>
</svg>
