<?xml version="1.0" encoding="UTF-8"?>
<svg id="a" version="1.1" viewBox="0 0 48 48" xmlns="http://www.w3.org/2000/svg">
 <defs id="defs1">
  <style id="style1">.d{fill:none;stroke:#fff;stroke-width:2px;stroke-linecap:round;stroke-linejoin:round;}</style>
 </defs>
 <path id="circle1" d="m24 1.5c-12.415 0-22.5 10.085-22.5 22.5s10.085 22.5 22.5 22.5 22.5-10.085 22.5-22.5-10.085-22.5-22.5-22.5zm0 2c11.334 0 20.5 9.1663 20.5 20.5s-9.1663 20.5-20.5 20.5-20.5-9.1663-20.5-20.5 9.1663-20.5 20.5-20.5z" fill="#fff" stop-color="#000000" stroke-linecap="round" stroke-linejoin="round"/>
 <path id="path1" d="m24 11.25a1 1 0 0 0-1 1 1 1 0 0 0 1 1c5.9489 0 10.75 4.8011 10.75 10.75s-4.8011 10.75-10.75 10.75-10.75-4.8011-10.75-10.75a1 1 0 0 0-1-1 1 1 0 0 0-1 1c0 7.0297 5.7203 12.75 12.75 12.75s12.75-5.7203 12.75-12.75-5.7203-12.75-12.75-12.75z" fill="#fff" stop-color="#000000" stroke-linecap="round" stroke-linejoin="round"/>
 <path id="path2" d="m11.543 18.293-5 5a1.0001 1.0001 0 0 0 0.70703 1.707h10a1.0001 1.0001 0 0 0 0.70703-1.707l-5-5a1.0001 1.0001 0 0 0-1.4141 0zm0.70703 2.1211 2.5859 2.5859h-5.1719z" fill="#fff" stop-color="#000000" stroke-linecap="round" stroke-linejoin="round"/>
</svg>
