<?xml version="1.0" encoding="UTF-8"?>
<svg id="a" version="1.1" viewBox="0 0 48 48" xmlns="http://www.w3.org/2000/svg">
 <defs id="defs1">
  <style id="style1">.d{fill:none;stroke:#fff;stroke-width:2px;stroke-linecap:round;stroke-linejoin:round;}</style>
 </defs>
 <path id="path1" d="m20.75 3.5a1.0001 1.0001 0 0 0-1 1v5.5h-5.5a1.0001 1.0001 0 0 0-1 1v6.5a1.0001 1.0001 0 0 0 1 1h5.5v4.5h-5.5a1.0001 1.0001 0 0 0-1 1v5.5h-5.5a1.0001 1.0001 0 0 0-1 1v6.5a1.0001 1.0001 0 0 0 1 1h6.5a1.0001 1.0001 0 0 0 1-1v-5.5h4.5v12a1 1 0 0 0 1 1 1 1 0 0 0 1-1v-13a1.0001 1.0001 0 0 0-1-1h-5.5v-4.5h5.5a1.0001 1.0001 0 0 0 1-1v-6.5a1.0001 1.0001 0 0 0-1-1h-5.5v-4.5h5.5a1.0001 1.0001 0 0 0 1-1v-5.5h4.5v5.5a1.0001 1.0001 0 0 0 1 1h5.5v4.5h-5.5a1.0001 1.0001 0 0 0-1 1v6.5a1.0001 1.0001 0 0 0 1 1h5.5v4.5h-5.5a1.0001 1.0001 0 0 0-1 1v13a1 1 0 0 0 1 1 1 1 0 0 0 1-1v-12h4.5v5.5a1.0001 1.0001 0 0 0 1 1h6.5a1.0001 1.0001 0 0 0 1-1v-6.5a1.0001 1.0001 0 0 0-1-1h-5.5v-5.5a1.0001 1.0001 0 0 0-1-1h-5.5v-4.5h5.5a1.0001 1.0001 0 0 0 1-1v-6.5a1.0001 1.0001 0 0 0-1-1h-5.5v-5.5a1.0001 1.0001 0 0 0-1-1zm-12 28h4.5v4.5h-4.5zm26 0h4.5v4.5h-4.5z" fill="#fff" stop-color="#000000" stroke-linecap="round" stroke-linejoin="round"/>
</svg>
