<?xml version="1.0" encoding="UTF-8"?>
<svg id="svg10" version="1.1" viewBox="0 0 48 48" xmlns="http://www.w3.org/2000/svg">
 <defs id="defs4">
  <style id="style2">.b{fill:none;stroke:#fff;stroke-width:2px;stroke-linecap:round;stroke-linejoin:round;}</style>
 </defs>
 <path id="path6" d="m22.295 4.1777c-7.9909 0.36998-14.814 4.8979-17.52 8.8887-2.6371 3.8898-2.8696 8.435-2.5215 13.391 0.34807 4.9556 1.27 10.406 1.1797 16.373a1.0001 1.0001 0 0 0 1 1.0156h9.3535a1.0001 1.0001 0 0 0 0.99219-0.87109c0.51917-4.0148-0.38253-7.3733-1.0156-10.764-0.63309-3.3904-1.0377-6.8223 0.25586-11.312 1.2445-4.3178 5.1465-8.6158 10.438-9.5449 5.291-0.92909 12.181 1.371 19.631 10.793l-0.05273-0.15039a1.0001 1.0001 0 0 0 1.8359-0.46875v-2e-3a1.0001 1.0001 0 0 0-0.14844-0.42578l0.04883-0.01172c-6.4348-13.176-15.486-17.28-23.477-16.91zm0.0918 1.998c5.5135-0.25528 11.527 1.6993 16.812 8.1875-5.4494-4.3928-10.668-5.7565-15.088-4.9805-6.147 1.0794-10.562 5.9267-12.014 10.963-1.4015 4.8648-0.94948 8.748-0.29883 12.232 0.59513 3.187 1.2185 6.0663 0.98438 9.2676h-7.4004c-0.019262-5.7619-0.8166-10.997-1.1348-15.527-0.33768-4.8076-0.078258-8.7927 2.1836-12.129 2.1922-3.2332 8.6923-7.6774 15.955-8.0137z" color="#000000" fill="#fff" stroke-linecap="round" stroke-linejoin="round" style="-inkscape-stroke:none"/>
 <path id="path8" d="m27.076 13.359c-1.2594-0.03338-2.469 0.08908-3.5957 0.41211-2.2534 0.64607-4.1522 2.1968-5.0957 4.709-1.7231 4.5893-0.94469 7.8106 0.23438 10.729 1.6964 4.1986 4.4028 7.8649 5.5566 12.637h-10.389a1 1 0 0 0-1 1 1 1 0 0 0 1 1h11.699a1.0001 1.0001 0 0 0 0.98633-1.1699c-1.0328-5.9577-4.3183-10.053-6-14.215-1.1169-2.7641-1.7737-5.1306-0.2168-9.2773 0.74151-1.9743 2.0086-2.9837 3.7754-3.4902 1.7668-0.50656 4.055-0.41148 6.502 0.13672 4.8939 1.0964 10.383 3.9747 13.738 6.4961a1 1 0 0 0 1.4004-0.19922 1 1 0 0 0-0.19922-1.3984c-3.6-2.7056-9.2011-5.662-14.502-6.8496-1.3252-0.2969-2.6351-0.48615-3.8945-0.51953z" color="#000000" fill="#fff" stroke-linecap="round" stroke-linejoin="round" style="-inkscape-stroke:none"/>
</svg>
