<?xml version="1.0" encoding="UTF-8"?>
<svg id="svg14" version="1.1" viewBox="0 0 48 48" xmlns="http://www.w3.org/2000/svg">
 <defs id="defs4">
  <style id="style2">.b{fill:none;stroke:#fff;stroke-linecap:round;stroke-linejoin:round;stroke-width:2px;}</style>
 </defs>
 <path id="path6" d="m12.861 3.627s-1.1659 0.063452-2.3672 0.74023c-1.2013 0.67678-2.4966 2.0919-2.6895 4.4062-0.34365 4.1232-1.6738 28.424-1.6738 28.424a1.0001 1.0001 0 0 0 0.048828 0.10742l-0.048828-0.03516s0.019242 1.6699 0.84961 3.3945c0.83037 1.7246 2.6531 3.5855 5.7891 3.7109 7.0878 0.28351 23.01 1e-3 23.066 0 0 0 1.5782 0.03364 3.0957-1.0117 1.5175-1.0454 2.9375-3.2063 2.9375-7.0039 0-8.5919-1.5625-27.584-1.5625-27.584a1.0001 1.0001 0 0 0-0.0059-0.056641s-0.17518-1.2504-1.0742-2.4824c-0.89903-1.232-2.6063-2.4857-5.3262-2.6094-6.3317-0.2878-21 0-21 0a1.0001 1.0001 0 0 0-0.03906 0zm0.11719 1.998c0.055-0.00104 14.713-0.27805 20.83 0 2.1796 0.09907 3.1985 0.96109 3.8027 1.7891 0.60206 0.82504 0.70629 1.5689 0.70703 1.5742 0.0071 0.087712 1.5508 19.044 1.5508 27.371 0 3.3288-1.0843 4.6768-2.0723 5.3574s-1.916 0.6582-1.916 0.6582a1.0001 1.0001 0 0 0-0.03906 0s-16.067 0.27898-22.992 2e-3c-2.4315-0.097308-3.4492-1.3002-4.0664-2.5821-0.61529-1.2779-0.65017-2.5469-0.65039-2.5547 0.0062634-0.11406 1.3403-24.416 1.6641-28.301 0.14121-1.6943 0.90453-2.3934 1.6797-2.8301 0.77516-0.43671 1.502-0.48438 1.502-0.48438z" color="#000000" fill="#fff" stroke-linecap="round" stroke-linejoin="round" style="-inkscape-stroke:none"/>
 <path id="rect8" d="m14.363 24.779a1.0001 1.0001 0 0 0-1 1v7.9844a1.0001 1.0001 0 0 0 1 1h7.9844a1.0001 1.0001 0 0 0 1-1v-7.9844a1.0001 1.0001 0 0 0-1-1zm1 2h5.9844v5.9844h-5.9844z" color="#000000" fill="#fff" stroke-linecap="round" stroke-linejoin="round" style="-inkscape-stroke:none"/>
 <path id="circle10" d="m28.834 18.912c-2.6591 0-4.8359 2.1769-4.8359 4.8359s2.1769 4.8379 4.8359 4.8379 4.8359-2.1788 4.8359-4.8379-2.1769-4.8359-4.8359-4.8359zm0 2c1.5782 0 2.8359 1.2578 2.8359 2.8359s-1.2578 2.8379-2.8359 2.8379c-1.5782 0-2.8359-1.2597-2.8359-2.8379s1.2578-2.8359 2.8359-2.8359z" color="#000000" fill="#fff" stroke-linecap="round" stroke-linejoin="round" style="-inkscape-stroke:none"/>
 <path id="path12" d="m31.828 30.703-6.9395 4.0078a1.0001 1.0001 0 0 0 0.01758 1.7402l6.9395 3.832a1.0001 1.0001 0 0 0 1.4824-0.87695v-7.8379a1.0001 1.0001 0 0 0-1.5-0.86523zm-0.5 2.5977v4.4121l-3.9062-2.1562z" color="#000000" fill="#fff" stroke-linecap="round" stroke-linejoin="round" style="-inkscape-stroke:none"/>
</svg>
