<?xml version="1.0" encoding="UTF-8"?>
<svg id="b" version="1.1" viewBox="0 0 48 48" xmlns="http://www.w3.org/2000/svg">
 <defs id="defs4">
  <style id="style2">.g{fill:none;stroke:#fff;stroke-width:2px;stroke-linecap:round;stroke-linejoin:round;}</style>
 </defs>
 <path id="c" d="m34.93 12.834a1 1 0 0 0-1 1v17.186a1 1 0 0 0 1 1 1 1 0 0 0 1-1v-17.186a1 1 0 0 0-1-1z" color="#000000" fill="#fff" stroke-linecap="round" stroke-linejoin="round" style="-inkscape-stroke:none"/>
 <path id="d" d="m13.119 15.338a1 1 0 0 0-1 1v17.828a1 1 0 0 0 1 1 1 1 0 0 0 1-1v-17.828a1 1 0 0 0-1-1z" color="#000000" fill="#fff" stroke-linecap="round" stroke-linejoin="round" style="-inkscape-stroke:none"/>
 <path id="e" d="m4.5352 23.932a1 1 0 0 0-0.7168 0.26758 1 1 0 0 0-0.048828 1.4141l8.6191 9.2344a1.0001 1.0001 0 0 0 1.4629 0l8.6191-9.2344a1 1 0 0 0-0.04883-1.4141 1 1 0 0 0-1.4121 0.04883l-7.8887 8.4531-7.8906-8.4531a1 1 0 0 0-0.69531-0.31641z" color="#000000" fill="#fff" stroke-linecap="round" stroke-linejoin="round" style="-inkscape-stroke:none"/>
 <path id="f" d="m34.93 12.834a1.0001 1.0001 0 0 0-0.70703 0.29297l-8.5703 8.5938a1 1 0 0 0 2e-3 1.4141 1 1 0 0 0 1.4141-2e-3l7.8613-7.8828 7.8613 7.8828a1 1 0 0 0 1.416 2e-3 1 1 0 0 0 2e-3 -1.4141l-8.5703-8.5938a1.0001 1.0001 0 0 0-0.70898-0.29297z" color="#000000" fill="#fff" stroke-linecap="round" stroke-linejoin="round" style="-inkscape-stroke:none"/>
</svg>
