<?xml version="1.0" encoding="UTF-8"?>
<svg id="svg16" version="1.1" viewBox="0 0 48 48" xmlns="http://www.w3.org/2000/svg">
 <defs id="defs4">
  <style id="style2">.c{fill:none;stroke:#fff;stroke-width:2px;stroke-linecap:round;stroke-linejoin:round;}</style>
 </defs>
 <g id="a">
  <g id="g10" fill="#fff" stroke-linecap="round" stroke-linejoin="round">
   <path id="path6" d="m24.568 9.6523c-7.3647 0-13.311 5.7677-14.004 13.445-0.29196 3.2367 0.4198 6.969 2.4062 9.9844 1.9864 3.0154 5.3451 5.2656 9.9961 5.2656 3.1878 0 5.9656-0.39614 8.1816-1.8984a1 1 0 0 0 0.26562-1.3887 1 1 0 0 0-1.3887-0.26562c-1.6998 1.1523-4.0418 1.5527-7.0586 1.5527-4.0268 0-6.6427-1.8117-8.3262-4.3672-1.6835-2.5555-2.3365-5.9035-2.084-8.7031 0.6099-6.76 5.6822-11.625 12.012-11.625 3.3674 0 6.1753 0.94433 8.0879 2.791 1.9125 1.8467 3.0254 4.6423 2.8164 8.6934-0.10014 1.9418-0.60669 3.5451-1.3809 4.5996s-1.7505 1.6113-3.1562 1.6113c-0.53124 0-1.1736-0.19692-1.5859-0.49609-0.41229-0.29917-0.59045-0.5886-0.56055-1.0293 0.16217-2.3891 0.79883-9.1074 0.79883-9.1074a1 1 0 0 0-0.90039-1.0898 1 1 0 0 0-1.0898 0.90039s-0.63585 6.6729-0.80469 9.1602c-0.0804 1.1848 0.56856 2.1924 1.3828 2.7832 0.81426 0.59085 1.7969 0.87891 2.7598 0.87891 1.9931 0 3.6782-0.94386 4.7676-2.4277s1.651-3.4583 1.7656-5.6816c0.23082-4.4746-1.0531-7.9452-3.4238-10.234s-5.7333-3.3516-9.4766-3.3516z" color="#000000" style="-inkscape-stroke:none"/>
   <path id="path8" d="m24.523 17.621c-2.7863 0-5.1764 2.195-5.4199 4.9727l-0.23242 2.6387c-0.24354 2.7777 1.9227 5.1465 4.709 5.1465 2.7873 0 5.1574-2.2029 5.4004-4.9746a1 1 0 0 0-0.9082-1.084 1 1 0 0 0-1.084 0.9082c-0.15018 1.7129-1.7015 3.1504-3.4082 3.1504-1.7077 0-2.8665-1.2658-2.7168-2.9727l0.23242-2.6387c0.14966-1.7069 1.72-3.1465 3.4277-3.1465 1.7134 0 2.8493 1.2405 2.6992 2.9531a1 1 0 0 0 0.9082 1.084 1 1 0 0 0 1.084-0.91016c0.24292-2.772-1.9108-5.127-4.6914-5.127z" color="#000000" style="-inkscape-stroke:none"/>
  </g>
 </g>
 <g id="b">
  <path id="circle13" d="m24 1.5c-12.415 0-22.5 10.085-22.5 22.5s10.085 22.5 22.5 22.5 22.5-10.085 22.5-22.5-10.085-22.5-22.5-22.5zm0 2c11.334 0 20.5 9.1663 20.5 20.5s-9.1663 20.5-20.5 20.5-20.5-9.1663-20.5-20.5 9.1663-20.5 20.5-20.5z" color="#000000" fill="#fff" stroke-linecap="round" stroke-linejoin="round" style="-inkscape-stroke:none"/>
 </g>
</svg>
