<?xml version="1.0" encoding="UTF-8"?>
<svg id="svg10" version="1.1" viewBox="0 0 48 48" xmlns="http://www.w3.org/2000/svg">
 <defs id="defs4">
  <style id="style2">.b{fill:none;stroke:#fff;stroke-width:2px;stroke-linecap:round;stroke-linejoin:round;}</style>
 </defs>
 <path id="path6" d="m44.896 9.1914a1.0001 1.0001 0 0 0-0.81641 0.011719l-41.004 19.039a1.0001 1.0001 0 0 0 0.46094 1.9062c4.8191-0.1893 8.452 1.4053 11.479 4.3047a1.0001 1.0001 0 0 0 0.77734 0.27344c5.354-0.45307 8.5814 1.9202 12.668 3.8711a1.0001 1.0001 0 0 0 1.3008-0.4082l15.611-27.586a1.0001 1.0001 0 0 0-0.47656-1.4121zm-2.8008 3.1387-13.613 24.059c-3.5004-1.7613-7.0822-3.9393-12.406-3.6367-2.4056-2.2088-5.2663-3.743-8.6367-4.3301z" color="#000000" fill="#fff" stroke-linecap="round" stroke-linejoin="round" style="-inkscape-stroke:none"/>
 <path id="path8" d="m44.6 9.1152a1 1 0 0 0-0.73242 0.22266l-28.793 23.621a1.0001 1.0001 0 0 0-0.32422 0.48438l-1.252 4.1562a1.0001 1.0001 0 0 0 1.5488 1.0957l5.4043-3.9629a1 1 0 0 0 0.2168-1.3984 1 1 0 0 0-1.3984-0.21484l-2.9941 2.1934 0.30273-1 28.559-23.428a1 1 0 0 0 0.13867-1.4082 1 1 0 0 0-0.67578-0.36133z" color="#000000" fill="#fff" stroke-linecap="round" stroke-linejoin="round" style="-inkscape-stroke:none"/>
</svg>
