<?xml version="1.0" encoding="UTF-8"?>
<svg id="b" version="1.1" viewBox="0 0 48 48" xmlns="http://www.w3.org/2000/svg">
 <defs id="defs4">
  <style id="style2">.f{fill:none;stroke:#fff;stroke-width:2px;stroke-linecap:round;stroke-linejoin:round;}</style>
 </defs>
 <path id="path6" d="m25.354 4.5a1 1 0 0 0-1 1v37a1 1 0 0 0 1 1 1 1 0 0 0 1-1v-37a1 1 0 0 0-1-1z" color="#000000" fill="#fff" stroke-linecap="round" stroke-linejoin="round" style="-inkscape-stroke:none"/>
 <path id="path8" d="m31.219 20.293a1 1 0 0 0-1 1 1 1 0 0 0 1 1h9.0254a1 1 0 0 0 1-1 1 1 0 0 0-1-1z" color="#000000" fill="#fff" stroke-linecap="round" stroke-linejoin="round" style="-inkscape-stroke:none"/>
 <path id="path10" d="m31.219 25.076a1 1 0 0 0-1 1 1 1 0 0 0 1 1h9.0254a1 1 0 0 0 1-1 1 1 0 0 0-1-1z" color="#000000" fill="#fff" stroke-linecap="round" stroke-linejoin="round" style="-inkscape-stroke:none"/>
 <path id="path12" d="m13.984 8.6348c-0.71065-0.03984-1.4841 0.1855-2.0254 0.81836a1 1 0 0 0 0.11133 1.4102 1 1 0 0 0 1.4082-0.11133c0.04532-0.05299 0.21177-0.13134 0.39453-0.12109 0.1535 0.0086 0.19961 0.05699 0.2168 0.06641 0.24105 0.84789 0.60521 2.4158 0.96875 3.9746 0.38106 1.6339 0.70544 3.0939 1.0293 3.9004a1.0001 1.0001 0 0 0 0.07227 0.14648c0.25394 0.41804 0.77417 0.77371 1.2832 0.80469 0.50903 0.03097 0.90836-0.15408 1.248-0.37109 0.67938-0.43402 1.2366-1.0954 1.7734-1.875a1 1 0 0 0-0.25586-1.3906 1 1 0 0 0-1.3906 0.25781c-0.3788 0.55012-0.74604 0.8963-1.0215 1.1211-0.18332-0.60273-0.47086-1.676-0.79102-3.0488-0.37925-1.6262-0.76014-3.315-1.0449-4.2773a1.0001 1.0001 0 0 0-0.085938-0.20508c-0.41586-0.743-1.18-1.0598-1.8906-1.0996z" color="#000000" fill="#fff" stroke-linecap="round" stroke-linejoin="round" style="-inkscape-stroke:none"/>
 <path id="path14" d="m19.246 8.8848c-0.65262 0.035698-1.1337 0.35923-1.4961 0.71484a1.0001 1.0001 0 0 0-0.09961 0.11328c-2.018 2.6847-3.0431 4.0714-5.5078 7.6602-0.28002 0.26197-0.4416 0.30031-0.44726 0.30469a1 1 0 0 0-1.2598-0.57031 1 1 0 0 0-0.58398 1.2891c0.25274 0.67195 0.91816 1.2627 1.6875 1.3066 0.76934 0.04396 1.4572-0.34279 2.0527-0.94141a1.0001 1.0001 0 0 0 0.11523-0.13867c2.5107-3.6592 3.4802-4.9597 5.4805-7.6211 0.09564-0.07275 0.19921-0.12085 0.16797-0.11914-0.03806 0.0021-0.13193-0.11303-0.0098 0.07422a1 1 0 0 0 1.3828 0.29102 1 1 0 0 0 0.29102-1.3828c-0.40122-0.61502-1.1208-1.0162-1.7734-0.98047z" color="#000000" fill="#fff" stroke-linecap="round" stroke-linejoin="round" style="-inkscape-stroke:none"/>
 <path id="path16" d="m15.602 27.223c-2.7418 0.01597-4.7838 1.8126-5.3086 4.0059-0.48248 2.0166 0.43568 4.3155 2.6895 5.7285v0.0078c-0.4328 0.0027-0.90444 0.02992-1.2207-0.0293-0.28691-0.05372-0.4611-0.14502-0.50977-0.1875-0.04866-0.04248-0.05852-0.0054-0.05859-0.20508a1 1 0 0 0-1.002-1 1 1 0 0 0-0.99805 1.002c2.389e-4 0.66663 0.29304 1.3188 0.74219 1.7109 0.44915 0.3921 0.9668 0.55469 1.457 0.64648 0.98047 0.18359 1.9808 0.09002 2.5977 0.08594a1.0001 1.0001 0 0 0 0.99219-1v-1.5352a1.0001 1.0001 0 0 0-0.55469-0.89453c-2.0454-1.0149-2.5062-2.5393-2.1895-3.8633 0.31677-1.324 1.4692-2.4616 3.375-2.4727 1.4424-0.0086 2.539 1.0842 2.875 2.4668s-0.03983 2.9004-1.9023 3.8789a1.0001 1.0001 0 0 0-0.53516 0.88477c1.1e-5 0.61633 0 1.5352 0 1.5352a1.0001 1.0001 0 0 0 0.98633 1c0.93664 0.01328 1.8834 0.09056 2.8027-0.125 0.45967-0.10778 0.94642-0.30976 1.3262-0.7207 0.37975-0.41094 0.57622-0.99433 0.58594-1.582a1 1 0 0 0-0.98438-1.0156 1 1 0 0 0-1.0156 0.98242c-0.0038 0.23081-0.0385 0.24029-0.05469 0.25781-0.01619 0.01752-0.09279 0.07888-0.31445 0.13086-0.25472 0.05972-0.8492 0.03803-1.332 0.04102v-0.02344c2.1123-1.4254 2.8612-3.7406 2.3809-5.7168-0.52354-2.1541-2.374-4.0089-4.8301-3.9941z" color="#000000" fill="#fff" stroke-linecap="round" stroke-linejoin="round" style="-inkscape-stroke:none"/>
 <path id="path18" d="m7.7559 22.639a1 1 0 0 0-1 1 1 1 0 0 0 1 1h17.146a1 1 0 0 0 1-1 1 1 0 0 0-1-1z" color="#000000" fill="#fff" stroke-linecap="round" stroke-linejoin="round" style="-inkscape-stroke:none"/>
</svg>
