<?xml version="1.0" encoding="UTF-8"?>
<svg id="svg18" version="1.1" viewBox="0 0 48 48" xmlns="http://www.w3.org/2000/svg">
 <defs id="defs4">
  <style id="style2">.b{fill:none;stroke:#fff;stroke-width:2px;stroke-linecap:round;stroke-linejoin:round;}</style>
 </defs>
 <path id="path6" d="m23.998 9.0156c-5.0938 0.00235-9.2436 4.1523-9.2461 9.2461v0.34961a1.0001 1.0001 0 0 0 0.65625 0.93945l4.1387 1.5137a1 1 0 0 0 1.2832-0.5957 1 1 0 0 0-0.5957-1.2812l-3.416-1.252c0.1811-3.8518 3.282-6.9181 7.1797-6.9199 5.926-8.88e-4 9.3338 6.5607 5.9258 11.408-2.8719 4.085-8.4944 3.9839-11.402 0.52734l0.30274 0.11133a1 1 0 0 0 1.2832-0.5918 1 1 0 0 0-0.59375-1.2852l-2.9258-1.0762a1.0001 1.0001 0 0 0-1.2871 1.2754c2.513 6.9902 11.988 8.2659 16.26 2.1895 4.272-6.0765-0.13415-14.56-7.5625-14.559zm0.21484 6.0059a1 1 0 0 0-0.64844 0.4082l-2.5039 3.5391a1 1 0 0 0 0.23828 1.3945 1 1 0 0 0 1.3945-0.23828l2.5039-3.541a1 1 0 0 0-0.23828-1.3945 1 1 0 0 0-0.74609-0.16797zm3.25 2.918a1 1 0 0 0-0.74805 0.16992l-3.5352 2.5a1 1 0 0 0-0.24023 1.3945 1 1 0 0 0 1.3945 0.23828l3.5371-2.5a1 1 0 0 0 0.23828-1.3945 1 1 0 0 0-0.64648-0.4082z" color="#000000" fill="#fff" stroke-linecap="round" stroke-linejoin="round" style="-inkscape-stroke:none"/>
 <path id="path8" d="m37.012 26.625a1 1 0 0 0-0.76367 0.05273 1 1 0 0 0-0.45117 1.3398l5.3789 10.855c0.0051 0.04883 0.04647 0.45649 0.02148 0.52148-0.01324 0.03444 0.08455-0.025-0.03125 0.0059-0.1158 0.03086-0.52183 0.05497-1.2598-0.17383-1.975-0.61236-2.9761-0.75467-3.0371-0.76367-0.0199-5e-3 -0.62789-0.16015-1.3242 0.0625-0.70765 0.22626-1.5091 0.90777-1.8887 2.0703-0.52724 1.6148-0.86094 2.7359-0.88086 2.8027-0.0038 0.0069-0.15419 0.24104-0.27539 0.42578-0.05208-0.0541-0.06073-0.02334-0.22656-0.35742-0.926-1.8656-4.8555-10.1-4.8555-10.1a1 1 0 0 0-1.332-0.47266 1 1 0 0 0-0.47266 1.334s3.9038 8.182 4.8691 10.127c0.37059 0.74659 0.77933 1.2866 1.4355 1.5352s1.362-0.02522 1.7344-0.33398c0.74479-0.61753 0.98438-1.4199 0.98438-1.4199a1.0001 1.0001 0 0 0 0.0293-0.08594s0.3559-1.1962 0.89062-2.834c0.2218-0.67929 0.43761-0.73594 0.59766-0.78711 0.16005-0.05117 0.24023-0.0293 0.24023-0.0293a1.0001 1.0001 0 0 0 0.11133 0.02148s0.87177 0.11492 2.8066 0.71484c0.94677 0.29355 1.6971 0.37442 2.3691 0.19531 0.672-0.17911 1.188-0.71401 1.3828-1.2207 0.38961-1.0134 0.01563-1.873 0.01563-1.873a1.0001 1.0001 0 0 0-0.05664-0.14258l-5.4356-10.967a1 1 0 0 0-0.57617-0.50391z" color="#000000" fill="#fff" stroke-linecap="round" stroke-linejoin="round" style="-inkscape-stroke:none"/>
 <path id="path10" d="m11.705 26.631a1 1 0 0 0-1.332 0.47266l-5.3789 11.289a1.0001 1.0001 0 0 0-0.050781 0.12695s-0.37398 0.86162 0.015625 1.875c0.1948 0.50669 0.71081 1.0416 1.3828 1.2207 0.672 0.17911 1.4204 0.09824 2.3672-0.19531 1.9349-0.59993 2.8086-0.7168 2.8086-0.7168a1.0001 1.0001 0 0 0 0.10938-0.02148s0.08214-0.01993 0.24219 0.03125c0.16005 0.05117 0.37585 0.10586 0.59766 0.78516 0.53473 1.6378 0.89062 2.834 0.89062 2.834a1.0001 1.0001 0 0 0 0.0293 0.08789s0.23959 0.8024 0.98438 1.4199c0.37239 0.30876 1.0782 0.58253 1.7344 0.33398s1.065-0.79052 1.4355-1.5371c0.98966-1.9939 4.8242-10.43 4.8242-10.43a1 1 0 0 0-0.49609-1.3242 1 1 0 0 0-1.3242 0.49609s-3.8932 8.5524-4.7949 10.369c-0.16624 0.33491-0.17675 0.30366-0.22852 0.35742-0.12066-0.18405-0.26876-0.41345-0.27344-0.42188-0.0191-0.06406-0.35296-1.1878-0.88086-2.8047-0.3796-1.1625-1.181-1.846-1.8887-2.0723-0.69633-0.22265-1.3043-0.06553-1.3242-0.06055-0.06098 9e-3 -1.0621 0.15131-3.0371 0.76367-0.73794 0.2288-1.1459 0.20274-1.2617 0.17188-0.1158-0.03086-0.018007 0.02858-0.03125-0.0059-0.025357-0.06595 0.019471-0.48951 0.023437-0.52734l5.3301-11.184a1 1 0 0 0-0.47266-1.334z" color="#000000" fill="#fff" stroke-linecap="round" stroke-linejoin="round" style="-inkscape-stroke:none"/>
 <path id="circle12" d="m23.998 1.5c-9.2389 0-16.75 7.5111-16.75 16.75 0 9.2389 7.5111 16.75 16.75 16.75s16.75-7.5111 16.75-16.75c0-9.2389-7.5111-16.75-16.75-16.75zm0 2c8.158 0 14.75 6.592 14.75 14.75s-6.592 14.75-14.75 14.75c-8.158 0-14.75-6.592-14.75-14.75s6.592-14.75 14.75-14.75z" color="#000000" fill="#fff" stroke-linecap="round" stroke-linejoin="round" style="-inkscape-stroke:none"/>
 <path id="circle14" d="m21.477 18.562c-1.7829 0-3.25 1.4671-3.25 3.25s1.4671 3.25 3.25 3.25c1.7829 0 3.25-1.4671 3.25-3.25s-1.4671-3.25-3.25-3.25zm0 2c0.70198 0 1.25 0.54802 1.25 1.25s-0.54802 1.25-1.25 1.25c-0.70198 0-1.25-0.54802-1.25-1.25s0.54802-1.25 1.25-1.25z" color="#000000" fill="#fff" stroke-linecap="round" stroke-linejoin="round" style="-inkscape-stroke:none"/>
 <path id="circle16" d="m27.32 12.084c-2.1572 0-3.9258 1.7705-3.9258 3.9277 0 2.1572 1.7686 3.9277 3.9258 3.9277 2.1572 0 3.9277-1.7705 3.9277-3.9277 0-2.1572-1.7705-3.9277-3.9277-3.9277zm0 2c1.0763 0 1.9277 0.85142 1.9277 1.9277s-0.85142 1.9277-1.9277 1.9277c-1.0763 0-1.9258-0.85142-1.9258-1.9277s0.84946-1.9277 1.9258-1.9277z" color="#000000" fill="#fff" stroke-linecap="round" stroke-linejoin="round" style="-inkscape-stroke:none"/>
</svg>
