<?xml version="1.0" encoding="UTF-8"?>
<svg id="a" version="1.1" viewBox="0 0 48 48" xmlns="http://www.w3.org/2000/svg">
 <defs id="defs4">
  <style id="style2">.b{fill:none;stroke:#fff;stroke-width:2px;stroke-linecap:round;stroke-linejoin:round;}</style>
 </defs>
 <path id="path6" d="m22.756 2.502c-9.5217 0.72811-14.414 10.113-11.818 18.014a1.0001 1.0001 0 0 0 0.9668 0.6875c3.6437-0.05765 6.4086 2.6517 7.4297 5.3301 0.51052 1.3392 0.53878 2.6124 0.1875 3.4102-0.35128 0.79772-0.96534 1.3047-2.4863 1.3047a1.0001 1.0001 0 0 0-1 1c0 3.1099 0.81221 6.3562 2.6172 8.9023 1.805 2.5461 4.6847 4.3496 8.4727 4.3496 3.7679 0 6.5254-1.6759 8.2246-3.9102s2.4102-4.9702 2.4102-7.3008c0-5.3113-2.6356-8.1271-5.1973-10.223-2.5616-2.0956-4.9004-3.5623-5.502-6.7207a1.0001 1.0001 0 0 0-1.584-0.61133c-0.82781 0.6233-1.7901 0.69802-2.8008 0.32617-1.0107-0.37185-2.0115-1.2305-2.6348-2.4297-1.2465-2.3984-1.1532-6.1739 3.4648-10.393a1.0001 1.0001 0 0 0-0.75-1.7363zm-2.5234 2.5176c-3.068 3.918-3.3805 7.8131-1.9668 10.533 0.8429 1.6218 2.1918 2.8223 3.7207 3.3848 1.1311 0.41613 2.3522 0.29793 3.498-0.13281 1.0687 3.2159 3.6243 5.0204 5.8125 6.8105 2.439 1.9953 4.4629 3.9838 4.4629 8.6738 0 1.9108-0.62484 4.2791-2.002 6.0898-1.3771 1.8108-3.4364 3.1211-6.6328 3.1211-3.1764 0-5.3411-1.3917-6.8398-3.5059-1.3682-1.93-2.033-4.5011-2.1523-7.0293 1.482-0.31143 2.6995-1.0356 3.2188-2.2148 0.6521-1.4809 0.49507-3.2417-0.14844-4.9297-1.2023-3.154-4.3086-6.1441-8.4805-6.4785-1.6228-5.8532 1.2704-12.42 7.5098-14.322z" color="#000000" fill="#fff" stroke-linecap="round" stroke-linejoin="round" style="-inkscape-stroke:none"/>
 <path id="path8" d="m31.709 13.324a1.0001 1.0001 0 0 0-1.0977 0.26758c-1.5062 1.6788-1.6401 4.1081-1.0762 6.1348 0.28196 1.0133 0.74804 1.9502 1.416 2.6816 0.66797 0.7314 1.5918 1.2676 2.6504 1.2676 0.96586 0 1.8357-0.32788 2.4316-0.92383s0.88867-1.4189 0.88867-2.248c0-0.97094-0.5073-1.7965-1.0977-2.25-0.59035-0.45349-1.1974-0.67477-1.709-0.9375-0.51156-0.26273-0.91348-0.53031-1.2109-0.94531s-0.53799-1.0193-0.54883-2.1211a1.0001 1.0001 0 0 0-0.64648-0.92578zm-0.35742 4.2734c0.55393 0.73099 1.25 1.1901 1.8496 1.498 0.62375 0.32034 1.1482 0.54591 1.4062 0.74414 0.25805 0.19823 0.31445 0.22821 0.31445 0.66406 0 0.38021-0.11508 0.64633-0.30273 0.83398-0.18766 0.18765-0.47794 0.33789-1.0176 0.33789-0.39756 0-0.77746-0.18319-1.1738-0.61719-0.39636-0.434-0.7532-1.1066-0.96484-1.8672-0.14403-0.51763-0.11301-1.0587-0.11133-1.5938z" color="#000000" fill="#fff" stroke-linecap="round" stroke-linejoin="round" style="-inkscape-stroke:none"/>
 <path id="path10" d="m27.518 23.709a1.0001 1.0001 0 0 0-0.99805 0.94531c-0.16761 3.174-0.55648 5.0719-1.2363 6.0469-0.67985 0.975-1.7019 1.381-3.9512 1.5156a1.0001 1.0001 0 0 0 0 1.998c2.2493 0.13461 3.2713 0.54061 3.9512 1.5156s1.0688 2.8729 1.2363 6.0469a1.0001 1.0001 0 0 0 1.998 0c0.16761-3.174 0.55453-5.0719 1.2344-6.0469 0.67985-0.975 1.7038-1.381 3.9531-1.5156a1.0001 1.0001 0 0 0 0-1.998c-2.2493-0.13461-3.2733-0.54061-3.9531-1.5156s-1.0668-2.8729-1.2344-6.0469a1.0001 1.0001 0 0 0-1-0.94531zm0 6.6289c0.19151 0.50281 0.30601 1.0932 0.59375 1.5059 0.44199 0.63387 1.0919 1.0127 1.7637 1.3711-0.67226 0.35845-1.3215 0.73884-1.7637 1.373-0.28774 0.41266-0.40224 1.0031-0.59375 1.5059-0.19149-0.50267-0.30608-1.0933-0.59375-1.5059-0.44216-0.63412-1.0896-1.0146-1.7617-1.373 0.67116-0.35831 1.32-0.73766 1.7617-1.3711 0.28767-0.41256 0.40226-1.0032 0.59375-1.5059z" color="#000000" fill="#fff" stroke-linecap="round" stroke-linejoin="round" style="-inkscape-stroke:none"/>
</svg>
