<?xml version="1.0" encoding="UTF-8"?>
<svg id="a" version="1.1" viewBox="0 0 48 48" xmlns="http://www.w3.org/2000/svg">
 <defs id="defs4">
  <style id="style2">.d{fill:none;stroke:#fff;stroke-width:2px;stroke-linecap:round;stroke-linejoin:round;}</style>
 </defs>
 <path id="circle6" d="m24 1.5c-12.415 0-22.5 10.085-22.5 22.5s10.085 22.5 22.5 22.5 22.5-10.085 22.5-22.5-10.085-22.5-22.5-22.5zm0 2c11.334 0 20.5 9.1663 20.5 20.5s-9.1663 20.5-20.5 20.5-20.5-9.1663-20.5-20.5 9.1663-20.5 20.5-20.5z" color="#000000" fill="#fff" stroke-linecap="round" stroke-linejoin="round" style="-inkscape-stroke:none"/>
 <path id="circle8" d="m24 31.5c-3.0257 0-5.5 2.4743-5.5 5.5s2.4743 5.5 5.5 5.5 5.5-2.4743 5.5-5.5-2.4743-5.5-5.5-5.5zm0 2c1.9448 0 3.5 1.5552 3.5 3.5s-1.5552 3.5-3.5 3.5-3.5-1.5552-3.5-3.5 1.5552-3.5 3.5-3.5z" color="#000000" fill="#fff" stroke-linecap="round" stroke-linejoin="round" style="-inkscape-stroke:none"/>
 <path id="path10" d="m24 2.793c-2.104-9.1e-6 -4.2486 1.1869-5.2051 3.4492l-12.84 30.369a1.0001 1.0001 0 0 0 0.91992 1.3887h8.8789a1.0001 1.0001 0 0 0 0.92188-0.61133l7.3223-17.32 7.3242 17.322a1.0001 1.0001 0 0 0 0.92188 0.61133h8.8789a1.0001 1.0001 0 0 0 0.92188-1.3906l-12.84-30.369c-0.95649-2.2623-3.101-3.4492-5.2051-3.4492zm0 2c1.3794 6e-6 2.717 0.70443 3.3613 2.2285l12.252 28.98h-6.707l-7.9863-18.891a1.0001 1.0001 0 0 0-1.8418 0l-7.9863 18.889h-6.707l12.252-28.979c0.64438-1.5241 1.9839-2.2285 3.3633-2.2285z" color="#000000" fill="#fff" stroke-linecap="round" stroke-linejoin="round" style="-inkscape-stroke:none"/>
 <path id="path12" d="m17.209 2.998a1 1 0 0 0-1.3789 0.31055c-0.2723 0.43076-0.51346 0.89139-0.71875 1.377l-11.678 27.617a1 1 0 0 0 0.53125 1.3105 1 1 0 0 0 1.3105-0.5332l11.678-27.617c0.16235-0.384 0.35165-0.74427 0.56641-1.084a1 1 0 0 0-0.31055-1.3809z" color="#000000" fill="#fff" stroke-linecap="round" stroke-linejoin="round" style="-inkscape-stroke:none"/>
 <path id="path14" d="m31.482 2.7871a1 1 0 0 0-0.75391 0.13867 1 1 0 0 0-0.29492 1.3828c0.23326 0.36011 0.43962 0.74552 0.61328 1.1562l11.678 27.619a1 1 0 0 0 1.3105 0.53125 1 1 0 0 0 0.53125-1.3105l-11.678-27.619c-0.21954-0.51923-0.48165-1.0084-0.77734-1.4648a1 1 0 0 0-0.62891-0.43359z" color="#000000" fill="#fff" stroke-linecap="round" stroke-linejoin="round" style="-inkscape-stroke:none"/>
 <path id="path16" d="m9.6387 39a1 1 0 0 0-1 1 1 1 0 0 0 1 1h11.008a1 1 0 0 0 1-1 1 1 0 0 0-1-1zm17.715 0a1 1 0 0 0-1 1 1 1 0 0 0 1 1h11.008a1 1 0 0 0 1-1 1 1 0 0 0-1-1z" color="#000000" fill="#fff" stroke-linecap="round" stroke-linejoin="round" style="-inkscape-stroke:none"/>
</svg>
