<?xml version="1.0" encoding="UTF-8"?>
<svg id="a" version="1.1" viewBox="0 0 48 48" xmlns="http://www.w3.org/2000/svg">
 <defs id="defs4">
  <style id="style2">.c{fill:none;stroke:#fff;stroke-width:2px;stroke-linecap:round;stroke-linejoin:round;}</style>
 </defs>
 <path id="path6" d="m27.057 3.5c-0.53391 0-0.9458 0.15255-1.502 0.35742-0.55615 0.20487-1.2025 0.48598-1.918 0.82422-1.4309 0.67647-3.1343 1.5799-4.8047 2.5312-1.6704 0.95133-3.3038 1.9469-4.5938 2.8105-0.64497 0.43185-1.2037 0.82964-1.6484 1.1836-0.44478 0.35396-0.75968 0.58602-1.0352 1.0488-0.58189 0.97761-1.5748 3.3753-2.3711 6.0117-0.39816 1.3182-0.72987 2.6627-0.87305 3.8711s-0.19122 2.2971 0.43359 3.2344c0.42962 0.64444 0.93207 1.0923 1.498 1.3164 0.40328 0.15972 0.77008 0.08116 1.1328 0.03125-0.0059 0.18409-0.02316 0.39219-0.01367 0.58203 0.03447 0.68933 0.40573 1.5536 1.1348 2.0312 0.88059 0.57698 1.9395 0.66541 2.9922 0.57227 0.52636-0.04657 1.0408-0.15188 1.5254-0.41211 0.23669-0.12711 0.47867-0.32248 0.67188-0.56641-0.19838 0.83049-0.42654 1.6424-0.61524 2.3047-0.12753 0.44761-0.24699 0.91358-0.12305 1.4766 0.12394 0.56298 0.58706 1.0787 1.1133 1.3418 1.1836 0.59181 2.3649 0.18351 3.3516-0.14844 0.98664-0.33195 1.9345-0.63483 2.1582-0.62305 0.2132 0.01123 1.3361 0.45518 2.4922 0.91211 1.1561 0.45694 2.4845 0.95209 3.8691 0.59961 1.7407-0.44312 2.3865-0.17585 2.9746 0.04492 0.43406 0.16293 1.0179 0.05389 1.3398-0.16602 0.32197-0.21991 0.4873-0.46248 0.63867-0.6875 0.30275-0.45005 0.53388-0.89726 0.78711-1.2012-0.07063 0.08477 0.0037-0.0029 0.28125-0.07031 0.27759-0.0674 0.69067-0.12832 1.1504-0.26562 0.45972-0.13731 1.006-0.37044 1.4277-0.87109 0.42176-0.50065 0.62741-1.2164 0.59375-2.0098-0.06146-1.4486-0.67391-2.4256-1.4688-2.7637-0.07364-0.03132-0.06875 0.01738-0.14062-0.0039-0.0018-0.07778 0.01207-0.07359 0.0059-0.1543-0.02413-0.31372-0.02833-0.6683-0.375-1.1074-0.17334-0.21956-0.50187-0.44346-0.85352-0.48633-0.35165-0.04286-0.6505 0.06044-0.88281 0.18555-0.40147 0.21621-1.3521 0.58369-1.8359 0.50977-0.24192-0.03696-0.36517-0.08372-0.54688-0.37305-0.18171-0.28933-0.38086-0.90401-0.38086-1.9883 0-4.2381 2.2435-5.0039 3.1074-4.875 0.02552 0.06496 0.05779 0.13997 0.08203 0.31055 0.06314 0.44432 0.03932 1.152-0.04297 1.8555-0.16457 1.4068-0.52539 2.8066-0.52539 2.8066a1.0001 1.0001 0 0 0 1.4785 1.1113c1.9862-1.1827 2.7847-3.2589 2.9688-5.0664 0.09202-0.90376 0.04186-1.7595-0.09375-2.4883-0.13561-0.72876-0.2924-1.3052-0.71875-1.8223-0.54459-0.66047-1.7065-1.7308-2.9199-2.9688-1.2135-1.238-2.4331-2.6678-2.6973-3.2227-0.43814-0.92033-1.1244-2.2306-2.1172-3.3672-0.99281-1.1366-2.3686-2.1562-4.1113-2.1562zm0 2c0.95482 0 1.8204 0.57385 2.6055 1.4727 0.78508 0.8988 1.4139 2.0646 1.8164 2.9102 0.57654 1.211 1.8259 2.49 3.0742 3.7637 1.2484 1.2736 2.5405 2.5194 2.8047 2.8398-0.02195-0.02662 0.1974 0.38144 0.29688 0.91602 0.03643 0.19578 9e-3 0.47353 0.02734 0.70312-0.05739-0.22838-0.08786-0.45891-0.21484-0.68164-0.20733-0.36365-0.59338-0.73139-1.084-0.85938-2.4438-0.63753-5.7363 1.6199-5.7363 6.8184 0 1.3154 0.21673 2.3031 0.6875 3.0527 0.47078 0.7496 1.2355 1.1776 1.9395 1.2852 0.90656 0.13851 1.6305-0.08351 2.2266-0.33594-0.0038 0.0346-0.0078 0.15625-0.0078 0.15625a1.0001 1.0001 0 0 0 1.3301 1.0898s0.04865 0.0089 0.05078 0.0098c0.0021 9.07e-4 0.21027-0.01867 0.25391 1.0098 0.01889 0.44517-0.06177 0.55971-0.125 0.63476-0.06323 0.07506-0.19912 0.16302-0.4707 0.24414-0.27159 0.08112-0.64 0.13707-1.0488 0.23633-0.40882 0.09926-0.92672 0.22921-1.3477 0.73438-0.44736 0.53689-0.72246 1.0882-0.91016 1.3672-5e-3 0.0074-1e-3 9.15e-4 -0.0059 0.0078-0.74548-0.23749-1.9352-0.49143-3.7812-0.02148-0.54219 0.13802-1.5789-0.10262-2.6387-0.52148-1.0597-0.41886-2.005-0.99191-3.123-1.0508-1.1075-0.05832-2.0147 0.42794-2.9023 0.72656-0.8876 0.29863-1.6008 0.36269-1.8184 0.25391-0.17438-0.08719-0.05933-0.0035-0.05469 0.01758 0.0046 0.02108-0.0021-0.16376 0.09375-0.5 0.19161-0.67249 0.67911-1.8348 0.89062-3.3926 0.22044-1.6234-0.10581-2.983-0.76172-3.9375-0.6559-0.95455-1.7161-1.5685-2.8125-1.3027-0.32616 0.07906-0.68752 0.29497-0.89844 0.60938-0.21091 0.3144-0.25906 0.64831-0.25586 0.91602 0.0064 0.53542 0.1679 0.93827 0.32422 1.3516 0.29641 0.78368 0.54132 1.5741 0.56445 1.7148-0.12838 0.0647-0.40426 0.14657-0.73438 0.17578-0.68135 0.06028-1.5833-0.16518-1.7188-0.25391-0.28696-0.18802-0.21434-0.09539-0.23242-0.45703-0.01808-0.36164 0.07183-1.0798 0.05273-2.0547a1.0001 1.0001 0 0 0-1.7715-0.61328s-0.24021 0.23411-0.43164 0.29688c-0.09571 0.03139-0.13302 0.03664-0.23047-2e-3 -0.09745-0.03859-0.29928-0.15985-0.57031-0.56641-0.07583-0.11376-0.23199-0.87227-0.11133-1.8906s0.42385-2.2794 0.80078-3.5273c0.75385-2.4958 1.8799-5.0726 2.1738-5.5664-0.05652 0.09496 0.1883-0.20846 0.56445-0.50781 0.37616-0.29935 0.89998-0.67372 1.5156-1.0859 1.2313-0.82442 2.8349-1.8027 4.4707-2.7344 1.6358-0.93162 3.3082-1.8191 4.67-2.4629 0.6809-0.3219 1.2855-0.58331 1.7539-0.75586 0.4684-0.17255 0.85401-0.23242 0.81055-0.23242zm-9.5977 20.07c0.0075 0.01042 0.0081 8.37e-4 0.01563 0.01172 0.1106 0.16096 0.18879 0.42636 0.27148 0.67383-0.10032-0.24417-0.19507-0.47208-0.28711-0.68555zm0.38867 0.93945c0.01354 0.05874 0.01632 0.12303 0.02734 0.18555-0.01774-0.05602-8e-3 -0.13125-0.02734-0.18555z" color="#000000" fill="#fff" stroke-linecap="round" stroke-linejoin="round" style="-inkscape-stroke:none"/>
 <path id="path8" d="m22.762 31.373a1 1 0 0 0-0.64258 0.41797s-1.7383 2.3859-1.7383 5.1484c0 1.2318 0.11294 2.2311 0.58203 3.0742 0.3968 0.71317 1.1378 1.1442 1.9473 1.3477-0.72862 0.0057-1.4497 0.08551-2.1113 0.44531-0.35282 0.19188-0.5442 0.19345-0.6543 0.17188-0.11009-0.02158-0.21204-0.07257-0.36133-0.26953-0.29858-0.39393-0.58984-1.3708-0.58984-2.5273 0-0.37088 0.56152-1.5912 0.3418-3.2168-0.17001-1.2578-0.3457-3.1191-0.3457-3.1191a1 1 0 0 0-1.0898-0.90234 1 1 0 0 0-0.90234 1.0898s0.17508 1.8646 0.35547 3.1992c0.13068 0.9668-0.35938 1.7087-0.35938 2.9492 0 1.4358 0.2525 2.7553 0.99609 3.7363 0.3718 0.49054 0.91517 0.89504 1.5703 1.0234 0.65514 0.1284 1.3485-0.02583 1.9941-0.37695 0.52925-0.28783 1.944-0.2467 3.4102 0.05664 1.4662 0.30334 2.8406 0.7894 4.0508 0.76367 0.68725-0.01461 2.0478 0.12449 3.4453 0.11523 1.3975-0.0093 2.8957-0.11663 4.0859-0.9668 0.78028-0.55733 1.5184-0.87335 2.1562-1.4219 0.3189-0.27426 0.68113-0.71672 0.70508-1.3125 0.02395-0.59578-0.27037-1.072-0.62695-1.4746-0.42664-0.48168-1.1414-0.75703-1.707-0.68945-0.56562 0.06758-0.95488 0.2969-1.3398 0.49609-0.76992 0.39839-1.4817 0.79047-2.5898 0.73438-1.4498-0.07344-2.8155-4e-4 -3.9258 0.04297s-2.015 0.0025-2.2285-0.06641c-0.20568-0.06635-0.22798-0.13623-0.45703-0.49024-0.11453-0.177-0.25916-0.43127-0.58984-0.67188-0.33069-0.24061-0.86535-0.35273-1.3008-0.26953-0.45116 0.0862-0.9143 0.43193-1.1016 0.76758-0.10987 0.19694-0.10197 0.24894-0.12891 0.35547-0.03984 1e-3 0.03323-0.0041-0.05078-0.01367-0.553-0.06285-0.6706-0.15679-0.84961-0.47852-0.17901-0.32173-0.33008-1.0213-0.33008-2.1016 0-1.8616 1.3867-4.0156 1.3867-4.0156a1 1 0 0 0-0.25781-1.3906 1 1 0 0 0-0.74805-0.16016zm14.748 9.2461c0.02993-0.0036-0.1437-0.10012-0.02734 0.03125 0.026 0.02935 5.47e-4 -0.01214 0.01758 0.0098-0.28098 0.21626-1.0253 0.60989-1.916 1.2461-0.52632 0.37593-1.6901 0.58548-2.9375 0.59375-1.2474 0.0083-2.5154-0.13367-3.4746-0.11328-0.43634 0.0093-2.0219-0.3974-3.6035-0.72461-0.54011-0.11174-1.1012-0.17149-1.6582-0.23828 0.26692-0.01747 0.54651 0.0235 0.79492-0.11523 0.30296-0.16921 0.3949-0.42434 0.51172-0.6543 0.23618 0.34817 0.62038 0.8521 1.3574 1.0898 0.87248 0.28143 1.7901 0.20632 2.9219 0.16211 1.1317-0.04421 2.4283-0.11168 3.7461-0.04492 1.6594 0.084 2.8729-0.57401 3.6094-0.95508 0.36822-0.19053 0.62828-0.28353 0.6582-0.28711z" color="#000000" fill="#fff" stroke-linecap="round" stroke-linejoin="round" style="-inkscape-stroke:none"/>
 <path id="path10" d="m24 16.252c-1.0284 0-2.2028 0.48086-2.9492 1.5957-0.74645 1.1148-1.1683 2.7312-1.332 5.1875-0.16526 2.4788 0.12104 4.0313 1.041 5.0254 0.91997 0.99405 2.1992 1.0508 3.2402 1.0508 1.1467 0 2.3709-0.27584 3.2969-1.168 0.92597-0.89213 1.4367-2.2867 1.4941-4.1816 0.056784-1.8743-0.26556-3.647-1.0273-5.0488s-2.1012-2.4609-3.7637-2.4609zm0 2c0.86966 0 1.4782 0.44509 2.0059 1.416 0.52761 0.97092 0.83542 2.4385 0.78711 4.0332-0.04769 1.5741-0.43786 2.3702-0.88477 2.8008s-1.0669 0.60938-1.9082 0.60938c-0.947 0-1.4675-0.08173-1.7715-0.41016-0.30395-0.32842-0.66567-1.2827-0.51562-3.5332 0.15154-2.273 0.5795-3.581 1-4.209 0.4205-0.62803 0.73019-0.70703 1.2871-0.70703z" color="#000000" fill="#fff" stroke-linecap="round" stroke-linejoin="round" style="-inkscape-stroke:none"/>
 <path id="path12" d="m29.775 24.771c-0.58212 0.0784-0.94063 0.44068-1.1758 0.75586-0.23515 0.31518-0.39088 0.64762-0.52539 0.97852-0.26902 0.66179-0.44605 1.3568-0.53711 1.6445-0.11682 0.36913-0.18156 0.70688-0.10742 1.0996 0.07414 0.39273 0.41643 0.85956 0.83789 1.0078 0.42146 0.14826 0.77389 0.06 1.0449-0.06055 0.16155-0.07185 0.27341-0.21001 0.40234-0.32422 0.45826 0.44002 1.1818 0.64083 1.6875 0.39648 0.58268-0.28154 0.9551-0.86526 0.9375-1.5547-0.0081-0.31844-0.06692-0.57587-0.15234-0.92774-0.08542-0.35186-0.20177-0.75001-0.35156-1.1426-0.14979-0.39257-0.32094-0.77412-0.58008-1.1289-0.12957-0.17739-0.28248-0.35411-0.51562-0.50977-0.23315-0.15566-0.58975-0.28489-0.96484-0.23438zm0.14844 2.5c0.01552 0.03754 0.02811 0.04895 0.04297 0.08789 0.08164 0.21395 0.14097 0.43709 0.20117 0.6543-0.15347-0.06026-0.23398-0.24141-0.4043-0.24805 0.05633-0.174 0.09561-0.33408 0.16016-0.49414zm-1.4238 1.0977c0.0092-0.0041 0.05371 0.0049 0.06641 0-0.04612 0.04984-0.14664 0.04317-0.18555 0.0957 0.03903-0.05269 0.05965-0.06924 0.11914-0.0957z" color="#000000" fill="#fff" stroke-linecap="round" stroke-linejoin="round" style="-inkscape-stroke:none"/>
 <path id="path14" d="m33.793 32.227a1 1 0 0 0-0.43164 1.3457s0.28095 0.54947 0.53516 1.1992c0.1271 0.32488 0.2436 0.67283 0.31055 0.95508 0.02167 0.09137 0.0131 0.07748 0.02148 0.15039-0.16022-0.03868-0.33654-0.10425-0.69922-0.02539-0.04382 0.0095-0.47981 0.06254-0.98828 0.08984s-1.1383 0.04492-1.7773 0.04492c-0.68522 0-1.4379 0.02711-2.0391 0.0039-0.49938-0.01927-0.70586-0.11575-0.69922-0.06055-0.0032-0.20356 0.02223-0.50494 0.07031-0.81055 0.10011-0.63619 0.26758-1.2441 0.26758-1.2441a1 1 0 0 0-0.69726-1.2305 1 1 0 0 0-1.2305 0.69727s-0.19226 0.68822-0.31445 1.4648c-0.0611 0.38831-0.11007 0.80081-0.09766 1.2168 0.01241 0.41599-0.01373 0.91582 0.54492 1.4023 0.71803 0.62535 1.3631 0.53483 2.0801 0.5625 0.71695 0.02767 1.4868-2e-3 2.1152-2e-3 0.67461 0 1.3335-0.01728 1.8848-0.04687 0.55123-0.0296 0.94756-0.05474 1.3066-0.13281-0.21088 0.04585-0.16305 0.0063-0.04492 0.03125 0.11813 0.02497 0.31219 0.07825 0.57812 0.09961 0.26593 0.02135 0.65557 0.0065 1.0332-0.23633 0.37763-0.24283 0.61308-0.67095 0.70312-1.0762 0.11558-0.52008 0.03024-0.93737-0.07031-1.3613-0.10055-0.42396-0.24576-0.84044-0.39453-1.2207-0.29754-0.76052-0.62109-1.3848-0.62109-1.3848a1 1 0 0 0-1.3457-0.43164z" color="#000000" fill="#fff" stroke-linecap="round" stroke-linejoin="round" style="-inkscape-stroke:none"/>
 <path id="path16" d="m28.029 36.014a1 1 0 0 0-1.4121 0.08398s-0.40232 0.45142-0.84375 1.041c-0.44143 0.58959-0.9402 1.2663-1.1758 2.0703a1 1 0 0 0 0.67774 1.2422 1 1 0 0 0 1.2422-0.67969c0.06702-0.22875 0.47045-0.91674 0.85742-1.4336 0.38697-0.51686 0.73828-0.91211 0.73828-0.91211a1 1 0 0 0-0.08398-1.4121z" color="#000000" fill="#fff" stroke-linecap="round" stroke-linejoin="round" style="-inkscape-stroke:none"/>
 <path id="path18" d="m35.635 36.08a1 1 0 0 0-1.4082 0.12891 1 1 0 0 0 0.12891 1.4082c-0.23275-0.19378 0.04062 0.07134 0.20117 0.34375 0.16055 0.27241 0.35428 0.63071 0.53711 0.98047 0.36565 0.69952 0.6875 1.3652 0.6875 1.3652a1 1 0 0 0 1.3359 0.46484 1 1 0 0 0 0.46484-1.334s-0.33322-0.68807-0.7168-1.4219c-0.19179-0.3669-0.39519-0.74667-0.58594-1.0703-0.19074-0.32364-0.22424-0.5153-0.64453-0.86523z" color="#000000" fill="#fff" stroke-linecap="round" stroke-linejoin="round" style="-inkscape-stroke:none"/>
 <path id="path20" d="m33.105 32.912a1 1 0 0 0-0.83594 1.1406c0.09244 0.59854 0.26172 2.8809 0.26172 2.8809a1 1 0 0 0 1.0684 0.92773 1 1 0 0 0 0.92774-1.0684s-0.14009-2.1309-0.28125-3.0449a1 1 0 0 0-1.1406-0.83594z" color="#000000" fill="#fff" stroke-linecap="round" stroke-linejoin="round" style="-inkscape-stroke:none"/>
 <path id="path22" d="m31.393 32.572a1 1 0 0 0-1.0508 0.94726s-0.14301 2.5593-0.12109 3.4883a1 1 0 0 0 1.0234 0.97656 1 1 0 0 0 0.97461-1.0234c-0.01349-0.57181 0.12109-3.3379 0.12109-3.3379a1 1 0 0 0-0.94727-1.0508z" color="#000000" fill="#fff" stroke-linecap="round" stroke-linejoin="round" style="-inkscape-stroke:none"/>
 <path id="path24" d="m29.605 32.885a1 1 0 0 0-1.1543 0.81445s-0.35996 1.8521-0.16797 3.4062a1 1 0 0 0 1.1152 0.87109 1 1 0 0 0 0.86914-1.1152c-0.12321-0.99741 0.1543-2.8203 0.1543-2.8203a1 1 0 0 0-0.81641-1.1562z" color="#000000" fill="#fff" stroke-linecap="round" stroke-linejoin="round" style="-inkscape-stroke:none"/>
 <path id="path26" d="m29.092 36.053a1 1 0 0 0-1.2715 0.62305s-0.25976 0.76095-0.57031 1.6211-0.70311 1.874-0.83594 2.1387a1 1 0 0 0 0.44531 1.3418 1 1 0 0 0 1.3418-0.44336c0.27627-0.55052 0.61252-1.479 0.92969-2.3574 0.31717-0.87845 0.58203-1.6523 0.58203-1.6523a1 1 0 0 0-0.62109-1.2715z" color="#000000" fill="#fff" stroke-linecap="round" stroke-linejoin="round" style="-inkscape-stroke:none"/>
 <path id="path28" d="m30.119 36.029a1 1 0 0 0-0.72852 1.2109c-0.0024-0.0097 0.03275 0.31925 0.01953 0.68555-0.01322 0.3663-0.04956 0.80839-0.09375 1.2266-0.08837 0.83635-0.20312 1.5762-0.20312 1.5762a1 1 0 0 0 0.83398 1.1406 1 1 0 0 0 1.1426-0.83398s0.12047-0.77875 0.21484-1.6719c0.04719-0.44656 0.08761-0.92452 0.10352-1.3652 0.0159-0.44071 0.03133-0.80802-0.07617-1.2402a1 1 0 0 0-1.2129-0.72852z" color="#000000" fill="#fff" stroke-linecap="round" stroke-linejoin="round" style="-inkscape-stroke:none"/>
 <path id="path30" d="m32 35.973a1 1 0 0 0-1.0742 0.91797s-0.24746 3.1199-0.30078 3.875a1 1 0 0 0 0.92773 1.0684 1 1 0 0 0 1.0684-0.92773c0.05008-0.70926 0.29688-3.8594 0.29688-3.8594a1 1 0 0 0-0.91797-1.0742z" color="#000000" fill="#fff" stroke-linecap="round" stroke-linejoin="round" style="-inkscape-stroke:none"/>
 <path id="path32" d="m33.582 35.842a1 1 0 0 0-0.82812 1.1465c0.01447 0.08922 0.08482 1.2077 0.11524 2.1211 0.03041 0.91337 0.04883 1.748 0.04883 1.748a1 1 0 0 0 1.0195 0.97852 1 1 0 0 0 0.97852-1.0195s-0.01596-0.84498-0.04687-1.7734-0.04999-1.8161-0.14062-2.375a1 1 0 0 0-1.1465-0.82617z" color="#000000" fill="#fff" stroke-linecap="round" stroke-linejoin="round" style="-inkscape-stroke:none"/>
</svg>
