<?xml version="1.0" encoding="UTF-8"?>
<svg id="a" version="1.1" viewBox="0 0 48 48" xmlns="http://www.w3.org/2000/svg">
 <defs id="defs1">
  <style id="style1">.d{fill:none;stroke:#fff;stroke-width:2px;stroke-linecap:round;stroke-linejoin:round;}</style>
 </defs>
 <path id="path1" d="m23.5 1.6348-18.619 10.75a1.0001 1.0001 0 0 0-0.5 0.86523v21.5a1.0001 1.0001 0 0 0 0.5 0.86523l18.619 10.75a1.0001 1.0001 0 0 0 1 0l18.619-10.75a1.0001 1.0001 0 0 0 0.5-0.86523v-21.5a1.0001 1.0001 0 0 0-0.5-0.86523l-18.619-10.75a1.0001 1.0001 0 0 0-1 0zm0.5 2.0195 17.619 10.174v20.344l-17.619 10.174-17.619-10.174v-20.344z" fill="#fff" stop-color="#000000" stroke-linecap="round" stroke-linejoin="round"/>
 <path id="path2" d="m23.5 12.385-9.3105 5.375a1.0001 1.0001 0 0 0-0.5 0.86523v10.75a1.0001 1.0001 0 0 0 0.5 0.86523l9.3105 5.375a1.0001 1.0001 0 0 0 1 0l9.3105-5.375a1.0001 1.0001 0 0 0 0.5-0.86523v-10.75a1.0001 1.0001 0 0 0-0.5-0.86523l-9.3105-5.375a1.0001 1.0001 0 0 0-1 0zm0.5 2.0195 8.3105 4.7988v9.5938l-8.3105 4.7988-8.3105-4.7988v-9.5938z" fill="#fff" stop-color="#000000" stroke-linecap="round" stroke-linejoin="round"/>
 <path id="path3" d="m5.1211 12.283a1 1 0 0 0-0.60742 0.4668 1 1 0 0 0 0.36719 1.3652l18.119 10.461v20.924a1 1 0 0 0 1 1 1 1 0 0 0 1-1v-20.924l18.119-10.461a1 1 0 0 0 0.36719-1.3652 1 1 0 0 0-1.3672-0.36523l-18.119 10.461-18.119-10.461a1 1 0 0 0-0.75977-0.10156z" fill="#fff" stop-color="#000000" stroke-linecap="round" stroke-linejoin="round"/>
</svg>
