<?xml version="1.0" encoding="UTF-8"?>
<svg id="b" version="1.1" viewBox="0 0 48 48" xmlns="http://www.w3.org/2000/svg">
 <defs id="defs4">
  <style id="style2">.c{fill:none;stroke:#fff;stroke-width:2px;stroke-linecap:round;stroke-linejoin:round;}</style>
 </defs>
 <path id="ellipse6" d="m24 26.025c-5.4752 0-10.431 0.73301-14.105 1.9629-1.837 0.61494-3.3567 1.3492-4.4824 2.2402-1.1258 0.89098-1.9121 2.0193-1.9121 3.3242s0.78634 2.4332 1.9121 3.3242 2.6454 1.6253 4.4824 2.2402c3.674 1.2299 8.6302 1.9629 14.105 1.9629s10.431-0.73301 14.105-1.9629c1.837-0.61494 3.3567-1.3492 4.4824-2.2402s1.9121-2.0193 1.9121-3.3242-0.78634-2.4332-1.9121-3.3242c-1.1258-0.89098-2.6454-1.6253-4.4824-2.2402-3.674-1.2299-8.6302-1.9629-14.105-1.9629zm0 2c5.2943 0 10.087 0.7267 13.471 1.8594 1.6918 0.56634 3.0292 1.2412 3.877 1.9121 0.84774 0.67094 1.1523 1.2582 1.1523 1.7559 0 0.49768-0.3046 1.0849-1.1523 1.7559-0.84774 0.67094-2.1851 1.3458-3.877 1.9121-3.3836 1.1327-8.1764 1.8594-13.471 1.8594s-10.087-0.7267-13.471-1.8594c-1.6918-0.56634-3.0292-1.2412-3.877-1.9121-0.84774-0.67094-1.1523-1.2582-1.1523-1.7559 0-0.49768 0.3046-1.0849 1.1523-1.7559 0.84774-0.67094 2.1851-1.3458 3.877-1.9121 3.3836-1.1327 8.1764-1.8594 13.471-1.8594z" color="#000000" fill="#fff" stroke-linecap="round" stroke-linejoin="round" style="-inkscape-stroke:none"/>
 <path id="path8" d="m38.352 10.34a1 1 0 0 0-1.3242 0.49609 1 1 0 0 0 0.49414 1.3242c1.6896 0.76944 3.0087 1.4934 3.8281 2.2129 0.81942 0.71946 1.1484 1.3317 1.1484 2.2129v16.961a1 1 0 0 0 1 1 1 1 0 0 0 1-1v-16.961c0-1.4793-0.72759-2.7505-1.8281-3.7168s-2.5642-1.7304-4.3184-2.5293z" color="#000000" fill="#fff" stroke-linecap="round" stroke-linejoin="round" style="-inkscape-stroke:none"/>
 <path id="path10" d="m10.414 10.312a1 1 0 0 0-0.76563 0.02734c-1.7542 0.79885-3.2178 1.563-4.3184 2.5293s-1.8281 2.2375-1.8281 3.7168v16.961a1 1 0 0 0 1 1 1 1 0 0 0 1-1v-16.961c0-0.88116 0.32902-1.4934 1.1484-2.2129 0.81941-0.71946 2.1385-1.4434 3.8281-2.2129a1 1 0 0 0 0.49414-1.3242 1 1 0 0 0-0.55859-0.52344z" color="#000000" fill="#fff" stroke-linecap="round" stroke-linejoin="round" style="-inkscape-stroke:none"/>
 <path id="path12" d="m24 6.9199c-2.6768 0-5.2406 0.22961-7.5859 0.66211a1 1 0 0 0-0.80273 1.166 1 1 0 0 0 1.1641 0.80078c2.2141-0.4083 4.663-0.62891 7.2246-0.62891 2.5616 0 5.0105 0.22069 7.2246 0.62891a1 1 0 0 0 1.1641-0.80078 1 1 0 0 0-0.80274-1.166c-2.3452-0.43238-4.9091-0.66211-7.5859-0.66211z" color="#000000" fill="#fff" stroke-linecap="round" stroke-linejoin="round" style="-inkscape-stroke:none"/>
 <path id="path14" d="m41.4 29.484a1 1 0 0 0-0.75586 0.12305c-2.9754 1.8377-9.3483 3.2773-16.645 3.2773-7.2963 0-13.669-1.4396-16.645-3.2773a1 1 0 0 0-1.377 0.32422 1 1 0 0 0 0.32617 1.377c3.6212 2.2366 10.149 3.5762 17.695 3.5762 7.5461 0 14.074-1.3396 17.695-3.5762a1 1 0 0 0 0.32617-1.377 1 1 0 0 0-0.62109-0.44727z" color="#000000" fill="#fff" stroke-linecap="round" stroke-linejoin="round" style="-inkscape-stroke:none"/>
 <path id="path16" d="m16.596 7.5664a1 1 0 0 0-1 1v9.1289c-1.6629 0.25709-3.1504 0.61259-4.5332 1.0117v-7.457a1 1 0 0 0-1-1 1 1 0 0 0-1 1v8.6992a1.0001 1.0001 0 0 0 1.3164 0.94726c1.7748-0.59164 3.9318-1.0965 6.3457-1.4121a1.0001 1.0001 0 0 0 0.87109-0.99023v-9.9277a1 1 0 0 0-1-1z" color="#000000" fill="#fff" stroke-linecap="round" stroke-linejoin="round" style="-inkscape-stroke:none"/>
 <path id="path18" d="m31.404 7.5664a1 1 0 0 0-1 1v9.9277a1.0001 1.0001 0 0 0 0.87109 0.99023c2.4138 0.31547 4.5707 0.82045 6.3457 1.4121a1.0001 1.0001 0 0 0 1.3164-0.94726v-8.6992a1 1 0 0 0-1-1 1 1 0 0 0-1 1v7.457c-1.3828-0.39914-2.8702-0.75466-4.5332-1.0117v-9.1289a1 1 0 0 0-1-1z" color="#000000" fill="#fff" stroke-linecap="round" stroke-linejoin="round" style="-inkscape-stroke:none"/>
</svg>
