<?xml version="1.0" encoding="UTF-8"?>
<svg id="a" version="1.1" viewBox="0 0 48 48" xmlns="http://www.w3.org/2000/svg">
 <defs id="defs1">
  <style id="style1">.d{fill:none;stroke:#fff;stroke-width:2px;stroke-linecap:round;stroke-linejoin:round;}</style>
 </defs>
 <path id="path1" d="m21.074 21.443a1 1 0 0 0-1 1v18.131c0 2.1559 1.7699 3.9258 3.9258 3.9258s3.9258-1.7699 3.9258-3.9258v-18.131a1 1 0 0 0-1-1 1 1 0 0 0-1 1v18.131c0 1.0749-0.85085 1.9258-1.9258 1.9258s-1.9258-0.85085-1.9258-1.9258v-18.131a1 1 0 0 0-1-1z" fill="#fff" stop-color="#000000" stroke-linecap="round" stroke-linejoin="round"/>
 <path id="path2" d="m18.395 3.5c-1.2991 2.108e-4 -2.5463 0.51684-3.4648 1.4355-1.9047 1.9051-1.9047 5.0246 0 6.9297l2.1406 2.1406-2.1406 2.1426c-1.9047 1.9051-1.9047 5.0226 0 6.9277 1.9051 1.9047 5.0246 1.9047 6.9297 0l2.1406-2.1406 2.1426 2.1406c1.9051 1.9047 5.0226 1.9047 6.9277 0 1.9047-1.9051 1.9047-5.0226 0-6.9277l-2.1406-2.1426 2.1406-2.1406c1.9047-1.9051 1.9047-5.0246 0-6.9297-1.9051-1.9047-5.0226-1.9047-6.9277 0l-2.1426 2.1426-2.1406-2.1426c-0.91849-0.91871-2.1657-1.4353-3.4648-1.4355zm11.211 1.9941c0.73998 0 1.4804 0.28518 2.0508 0.85547 1.1406 1.1408 1.1406 2.9607 0 4.1016l-2.8477 2.8477a1.0001 1.0001 0 0 0 0 1.4141l2.8477 2.8496c1.1406 1.1408 1.1406 2.9588 0 4.0996-1.1408 1.1406-2.9588 1.1406-4.0996 0l-2.8496-2.8477a1.0001 1.0001 0 0 0-1.4141 0l-2.8496 2.8477c-1.1409 1.1392-2.9592 1.1401-4.0996 0-1.1406-1.1408-1.1406-2.9588 0-4.0996l2.8496-2.8496a1.0001 1.0001 0 0 0 0-1.4141l-2.8496-2.8477c-1.1406-1.1408-1.1406-2.9607 0-4.1016 0.54403-0.54416 1.2813-0.84948 2.0508-0.84961 0.76946 1.249e-4 1.5048 0.30545 2.0488 0.84961l2.8496 2.8496a1.0001 1.0001 0 0 0 1.4141 0l2.8496-2.8496c0.57042-0.57029 1.3088-0.85547 2.0488-0.85547z" fill="#fff" stop-color="#000000" stroke-linecap="round" stroke-linejoin="round"/>
</svg>
