<?xml version="1.0" encoding="UTF-8"?>
<svg id="a" version="1.1" viewBox="0 0 48 48" xmlns="http://www.w3.org/2000/svg">
 <defs id="defs4">
  <style id="style2">.b{fill:none;stroke:#fff;stroke-width:2px;stroke-linecap:round;stroke-linejoin:round;}</style>
 </defs>
 <path id="rect6" d="m9.5 4.5c-2.7527 0-5 2.2473-5 5v29c0 2.7527 2.2473 5 5 5h29c2.7527 0 5-2.2473 5-5v-29c0-2.7527-2.2473-5-5-5zm0 2h29c1.6793 0 3 1.3207 3 3v29c0 1.6793-1.3207 3-3 3h-29c-1.6793 0-3-1.3207-3-3v-29c0-1.6793 1.3207-3 3-3z" color="#000000" fill="#fff" stroke-linecap="round" stroke-linejoin="round" style="-inkscape-stroke:none"/>
 <path id="path8" d="m21.459 31.127a1 1 0 0 0-0.64258 1.2598s0.343 1.2001 1.1914 2.1465c0.4242 0.47317 1.0805 0.95808 1.9355 0.92188s1.6171-0.58545 2.2754-1.4727l0.91211-1.2285a1 1 0 0 0-0.20703-1.4004 1 1 0 0 0-1.3984 0.20703l-0.91211 1.2305c-0.46242 0.62324-0.71677 0.66436-0.75586 0.66602-0.03909 0.0017-0.15373-0.0282-0.36133-0.25976-0.4152-0.46313-0.77734-1.4277-0.77734-1.4277a1 1 0 0 0-1.2598-0.64258z" color="#000000" fill="#fff" stroke-linecap="round" stroke-linejoin="round" style="-inkscape-stroke:none"/>
 <path id="ellipse10" transform="rotate(8)" d="m19.18 13.641c-0.86072 0-1.6468 0.15721-2.3047 0.47656-0.65786 0.31935-1.3359 0.89585-1.3359 1.8066-1e-6 0.9108 0.67808 1.4853 1.3359 1.8047 0.65786 0.31935 1.444 0.47656 2.3047 0.47656 0.86072 0 1.6468-0.15721 2.3047-0.47656 0.65786-0.31936 1.3379-0.89389 1.3379-1.8047 0-0.91079-0.68003-1.4873-1.3379-1.8066-0.65786-0.31936-1.444-0.47656-2.3047-0.47656zm0 2c0.59836 0 1.1333 0.13057 1.4316 0.27539s0.21094 0.2103 0.21094 0.0078c0-0.20249 0.08738-0.13896-0.21094 0.0059-0.29832 0.14482-0.83328 0.27539-1.4316 0.27539-0.59836 0-1.1333-0.13057-1.4316-0.27539-0.29832-0.14482-0.20898-0.20835-0.20898-0.0059 0 0.20249-0.08934 0.13701 0.20898-0.0078 0.29832-0.14482 0.83328-0.27539 1.4316-0.27539z" color="#000000" fill="#fff" stroke-linecap="round" stroke-linejoin="round" style="-inkscape-stroke:none"/>
 <path id="ellipse12" transform="rotate(-8)" d="m28.354 20.322c-0.86072 0-1.6468 0.15526-2.3047 0.47461s-1.3379 0.89585-1.3379 1.8066c0 0.91079 0.68003 1.4873 1.3379 1.8066s1.444 0.47656 2.3047 0.47656 1.6468-0.15721 2.3047-0.47656 1.3359-0.89585 1.3359-1.8066c0-0.9108-0.67808-1.4873-1.3359-1.8066s-1.444-0.47461-2.3047-0.47461zm0 2c0.59836 0 1.1333 0.13057 1.4316 0.27539 0.29832 0.14482 0.20898 0.20835 0.20898 0.0059 0-0.20249 0.08934-0.13701-0.20898 0.0078-0.29832 0.14482-0.83328 0.27539-1.4316 0.27539-0.59836 0-1.1333-0.13057-1.4316-0.27539s-0.21094-0.2103-0.21094-0.0078c0 0.20249-0.08738 0.13896 0.21094-0.0059 0.29832-0.14482 0.83328-0.27539 1.4316-0.27539z" color="#000000" fill="#fff" stroke-linecap="round" stroke-linejoin="round" style="-inkscape-stroke:none"/>
 <path id="ellipse14" transform="rotate(-25)" d="m3.6328 24.994c-3.8208 0-7.1016 2.6366-7.1016 6.0996s3.2808 6.0996 7.1016 6.0996c3.8208 0 7.0996-2.6366 7.0996-6.0996s-3.2788-6.0996-7.0996-6.0996zm0 2c2.9171 0 5.0996 1.9294 5.0996 4.0996s-2.1825 4.0996-5.0996 4.0996c-2.9171 0-5.1016-1.9294-5.1016-4.0996s2.1845-4.0996 5.1016-4.0996z" color="#000000" fill="#fff" stroke-linecap="round" stroke-linejoin="round" style="-inkscape-stroke:none"/>
 <path id="ellipse16" transform="rotate(25)" d="m39.871 4.707c-3.8208 0-7.0996 2.6385-7.0996 6.1016 0 3.4631 3.2788 6.0996 7.0996 6.0996 3.8208 0 7.0996-2.6366 7.0996-6.0996 0-3.4631-3.2788-6.1016-7.0996-6.1016zm0 2c2.9171 0 5.0996 1.9313 5.0996 4.1016 0 2.1702-2.1825 4.0996-5.0996 4.0996-2.9171 0-5.0996-1.9294-5.0996-4.0996 0-2.1702 2.1825-4.1016 5.0996-4.1016z" color="#000000" fill="#fff" stroke-linecap="round" stroke-linejoin="round" style="-inkscape-stroke:none"/>
</svg>
