<?xml version="1.0" encoding="UTF-8"?>
<svg id="b" version="1.1" viewBox="0 0 48 48" xmlns="http://www.w3.org/2000/svg">
 <defs id="defs4">
  <style id="style2">.c{fill:none;stroke:#fff;stroke-width:2px;stroke-linecap:round;stroke-linejoin:round;}</style>
 </defs>
 <path id="circle6" d="m24 1.5c-12.415 0-22.5 10.085-22.5 22.5s10.085 22.5 22.5 22.5 22.5-10.085 22.5-22.5-10.085-22.5-22.5-22.5zm0 2c11.334 0 20.5 9.1663 20.5 20.5s-9.1663 20.5-20.5 20.5-20.5-9.1663-20.5-20.5 9.1663-20.5 20.5-20.5z" color="#000000" fill="#fff" stroke-linecap="round" stroke-linejoin="round" style="-inkscape-stroke:none"/>
 <path id="path8" d="m6.3672 19.498a1.0001 1.0001 0 0 0-0.22266 1.2969l-0.054687-0.07813c0.73973 1.5164 0.45248 2.7538 0.15234 4.4082s-0.56581 3.7113 0.70117 5.9785c0.94482 1.6908 2.6358 2.1496 3.998 2.4844 1.3622 0.33482 2.4701 0.59474 3.3066 1.6172a1.0001 1.0001 0 0 0 1.6543-1.1074c-0.16919-0.31299-0.21419-0.68206-0.16406-1.2383s0.20507-1.2558 0.33008-2.0605c0.25001-1.6095 0.2994-3.7209-1.1641-5.8828-1.4236-2.103-3.0498-2.8323-4.293-3.2871-1.2432-0.45482-1.9838-0.61924-2.7754-1.8809l-0.00781 0.0078a1.0001 1.0001 0 0 0-0.13281-0.18359 1.0001 1.0001 0 0 0-1.3281-0.07422zm-0.17773 1.3594c0.033623 0.05215 0.078948 0.06139 0.11328 0.11133l-0.021484 0.01758zm2.3496 2.0352c0.47495 0.23085 0.96023 0.45797 1.3848 0.61328 1.1785 0.43115 2.1489 0.79494 3.3242 2.5312 1.1354 1.6773 1.0682 3.0226 0.8457 4.4551-0.09914 0.63824-0.23218 1.2838-0.31055 1.9492-0.82025-0.38461-1.6479-0.61861-2.3652-0.79492-1.3373-0.3287-2.1859-0.54856-2.7285-1.5195-0.97752-1.7492-0.77101-3.043-0.48047-4.6445 0.14311-0.78885 0.3131-1.6602 0.33008-2.5898z" color="#000000" fill="#fff" stroke-linecap="round" stroke-linejoin="round" style="-inkscape-stroke:none"/>
 <path id="circle10" d="m11.279 25.082c-1.4824 0-2.707 1.2227-2.707 2.7051 0 1.4824 1.2247 2.7051 2.707 2.7051 1.4824 0 2.7051-1.2227 2.7051-2.7051 0-1.4824-1.2227-2.7051-2.7051-2.7051zm0 2c0.40148 0 0.70508 0.3036 0.70508 0.70508 0 0.40148-0.3036 0.70508-0.70508 0.70508s-0.70703-0.3036-0.70703-0.70508c0-0.40148 0.30555-0.70508 0.70703-0.70508z" color="#000000" fill="#fff" stroke-linecap="round" stroke-linejoin="round" style="-inkscape-stroke:none"/>
 <path id="path12" d="m24.037 8.3945a1.0001 1.0001 0 0 0-1 0.98633c0 1.9395-1.492 3.4716-3.168 5.627-1.6759 2.1553-3.3677 4.9828-2.8262 9.1641 0.52962 4.089 2.2297 6.1849 3.6113 7.7891 1.3816 1.6042 2.3828 2.615 2.3828 5.4473a1.0001 1.0001 0 0 0 2 0c0-2.8323 1.0012-3.8431 2.3828-5.4473 1.3816-1.6041 3.0817-3.7 3.6113-7.7891 0.54156-4.1813-1.1502-7.0087-2.8262-9.1641-1.6759-2.1553-3.168-3.6875-3.168-5.627a1.0001 1.0001 0 0 0-1-0.98633zm0 4.332c0.72585 1.2571 1.7071 2.377 2.5879 3.5098 1.5764 2.0273 2.8844 4.1086 2.4219 7.6797-0.47448 3.6634-1.7739 5.1492-3.1426 6.7383-0.6562 0.76189-1.3308 1.5904-1.8672 2.5977-0.53641-1.0072-1.211-1.8358-1.8672-2.5977-1.3687-1.5891-2.67-3.0749-3.1445-6.7383-0.46254-3.5711 0.84745-5.6524 2.4238-7.6797 0.88087-1.1328 1.862-2.2526 2.5879-3.5098z" color="#000000" fill="#fff" stroke-linecap="round" stroke-linejoin="round" style="-inkscape-stroke:none"/>
 <path id="path14" d="m41.27 19.297a1.0001 1.0001 0 0 0-0.89258 0.27539 1.0001 1.0001 0 0 0-0.13086 0.18164l-0.0078-0.0059c-0.79159 1.2616-1.5322 1.426-2.7754 1.8809s-2.8714 1.1841-4.2949 3.2871c-1.4635 2.1619-1.4141 4.2733-1.1641 5.8828 0.12501 0.80473 0.2819 1.5043 0.33203 2.0605s0.0051 0.92529-0.16406 1.2383a1.0001 1.0001 0 0 0 1.6543 1.1074c0.83656-1.0224 1.9444-1.2824 3.3066-1.6172 1.3622-0.33482 3.0532-0.79355 3.998-2.4844 1.267-2.2672 1.0013-4.3241 0.70117-5.9785s-0.58739-2.8918 0.15234-4.4082l-0.05078 0.07031a1.0001 1.0001 0 0 0-0.66406-1.4902zm0.61133 1.5625-0.08984 0.12695-0.01953-0.01563c0.03372-0.04902 0.07634-0.06017 0.10938-0.11133zm-2.3457 2.0332c0.01698 0.92961 0.18697 1.801 0.33008 2.5898 0.29054 1.6016 0.49705 2.8953-0.48047 4.6445-0.54258 0.97098-1.3912 1.1908-2.7285 1.5195-0.71731 0.17631-1.545 0.41031-2.3652 0.79492-0.07837-0.66546-0.2114-1.311-0.31055-1.9492-0.22251-1.4324-0.29168-2.7777 0.84375-4.4551 1.1753-1.7363 2.1477-2.1001 3.3262-2.5312 0.4249-0.15545 0.9094-0.38213 1.3848-0.61328z" color="#000000" fill="#fff" stroke-linecap="round" stroke-linejoin="round" style="-inkscape-stroke:none"/>
 <path id="circle16" d="m36.795 25.082c-1.4824 0-2.7051 1.2227-2.7051 2.7051 0 1.4824 1.2227 2.7051 2.7051 2.7051 1.4824 0 2.7051-1.2227 2.7051-2.7051 0-1.4824-1.2227-2.7051-2.7051-2.7051zm0 2c0.40148 0 0.70508 0.3036 0.70508 0.70508 0 0.40148-0.3036 0.70508-0.70508 0.70508s-0.70508-0.3036-0.70508-0.70508c0-0.40148 0.3036-0.70508 0.70508-0.70508z" color="#000000" fill="#fff" stroke-linecap="round" stroke-linejoin="round" style="-inkscape-stroke:none"/>
 <path id="path18" d="m24.037 17.684c-1.7409 0-2.9838 1.1922-3.623 2.4805-0.63922 1.2883-0.85547 2.7339-0.85547 3.8809 0 1.1726 0.2683 2.4843 0.94922 3.6094 0.68092 1.1251 1.9077 2.0645 3.4922 2.0645a1 1 0 0 0 0.03711-0.01563 1 1 0 0 0 0.03711 0.01563c1.5845 0 2.8113-0.9394 3.4922-2.0645 0.68092-1.1251 0.94727-2.4367 0.94727-3.6094 0-1.147-0.2143-2.5926-0.85352-3.8809-0.63922-1.2883-1.8822-2.4805-3.623-2.4805zm0 2c0.89493 0 1.3914 0.4812 1.832 1.3691 0.44058 0.88794 0.64453 2.1236 0.64453 2.9922 0 0.84297-0.22979 1.8664-0.6582 2.5742-0.42841 0.70784-0.92184 1.0996-1.7812 1.0996a1 1 0 0 0-0.02344 0.0098 1 1 0 0 0-0.050779-0.0098c-0.85941 0-1.3528-0.39176-1.7812-1.0996-0.42841-0.70785-0.66016-1.7313-0.66016-2.5742 0-0.8686 0.2059-2.1042 0.64648-2.9922 0.44058-0.88794 0.9371-1.3691 1.832-1.3691z" color="#000000" fill="#fff" stroke-linecap="round" stroke-linejoin="round" style="-inkscape-stroke:none"/>
</svg>
