<?xml version="1.0" encoding="UTF-8"?>
<svg id="a" version="1.1" viewBox="0 0 48 48" xmlns="http://www.w3.org/2000/svg">
 <defs id="defs4">
  <style id="style2">.b{fill:none;stroke:#fff;stroke-width:2px;stroke-linecap:round;stroke-linejoin:round;}</style>
 </defs>
 <path id="rect6" transform="rotate(-27.864)" d="m0.55469 15.408a1.0001 1.0001 0 0 0-1 1v8.8613a1.0001 1.0001 0 0 0 1 1h17.721a1.0001 1.0001 0 0 0 1-1v-8.8613a1.0001 1.0001 0 0 0-1-1zm1 2h15.721v6.8613h-15.721z" color="#000000" fill="#fff" stroke-linecap="round" stroke-linejoin="round" style="-inkscape-stroke:none"/>
 <path id="rect8" transform="rotate(-27.864)" d="m3.6719 15.408a1.0001 1.0001 0 0 0-1 1v8.8613a1.0001 1.0001 0 0 0 1 1h10.658a1.0001 1.0001 0 0 0 1-1v-8.8613a1.0001 1.0001 0 0 0-1-1zm1 2h8.6582v6.8613h-8.6582z" color="#000000" fill="#fff" stroke-linecap="round" stroke-linejoin="round" style="-inkscape-stroke:none"/>
 <path id="path10" d="m17.047 18.625a1 1 0 0 0-1.0898 0.90234c-0.71735 7.5557 0.37868 12.512 3.2578 15.939 2.6009 3.0972 6.5513 4.9165 11.289 5.3125a1 1 0 0 0 1.0781-0.91406 1 1 0 0 0-0.91211-1.0801c-4.3278-0.36177-7.7141-1.9721-9.9238-4.6035-2.4333-2.8966-3.4907-7.1797-2.7988-14.467a1 1 0 0 0-0.90039-1.0898z" color="#000000" fill="#fff" stroke-linecap="round" stroke-linejoin="round" style="-inkscape-stroke:none"/>
 <path id="path12" d="m13.781 20.35a1 1 0 0 0-1.0859 0.9043c-0.51116 5.6424 0.49769 10.454 2.8027 14.178 2.305 3.7237 5.9033 6.3211 10.377 7.5664a1 1 0 0 0 1.2324-0.69531 1 1 0 0 0-0.69531-1.2305c-4.0544-1.1286-7.176-3.4028-9.2129-6.6934-2.0369-3.2905-2.9925-7.6368-2.5117-12.943a1 1 0 0 0-0.90625-1.0859z" color="#000000" fill="#fff" stroke-linecap="round" stroke-linejoin="round" style="-inkscape-stroke:none"/>
 <path id="path14" d="m25.369 14.236a1 1 0 0 0-1.0938 0.89648c-0.50454 5.0763 0.27238 8.8628 2.2578 11.781 2.4082 3.568 7.7139 5.3186 13.221 5.793a1 1 0 0 0 1.082-0.91016 1 1 0 0 0-0.91016-1.082c-5.1715-0.44548-9.9634-2.2941-11.736-4.9238a1.0001 1.0001 0 0 0-2e-3 -2e-3c-1.6746-2.4615-2.3973-5.6753-1.9219-10.459a1 1 0 0 0-0.89648-1.0938z" color="#000000" fill="#fff" stroke-linecap="round" stroke-linejoin="round" style="-inkscape-stroke:none"/>
 <path id="path16" d="m21.982 15.992a1 1 0 0 0-1.041 0.95703c-0.44543 10.504 5.1732 18.652 15.092 20.535a1 1 0 0 0 1.1699-0.79688 1 1 0 0 0-0.79688-1.1699c-9.0414-1.7167-13.881-8.7084-13.467-18.484a1 1 0 0 0-0.95703-1.041z" color="#000000" fill="#fff" stroke-linecap="round" stroke-linejoin="round" style="-inkscape-stroke:none"/>
</svg>
