<?xml version="1.0" encoding="UTF-8"?>
<svg id="Layer_1" version="1.1" viewBox="0 0 48 48" xmlns="http://www.w3.org/2000/svg">
 <defs id="defs4">
  <style id="style2">.cls-1{fill:none;stroke:#fff;stroke-width:2px;stroke-linecap:round;stroke-linejoin:round;}</style>
 </defs>
 <path id="circle6" d="m24 1.5c-12.415 0-22.5 10.085-22.5 22.5s10.085 22.5 22.5 22.5 22.5-10.085 22.5-22.5-10.085-22.5-22.5-22.5zm0 2c11.334 0 20.5 9.1663 20.5 20.5s-9.1663 20.5-20.5 20.5-20.5-9.1663-20.5-20.5 9.1663-20.5 20.5-20.5z" color="#000000" fill="#fff" stroke-linecap="round" stroke-linejoin="round" style="-inkscape-stroke:none"/>
 <path id="path8" d="m24 6.9004a1 1 0 0 0-1 1 1 1 0 0 0 1 1c6.1104 9.39e-5 11.613 3.675 13.951 9.3203 2.3381 5.6453 1.0471 12.136-3.2734 16.457-4.3207 4.3205-10.812 5.6116-16.457 3.2734-5.6453-2.3385-9.3202-7.8408-9.3203-13.951a1 1 0 0 0-1-1 1 1 0 0 0-1 1c1.062e-4 6.9136 4.1693 13.153 10.557 15.799 6.3873 2.6455 13.746 1.1814 18.635-3.707 4.8884-4.8887 6.3525-12.249 3.707-18.637-2.6459-6.3873-8.8853-10.555-15.799-10.555z" color="#000000" fill="#fff" stroke-linecap="round" stroke-linejoin="round" style="-inkscape-stroke:none"/>
 <path id="path10" d="m24 17.625a1.0001 1.0001 0 0 0-1 1v4.375h-4.375a1.0001 1.0001 0 0 0-1 1c0 2.5756 1.556 4.905 3.9355 5.8906 2.3795 0.98558 5.1261 0.43836 6.9473-1.3828 1.8212-1.8212 2.3684-4.5677 1.3828-6.9473-0.98559-2.3796-3.315-3.9355-5.8906-3.9355zm1 2.3027c1.3242 0.33093 2.5042 1.0977 3.043 2.3984 0.67822 1.6375 0.30401 3.5144-0.94922 4.7676s-3.1301 1.6274-4.7676 0.94922c-1.3008-0.53876-2.0675-1.7187-2.3984-3.043h4.0723a1.0001 1.0001 0 0 0 1-1z" color="#000000" fill="#fff" stroke-linecap="round" stroke-linejoin="round" style="-inkscape-stroke:none"/>
 <path id="circle12" d="m24 12.299c-6.4504 0-11.701 5.2507-11.701 11.701s5.2507 11.701 11.701 11.701 11.701-5.2507 11.701-11.701-5.2507-11.701-11.701-11.701zm0 2c5.3696 0 9.7012 4.3316 9.7012 9.7012s-4.3316 9.7012-9.7012 9.7012-9.7012-4.3316-9.7012-9.7012 4.3316-9.7012 9.7012-9.7012z" color="#000000" fill="#fff" stroke-linecap="round" stroke-linejoin="round" style="-inkscape-stroke:none"/>
</svg>
