<?xml version="1.0" encoding="UTF-8"?>
<svg id="b" version="1.1" viewBox="0 0 48 48" xmlns="http://www.w3.org/2000/svg">
 <defs id="defs4">
  <style id="style2">.c{fill:none;stroke:#fff;stroke-width:2px;stroke-linecap:round;stroke-linejoin:round;}</style>
 </defs>
 <path id="path6" d="m20.205 9.2285c-2.7092 0.53186-6.2939 2.6694-9.1094 6.0605-2.8155 3.3911-4.7818 8.1235-3.707 13.639a1 1 0 0 0 1.1719 0.79102 1 1 0 0 0 0.79102-1.1738c-0.94733-4.8612 0.75286-8.9309 3.2832-11.979 2.5303-3.0477 5.9693-4.9852 7.9551-5.375a1 1 0 0 0 0.78906-1.1738 1 1 0 0 0-1.1738-0.78906z" color="#000000" fill="#fff" stroke-linecap="round" stroke-linejoin="round" style="-inkscape-stroke:none"/>
 <path id="path8" d="m18.73 23.633a1 1 0 0 0-0.5918 0.48438 1 1 0 0 0 0.4082 1.3555s0.93607 0.50056 2.0098 1.0059c0.53685 0.25265 1.1081 0.50722 1.6367 0.70703 0.52862 0.19981 0.94333 0.37305 1.5195 0.37305a1 1 0 0 0 1-1 1 1 0 0 0-1-1c0.06385 0-0.36508-0.07307-0.8125-0.24219-0.44742-0.16912-0.98382-0.40724-1.4922-0.64648-1.0167-0.4785-1.916-0.96094-1.916-0.96094a1 1 0 0 0-0.76172-0.07617z" color="#000000" fill="#fff" stroke-linecap="round" stroke-linejoin="round" style="-inkscape-stroke:none"/>
 <path id="path10" d="m23.045 29.854a1.0001 1.0001 0 0 0-0.53711 0.88476l0.29297-0.70703c-0.9444 0.9444-2.1973 1.9814-2.3398 3.7988a1.0001 1.0001 0 0 0 0.69141 1.0312c1.058 0.33935 2.2599 0.23876 3.3105 0.13477 1.0507-0.104 1.9121-0.26953 1.9121-0.26953a1.0001 1.0001 0 0 0 0.75977-1.2988c-0.25268-0.75802-0.75262-1.3811-1.3105-1.9805-0.55793-0.59938-1.181-1.1368-1.7461-1.5293a1.0001 1.0001 0 0 0-1.0332-0.06445zm0.52734 2.2637c0.27231 0.2326 0.53785 0.42348 0.78906 0.69336 0.06001 0.06447 0.0593 0.10059 0.11523 0.16602-0.10877 0.01261-0.09416 0.01793-0.20898 0.0293-0.52738 0.0522-0.89919-0.01135-1.3887-0.02734 0.17208-0.26102 0.41759-0.57976 0.69336-0.86133z" color="#000000" fill="#fff" stroke-linecap="round" stroke-linejoin="round" style="-inkscape-stroke:none"/>
 <path id="circle12" d="m24.055 37.227c-1.2497 0-2.2852 1.0335-2.2852 2.2832 0 1.2497 1.0354 2.2852 2.2852 2.2852 1.2497 0 2.2832-1.0354 2.2832-2.2852 0-1.2497-1.0335-2.2832-2.2832-2.2832zm0 2c0.16886 0 0.2832 0.11434 0.2832 0.2832s-0.11434 0.28516-0.2832 0.28516c-0.16886 0-0.28516-0.1163-0.28516-0.28516s0.1163-0.2832 0.28516-0.2832z" color="#000000" fill="#fff" stroke-linecap="round" stroke-linejoin="round" style="-inkscape-stroke:none"/>
 <path id="path14" d="m14.545 27.416c-2.4879 0-4.4707 1.7255-4.4707 3.7871 0 0.76 0.09593 1.7944 0.66797 2.7539 0.57204 0.95949 1.7426 1.7441 3.3105 1.7441 1.3587 0 2.6003-0.13298 3.6289-0.54102 0.51428-0.20402 0.98674-0.4846 1.3574-0.90625 0.37068-0.42166 0.60547-1.0043 0.60547-1.6016 0-1.2748-0.75277-2.3609-1.6699-3.3516-0.91715-0.99068-2.0345-1.8848-3.4297-1.8848zm0 2c0.32635 0 1.2591 0.486 1.9609 1.2441 0.70187 0.75814 1.1387 1.7915 1.1387 1.9922 0 0.14047-0.01869 0.18032-0.10742 0.28125-0.08873 0.10094-0.28144 0.24329-0.59375 0.36719-0.62461 0.24779-1.6809 0.40039-2.8906 0.40039-1.0006 0-1.3167-0.30812-1.5918-0.76953-0.27509-0.46141-0.38672-1.1769-0.38672-1.7285 0-0.56157 0.96918-1.7871 2.4707-1.7871z" color="#000000" fill="#fff" stroke-linecap="round" stroke-linejoin="round" style="-inkscape-stroke:none"/>
 <path id="path16" d="m23.713 6.4844c-1.1744 0-2.0025 0.13159-2.5625 0.2793s-0.94336 0.37305-0.94336 0.37305a1.0001 1.0001 0 0 0-0.44531 0.67188s-1.5458 9.549-1.6582 17.674c-0.6908-0.37458-1.4623-0.8824-2.041-1.041-0.99245-0.27199-1.8638-0.23725-2.6602-0.13086-1.3444 0.17961-2.8299 1.0352-4.1914 2.1523-1.3615 1.1172-2.6328 2.4723-2.6328 4.1973 0 1.4455 0.62062 2.8831 1.1973 4.043 0.57665 1.1598 1.1562 2.0293 1.1562 2.0293a1.0001 1.0001 0 0 0 0.49023 0.38476s2.0098 0.73084 4.2266 1.5234c1.956 0.69936 3.7645 1.3297 4.8613 1.6777 0.07972 1.6873 0.30664 3.1699 0.30664 3.1699a1.0001 1.0001 0 0 0 0.82031 0.67578s2.5136 0.33594 4.0762 0.33594c1.5626 0 4.0762-0.33594 4.0762-0.33594a1.0001 1.0001 0 0 0 0.82031-0.67578s0.22692-1.4826 0.30664-3.1699c1.0968-0.34802 2.9053-0.97838 4.8613-1.6777 2.2168-0.7926 4.2266-1.5234 4.2266-1.5234a1.0001 1.0001 0 0 0 0.49024-0.38476s0.5796-0.86947 1.1562-2.0293 1.1973-2.5974 1.1973-4.043c0-1.725-1.2713-3.0801-2.6328-4.1973s-2.8469-1.9728-4.1914-2.1523c-0.79637-0.10639-1.6677-0.14113-2.6602 0.13086-0.57874 0.15861-1.3502 0.66644-2.041 1.041-0.1124-8.1248-1.6582-17.674-1.6582-17.674a1.0001 1.0001 0 0 0-0.44531-0.67188s-0.38337-0.22534-0.94336-0.37305-1.3881-0.2793-2.5625-0.2793zm0 2c1.0253 0 1.6802 0.11464 2.0527 0.21289 0.0041 0.00109-1.25e-4 8.846e-4 0.0039 0.00195 0.14513 0.86714 1.7588 10.603 1.6562 18.342a1.0001 1.0001 0 0 0 1.5645 0.83984c1.3137-0.89499 2.2155-1.3235 2.9023-1.5117 0.68681-0.18823 1.183-0.16758 1.8672-0.07617 0.54781 0.07315 2.0417 0.77624 3.1855 1.7148 1.1439 0.93861 1.9023 2.1367 1.9023 2.6523 0 0.79515-0.47193 2.1138-0.98828 3.1523-0.44169 0.88839-0.76306 1.3654-0.88086 1.5469-0.28792 0.10482-1.8442 0.67234-3.875 1.3984-2.2099 0.79013-4.6795 1.656-5.3926 1.8633a1.0001 1.0001 0 0 0-0.7207 0.98242c0.04239 1.8941-0.14454 2.3455-0.22461 2.6406-0.69944 0.082026-2.0523 0.25586-3.0527 0.25586-1.0003 0-2.3533-0.17383-3.0527-0.25586-0.08007-0.29512-0.267-0.74656-0.22461-2.6406a1.0001 1.0001 0 0 0-0.7207-0.98242c-0.71311-0.20726-3.1827-1.0732-5.3926-1.8633-2.0308-0.7261-3.5871-1.2936-3.875-1.3984-0.1178-0.18149-0.43916-0.65847-0.88086-1.5469-0.51635-1.0386-0.98828-2.3573-0.98828-3.1523 0-0.51561 0.75847-1.7137 1.9023-2.6523 1.1439-0.93861 2.6377-1.6417 3.1855-1.7148 0.68423-0.09141 1.1804-0.11206 1.8672 0.07617 0.68682 0.18823 1.5887 0.61673 2.9023 1.5117a1.0001 1.0001 0 0 0 1.5645-0.83984c-0.10254-7.7384 1.5111-17.475 1.6562-18.342 4e-3 -0.00107-2.16e-4 -8.66e-4 0.0039-0.00195 0.37249-0.098247 1.0274-0.21289 2.0527-0.21289z" color="#000000" fill="#fff" stroke-linecap="round" stroke-linejoin="round" style="-inkscape-stroke:none"/>
 <path id="path18" d="m27.221 9.2285a1 1 0 0 0-1.1738 0.78906 1 1 0 0 0 0.78906 1.1738c1.9857 0.38984 5.4247 2.3273 7.9551 5.375 2.5303 3.0477 4.2305 7.1173 3.2832 11.979a1 1 0 0 0 0.79102 1.1738 1 1 0 0 0 1.1719-0.79102c1.0748-5.5152-0.89153-10.248-3.707-13.639-2.8155-3.3911-6.4002-5.5287-9.1094-6.0605z" color="#000000" fill="#fff" stroke-linecap="round" stroke-linejoin="round" style="-inkscape-stroke:none"/>
 <path id="path20" d="m19.43 17.174a1 1 0 0 0-1 1 1 1 0 0 0 1 1h8.5664a1 1 0 0 0 1-1 1 1 0 0 0-1-1z" color="#000000" fill="#fff" stroke-linecap="round" stroke-linejoin="round" style="-inkscape-stroke:none"/>
 <path id="path22" d="m19.332 19.086a1 1 0 0 0-1.0645 0.92969 1 1 0 0 0 0.92969 1.0664s3.1559 0.21875 4.5156 0.21875c1.3597 0 4.5156-0.21875 4.5156-0.21875a1 1 0 0 0 0.92969-1.0664 1 1 0 0 0-1.0645-0.92969s-3.254 0.21484-4.3809 0.21484c-1.1269 0-4.3809-0.21484-4.3809-0.21484z" color="#000000" fill="#fff" stroke-linecap="round" stroke-linejoin="round" style="-inkscape-stroke:none"/>
 <path id="path24" d="m28.695 23.633a1 1 0 0 0-0.76172 0.07617s-0.89928 0.48244-1.916 0.96094c-0.50836 0.23925-1.0448 0.47737-1.4922 0.64648-0.44742 0.16912-0.87635 0.24219-0.8125 0.24219a1 1 0 0 0-1 1 1 1 0 0 0 1 1c0.5762 0 0.99091-0.17324 1.5195-0.37305s1.0999-0.45438 1.6367-0.70703c1.0737-0.5053 2.0098-1.0059 2.0098-1.0059a1 1 0 0 0 0.4082-1.3555 1 1 0 0 0-0.5918-0.48438z" color="#000000" fill="#fff" stroke-linecap="round" stroke-linejoin="round" style="-inkscape-stroke:none"/>
 <path id="path26" d="m32.881 27.416c-1.3951 0-2.5125 0.89408-3.4297 1.8848-0.91715 0.99068-1.6699 2.0768-1.6699 3.3516 0 0.59728 0.23479 1.1799 0.60547 1.6016s0.8451 0.70223 1.3594 0.90625c1.0286 0.40804 2.2682 0.54102 3.627 0.54102 1.5679 0 2.7385-0.78465 3.3105-1.7441 0.57204-0.95949 0.66797-1.9939 0.66797-2.7539 0-2.0616-1.9828-3.7871-4.4707-3.7871zm0 2c1.5015 0 2.4707 1.2255 2.4707 1.7871 0 0.5516-0.10968 1.2671-0.38476 1.7285-0.27509 0.46141-0.5932 0.76953-1.5938 0.76953-1.2098 0-2.266-0.1526-2.8906-0.40039-0.31231-0.12389-0.50502-0.26625-0.59375-0.36719-0.08873-0.10094-0.10742-0.14078-0.10742-0.28125 0-0.20069 0.4368-1.234 1.1387-1.9922s1.6346-1.2441 1.9609-1.2441z" color="#000000" fill="#fff" stroke-linecap="round" stroke-linejoin="round" style="-inkscape-stroke:none"/>
 <path id="line28" d="m6.4668 5.2363a1 1 0 0 0-0.7207 0.25391 1 1 0 0 0-0.078125 1.4121l8.0508 8.9824a1 1 0 0 0 1.4121 0.07813 1 1 0 0 0 0.07813-1.4121l-8.0508-8.9824a1 1 0 0 0-0.69141-0.33203z" color="#000000" fill="#fff" stroke-linecap="round" stroke-linejoin="round" style="-inkscape-stroke:none"/>
 <path id="line30" d="m7.5703 17.66a1 1 0 0 0-1.2676 0.625 1 1 0 0 0 0.625 1.2695l3.3887 1.1465a1 1 0 0 0 1.2676-0.62695 1 1 0 0 0-0.625-1.2676z" color="#000000" fill="#fff" stroke-linecap="round" stroke-linejoin="round" style="-inkscape-stroke:none"/>
 <path id="path32" d="m9.25 4.5918a1.0001 1.0001 0 0 0-0.75977 0.41602s-0.38215 0.53476-0.76562 1.0742c-0.19174 0.26973-0.38308 0.54046-0.5293 0.75-0.034771 0.049827-0.058669 0.08265-0.087891 0.125l-2.3027 0.99219a1.0001 1.0001 0 0 0-0.34961 1.5859l3.4688 3.8711a1.0001 1.0001 0 0 0 0.82617 0.32812l3.3281-0.27344a1.0001 1.0001 0 0 0 0.625-0.28906 1.0001 1.0001 0 0 0 0.27539-0.52148l0.60156-3.1934a1.0001 1.0001 0 0 0-0.23633-0.85156l-3.2949-3.6816a1.0001 1.0001 0 0 0-0.79883-0.33203zm0.14062 2.5957 2.1328 2.3848-0.36914 1.959-2.0723 0.16992-2.209-2.4648 1.2988-0.56055a1.0001 1.0001 0 0 0 0.57031-0.66797c-0.00484 0.019876-0.0098 0.043067-0.00977 0.042969 1.666e-4 -5.395e-4 -0.029189 0.085108-0.039063 0.10742-0.019748 0.044627-0.030228 0.061772-0.037109 0.074219-0.013762 0.024895-0.015786 0.0276-0.015625 0.027344 3.222e-4 -5.129e-4 0.013537-0.020559 0.03125-0.046875 0.035425-0.052631 0.09228-0.13626 0.16211-0.23633 0.13966-0.20013 0.3295-0.46899 0.51954-0.73633 0.018701-0.026308 0.018448-0.026506 0.037109-0.052734zm-0.61523 0.50391c-9.3e-6 -1.429e-4 -0.013709 0.24239-0.013672 0.24219 1.6e-5 -8.91e-5 -0.00566 0.025881-0.011719 0.050781a1.0001 1.0001 0 0 0 0.025391-0.29297z" color="#000000" fill="#fff" stroke-linecap="round" stroke-linejoin="round" style="-inkscape-stroke:none"/>
</svg>
