<?xml version="1.0" encoding="UTF-8"?>
<svg id="a" version="1.1" viewBox="0 0 48 48" xmlns="http://www.w3.org/2000/svg">
 <defs id="defs4">
  <style id="style2">.c{fill:none;stroke:#fff;stroke-width:2px;stroke-linecap:round;stroke-linejoin:round;}</style>
 </defs>
 <path id="polyline6" d="m21.123 9.0059-9.541 4.3145a1.0001 1.0001 0 0 0-0.58398 0.83008l-1.1406 14.148a1.0001 1.0001 0 0 0 0.019531 0.29492l1.5977 7.2988a1.0001 1.0001 0 0 0 0.49414 0.66211l9.084 5.0078a1 1 0 0 0 1.3594-0.39258 1 1 0 0 0-0.39453-1.3594l-8.6875-4.7891-1.4668-6.7109 1.0801-13.412 9.0039-4.0703a1 1 0 0 0 0.5-1.3242 1 1 0 0 0-1.3242-0.49805z" color="#000000" fill="#fff" stroke-linecap="round" stroke-linejoin="round" style="-inkscape-stroke:none"/>
 <path id="polyline8" d="m21.346 3.5176-8.248 1.5977a1.0001 1.0001 0 0 0-0.59961 0.36719l-5.5508 7.1367a1.0001 1.0001 0 0 0-0.20508 0.71289l2.5078 25.373a1.0001 1.0001 0 0 0 0.59766 0.81836l11.289 4.8945a1 1 0 0 0 1.3164-0.51953 1 1 0 0 0-0.51953-1.3164l-10.75-4.6602-2.4121-24.389 5.0742-6.5254 7.8789-1.5254a1 1 0 0 0 0.79297-1.1719 1 1 0 0 0-1.1719-0.79297z" color="#000000" fill="#fff" stroke-linecap="round" stroke-linejoin="round" style="-inkscape-stroke:none"/>
 <path id="line10" d="m16.832 20.775a1 1 0 0 0-1 1v5.7031a1 1 0 0 0 1 1 1 1 0 0 0 1-1v-5.7031a1 1 0 0 0-1-1z" color="#000000" fill="#fff" stroke-linecap="round" stroke-linejoin="round" style="-inkscape-stroke:none"/>
 <path id="line12" d="m26.24 20.775a1 1 0 0 0-1 1v5.7031a1 1 0 0 0 1 1 1 1 0 0 0 1-1v-5.7031a1 1 0 0 0-1-1z" color="#000000" fill="#fff" stroke-linecap="round" stroke-linejoin="round" style="-inkscape-stroke:none"/>
 <path id="polyline14" d="m19.254 31.553a1.0001 1.0001 0 0 0-0.7168 0.30469l-2.5957 2.6797a1.0001 1.0001 0 0 0-0.26367 0.51367l-0.4668 2.5098a1 1 0 0 0 0.80078 1.166 1 1 0 0 0 1.166-0.80078l0.41016-2.2148 2.0898-2.1582h1.8574a1 1 0 0 0 1-1 1 1 0 0 0-1-1z" color="#000000" fill="#fff" stroke-linecap="round" stroke-linejoin="round" style="-inkscape-stroke:none"/>
 <path id="polyline16" d="m21.182 8.9805a1 1 0 0 0-0.55664 0.52344 1 1 0 0 0 0.49805 1.3242l9.0039 4.0703 1.0801 13.412-1.4668 6.7109-8.6875 4.7891a1 1 0 0 0-0.39258 1.3594 1 1 0 0 0 1.3574 0.39258l9.0859-5.0078a1.0001 1.0001 0 0 0 0.49414-0.66211l1.5957-7.2988a1.0001 1.0001 0 0 0 0.01953-0.29492l-1.1406-14.148a1.0001 1.0001 0 0 0-0.58398-0.83008l-9.541-4.3145a1 1 0 0 0-0.76562-0.025391z" color="#000000" fill="#fff" stroke-linecap="round" stroke-linejoin="round" style="-inkscape-stroke:none"/>
 <path id="polyline18" d="m21.725 3.5176a1 1 0 0 0-1.1719 0.79297 1 1 0 0 0 0.79297 1.1719l7.8789 1.5254 5.0742 6.5254-2.4121 24.389-10.75 4.6602a1 1 0 0 0-0.51953 1.3164 1 1 0 0 0 1.3164 0.51953l11.289-4.8945a1.0001 1.0001 0 0 0 0.59766-0.81836l2.5078-25.373a1.0001 1.0001 0 0 0-0.20508-0.71289l-5.5488-7.1367a1.0001 1.0001 0 0 0-0.59961-0.36719z" color="#000000" fill="#fff" stroke-linecap="round" stroke-linejoin="round" style="-inkscape-stroke:none"/>
 <path id="polyline20" d="m21.535 31.553a1 1 0 0 0-1 1 1 1 0 0 0 1 1h1.8574l2.0898 2.1582 0.41016 2.2148a1 1 0 0 0 1.166 0.80078 1 1 0 0 0 0.80078-1.166l-0.46484-2.5098a1.0001 1.0001 0 0 0-0.26562-0.51367l-2.5938-2.6797a1.0001 1.0001 0 0 0-0.71875-0.30469z" color="#000000" fill="#fff" stroke-linecap="round" stroke-linejoin="round" style="-inkscape-stroke:none"/>
</svg>
