<?xml version="1.0" encoding="UTF-8"?>
<svg id="b" version="1.1" viewBox="0 0 48 48" xmlns="http://www.w3.org/2000/svg">
 <defs id="defs4">
  <style id="style2">.c{fill:none;stroke:#fff;stroke-width:2px;stroke-linecap:round;stroke-linejoin:round;}</style>
 </defs>
 <path id="path6" d="m41.871 11.967c-8.1726 0.24808-19.489 1.0969-30.787 10.512a1.0001 1.0001 0 0 0-0.33398 0.99219c1.7742 7.7263 8.4946 15.143 17.824 15.143 9.3364 0 16.926-7.5894 16.926-16.926 0-3.4172-1.0162-6.6073-2.7617-9.2695a1.0001 1.0001 0 0 0-0.86719-0.45117zm-0.57617 2.0391c1.363 2.2516 2.2051 4.8532 2.2051 7.6816 0 8.2556-6.6702 14.926-14.926 14.926-8.0272 0-13.86-6.3068-15.648-13.016 10.382-8.3862 20.495-9.3274 28.369-9.5918z" color="#000000" fill="#fff" stroke-linecap="round" stroke-linejoin="round" style="-inkscape-stroke:none"/>
 <path id="path8" d="m15.518 9.4258c-6.7815 1.9531-12.207 3.4961-12.207 3.4961a1.0001 1.0001 0 0 0-0.72266 0.87305c-0.16852 1.8971-0.13278 3.4514 0.37891 4.8203 0.51169 1.3689 1.5245 2.4582 2.9844 3.3223a1.0001 1.0001 0 0 0 0.66797 0.12695c2.684-0.43136 4.7511-1.6854 5.6738-2.2832 0.35647 0.561 0.71732 1.2331 1.5625 2.0254a1 1 0 0 0 1.4121-0.04687 1 1 0 0 0-0.04492-1.4121c-0.79221-0.74262-1.8281-2.3926-1.8281-2.3926a1.0001 1.0001 0 0 0-1.4277-0.30469s-2.7284 1.7752-5.3203 2.3164c-0.93753-0.62289-1.5037-1.2422-1.8066-2.0527-0.28607-0.76533-0.28306-1.9501-0.2168-3.2871 0.58529-0.16661 4.9276-1.4047 10.758-3.082 0.65726 1.0898 1.544 2.392 2.4922 3.668 1.1271 1.5166 2.123 2.7852 2.123 2.7852a1 1 0 0 0 1.4043 0.16992 1 1 0 0 0 0.16797-1.4043s-0.9807-1.2516-2.0898-2.7441c-1.1091-1.4925-2.3641-3.2758-2.7988-4.0996a1.0001 1.0001 0 0 0-1.1621-0.49414z" color="#000000" fill="#fff" stroke-linecap="round" stroke-linejoin="round" style="-inkscape-stroke:none"/>
 <path id="path10" d="m11.611 23.912c-2.1556 1.3452-3.2986 3.3647-3.502 5.4004s0.48546 4.0749 1.832 5.6094c1.3955 1.5902 3.3433 2.0824 5.1387 2.0117 1.7954-0.07063 3.5127-0.6451 4.8379-1.2148a1 1 0 0 0 0.52344-1.3125 1 1 0 0 0-1.3145-0.52539c-1.187 0.51036-2.7171 0.99734-4.125 1.0527-1.4079 0.05539-2.6187-0.26129-3.5566-1.3301-0.98683-1.1245-1.4908-2.6395-1.3457-4.0918 0.14505-1.4523 0.89054-2.8541 2.5703-3.9023a1 1 0 0 0 0.32031-1.3789 1 1 0 0 0-1.3789-0.31836z" color="#000000" fill="#fff" stroke-linecap="round" stroke-linejoin="round" style="-inkscape-stroke:none"/>
 <path id="path12" d="m34.465 28.246c-0.626 0.09705-1.2379 0.31707-1.9199 0.53711-1.364 0.44007-2.9456 0.88842-4.5508 0.63867-2.1388-0.33274-3.7555-0.82032-5.1641-0.89844-0.70426-0.03906-1.4209 0.02984-2.0469 0.44336-0.62596 0.41352-1.0107 1.117-1.1953 1.9219-0.24982 1.0892 0.21336 2.494 1.5977 3.5098 1.3843 1.0158 3.6187 1.7067 7.2012 1.7793 3.682 0.07462 6.0473-1.1504 7.3086-2.7012 0.63066-0.77537 0.9826-1.6136 1.1133-2.3887s0.09302-1.4935-0.33203-2.1289c-0.23501-0.3513-0.63692-0.60568-1.0039-0.69531-0.36699-0.08963-0.69481-0.0661-1.0078-0.01758zm0.35547 1.9727c0.01672 0.0773 0.07309 0.20787 0.01758 0.53711-0.07086 0.42025-0.28148 0.95019-0.69531 1.459-0.82766 1.0176-2.4791 2.0285-5.7148 1.9629-3.3352-0.06759-5.1762-0.74364-6.0605-1.3926-0.88438-0.64893-0.8839-1.206-0.82812-1.4492 0.11548-0.50362 0.23921-0.62886 0.3457-0.69922 0.1065-0.07035 0.34649-0.14238 0.83594-0.11524 0.9789 0.05429 2.7 0.52429 4.9668 0.87695 2.1495 0.33445 4.0726-0.26119 5.4727-0.71289 0.70001-0.22585 1.286-0.41246 1.6113-0.46289 0.03508-0.0054 0.02117-0.0016 0.04883-0.0039z" color="#000000" fill="#fff" stroke-linecap="round" stroke-linejoin="round" style="-inkscape-stroke:none"/>
 <path id="path14" d="m13.885 27.543a1 1 0 0 0-0.72852 0.23438c-0.77018 0.65661-1.173 1.5738-1.166 2.4551 7e-3 0.88131 0.37458 1.7026 0.94922 2.3574 1.2003 1.3677 3.0198 1.4301 4.293 0.88281a1 1 0 0 0 0.52539-1.3125 1 1 0 0 0-1.3145-0.52344c-0.62085 0.26689-1.4411 0.26972-2-0.36719-0.30496-0.3475-0.4506-0.73324-0.45312-1.0527-0.0025-0.31949 0.08838-0.59673 0.46289-0.91602a1 1 0 0 0 0.11328-1.4102 1 1 0 0 0-0.68164-0.34766z" color="#000000" fill="#fff" stroke-linecap="round" stroke-linejoin="round" style="-inkscape-stroke:none"/>
 <path id="ellipse16" transform="translate(-3.936 8.3712) rotate(-11.789)" d="m38.572 20.646c-0.88534 0-1.7006 0.20869-2.3652 0.61719-0.66467 0.40849-1.2402 1.1026-1.2402 1.9844s0.57556 1.5739 1.2402 1.9824c0.66467 0.40849 1.4799 0.61719 2.3652 0.61719 0.88534 0 1.7006-0.20869 2.3652-0.61719s1.2402-1.1007 1.2402-1.9824-0.57556-1.5759-1.2402-1.9844-1.4799-0.61719-2.3652-0.61719zm0 2c0.5532 0 1.0403 0.14943 1.3184 0.32031s0.28711 0.27888 0.28711 0.28125c0 0.0024-0.0091 0.10842-0.28711 0.2793-0.27804 0.17088-0.76516 0.32031-1.3184 0.32031-0.5532 0-1.0403-0.14943-1.3184-0.32031-0.27804-0.17088-0.28711-0.27693-0.28711-0.2793 0-0.0024 0.0091-0.11037 0.28711-0.28125 0.27804-0.17088 0.76516-0.32031 1.3184-0.32031z" color="#000000" fill="#fff" stroke-linecap="round" stroke-linejoin="round" style="-inkscape-stroke:none"/>
 <path id="path18" d="m34.846 12.465a1 1 0 0 0-0.54102 1.3066c1.2943 3.1178 1.5097 6.1574 0.81836 8.5215-0.69137 2.3641-2.2097 4.0619-4.6445 4.7695-5.0069 1.4552-10.928-0.91997-12.463-7.8574a1 1 0 0 0-1.1934-0.75977 1 1 0 0 0-0.75977 1.1914c1.7552 7.9313 8.9655 11.092 14.975 9.3457 3.0731-0.89315 5.1559-3.2205 6.0059-6.127 0.84998-2.9064 0.54847-6.3831-0.89062-9.8496a1 1 0 0 0-1.3066-0.54102z" color="#000000" fill="#fff" stroke-linecap="round" stroke-linejoin="round" style="-inkscape-stroke:none"/>
 <path id="path20" d="m44.812 19.52a1 1 0 0 0-1.293 0.57422c-0.56972 1.4776-1.1275 2.2046-1.5371 2.5195s-0.68856 0.33843-1.1641 0.28125a1 1 0 0 0-1.1133 0.87305 1 1 0 0 0 0.875 1.1113c0.78269 0.09412 1.7718-0.02669 2.6211-0.67969 0.84927-0.653 1.54-1.7175 2.1836-3.3867a1 1 0 0 0-0.57227-1.293z" color="#000000" fill="#fff" stroke-linecap="round" stroke-linejoin="round" style="-inkscape-stroke:none"/>
 <path id="path22" d="m24.889 16.553c-0.50975 0.02717-1.02 0.19693-1.4512 0.5332-0.96981 0.75642-1.1638 1.9638-1.1094 3.0684 0.05439 1.1046 0.37114 2.2235 0.82422 3.1562 0.45132 0.92914 1.0915 1.8193 1.9062 2.4395 0.40735 0.3101 0.86963 0.56003 1.418 0.64258 0.54834 0.08254 1.1875-0.05993 1.6719-0.43555 0.79174-0.61402 1.126-1.5123 1.1582-2.2383 0.03216-0.72595-0.14512-1.3277-0.21484-1.6641a1.0001 1.0001 0 0 0-0.56055-0.70703l-0.95312-0.43945c0.18404-0.24359 0.48438-0.72461 0.48438-0.72461a1.0001 1.0001 0 0 0 0.17578-1.0781c-0.42692-0.96394-1.0568-1.7679-1.9062-2.2324-0.42474-0.23226-0.93361-0.34748-1.4434-0.32031zm0.48438 2.0742c0.2271 0.12419 0.48864 0.53578 0.73633 0.91406-0.28142 0.34794-0.52194 0.56756-0.9043 1.3496l0.89844-0.56055a1.0001 1.0001 0 0 0-0.41992 1.9082l1.5215 0.70117c0.04549 0.24014 0.11177 0.50518 0.10352 0.69141-0.01399 0.31565-0.04761 0.48462-0.38477 0.74609-0.08011 0.06213-0.06207 0.05236-0.15039 0.03906-0.08832-0.0133-0.27932-0.08685-0.50391-0.25781-0.44917-0.34193-0.98628-1.037-1.3184-1.7207-0.33032-0.68005-0.58917-1.6134-0.62695-2.3809-0.03779-0.76745 0.16146-1.2524 0.34375-1.3945 0.28982-0.22605 0.38525-0.21004 0.70508-0.03516z" color="#000000" fill="#fff" stroke-linecap="round" stroke-linejoin="round" style="-inkscape-stroke:none"/>
 <path id="path24" d="m35.783 18.182a1 1 0 0 0-0.0098 1.3906l-0.23438-0.39844c0.07302 0.25537 0.15808 0.47398 0.24219 0.67383a1.0001 1.0001 0 0 0 0.0039 0.0059c0.2493 0.58362 0.57963 1.1475 0.98242 1.6309 0.40279 0.48335 0.86285 0.92049 1.5488 1.1016a1.0001 1.0001 0 0 0 0.25586 0.0332h0.0098a1 1 0 0 0 1-1 1 1 0 0 0-0.98242-0.99609l0.22656 0.02734c-0.010717-0.002862-0.27105-0.14678-0.52148-0.4473-0.24929-0.29916-0.50329-0.71948-0.67969-1.1309l-2e-3 -0.0059c-0.06924-0.16481-0.11753-0.29428-0.16016-0.44336a1.0001 1.0001 0 0 0-0.25586-0.43164l-0.0098-0.0098a1 1 0 0 0-1.4141 0z" color="#000000" fill="#fff" stroke-linecap="round" stroke-linejoin="round" style="-inkscape-stroke:none"/>
 <path id="path26" d="m37.322 13.873c-0.46074 0.02907-0.92084 0.1942-1.2793 0.51172-0.58319 0.5125-0.79172 1.2152-0.86524 1.8887a1 1 0 0 0 0.88477 1.1035 1 1 0 0 0 1.1035-0.88672c0.04253-0.38968 0.16387-0.57429 0.19726-0.60352a1.0001 1.0001 0 0 0 0.0059-0.0059c0.16281-0.14492 0.01065-0.11514 0.18359-0.0078 0.11654 0.07232 0.3069 0.41118 0.48242 0.69922-0.21945 0.31168-0.39439 0.48839-0.68164 1.1562a1.0001 1.0001 0 0 0 0.45312 1.2812l1.0742 0.56445c0.03009 0.18547 0.07774 0.3953 0.07227 0.54102-0.01013 0.2699-0.03876 0.39448-0.24609 0.57617-0.0063 0.0055 0.03877-0.03053 0.09961-0.05078l0.30078-0.04883a1 1 0 0 0-0.99414 0.99805 1 1 0 0 0 1 1h0.0098a1.0001 1.0001 0 0 0 0.31641-0.05273c0.23504-0.07826 0.43546-0.2117 0.58398-0.3418 0.65397-0.5731 0.90594-1.3714 0.92969-2.0039 0.02374-0.63253-0.11541-1.1599-0.16992-1.4492a1.0001 1.0001 0 0 0-0.51758-0.69922l-0.60742-0.31836c0.11477-0.16934 0.32422-0.55273 0.32422-0.55273a1.0001 1.0001 0 0 0 0.15039-0.98633c-0.32832-0.84428-0.80559-1.565-1.5254-2.0117-0.3599-0.22336-0.82296-0.32994-1.2852-0.30078z" color="#000000" fill="#fff" stroke-linecap="round" stroke-linejoin="round" style="-inkscape-stroke:none"/>
 <path id="path28" d="m19.787 14.971c-1.4867-0.14414-2.985 0.39659-4.2539 1.2695-1.2689 0.87294-2.3312 2.1012-2.8086 3.5586a1 1 0 0 0 0.63867 1.2617 1 1 0 0 0 1.2617-0.64062c0.29907-0.91293 1.0802-1.8689 2.043-2.5312s2.0845-1.0075 2.9277-0.92578a1 1 0 0 0 1.0918-0.90039 1 1 0 0 0-0.90039-1.0918z" color="#000000" fill="#fff" stroke-linecap="round" stroke-linejoin="round" style="-inkscape-stroke:none"/>
 <path id="path30" d="m10.672 10.939a1 1 0 0 0-1.1875 0.76953c-0.37151 1.7397 0.26165 3.5076 0.89062 4.8984 0.62897 1.3908 1.3359 2.4277 1.3359 2.4277a1 1 0 0 0 1.3906 0.26367 1 1 0 0 0 0.26367-1.3906s-0.61657-0.90573-1.168-2.125c-0.5514-1.2193-0.95385-2.7291-0.75586-3.6562a1 1 0 0 0-0.76953-1.1875z" color="#000000" fill="#fff" stroke-linecap="round" stroke-linejoin="round" style="-inkscape-stroke:none"/>
 <path id="path32" d="m6.5527 12.039a1 1 0 0 0-1.0039 0.99414c-0.012692 2.7468 0.15102 5.4267 2.832 8.002a1 1 0 0 0 1.4141-0.027344 1 1 0 0 0-0.027344-1.4141c-2.2532-2.1643-2.2313-3.844-2.2188-6.5508a1 1 0 0 0-0.99609-1.0039z" color="#000000" fill="#fff" stroke-linecap="round" stroke-linejoin="round" style="-inkscape-stroke:none"/>
 <path id="path34" d="m17.479 12.039c-1.3792 0.0638-2.8684 0.66189-4.1094 1.6406-1.2409 0.97873-2.262 2.4224-2.2285 4.1738a1 1 0 0 0 1.0195 0.98047 1 1 0 0 0 0.98047-1.0176c-0.01796-0.94091 0.55464-1.8454 1.4688-2.5664s2.1418-1.175 2.9609-1.2129a1 1 0 0 0 0.95312-1.0449 1 1 0 0 0-1.0449-0.95312z" color="#000000" fill="#fff" stroke-linecap="round" stroke-linejoin="round" style="-inkscape-stroke:none"/>
 <path id="path36" d="m13.189 10.096a1 1 0 0 0-0.5918 0.48242c-1.5453 2.868-1.2246 6.0625-1.2246 6.0625a1 1 0 0 0 1.082 0.9082 1 1 0 0 0 0.91016-1.082s-0.19429-2.7374 0.99219-4.9395a1 1 0 0 0-0.40625-1.3555 1 1 0 0 0-0.76172-0.07617z" color="#000000" fill="#fff" stroke-linecap="round" stroke-linejoin="round" style="-inkscape-stroke:none"/>
 <path id="path38" d="m23.4 30.09c-0.83121-0.11093-1.6177-0.12794-2.3574 0.14062-0.36984 0.13428-0.7486 0.36196-1.0176 0.74023-0.26898 0.37828-0.37358 0.8818-0.32031 1.3379a1 1 0 0 0 1.1094 0.87695 1 1 0 0 0 0.87109-1.0645c0.0041-0.0026-0.01985 0.01163 0.03906-0.0098 0.20657-0.075 0.76603-0.12502 1.4102-0.03906 1.2882 0.17192 2.9538 0.84904 3.6035 1.4121a1.0001 1.0001 0 0 0 1.5391-0.5c0.18718 0.0089 0.42885 0.0094 0.81055 0.14648 0.4994 0.17931 1.0365 0.48018 1.4004 0.80469 0.36387 0.32451 0.51617 0.62947 0.52734 0.83594a1 1 0 0 0 1.0527 0.94531 1 1 0 0 0 0.94531-1.0527c-0.05072-0.93698-0.58454-1.676-1.1953-2.2207-0.61077-0.5447-1.337-0.93764-2.0547-1.1953s-1.396-0.41346-2.1172-0.27344c-0.2098 0.04073-0.41247 0.25562-0.62891 0.40039-1.0914-0.63515-2.3545-1.1167-3.6172-1.2852z" color="#000000" fill="#fff" stroke-linecap="round" stroke-linejoin="round" style="-inkscape-stroke:none"/>
</svg>
