<?xml version="1.0" encoding="UTF-8"?>
<svg id="a" version="1.1" viewBox="0 0 48 48" xmlns="http://www.w3.org/2000/svg">
 <defs id="defs4">
  <style id="style2">.b{fill:none;stroke:#fff;stroke-width:2px;stroke-linecap:round;stroke-linejoin:round;}</style>
 </defs>
 <path id="path6" d="m16.457 31.279c-0.67526 0-1.371 0.26114-1.8125 0.77734-0.44146 0.5162-0.60156 1.1801-0.60156 1.8594 0 1.9741 0.86408 3.7235 1.9277 5.002 1.0637 1.2785 2.2227 2.2109 3.6113 2.2109 0.73512 0 1.4957-0.30567 1.9336-0.88672 0.4379-0.58105 0.55469-1.2767 0.55469-2.0117 0-1.8439-0.66539-3.5345-1.6758-4.7988-1.0104-1.2643-2.3985-2.1523-3.9375-2.1523zm0 2c0.73028 0 1.6462 0.48844 2.375 1.4004 0.72878 0.91195 1.2383 2.1953 1.2383 3.5508 0 0.49265-0.10662 0.74792-0.15234 0.80859-0.04573 0.06067-0.02935 0.08984-0.33594 0.08984-0.13665 0-1.2479-0.49942-2.0723-1.4902-0.82432-0.99082-1.4668-2.3486-1.4668-3.7227 0-0.36229 0.08726-0.51674 0.12305-0.55859 0.03579-0.04185 0.04788-0.07813 0.29102-0.07813z" color="#000000" fill="#fff" stroke-linecap="round" stroke-linejoin="round" style="-inkscape-stroke:none"/>
 <path id="path8" d="m18.5 3.5273c-0.36712 0.04527-0.72974 0.20429-1.0078 0.49219-2.9683 3.0729-8.0449 9.9686-8.0449 20.93 0 7.6963 2.3352 12.642 5.3613 15.611s6.645 3.9395 9.1914 3.9395 6.1653-0.97019 9.1914-3.9395 5.3613-7.9151 5.3613-15.611c0-10.961-5.0767-17.857-8.0449-20.93-0.55618-0.57572-1.4471-0.63745-2.0469-0.30078-0.59974 0.33667-1.0128 1.1491-0.79297 1.9219 1.1463 4.0305 1.2679 8.1 0.52344 11.029-0.37225 1.4647-0.96021 2.6312-1.668 3.3887-0.70775 0.75743-1.4924 1.1367-2.5234 1.1367s-1.8157-0.37928-2.5234-1.1367c-0.70775-0.75743-1.2957-1.924-1.668-3.3887-0.7445-2.9293-0.62289-6.9988 0.52344-11.029 0.21976-0.77278-0.1932-1.5852-0.79297-1.9219-0.29989-0.16832-0.67194-0.23668-1.0391-0.19141zm-0.28711 2.7461c-0.93954 3.9243-1.125 7.8071-0.3418 10.889 0.43146 1.6976 1.1224 3.1699 2.1426 4.2617s2.4132 1.7715 3.9863 1.7715 2.9661-0.67969 3.9863-1.7715 1.7111-2.5641 2.1426-4.2617c0.7832-3.0816 0.59774-6.9644-0.3418-10.889 2.7678 3.1131 6.7656 9.1311 6.7656 18.676 0 7.297-2.1548 11.626-4.7617 14.184-2.6069 2.5579-5.7632 3.3672-7.791 3.3672s-5.1841-0.80928-7.791-3.3672c-2.6069-2.5579-4.7617-6.8866-4.7617-14.184 0-9.5447 3.9978-15.563 6.7656-18.676z" color="#000000" fill="#fff" stroke-linecap="round" stroke-linejoin="round" style="-inkscape-stroke:none"/>
 <path id="path10" d="m31.543 31.279c-1.539 0-2.9271 0.888-3.9375 2.1523-1.0104 1.2643-1.6758 2.9549-1.6758 4.7988 1e-6 0.73505 0.11679 1.4307 0.55469 2.0117 0.4379 0.58105 1.1985 0.88672 1.9336 0.88672 1.3886 0 2.5477-0.93246 3.6113-2.2109 1.0636-1.2785 1.9277-3.0279 1.9277-5.002 0-0.67931-0.1601-1.3432-0.60156-1.8594-0.44146-0.5162-1.1372-0.77734-1.8125-0.77734zm0 2c0.24314 0 0.25522 0.03628 0.29102 0.07813s0.12305 0.1963 0.12305 0.55859c0 1.3741-0.64247 2.7318-1.4668 3.7227-0.82432 0.99082-1.9356 1.4902-2.0723 1.4902-0.30658 0-0.29021-0.02917-0.33594-0.08984-0.04573-0.06067-0.15234-0.31595-0.15234-0.80859 0-1.3555 0.5095-2.6388 1.2383-3.5508 0.72878-0.91195 1.6447-1.4004 2.375-1.4004z" color="#000000" fill="#fff" stroke-linecap="round" stroke-linejoin="round" style="-inkscape-stroke:none"/>
</svg>
