<?xml version="1.0" encoding="UTF-8"?>
<svg id="b" version="1.1" viewBox="0 0 48 48" xmlns="http://www.w3.org/2000/svg">
 <defs id="defs4">
  <style id="style2">.c{fill:none;stroke:#fff;stroke-width:2px;stroke-linecap:round;stroke-linejoin:round;}</style>
 </defs>
 <path id="circle6" d="m24 1.5c-12.415 0-22.5 10.085-22.5 22.5s10.085 22.5 22.5 22.5 22.5-10.085 22.5-22.5-10.085-22.5-22.5-22.5zm0 2c11.334 0 20.5 9.1663 20.5 20.5s-9.1663 20.5-20.5 20.5-20.5-9.1663-20.5-20.5 9.1663-20.5 20.5-20.5z" color="#000000" fill="#fff" stroke-linecap="round" stroke-linejoin="round" style="-inkscape-stroke:none"/>
 <path id="path8" d="m23.176 8.3965c-0.77135-0.13845-1.0706 0.15168-1.4141 0.31641-0.34342 0.16473-0.68859 0.32923-0.69141 0.33008a1.0001 1.0001 0 0 0-0.0078 0.00195c-0.24978 0.078055-0.63357 0.026966-1.2832 0.18164a1.0001 1.0001 0 0 0-0.02344 0.00586c-0.4536 0.1188-0.71576 0.32005-0.94531 0.46094-0.22955 0.14089-0.41406 0.22174-0.41797 0.22266a1.0001 1.0001 0 0 0-0.01563 0.00391c-0.19712 0.04928-0.81542-0.029348-1.5957 0.20117-0.5599 0.16044-0.87512 0.4397-1.1758 0.64453-0.30223 0.2059-0.59084 0.31098-0.48242 0.29492a1.0001 1.0001 0 0 0-2e-3 0c0.04529-0.0068-0.6951-0.19279-1.1426-0.41992-0.0016-8.1e-4 -0.0023-0.0011-0.0039-2e-3 -0.0063-0.0086-0.21581-0.20923-0.62695-0.41602-0.21179-0.10652-0.5391-0.23018-0.94726-0.15234-0.40817 0.07784-0.75396 0.37638-0.94141 0.66797a1.0001 1.0001 0 0 0 0.07813 1.1895c0.0011 0.0012 0.1162 0.14464 0.13281 0.17969-0.28856-0.10129-0.53119-0.23251-0.92773-0.24414-0.28323-0.01138-0.6187-0.03025-1.0215 0.13086-0.40591 0.16236-0.75182 0.52904-0.94727 0.9043a1.0001 1.0001 0 0 0 0.19534 1.168c-0.21544-0.085419-0.42985-0.17616-0.73633-0.19336-0.37305-0.020935-0.98017 0.16275-1.2832 0.62109-0.18292 0.27947-0.24633 0.66539-0.19922 0.93555 0.047899 0.2747 0.14929 0.44902 0.23242 0.58203 0.16627 0.26603 0.30233 0.43758 0.26758 0.37305 0.03404 0.06387 0.072992 0.1719 0.11523 0.25586-0.11131-0.01679-0.23741-0.04976-0.36719-0.0625-0.12183-0.01196-0.2436-0.02157-0.37109-0.02344-0.12609-0.0018-0.2044-0.03662-0.51758 0.06641-0.021872 0.0081-0.10439 0.03753-0.13867 0.05469-0.077395 0.03873-0.11695 0.06861-0.14844 0.0918-0.062972 0.04638-0.089168 0.07238-0.11133 0.09375-0.04432 0.04274-0.06337 0.06629-0.083984 0.08984-0.041228 0.04712-0.073537 0.08645-0.10547 0.12695-0.031932 0.0405-0.061861 0.08025-0.087891 0.11523-0.013015 0.01749-0.025558 0.0317-0.039063 0.05078-0.013504 0.01909 0.0083-0.04785-0.089844 0.14844a1.0001 1.0001 0 0 0-0.042969 0.09961c-0.21951 0.59173 0.025187 1.101 0.21484 1.3984 0.050436 0.07909 0.10047 0.12073 0.15234 0.18945-0.2313 0.18808-0.40184 0.49067-0.4375 0.73438a1.0001 1.0001 0 0 0-0.011719 0.17773c0.016599 0.53116 0.17018 0.62764 0.27539 0.8125 0.10521 0.18486 0.21653 0.35805 0.3125 0.51172 0.025907 0.04148 0.030134 0.05187 0.052734 0.08984-0.54329 1.2839-1.5107 1.9986-3.7285 3.1445a1 1 0 0 0-0.42969 1.3477 1 1 0 0 0 1.3477 0.42969c2.3345-1.2062 3.8985-2.3233 4.6855-4.2402 0.2075-0.30806 0.25169-0.64241 0.22461-0.82227-0.029634-0.19681-0.083099-0.3148-0.13281-0.42578a1.0001 1.0001 0 0 0 0.63086-0.50781c0.11501-0.53191-0.088918-0.93695-0.27148-1.2402 0.32651 0.02031 0.70229-0.09471 0.96484-0.28906 0.42205-0.31102 0.58623-0.82536 0.59961-1.1895 0.013422-0.36528-0.062055-0.66059-0.14844-0.93359-0.026939-0.08514-0.055709-0.11263-0.085937-0.19336 0.92949 0.31071 1.7047 0.12547 2.3223 0.04492a1.0001 1.0001 0 0 0 0.86133-0.85742l0.07031-0.51953a1.0001 1.0001 0 0 0-0.05859-0.45312c0.04421 0.01212 0.06909 0.02658 0.11719 0.03906 0.15895 0.04127 0.3171 0.07885 0.51367 0.09766 0.09829 0.0094 0.2041 0.01822 0.36914-0.0059 0.16504-0.02408 0.47441-0.06652 0.74219-0.44141a1.0001 1.0001 0 0 0 0.01758-0.02539c0.20859-0.31288 0.24302-0.76121 0.17188-1.0371-0.05126-0.19876-0.1231-0.29271-0.18945-0.39844 0.30835 0.07402 0.60898 0.16806 1.002 0.10938 0.64842-0.09606 0.99114-0.3995 1.3164-0.62109 0.32526-0.2216 0.63505-0.38503 0.59961-0.375a1.0001 1.0001 0 0 0 0.01367-0.0039c0.15471-0.04608 0.75272 0.0084 1.5078-0.17774 0.4617-0.10957 0.7623-0.31655 1.0039-0.46484 0.24206-0.14857 0.43609-0.23657 0.4043-0.22852h2e-3c0.19582-0.04159 0.69294 0.0024 1.3848-0.21094 7.1e-4 -2.14e-4 0.0012 2.15e-4 2e-3 0 0.42599-0.12911 0.70543-0.3094 0.97656-0.43945 0.09109-0.04369-0.0051-0.03583 0.06641-0.05078 9e-3 0.01077 0.01234 0.01434 0.02148 0.02539 0.09447 0.1141 0.19882 0.24278 0.31641 0.37109 0.11591 0.12648 0.18914 0.25678 0.52734 0.42188 0.49081 0.2471 0.88545 0.27699 1.2559 0.34766 0.18722 0.03572 0.35802 0.06895 0.4668 0.09766 0.10878 0.0287 0.16477 0.08728 0.02344-0.01758a1.0001 1.0001 0 0 0 0.02148 0.01563c-0.23409-0.16436-0.13945-0.20818-0.13086 0.0332 0.0043 0.12069-0.0017 0.26806 0.0078 0.45312s-0.10792 0.45458 0.35938 0.92188c0.4123 0.4123 0.82445 0.41583 1.0625 0.43359 0.23805 0.01776 0.41709 0.04079 0.29297 0.0098a1.0001 1.0001 0 0 0 0.0332 0.0078c0.20454 0.04364 0.08981-0.0051 0.13086 0.04687 0.04035 0.05113 0.18004 0.32433 0.46289 0.66602 0.32382 0.39742 0.68495 0.66534 0.95508 0.875 6.89e-4 5.6e-4 0.0013 0.0014 2e-3 2e-3 1.7156 1.3929 3.8209 2.6817 5.5879 3.7832 0.39377 0.2731 1.0263 1.1005 1.8789 1.6641a1.0001 1.0001 0 0 0 0.0078 0.0059c0.44995 0.29059 0.86914 0.38052 1.2461 0.48438 0.37695 0.10386 0.71388 0.20856 0.81641 0.26172a1.0001 1.0001 0 0 0 0.0098 0.0059c0.79021 0.39935 1.7692 1.1731 2.209 1.8066a1.0001 1.0001 0 0 0 0.01563 0.02148c0.11354 0.15482 0.5453 0.80413 0.91406 1.4062 0.18438 0.30106 0.3612 0.60043 0.48438 0.83008 0.11689 0.21794 0.16283 0.456 0.13086 0.22656 0.0055 0.08112-0.114 0.59809-0.29883 0.99414a1.0001 1.0001 0 0 0-0.0039 0.0059c-0.17511 0.38281-0.33911 0.63177-0.46875 0.79102-0.01512-0.03413-0.0022-0.06549-0.01953-0.09961-0.21661-0.42576-0.62356-0.77757-1.0762-0.97266a1.0001 1.0001 0 0 0-2e-3 -2e-3c-0.46687-0.20008-0.9711-0.18971-1.2539-0.14258-0.22531 0.03755-0.25303 0.04128-0.29102 0.04492-0.09704-0.06003-0.2326-0.15524-0.54883-0.19922-0.22213-0.03147-0.31684-0.0019-0.41406 0.01758-0.07891-0.05487-0.10323-0.0987-0.24219-0.14648-1.0788-0.3787-1.9698-0.21902-2.5625-0.30859l-0.0059-2e-3c-0.25496-0.0483-0.71527-0.30854-1.4121-0.44531h-2e-3c-0.49976-0.10289-0.80112-0.08501-0.91406-0.08594-0.10805-0.09954-0.23362-0.22897-0.52539-0.32812-0.35741-0.12403-0.61882-0.12067-0.80859-0.13086-0.18907-0.01015-0.33689-0.08227-0.10156 0.02344 0.18592 0.08441 0.04983 0.02026-0.0957-0.11719-0.14818-0.13994-0.33801-0.35708-0.74414-0.51953a1.0001 1.0001 0 0 0-0.011744-0.003964c-0.54617-0.21119-0.98607-0.2122-1.1289-0.23633-0.14284-0.024133-0.071038 0.042153-0.27344-0.18555a1.0001 1.0001 0 0 0-2e-3 -2e-3c-0.16043-0.17968-0.22324-0.39445-0.59961-0.74609-0.37637-0.35164-1.0451-0.51591-1.6602-0.45117a1.0001 1.0001 0 0 0-0.01953 2e-3c-0.38008 0.04751-0.59839 0.15648-0.78516 0.22461s-0.39046 0.04642-0.0918 0.07031a1.0001 1.0001 0 0 0-0.02148-2e-3c0.33867 0.01935 0.1159 0.01063-0.14258-0.15039-0.25578-0.15934-0.65094-0.43506-1.2812-0.41602-0.34755 0.0041-0.40211 0.04885-0.57031 0.08984-0.17569 0.04282-0.24787 0.03898-0.52734 0.16602a1.0001 1.0001 0 0 0-0.07617 0.03906c-0.23488 0.13212-0.29292 0.22906-0.34961 0.30078-0.01199-7e-3 -0.56339 0.04692-1.0312 0.07031a1.0001 1.0001 0 0 0-0.91406 1.2637l0.14062 0.50977a1.0001 1.0001 0 0 0 0.38281 0.55078c0.24293 0.17352 0.53144 0.20837 0.69727 0.19922 0.04015-0.0022 0.04098-0.0095 0.07227-0.01367 0.03466 0.01176-0.01956-0.0034 0.01367 0.01367 0.13786 0.07087 0.32404 0.17524 0.50781 0.28516 0.18377 0.10992 0.36744 0.22604 0.50781 0.32031 0.12819 0.08609 0.22005 0.16745 0.16992 0.11523 0.01915 0.02162 0.09634 0.16817 0.13867 0.23438-0.10274 0.04119-0.22838 0.04483-0.31055 0.09961-0.4472 0.29813-0.65817 0.78861-0.7207 1.1816-0.06253 0.39303-0.02414 0.74382 0.03906 1.0742 0.1264 0.66081 0.36309 1.2277 0.57812 1.623 0.27208 0.50458 0.6474 0.93001 0.98438 1.3457 0.33808 0.41705 0.63334 0.87938 0.62109 0.84766l-0.0039-0.0098c-0.0694-0.18508-0.02958-0.3814-0.03906-0.33398-0.0094 0.04688-0.12319 0.44033 0.125 0.86719 0.11119 0.19082 0.16559 0.21954 0.20508 0.25586 0.04217 0.03879 0.07317 0.06211 0.10352 0.08594 0.06069 0.04766 0.11852 0.09087 0.18359 0.13672 0.13015 0.0917 0.28263 0.1954 0.43945 0.30078 0.31365 0.21077 0.73647 0.52598 0.63867 0.4375a1.0001 1.0001 0 0 0 0.01758 0.01758c0.5018 0.43137 0.83419 0.84088 1.2988 1.3027 0.46464 0.46185 1.0651 0.94355 1.9473 1.3477 0.39034 0.18121 0.76411 0.26337 1.1211 0.36328 0.14334 0.04012 0.12178 0.0294 0.23828 0.07227-0.02975 0.0055-0.07873 0.0025-0.10938 0.0078-0.16516 0.02863-0.32836 0.06513-0.48633 0.09961-0.31594 0.06896-0.66749 0.11719-0.63672 0.11719a1.0001 1.0001 0 0 0-0.0078 0c-1.1549 0.0082-1.8711-0.36156-2.6211-0.98242-0.75002-0.62086-1.4662-1.5223-2.375-2.4043-0.63156-0.61418-1.2465-0.96566-1.791-1.207-0.5445-0.24137-0.9929-0.38764-1.5176-0.67383-1.2827-0.69657-2.6798-1.8865-4.2148-2.8066-0.29799-0.48713-0.60673-0.92241-0.76562-1.2656a1.0001 1.0001 0 0 0-0.0059-0.0098c0.04966 0.10382-0.15104-0.4101-0.28711-0.78906-0.06804-0.18948-0.13463-0.37667-0.19727-0.53516-0.03132-0.07924-0.06073-0.14837-0.09766-0.22656-0.01846-0.0391-0.03744-0.07956-0.07422-0.14062-0.03678-0.06107 7.19e-4 -0.13896-0.3457-0.35547a1.0001 1.0001 0 0 0-1.3613 0.29102c-0.34284 0.51249-1.4821 1.6554-2.5332 2.6641-0.52556 0.50433-1.0363 0.99216-1.4512 1.4199-0.4149 0.42776-0.71716 0.64253-0.96094 1.248 0.081427-0.20225-0.10892 0.12781-0.41016 0.39844-0.30124 0.27063-0.70829 0.59504-1.1172 0.9043-0.40889 0.30925-0.82047 0.60557-1.1465 0.8418-0.16301 0.11812-0.30463 0.2221-0.41992 0.30859-0.11529 0.08649-0.14097 0.0703-0.33984 0.28906a1.0001 1.0001 0 0 0-0.027344 0.03125c-0.20386 0.24484-0.23221 0.34645-0.32415 0.5099a1 1 0 0 0 0.38086 1.3633 1 1 0 0 0 1.3633-0.38281c0.07742-0.13764 0.1463-0.23304 0.10156-0.18359-0.034545 0.03889-0.026202 0.02748 0.046875-0.02734 0.094281-0.07073 0.23105-0.17202 0.39258-0.28906 0.32305-0.23408 0.74733-0.53824 1.1797-0.86524 0.43236-0.327 0.87273-0.67454 1.248-1.0117 0.37532-0.33718 0.68935-0.55142 0.92578-1.1387-0.08878 0.22052 0.171-0.22002 0.54297-0.60352 0.37197-0.38349 0.87345-0.86348 1.4004-1.3691 0.60708-0.58257 1.0721-1.1462 1.6191-1.7246 0.02922 0.07249 0.04759 0.14796 0.08398 0.22461 2.79e-4 6.02e-4 -2.79e-4 0.0014 0 2e-3 0.31529 0.68038 0.7177 1.1884 0.9707 1.627a1.0001 1.0001 0 0 0 0.37109 0.36914c1.3743 0.78271 2.8361 2.0877 4.498 2.9902 0.68397 0.37274 1.2372 0.55578 1.6621 0.74414 0.4255 0.18863 0.7486 0.36668 1.207 0.8125a1.0001 1.0001 0 0 0 2e-3 2e-3c0.78116 0.75804 1.5147 1.7006 2.4922 2.5098 0.97748 0.80914 2.2651 1.4532 3.9102 1.4414 0.43698-1e-3 0.74427-0.09589 1.0566-0.16406 0.15703-0.03427 0.3025-0.06472 0.40234-0.08203 0.09984-0.01731 0.18579-0.0026 0.04102-0.01758a1.0001 1.0001 0 0 0 0.01563 0c0.17901 0.08054 0.3374 0.18353 0.57031 0.17383a1.0001 1.0001 0 0 0 0.01172 0c0.42968-0.02344 0.88431-0.12597 1.3398-0.39844s0.95666-0.85823 0.94531-1.5957a1.0001 1.0001 0 0 0-0.64844-0.92188c-0.39071-0.14652-0.62446-0.23972-0.5293-0.16211 0.0911 0.07301 0.04702 0.04026-0.02148-0.0625-0.0775-0.11625-0.07015-0.25695-0.48047-0.54102a1.0001 1.0001 0 0 0-0.02148-0.01367c-0.46969-0.30823-0.78065-0.33293-1.1543-0.4375-0.37364-0.10457-0.76288-0.22515-0.82031-0.25195a1.0001 1.0001 0 0 0-0.0078-0.0039c-0.66778-0.30589-1.0013-0.58357-1.3691-0.94922-0.36299-0.36081-0.76124-0.84308-1.3848-1.3828l-0.0059-0.0039c-0.30492-0.27466-0.54814-0.40349-0.85742-0.61133-0.09588-0.06443-0.16913-0.11469-0.25-0.16992-0.01204-0.0789 0.01955-0.10021-0.01172-0.18359a1.0001 1.0001 0 0 0-0.003939-0.009877c-0.23224-0.60172-0.58668-0.95877-0.93359-1.3867-0.34692-0.42795-0.69159-0.87387-0.7793-1.0371a1.0001 1.0001 0 0 0-2e-3 -0.0039c-0.08553-0.15726-0.24636-0.58617-0.33203-0.93945a1.0001 1.0001 0 0 0 0.04297 0.0039c0.19152 0.01368 0.38997 0.01153 0.63281-0.01367 0.01794 0.01004 0.08181 0.08603 0.45703-0.07031 0.20038-0.08349 0.43483-0.30664 0.52734-0.5 0.09252-0.19336 0.09617-0.32486 0.09961-0.4082 0.0069-0.16668-0.0085-0.20601-0.01563-0.25586a1.0001 1.0001 0 0 0-0.23823-0.51758c-0.082875-0.094439-0.27126-0.41363-0.46094-0.77539-0.18967-0.36176-0.37483-0.7667-0.74023-1.1582a1.0001 1.0001 0 0 0-0.02344-0.02539c-0.19841-0.19841-0.306-0.25326-0.48438-0.37305-0.04008-0.02692-0.09206-0.05615-0.13477-0.08398 0.0495-0.01668 0.02101-0.0056 0.07031-0.01758 0.12181-0.02968 0.39443-0.03711 0.12109-0.03711a1.0001 1.0001 0 0 0 0.04102-2e-3c-0.14212 0.0057-0.04277-0.0029 0.15625 0.12109 0.19694 0.12268 0.4029 0.40129 1.0742 0.44531 0.53278 0.03858 0.71767-0.10768 0.92578-0.18359 0.21073-0.07687 0.40774-0.12665 0.34766-0.11914l-0.01953 2e-3c0.33495-0.03526 0.11981-0.04453 0.08594-0.07617-0.03387-0.03164 0.13308 0.23686 0.47266 0.61719 0.4376 0.4923 1.0289 0.75976 1.4336 0.82812 0.40035 0.06764 0.53416 0.05098 0.73438 0.12695-0.09755-0.03888-0.0084 0.0021 0.11133 0.11524 0.12182 0.11505 0.22081 0.29266 0.64258 0.48438a1.0001 1.0001 0 0 0 0.0039 2e-3c0.45453 0.20454 0.63644 0.13877 0.81641 0.14844 0.14749 0.0079 0.20567 0.02055 0.21289 0.01758 0.0257 0.0243 0.05416 0.05463 0.11328 0.10547 0.06916 0.05947 0.14498 0.16205 0.45117 0.25391a1.0001 1.0001 0 0 0 0.04492 0.01367c0.61009 0.15252 1.0609 0.10152 1.1348 0.11719a1.0001 1.0001 0 0 0 0.01563 0.0039c0.21878 0.04281 0.71602 0.31794 1.4414 0.45117a1.0001 1.0001 0 0 0 0.02148 0.0039c1.0136 0.16268 1.733 0.06067 2.2188 0.22461 0.06196 0.06027 0.08587 0.11782 0.32422 0.19727a1.0001 1.0001 0 0 0 0.0293 0.0098c0.31081 0.09324 0.54549 0.04851 0.68164 0.02539 0.07624 0.05299 0.15626 0.15123 0.5332 0.20508a1.0001 1.0001 0 0 0 0.03711 0.0059c0.45196 0.04708 0.7821-0.05385 0.9043-0.07422 0.12045-0.02008 0.04771-0.03013 0.13476 0.0078 0.12739 0.05491 0.08505 0.04123 0.08594 0.04297 8.86e-4 0.0017 0.03284 0.09001 0.0293 0.30274a1.0001 1.0001 0 0 0 0.69336 0.9668c0.86969 0.28031 1.8148 0.02763 2.3516-0.4668 0.53431-0.49213 0.78828-1.0718 1.0117-1.5605v-2e-3c0.23299-0.49913 0.58773-1.1859 0.47656-2.0938a1.0001 1.0001 0 0 0-0.0039-0.02344c-0.074282-0.50758-0.20209-0.60665-0.35548-0.89263s-0.3422-0.60825-0.53906-0.92969c-0.3913-0.63891-0.78461-1.236-1.002-1.5332-0.7399-1.0604-1.8741-1.9007-2.9395-2.4395-0.4344-0.2237-0.84342-0.31408-1.1992-0.41211-0.35502-0.09781-0.6512-0.21542-0.68555-0.23633-0.32817-0.21868-0.99356-1.0472-1.8379-1.6328a1.0001 1.0001 0 0 0-0.04102-0.02734c-1.7845-1.1128-3.8582-2.3917-5.4297-3.668a1.0001 1.0001 0 0 0-0.01563-0.01172c-0.26865-0.20895-0.53745-0.43605-0.64844-0.57226a1.0001 1.0001 0 0 0-0.0078-0.01172c-0.11691-0.13972-0.1866-0.31538-0.43555-0.63086-0.24705-0.31307-0.733-0.63907-1.2734-0.75781-0.10899-0.02555-0.11986-0.01396-0.19531-0.02148-0.01353-0.39844-0.04439-1.0458-0.70312-1.5156-0.286-0.20739-0.48769-0.25144-0.68945-0.30469-0.20622-0.05442-0.40879-0.092127-0.60156-0.12891-0.35888-0.06847-0.6732-0.16155-0.68359-0.15625-0.06054-0.066064-0.15197-0.17652-0.25-0.29492-0.098036-0.1184-0.20176-0.244-0.32618-0.37305-0.12442-0.12904-0.12758-0.32825-0.74219-0.44531a1.0001 1.0001 0 0 0-0.01172-0.00195zm1.2578 1.0918c0.22056 0.10587 0.13073 0.085611 0.07031 0.023437-6.04e-4 4.233e-4 -0.05205-0.013366-0.04883-0.011719a1.0001 1.0001 0 0 0-0.02148-0.011719zm-18.014 7.082c-3.125e-4 0-0.29257 0.04285-0.29297 0.04297-4.33e-5 1.3e-5 -0.014955 0.0049-0.017578 0.0059zm0.30664 1.9512c-7.843e-4 2.9e-4 -0.00535 0.0018-0.00586 2e-3 -0.030571 0.0094-0.00692 0.0019-0.023437 0.0059-0.024512 0.0036-0.27764 0.04102-0.27734 0.04102a1.0001 1.0001 0 0 0 0.30664-0.04883zm14.908 4.8242c0.0032-1.78e-4 0.01222 4e-3 0.01563 0.0039-0.03228 0.01281-0.16598 0.0209-0.16797 0.02148-0.0032 9.33e-4 0.03183-0.01874 0.15234-0.02539zm1.5977 1.2656-0.0332 0.01367c0.0085-3e-3 0.0091-0.0086 0.01758-0.01172 0.0069-0.0026 0.0087 7.45e-4 0.01563-2e-3zm7.8672 2.0703c-0.0011-3.91e-4 0.0071 4.41e-4 0.0059 0a1.0001 1.0001 0 0 0 0.01758 0.0078c-0.0411-0.0137-0.0043 0.0013-0.02344-0.0078zm-0.04102 10.6 0.04492 0.0039c-0.0144-0.0015-0.01564 0.0031-0.0293 2e-3 -0.0088-7.31e-4 -0.0067-0.0053-0.01563-0.0059z" color="#000000" fill="#fff" stroke-linecap="round" stroke-linejoin="round" style="-inkscape-stroke:none"/>
 <path id="path10" d="m25.232 12.719c-3.9e-5 -2e-6 -0.12784 0.04145-0.22852 0.07422-0.61881 0.02375-1.1086 0.29477-1.457 0.66992-0.41792 0.45-0.81364 1.161-0.46875 1.9863 0.06609 0.15845 0.0457 0.0967 0.06055 0.125 0.01503 0.02866 0.03364 0.06195 0.05469 0.10156 0.0421 0.07923 0.09546 0.18008 0.14844 0.28125 0.05298 0.10117 0.10577 0.20436 0.14258 0.2793 0.03681 0.07493 0.07453 0.23559 0.01367 0.0039 0.02728 0.1039-0.0056 0.22339-0.19922 0.49414-0.09679 0.13538-0.21982 0.27962-0.34961 0.43945-0.12979 0.15983-0.32533 0.23978-0.41992 0.80273-0.12823 0.76377 0.13482 1.4071 0.58984 1.9316 0.22751 0.26227 0.52555 0.49929 0.91992 0.62695 0.39437 0.12767 0.89083 0.10808 1.3066-0.08984 0.49429-0.23525 0.61989-0.49006 0.82227-0.76953 0.20237-0.27947 0.39168-0.59319 0.56641-0.91797 0.17473-0.32478 0.33182-0.65649 0.45703-0.96289 0.12522-0.3064 0.22727-0.5357 0.26367-0.91406 0.10545-1.0968-0.394-1.9717-0.78906-2.6699-0.19753-0.34911-0.38966-0.64063-0.51562-0.82812-0.05692-0.08472-0.09635-0.14178-0.11133-0.16406 0.0053 0.0088 0.01197 0.02054 0.02734 0.05078 0.0083 0.01627 0.01967 0.03601 0.03516 0.07422 0.01548 0.03821 0.0606 0.22107 0.06055 0.2207-1.5e-5 -9.9e-5 -0.0015 0.0874-2e-3 0.17383a1.0001 1.0001 0 0 0-0.23438-0.68359c-0.01544-0.01669-0.02212-0.02917-0.08398-0.08399-0.01547-0.0137-0.03503-0.03052-0.07031-0.05664-0.01764-0.01306-0.07205-0.04674-0.07227-0.04687-2.18e-4 -1.35e-4 -0.1385-0.0722-0.13867-0.07227-1.05e-4 -4.4e-5 -0.10847-0.02452-0.20508-0.04687-0.05809-0.01344-0.123-0.02929-0.12305-0.0293zm0.92773 1.1465c-9e-6 0.0018-1e-6 0.01759 0 0.01758 8e-6 -4.5e-5 -0.07006 0.11963-0.13086 0.22461a1.0001 1.0001 0 0 0 0.13086-0.24219zm-0.79102 0.76953c-0.11661 0.03797-0.252 0.08203-0.25195 0.08203 1.5e-5 1e-6 -0.03087-0.0079-0.03906-0.0098a1.0001 1.0001 0 0 0 0.29102-0.07226zm0.03906 1.8984c0.0036 0.02962 0.05833 0.13868 0.05664 0.15625 0.0053-0.0546-0.04212 0.1047-0.06641 0.1875 0.02811-0.10402-0.0044-0.23206 0.0098-0.34375zm-0.51758 1.4082c-0.11051 0.1955-0.22141 0.38832-0.31836 0.52539-0.0125-0.03775-0.02783-0.05607-0.03516-0.07813 0.08864-0.10748 0.21518-0.25903 0.35352-0.44727z" color="#000000" fill="#fff" stroke-linecap="round" stroke-linejoin="round" style="-inkscape-stroke:none"/>
 <path id="path12" d="m32.625 21.822a1 1 0 0 0-0.81641 1.1543 1 1 0 0 0 1.1562 0.81641c0.28462-0.04909 1.4471-0.04215 1.6641-2e-3a1 1 0 0 0 1.166-0.80274 1 1 0 0 0-0.80078-1.1641c-0.72999-0.13521-1.6368-0.12826-2.3691-2e-3z" color="#000000" fill="#fff" stroke-linecap="round" stroke-linejoin="round" style="-inkscape-stroke:none"/>
 <path id="path14" d="m28.938 15.846a1.0001 1.0001 0 0 0-0.94336 1.3301s0.20259 0.59207 0.30273 1.1855c0.05007 0.29674 0.06389 0.59044 0.04687 0.72656-0.01701 0.13612-8e-3 -0.03133 0.19531-0.12891-0.30817 0.14792-0.62527 0.32361-0.85547 0.73633-0.2302 0.41272-0.16223 0.9855-0.0078 1.2969 0.30884 0.62276 0.70839 0.88577 1.1816 1.3418 0.31778 0.30622 0.66412 0.54998 1.0879 0.66797 0.42378 0.11798 0.90722 0.06006 1.2676-0.11133 0.72071-0.34278 1.0658-0.9051 1.4473-1.4727 0.41126-0.61186 0.29161-1.4147 0.0332-1.916-0.25841-0.50135-0.61896-0.89351-1-1.2793-0.76208-0.77158-1.6563-1.5471-1.9355-1.9492a1.0001 1.0001 0 0 0-0.82032-0.42773zm1.3086 3.7539c0.0079 0.0079 0.0176 0.01946 0.02539 0.02734 0.31948 0.32346 0.55666 0.62718 0.63867 0.7832-0.25332 0.34287-0.46668 0.57436-0.50391 0.60938-0.03179-0.01731-0.04916-0.01616-0.16211-0.125-0.29976-0.28886-0.34327-0.34087-0.47461-0.48242 0.24481-0.25473 0.40793-0.52309 0.47656-0.8125z" color="#000000" fill="#fff" stroke-linecap="round" stroke-linejoin="round" style="-inkscape-stroke:none"/>
 <path id="path16" d="m40.062 27.605a1 1 0 0 0-0.63672 0.42383c-0.43004 0.64148-1.2031 1.0371-1.2031 1.0371a1 1 0 0 0-0.48438 1.3301 1 1 0 0 0 1.3301 0.48242s1.2094-0.52885 2.0176-1.7344a1 1 0 0 0-0.27344-1.3887 1 1 0 0 0-0.75-0.15039z" color="#000000" fill="#fff" stroke-linecap="round" stroke-linejoin="round" style="-inkscape-stroke:none"/>
 <path id="path18" d="m34.006 34.793a1 1 0 0 0-1.1816 0.77539s-0.2508 0.81045-0.64258 1.1074a1 1 0 0 0-0.19336 1.4004 1 1 0 0 0 1.4004 0.19336c1.186-0.89902 1.3926-2.293 1.3926-2.293a1 1 0 0 0-0.77539-1.1836z" color="#000000" fill="#fff" stroke-linecap="round" stroke-linejoin="round" style="-inkscape-stroke:none"/>
 <path id="path20" d="m31.693 34.045a1 1 0 0 0-1.1914 0.76367s0.01539-0.02188-0.05664 0.0918c-0.07203 0.11368-0.20479 0.2804-0.49609 0.43945a1 1 0 0 0-0.39844 1.3555 1 1 0 0 0 1.3574 0.39844c0.60409-0.32984 0.9976-0.7617 1.2266-1.123s0.32031-0.73438 0.32031-0.73438a1 1 0 0 0-0.76172-1.1914z" color="#000000" fill="#fff" stroke-linecap="round" stroke-linejoin="round" style="-inkscape-stroke:none"/>
 <path id="path22" d="m30.166 32.896a1 1 0 0 0-1.3203 0.50781s-0.12908 0.39406-0.88086 0.68555a1 1 0 0 0-0.57031 1.2949 1 1 0 0 0 1.293 0.57031c1.409-0.54631 1.9863-1.7383 1.9863-1.7383a1 1 0 0 0-0.50781-1.3203z" color="#000000" fill="#fff" stroke-linecap="round" stroke-linejoin="round" style="-inkscape-stroke:none"/>
 <path id="path24" d="m28.648 31.674a1 1 0 0 0-1.2695 0.62305s-0.13512 0.41083-0.61719 0.55273a1 1 0 0 0-0.67774 1.2422 1 1 0 0 0 1.2422 0.67773c1.4651-0.43129 1.9453-1.8281 1.9453-1.8281a1 1 0 0 0-0.62305-1.2676z" color="#000000" fill="#fff" stroke-linecap="round" stroke-linejoin="round" style="-inkscape-stroke:none"/>
 <path id="path26" d="m26.725 30.217a1 1 0 0 0-0.57617 0.50195s-0.12779 0.25643-0.33398 0.54883-0.52202 0.56125-0.55273 0.57422a1 1 0 0 0-0.53125 1.3086 1 1 0 0 0 1.3086 0.5332c0.72639-0.30663 1.1091-0.83677 1.4102-1.2637 0.30103-0.4269 0.49023-0.81055 0.49023-0.81055a1 1 0 0 0-0.45117-1.3398 1 1 0 0 0-0.76367-0.05273z" color="#000000" fill="#fff" stroke-linecap="round" stroke-linejoin="round" style="-inkscape-stroke:none"/>
 <path id="path28" d="m26.264 28.822a1 1 0 0 0-0.67969 0.35156s-0.72981 0.7133-1.2695 0.80273a1 1 0 0 0-0.82422 1.1504 1 1 0 0 0 1.1504 0.82227c1.5579-0.25816 2.4707-1.4844 2.4707-1.4844a1 1 0 0 0-0.11719-1.4082 1 1 0 0 0-0.73047-0.23438z" color="#000000" fill="#fff" stroke-linecap="round" stroke-linejoin="round" style="-inkscape-stroke:none"/>
 <path id="path30" d="m25.26 27.752s-0.90295 0.24264-1.9375 0.18945a1 1 0 0 0-1.0508 0.94727 1 1 0 0 0 0.94727 1.0508c1.4046 0.07221 2.5742-0.25976 2.5742-0.25977a1 1 0 0 0 0.69726-1.2305 1 1 0 0 0-1.2305-0.69727z" color="#000000" fill="#fff" stroke-linecap="round" stroke-linejoin="round" style="-inkscape-stroke:none"/>
 <path id="path32" d="m37.711 26.119a1 1 0 0 0-0.88672 1.1016c0.04516 0.41949-0.68555 1.4414-0.68555 1.4414a1 1 0 0 0 0.02734 1.4141 1 1 0 0 0 1.4121-0.02539s1.4306-1.2218 1.2344-3.0449a1 1 0 0 0-1.1016-0.88672z" color="#000000" fill="#fff" stroke-linecap="round" stroke-linejoin="round" style="-inkscape-stroke:none"/>
 <path id="path34" d="m35.197 25.76a1 1 0 0 0-0.66016 1.25c0.02608 0.08425-0.0051 0.35872-0.13086 0.62891-0.12572 0.27019-0.26953 0.45508-0.26953 0.45508a1 1 0 0 0 0.16016 1.4062 1 1 0 0 0 1.4043-0.16016s0.28473-0.35701 0.51758-0.85742 0.48969-1.2271 0.23047-2.0645a1 1 0 0 0-1.252-0.6582z" color="#000000" fill="#fff" stroke-linecap="round" stroke-linejoin="round" style="-inkscape-stroke:none"/>
 <path id="path36" d="m33.275 25.316a1 1 0 0 0-0.85156 1.1289c0.04203 0.29972-0.30078 1.1758-0.30078 1.1758a1 1 0 0 0 0.39844 1.3555 1 1 0 0 0 1.3574-0.39844s0.71416-1.0639 0.52539-2.4102a1 1 0 0 0-1.1289-0.85156z" color="#000000" fill="#fff" stroke-linecap="round" stroke-linejoin="round" style="-inkscape-stroke:none"/>
 <path id="path38" d="m31.428 24.736a1 1 0 0 0-0.98438 1.0156c7e-3 0.4616-0.41016 1.2148-0.41016 1.2148a1 1 0 0 0 0.26953 1.3887 1 1 0 0 0 1.3887-0.26953s0.77239-1.0104 0.75195-2.3652a1 1 0 0 0-1.0156-0.98438z" color="#000000" fill="#fff" stroke-linecap="round" stroke-linejoin="round" style="-inkscape-stroke:none"/>
 <path id="path40" d="m29.449 24.002a1 1 0 0 0-0.78906 1.1738c0.04206 0.21409-0.30078 0.97656-0.30078 0.97656a1 1 0 0 0 0.26367 1.3887 1 1 0 0 0 1.3906-0.26367s0.89072-1.0542 0.60938-2.4863a1 1 0 0 0-1.1738-0.78906z" color="#000000" fill="#fff" stroke-linecap="round" stroke-linejoin="round" style="-inkscape-stroke:none"/>
 <path id="path42" d="m27.586 23.098a1 1 0 0 0-0.89648 1.0957c0.07292 0.72774-0.31055 1.3867-0.31055 1.3867a1 1 0 0 0 0.30859 1.3789 1 1 0 0 0 1.3809-0.30859s0.76241-1.1484 0.61133-2.6562a1 1 0 0 0-1.0938-0.89648z" color="#000000" fill="#fff" stroke-linecap="round" stroke-linejoin="round" style="-inkscape-stroke:none"/>
</svg>
