<?xml version="1.0" encoding="UTF-8"?>
<svg id="svg18" version="1.1" viewBox="0 0 48 48" xmlns="http://www.w3.org/2000/svg">
 <defs id="defs4">
  <style id="style2">.b{fill:none;stroke:#fff;stroke-linecap:round;stroke-linejoin:round;stroke-width:2px;}</style>
 </defs>
 <path id="circle6" d="m24 1.5c-12.415 0-22.5 10.085-22.5 22.5s10.085 22.5 22.5 22.5 22.5-10.085 22.5-22.5-10.085-22.5-22.5-22.5zm0 2c11.334 0 20.5 9.1663 20.5 20.5s-9.1663 20.5-20.5 20.5-20.5-9.1663-20.5-20.5 9.1663-20.5 20.5-20.5z" color="#000000" fill="#fff" stroke-linecap="round" stroke-linejoin="round" style="-inkscape-stroke:none"/>
 <path id="path8" d="m20.264 6.6309a1.0001 1.0001 0 0 0-1 1v1.8906l-1.9648 1.1348-1.2246-1.2246a1.0001 1.0001 0 0 0-1.4141 0l-4.8555 4.8555a1.0001 1.0001 0 0 0 0 1.4141l1.3809 1.3809-1.0234 1.7715h-1.9316a1.0001 1.0001 0 0 0-1 1v6.9492a1.0001 1.0001 0 0 0 1 1h1.8809l1.0566 1.8301-1.5059 1.5078a1.0001 1.0001 0 0 0 0 1.4141l2.5254 2.5254a1.0001 1.0001 0 0 0 1.4141 0l4.0625-4.0625a1.0001 1.0001 0 0 0 0.0957-1.3047c-2.0601-2.7706-2.6289-3.1609-2.6289-7.3867 0-1.7715 1.1055-3.5911 2.7969-4.9805 1.6914-1.3894 3.927-2.2916 5.8281-2.3223 2.0518-0.03312 3.7505 0.35908 5.1523 1.2949 1.4018 0.93584 2.5615 2.446 3.4277 4.8613 1.6051 4.4756-2.3711 8.2031-2.3711 8.2031a1.0001 1.0001 0 0 0-0.02539 1.4395l4.0625 4.0625a1.0001 1.0001 0 0 0 1.4141 0l2.4609-2.4609a1.0001 1.0001 0 0 0 0-1.4141l-1.5098-1.5098 1.0566-1.8281h2.1426a1.0001 1.0001 0 0 0 1-1v-6.5059a1.0001 1.0001 0 0 0-1-1h-1.3848l-1.1816-2.0449 1.2598-1.2598a1.0001 1.0001 0 0 0 0-1.4141l-5.0527-5.0527a1.0001 1.0001 0 0 0-1.4141 0l-1.2188 1.2187-1.7012-0.98047v-2.002a1.0001 1.0001 0 0 0-1-1zm1 2h5.6094v1.5781a1.0001 1.0001 0 0 0 0.5 0.86719l2.8652 1.6523a1.0001 1.0001 0 0 0 1.207-0.1582l1.0547-1.0547 3.6387 3.6387-1.0957 1.0957a1.0001 1.0001 0 0 0-0.1582 1.207l1.8535 3.209a1.0001 1.0001 0 0 0 0.86524 0.5h0.96289v4.5059h-1.7207a1.0001 1.0001 0 0 0-0.86523 0.5l-1.7285 2.9922a1.0001 1.0001 0 0 0 0.1582 1.207l1.3457 1.3457-1.0469 1.0469-2.7598-2.7598c0.99359-1.0459 4.0483-4.538 2.2695-9.498-0.9708-2.707-2.3883-4.6413-4.2012-5.8516s-3.9662-1.6665-6.2949-1.6289c-2.4794 0.03999-5.0466 1.1159-7.0645 2.7734-2.0179 1.6575-3.5273 3.9537-3.5273 6.5273 0 4.0092 0.92061 5.5852 2.5586 7.8379l-2.7949 2.7949-1.1113-1.1113 1.3418-1.3418a1.0001 1.0001 0 0 0 0.1582-1.207l-1.7285-2.9961a1.0001 1.0001 0 0 0-0.86719-0.5h-1.457v-4.9492h1.5098a1.0001 1.0001 0 0 0 0.86524-0.5l1.6953-2.9355a1.0001 1.0001 0 0 0-0.1582-1.207l-1.2168-1.2168 3.4414-3.4414 1.0586 1.0586a1.0001 1.0001 0 0 0 1.207 0.16016l3.1309-1.8066a1.0001 1.0001 0 0 0 0.5-0.86719z" color="#000000" fill="#fff" stroke-linecap="round" stroke-linejoin="round" style="-inkscape-stroke:none"/>
 <path id="path10" d="m28.475 16.688a1.0001 1.0001 0 0 0-0.62891 0.0078l-9.9707 3.4531a1.0001 1.0001 0 0 0-0.46094 0.33008l-1.7715 2.2715a1.0001 1.0001 0 0 0 0.23828 1.4473l1.8281 1.2109a1.0001 1.0001 0 0 0 0.89648 0.10352l10.236-3.7461a1.0001 1.0001 0 0 0 0.41211-0.2832l2.0938-2.4199a1.0001 1.0001 0 0 0-0.45312-1.6074zm-0.28711 2.0059 0.6543 0.20898-0.92969 1.0742-9.5215 3.4844-0.50586-0.33398 0.92383-1.1855z" color="#000000" fill="#fff" stroke-linecap="round" stroke-linejoin="round" style="-inkscape-stroke:none"/>
 <path id="path12" d="m27.684 22.604a1.0001 1.0001 0 0 0-0.62891 0.0078l-8.2617 2.8594a1.0001 1.0001 0 0 0-0.46094 0.33203l-1.4668 1.8809a1.0001 1.0001 0 0 0 0.23633 1.4492l1.5156 1.002a1.0001 1.0001 0 0 0 0.89453 0.10547l8.4824-3.1035a1.0001 1.0001 0 0 0 0.41211-0.28516l1.7344-2.0039a1.0001 1.0001 0 0 0-0.45312-1.6074zm-0.28906 2.0078 0.23828 0.07422-0.57031 0.66016-7.7637 2.8418-0.19141-0.12695 0.61914-0.79492z" color="#000000" fill="#fff" stroke-linecap="round" stroke-linejoin="round" style="-inkscape-stroke:none"/>
 <path id="path14" d="m27.08 27.217a1.0001 1.0001 0 0 0-0.63086 0.0078l-7.0801 2.4512a1.0001 1.0001 0 0 0-0.46289 0.33008l-1.2578 1.6133a1.0001 1.0001 0 0 0 0.23828 1.4492l1.2988 0.85938a1.0001 1.0001 0 0 0 0.89453 0.10547l7.2715-2.6621a1.0001 1.0001 0 0 0 0.41211-0.2832l1.4883-1.7188a1.0001 1.0001 0 0 0-0.45508-1.6074zm-0.375 2.0371-0.28516 0.32812-6.502 2.3789 0.38476-0.49219z" color="#000000" fill="#fff" stroke-linecap="round" stroke-linejoin="round" style="-inkscape-stroke:none"/>
 <path id="path16" d="m26.977 31.193-7.082 2.4512a1.0001 1.0001 0 0 0-0.57031 1.3867s1.7661 3.596 3.5137 6.623a1.0001 1.0001 0 0 0 1.7949-0.12891l3.5996-9.0156a1.0001 1.0001 0 0 0-1.2559-1.3164zm-1.4121 2.6035-1.9883 4.9824c-0.88035-1.6458-1.646-3.0687-1.9238-3.627z" color="#000000" fill="#fff" stroke-linecap="round" stroke-linejoin="round" style="-inkscape-stroke:none"/>
</svg>
