<?xml version="1.0" encoding="UTF-8"?>
<svg id="a" version="1.1" viewBox="0 0 48 48" xmlns="http://www.w3.org/2000/svg">
 <defs id="defs4">
  <style id="style2">.c{fill:none;stroke:#fff;stroke-width:2px;stroke-linecap:round;stroke-linejoin:round;}</style>
 </defs>
 <path id="ellipse6" transform="translate(-7.26 4.927) rotate(-14.058)" d="m16.35 27.562c-2.8473 0-5.4251 0.37784-7.377 1.0312-0.97592 0.3267-1.7972 0.7167-2.4414 1.2266-0.6442 0.50987-1.1641 1.2189-1.1641 2.084s0.51986 1.5761 1.1641 2.0859 1.4655 0.89986 2.4414 1.2266c1.9518 0.65341 4.5297 1.0293 7.377 1.0293 2.8473 0 5.4251-0.37589 7.377-1.0293 0.97592-0.3267 1.7992-0.7167 2.4434-1.2266s1.1641-1.2209 1.1641-2.0859-0.51986-1.5741-1.1641-2.084c-0.6442-0.50987-1.4674-0.89986-2.4434-1.2266-1.9518-0.65341-4.5297-1.0312-7.377-1.0312zm0 2c2.6664 0 5.0807 0.37154 6.7422 0.92773 0.83072 0.2781 1.4698 0.60862 1.8359 0.89844 0.36618 0.28982 0.40625 0.45777 0.40625 0.51562 0 0.05785-0.04008 0.22776-0.40625 0.51758-0.36617 0.28982-1.0052 0.62034-1.8359 0.89844-1.6614 0.55619-4.0758 0.92578-6.7422 0.92578-2.6664 0-5.0807-0.36959-6.7422-0.92578-0.83072-0.2781-1.4698-0.60862-1.8359-0.89844-0.36617-0.28982-0.4043-0.45973-0.4043-0.51758 0-0.05785 0.038122-0.22581 0.4043-0.51562 0.36617-0.28982 1.0052-0.62034 1.8359-0.89844 1.6614-0.55619 4.0758-0.92773 6.7422-0.92773z" color="#000000" fill="#fff" stroke-linecap="round" stroke-linejoin="round" style="-inkscape-stroke:none"/>
 <path id="path8" d="m16.857 17.576c-1.251 0.07911-2.5811 0.28922-3.9375 0.62891-1.3564 0.33967-2.6288 0.78106-3.7695 1.3008a1 1 0 0 0-0.49414 1.3242 1 1 0 0 0 1.3242 0.49609c1.0195-0.46448 2.181-0.86992 3.4258-1.1816 1.2448-0.31172 2.4602-0.50157 3.5781-0.57226a1 1 0 0 0 0.93359-1.0605 1 1 0 0 0-1.0605-0.93555zm3.8223 0.53516a1 1 0 0 0-1.1641 0.80273 1 1 0 0 0 0.80078 1.1641c0.91778 0.16878 1.6258 0.36254 2.041 0.57617s0.5215 0.3463 0.5957 0.64258l1.5605 6.2285a1 1 0 0 0-0.73828 0.0098c-1.1194 1.1501-4.0626 2.6719-7.627 3.5645-3.5643 0.89254-6.8786 0.9357-8.4082 0.44922a1 1 0 0 0-0.72461 0.0625l-1.4902-5.9512c-0.074161-0.29616-0.040945-0.46161 0.22461-0.8457s0.79741-0.88932 1.5273-1.4707a1 1 0 0 0 0.16016-1.4062 1 1 0 0 0-1.4062-0.1582c-0.78547 0.62562-1.4474 1.2046-1.9258 1.8965-0.47834 0.69188-0.73897 1.5944-0.51953 2.4707l2.1094 8.4219a1 1 0 0 0 1.2129 0.72852 1 1 0 0 0 0.72656-1.2148l-0.14844-0.5918c2.2523 0.61416 5.5023 0.46188 9.1484-0.45117 3.6454-0.91286 6.582-2.3087 8.2793-3.9121l0.14844 0.5918a1 1 0 0 0 1.2129 0.72656 1 1 0 0 0 0.72852-1.2129l-2.1094-8.4219c-0.21949-0.87632-0.87314-1.5488-1.6211-1.9336-0.74796-0.38482-1.6061-0.584-2.5938-0.76562z" color="#000000" fill="#fff" stroke-linecap="round" stroke-linejoin="round" style="-inkscape-stroke:none"/>
 <path id="path10" d="m16.678 17.604a1 1 0 0 0-0.72656 1.2129l1.2344 4.9316a1.0001 1.0001 0 0 0 1.084 0.75c1.209-0.14025 2.3146-0.1566 3.2344-0.08594a1.0001 1.0001 0 0 0 1.0469-1.2402l-1.082-4.3203a1 1 0 0 0-1.2129-0.72656 1 1 0 0 0-0.72852 1.2129l0.7793 3.1152c-0.44693-3.17e-4 -0.8908 8.34e-4 -1.375 0.03516l-1.041-4.1562a1 1 0 0 0-1.2129-0.72852zm-7.3555 1.8418a1 1 0 0 0-0.72656 1.2129l1.041 4.1582c-0.4435 0.19812-0.83619 0.40613-1.2305 0.61719l-0.78125-3.1152a1 1 0 0 0-1.2129-0.72852 1 1 0 0 0-0.72656 1.2129l1.082 4.3223a1.0001 1.0001 0 0 0 1.5059 0.59961c0.77784-0.49575 1.7601-1.0007 2.8926-1.4473a1.0001 1.0001 0 0 0 0.60352-1.1738l-1.2344-4.9297a1 1 0 0 0-1.2129-0.72852z" color="#000000" fill="#fff" stroke-linecap="round" stroke-linejoin="round" style="-inkscape-stroke:none"/>
 <path id="path12" d="m27.861 20.582c-1.5305 0.01872-2.8878 0.20246-3.9824 0.55078a1 1 0 0 0-0.64844 1.2559 1 1 0 0 0 1.2559 0.65039c1.6297-0.51856 4.7023-0.63232 8.0586-0.04492 3.6202 0.63439 6.6694 1.9347 7.8691 3.002a1.0001 1.0001 0 0 0 2e-3 2e-3c0.53367 0.47176 0.59422 0.7703 0.58203 0.8457-0.01079 0.05985-0.07761 0.21754-0.48633 0.43945-0.41044 0.22285-1.0966 0.43895-1.9629 0.57031-1.7322 0.26266-4.1766 0.21267-6.8066-0.24414h-2e-3c-2.3516-0.41076-4.4452-1.0691-5.959-1.8125a1 1 0 0 0-1.3379 0.45703 1 1 0 0 0 0.45508 1.3379c1.7453 0.85714 3.9921 1.5504 6.5 1.9883 2.8082 0.48796 5.4135 0.55867 7.4492 0.25 1.0178-0.15434 1.8948-0.39681 2.6172-0.78906 0.72243-0.39225 1.3571-1.0034 1.5059-1.8555a1.0001 1.0001 0 0 0 0-0.0059c0.1802-1.0636-0.43475-1.9763-1.2305-2.6797-1.7712-1.574-4.9882-2.7999-8.8496-3.4766-1.7936-0.3139-3.4988-0.46013-5.0293-0.44141z" color="#000000" fill="#fff" stroke-linecap="round" stroke-linejoin="round" style="-inkscape-stroke:none"/>
 <path id="path14" d="m30.596 11.047a1 1 0 0 0-0.98828 1.0098 1 1 0 0 0 1.0078 0.99023c1.1202-0.01095 2.3471 0.09032 3.6113 0.31055 1.2643 0.22023 2.4515 0.54074 3.502 0.92969a1 1 0 0 0 1.2852-0.5918 1 1 0 0 0-0.58984-1.2852c-1.1755-0.43525-2.476-0.78347-3.8535-1.0234-1.3776-0.23997-2.721-0.3521-3.9746-0.33984zm-3.7734 0.8125c-0.96872 0.25465-1.8101 0.51627-2.5273 0.95312-0.71654 0.43642-1.3198 1.1531-1.4727 2.043l-0.83984 4.8203a1 1 0 0 0 0.81445 1.1582 1 1 0 0 0 1.1562-0.81445l0.83789-4.8223a1.0001 1.0001 0 0 0 2e-3 -0.0039c0.05039-0.29514 0.14392-0.43078 0.54297-0.67383 0.39905-0.24305 1.092-0.48746 1.9941-0.72461a1 1 0 0 0 0.71289-1.2227 1 1 0 0 0-1.2207-0.71289zm14.129 2.4336a1 1 0 0 0-0.64258 0.41797 1 1 0 0 0 0.26172 1.3906c0.77036 0.52667 1.338 0.99175 1.6309 1.3555 0.29284 0.36372 0.33754 0.52733 0.28516 0.82812l-1.1016 6.3262a1 1 0 0 0-0.67578-0.29102c-1.491 0.59324-4.7994 0.78859-8.418 0.16406h-2e-3c-3.2078-0.55972-5.9541-1.6171-7.3847-2.627a1 1 0 0 0-1.3945 0.24023 1 1 0 0 0 0.24023 1.3926c1.848 1.3045 4.771 2.3673 8.1973 2.9648a1.0001 1.0001 0 0 0 2e-3 0c3.7004 0.63895 6.9506 0.55384 9.1504-0.2168l-0.10352 0.59961a1 1 0 0 0 0.81445 1.1582 1 1 0 0 0 1.1562-0.81445l1.4902-8.5547c0.15501-0.89001-0.16978-1.7687-0.69726-2.4238-0.52749-0.65518-1.2316-1.1852-2.0605-1.752a1 1 0 0 0-0.74805-0.1582z" color="#000000" fill="#fff" stroke-linecap="round" stroke-linejoin="round" style="-inkscape-stroke:none"/>
 <path id="path16" d="m30.777 11.062a1 1 0 0 0-1.1562 0.8125l-0.73438 4.2227c-0.48634 0.0011-0.93044 0.03145-1.377 0.06445l0.55078-3.1641a1 1 0 0 0-0.8125-1.1562 1 1 0 0 0-1.1562 0.81445l-0.76562 4.3867a1.0001 1.0001 0 0 0 1.1348 1.1602c0.91211-0.13752 2.0142-0.20175 3.2305-0.15039a1.0001 1.0001 0 0 0 1.0273-0.82617l0.87305-5.0078a1 1 0 0 0-0.81445-1.1562zm7.4707 1.3008a1 1 0 0 0-1.1562 0.81445l-0.87305 5.0059a1.0001 1.0001 0 0 0 0.6875 1.127c1.1619 0.36234 2.1784 0.79466 2.9902 1.2324a1.0001 1.0001 0 0 0 1.459-0.70703l0.76562-4.3887a1 1 0 0 0-0.81445-1.1562 1 1 0 0 0-1.1562 0.8125l-0.55274 3.1641c-0.40847-0.18167-0.81488-0.36028-1.2715-0.52539l0.73438-4.2227a1 1 0 0 0-0.8125-1.1562z" color="#000000" fill="#fff" stroke-linecap="round" stroke-linejoin="round" style="-inkscape-stroke:none"/>
</svg>
