<?xml version="1.0" encoding="UTF-8"?>
<svg id="b" version="1.1" viewBox="0 0 48 48" xmlns="http://www.w3.org/2000/svg">
 <defs id="defs4">
  <style id="style2">.c{fill:none;stroke:#fff;stroke-width:2px;stroke-linecap:round;stroke-linejoin:round;}</style>
 </defs>
 <path id="path6" d="m17.227 22.014a1 1 0 0 0-1.2832 0.5957c-0.13131 0.359-1.0773 2.0061-2.4023 3.0352-1.325 1.0291-2.8769 1.6191-4.9707 0.60742a1.0001 1.0001 0 0 0-1.334 1.3379c1.7409 3.5792-0.15039 6.1035-0.15039 6.1035a1.0001 1.0001 0 0 0 1.084 1.541c0.74878-0.20673 1.3628-0.08041 2.0957 0.30273 0.73293 0.38314 1.5236 1.0496 2.3477 1.8047 1.558 1.4277 3.5876 2.3041 8.0625 3.7695a1 1 0 0 0 1.2617-0.63867 1 1 0 0 0-0.63867-1.2617c-4.4187-1.447-6.1136-2.2254-7.334-3.3438-0.85245-0.78116-1.7385-1.5616-2.7715-2.1016-0.55043-0.28774-1.1635-0.47518-1.8066-0.55664 0.43822-1.1013 0.64111-2.4815 0.17188-4.5859 2.0476 0.33448 3.89-0.37406 5.209-1.3984 1.7089-1.3272 2.6992-2.9578 3.0547-3.9297a1 1 0 0 0-0.5957-1.2812z" color="#000000" fill="#fff" stroke-linecap="round" stroke-linejoin="round" style="-inkscape-stroke:none"/>
 <path id="path8" d="m24 2.5a1.0001 1.0001 0 0 0-0.93945 0.65625s-9.4146 25.724-10.514 28.746c-0.70647 1.9429 0.13577 4.0259 1.8594 5.666 1.7236 1.6401 4.3576 3.0234 7.7246 4.0137a1 1 0 0 0 1.2402-0.67773 1 1 0 0 0-0.67578-1.2422c-3.1485-0.92601-5.5266-2.2264-6.9102-3.543-1.3836-1.3165-1.746-2.4647-1.3574-3.5332 0.99348-2.7322 8.1681-22.337 9.5723-26.174 1.4041 3.837 8.5788 23.442 9.5723 26.174 0.38853 1.0685 0.02615 2.2167-1.3574 3.5332-1.3836 1.3165-3.7617 2.617-6.9102 3.543a1 1 0 0 0-0.67578 1.2422 1 1 0 0 0 1.2402 0.67773c3.367-0.99028 6.001-2.3736 7.7246-4.0137 1.7236-1.6401 2.5658-3.7231 1.8594-5.666-1.099-3.0225-10.514-28.746-10.514-28.746a1.0001 1.0001 0 0 0-0.93945-0.65625z" color="#000000" fill="#fff" stroke-linecap="round" stroke-linejoin="round" style="-inkscape-stroke:none"/>
 <path id="path10" d="m30.773 22.014a1 1 0 0 0-0.5957 1.2812c0.35549 0.97189 1.3458 2.6025 3.0547 3.9297 1.319 1.0244 3.1614 1.7329 5.209 1.3984-0.46923 2.1045-0.26634 3.4846 0.17188 4.5859-0.64313 0.08146-1.2562 0.2689-1.8066 0.55664-1.033 0.53998-1.919 1.3204-2.7715 2.1016-1.2204 1.1183-2.9153 1.8968-7.334 3.3438a1 1 0 0 0-0.63867 1.2617 1 1 0 0 0 1.2617 0.63867c4.4749-1.4654 6.5045-2.3419 8.0625-3.7695 0.82405-0.75514 1.6147-1.4215 2.3477-1.8047 0.73293-0.38314 1.3469-0.50946 2.0957-0.30273a1.0001 1.0001 0 0 0 1.084-1.541s-1.8913-2.5243-0.15039-6.1035a1.0001 1.0001 0 0 0-1.334-1.3379c-2.0938 1.0117-3.6457 0.42166-4.9707-0.60742-1.325-1.0291-2.271-2.6762-2.4023-3.0352a1 1 0 0 0-1.2832-0.5957z" color="#000000" fill="#fff" stroke-linecap="round" stroke-linejoin="round" style="-inkscape-stroke:none"/>
 <path id="path12" d="m7.1914 35.248a1 1 0 0 0-0.7207 0.25781 1 1 0 0 0-0.068359 1.4121c5.4926 6.0608 11.185 8.582 17.598 8.582s12.105-2.5213 17.598-8.582a1 1 0 0 0-0.06836-1.4121 1 1 0 0 0-1.4141 0.06836c-5.2252 5.7656-10.209 7.9258-16.115 7.9258s-10.89-2.1601-16.115-7.9258a1 1 0 0 0-0.69336-0.32617z" color="#000000" fill="#fff" stroke-linecap="round" stroke-linejoin="round" style="-inkscape-stroke:none"/>
 <path id="path14" d="m24 40.988a1.0001 1.0001 0 0 0-1 0.98633c0 0.2411-0.01424 0.25688-0.37891 0.43164-0.36467 0.17476-1.0406 0.30728-1.7891 0.33398-1.4969 0.05341-3.3842-0.31598-3.7871-0.47461a1 1 0 0 0-1.2969 0.56445 1 1 0 0 0 0.56445 1.2969c1.0051 0.39577 2.7782 0.67792 4.5898 0.61328 0.90583-0.03232 1.7959-0.15163 2.584-0.5293 0.19223-0.09212 0.33849-0.28496 0.51367-0.42773 0.17518 0.14278 0.32144 0.33561 0.51367 0.42773 0.78805 0.37767 1.6782 0.49698 2.584 0.5293 1.8117 0.06464 3.5847-0.21752 4.5898-0.61328a1 1 0 0 0 0.56445-1.2969 1 1 0 0 0-1.2969-0.56445c-0.40288 0.15863-2.2902 0.52802-3.7871 0.47461-0.74846-0.0267-1.4244-0.15922-1.7891-0.33398s-0.37891-0.19054-0.37891-0.43164a1.0001 1.0001 0 0 0-1-0.98633z" color="#000000" fill="#fff" stroke-linecap="round" stroke-linejoin="round" style="-inkscape-stroke:none"/>
</svg>
