<?xml version="1.0" encoding="UTF-8"?>
<svg id="b" version="1.1" viewBox="0 0 48 48" xmlns="http://www.w3.org/2000/svg">
 <defs id="defs4">
  <style id="style2">.c{fill:none;stroke:#fff;stroke-width:2px;stroke-linecap:round;stroke-linejoin:round;}</style>
 </defs>
 <path id="rect6" d="m9.5 4.5c-2.7527 0-5 2.2473-5 5v29c0 2.7527 2.2473 5 5 5h29c2.7527 0 5-2.2473 5-5v-29c0-2.7527-2.2473-5-5-5zm0 2h29c1.6793 0 3 1.3207 3 3v29c0 1.6793-1.3207 3-3 3h-29c-1.6793 0-3-1.3207-3-3v-29c0-1.6793 1.3207-3 3-3z" color="#000000" fill="#fff" stroke-linecap="round" stroke-linejoin="round" style="-inkscape-stroke:none"/>
 <path id="path8" d="m11.133 17.77c-0.47265-0.04335-1.0389 0.20044-1.3262 0.55078-0.28724 0.35034-0.38401 0.71392-0.44531 1.0723-0.12261 0.7167-0.068149 1.4999 0.037109 2.3555 0.21052 1.7112 0.68204 3.661 0.94727 4.8105 0.55477 2.4044 1.8027 4.123 1.8027 4.123a1 1 0 0 0 1.3945 0.22656 1 1 0 0 0 0.22852-1.3965s-1.0221-1.4328-1.4766-3.4023c-0.26958-1.1684-0.7239-3.0756-0.91211-4.6055-0.07099-0.57707-0.05517-0.97188-0.03906-1.3379 0.17968 0.22435 0.37807 0.49838 0.58984 0.90234 0.50678 0.96668 1.0303 2.3312 1.5684 3.7129s1.0889 2.7809 1.7441 3.9102c0.32762 0.56463 0.67903 1.0666 1.123 1.4727 0.44402 0.40607 1.0332 0.73047 1.709 0.73047 1.3081 0 2.2618-0.89676 2.9805-1.8828s1.3194-2.1815 1.9727-3.334c0.65321-1.1525 1.3541-2.2529 2.1406-3.0137 0.78657-0.76072 1.5929-1.1895 2.6895-1.1895 0.70704 3.4e-5 0.81309 0.15726 1.0176 0.68359 0.20449 0.52633 0.25721 1.4651 0.1543 2.4414-0.20582 1.9527-0.91602 4-0.91602 4a1 1 0 0 0 0.60938 1.2773 1 1 0 0 0 1.2754-0.61133s0.77958-2.1805 1.0195-4.457c0.11998-1.1383 0.13436-2.3153-0.27734-3.375-0.4117-1.0597-1.5009-1.9589-2.8828-1.959-1.6651-9e-5 -3.0403 0.74634-4.0801 1.752-1.0398 1.0056-1.8085 2.2621-2.4902 3.4648-0.68169 1.2027-1.2809 2.3622-1.8496 3.1426-0.56872 0.78035-0.98771 1.0605-1.3633 1.0605-0.05318 0-0.151-0.01647-0.35938-0.20703-0.20837-0.19056-0.47707-0.53972-0.74414-1-0.53415-0.92057-1.0754-2.2597-1.6094-3.6309-0.53394-1.3712-1.0613-2.7737-1.6602-3.916-0.29943-0.57116-0.61302-1.0809-1.0039-1.5059-0.39089-0.42499-0.90292-0.80421-1.5684-0.86524z" color="#000000" fill="#fff" stroke-linecap="round" stroke-linejoin="round" style="-inkscape-stroke:none"/>
 <path id="path10" d="m31.289 27.873c-1.9331-0.34403-3.283 0.34352-4.5039 0.90625-1.2209 0.56273-2.4552 1.0888-4.9434 0.93164-1.3403-0.08467-3.0422-0.52826-4.0254-0.67383-1.1114-0.16448-1.9743 0.3326-2.4766 0.62109-0.25114 0.14425-0.43174 0.23355-0.53125 0.26172-0.09951 0.02817-0.10515 0.03453-0.22461-0.0098 0.07769 0.02881-0.20935-0.12255-0.48633-0.30078s-0.59476-0.39051-1.0039-0.54492c-0.20457-0.0772-0.44015-0.15019-0.75977-0.13281-0.31962 0.01737-0.74786 0.19939-0.99023 0.50976-0.48476 0.62076-0.38093 1.2018-0.25 1.9219 0.31726 1.7449 1.8006 2.9934 3.6074 3.9648 1.8069 0.97148 4.0473 1.6656 6.2832 2.0039 4.6181 0.69872 8.4808-1.2615 10.658-3.75 1.0858-1.2409 1.6149-2.3998 1.5645-3.4961-0.05047-1.0963-0.9073-2.033-1.918-2.2129zm-0.34961 1.9688c0.24253 0.04316 0.2548 0.016 0.26953 0.33594 0.01473 0.31994-0.19542 1.0838-1.0723 2.0859-1.7478 1.9975-4.9482 3.6827-8.8535 3.0918-2.0258-0.30651-4.0912-0.95912-5.6348-1.7891-1.2468-0.67038-1.9486-1.4255-2.293-2.084 0.15646 0.10325 0.28424 0.2104 0.5332 0.30273 0.50438 0.18701 1.0465 0.17895 1.4648 0.06055 0.41831-0.1184 0.72538-0.30549 0.98242-0.45312 0.51407-0.29528 0.74275-0.44278 1.1875-0.37695 0.67161 0.09943 2.5399 0.58512 4.1914 0.68945 2.839 0.17928 4.6179-0.51555 5.9062-1.1094s1.943-0.99867 3.3184-0.75391z" color="#000000" fill="#fff" stroke-linecap="round" stroke-linejoin="round" style="-inkscape-stroke:none"/>
 <path id="path12" d="m33.002 6.1816a1 1 0 0 0-1.0078 0.99023 1 1 0 0 0 0.99023 1.0098c4.5498 0.039264 6.9265 2.2167 8.918 3.7012a1 1 0 0 0 1.3984-0.20312 1 1 0 0 0-0.20312-1.4004c-1.845-1.3753-4.8885-4.0527-10.096-4.0977z" color="#000000" fill="#fff" stroke-linecap="round" stroke-linejoin="round" style="-inkscape-stroke:none"/>
 <path id="path14" d="m42.484 20.639s-2.6701-0.02815-4.5801 0.74609a1 1 0 0 0-0.55078 1.3008 1 1 0 0 0 1.3027 0.55273c1.2022-0.48736 3.8594-0.60156 3.8594-0.60156a1 1 0 0 0 0.98438-1.0156 1 1 0 0 0-1.0156-0.98242z" color="#000000" fill="#fff" stroke-linecap="round" stroke-linejoin="round" style="-inkscape-stroke:none"/>
 <path id="path16" d="m39.127 20.006a1 1 0 0 0-1.3867 0.27734c-0.45202 0.678-0.68381 1.5606-0.39648 2.3867s0.98998 1.4427 1.9355 1.8906c1.332 0.63105 2.4531 1.9238 2.4531 1.9238a1 1 0 0 0 1.4082 0.12695 1 1 0 0 0 0.12695-1.4082s-1.2667-1.568-3.1309-2.4512c-0.65253-0.30914-0.85518-0.59706-0.9043-0.73828-0.04912-0.14122-0.049-0.2898 0.17188-0.62109a1 1 0 0 0-0.27734-1.3867z" color="#000000" fill="#fff" stroke-linecap="round" stroke-linejoin="round" style="-inkscape-stroke:none"/>
 <path id="path18" d="m37.295 33.008c-2.1959 0.01355-4.5245 0.04302-5.748 0.25195-0.66584 0.09447-1.0917 0.58696-1.3047 1.0273-0.21422 0.44292-0.29344 0.91269-0.2832 1.3945 0.01024 0.48184 0.11184 0.98353 0.39844 1.4512 0.28633 0.46721 0.8256 0.8883 1.4727 0.97852 2.4965 0.35067 8.918 1.248 8.918 1.248a1 1 0 0 0 1.1289-0.85156 1 1 0 0 0-0.85352-1.1289s-6.42-0.89772-8.9141-1.248a1.0001 1.0001 0 0 0-2e-3 0c-0.0445-0.0062-0.0024 0.02453-0.04492-0.04492-0.04256-0.06945-0.10128-0.2504-0.10547-0.44726-0.0036-0.16967 0.03971-0.3188 0.07422-0.41406 0.82169-0.12168 3.1633-0.20376 5.2773-0.2168 2.1822-0.01346 4.123 0.01563 4.123 0.01563a1 1 0 0 0 1.0137-0.98438 1 1 0 0 0-0.98438-1.0156s-1.9589-0.02924-4.166-0.01563z" color="#000000" fill="#fff" stroke-linecap="round" stroke-linejoin="round" style="-inkscape-stroke:none"/>
 <path id="path20" d="m20.002 35.117a1 1 0 0 0-1.1875 0.76953c-0.36216 1.7015 0.53987 3.3556 1.3477 4.75 0.80778 1.3944 1.6719 2.4844 1.6719 2.4844a1 1 0 0 0 1.4062 0.16406 1 1 0 0 0 0.16406-1.4062s-0.78758-0.99606-1.5117-2.2461c-0.72414-1.25-1.234-2.7995-1.1211-3.3301a1 1 0 0 0-0.76953-1.1855z" color="#000000" fill="#fff" stroke-linecap="round" stroke-linejoin="round" style="-inkscape-stroke:none"/>
 <path id="path22" d="m24.41 38.189c-1.2075 0.04649-2.2424 0.23799-3.0488 0.83008-0.40322 0.29605-0.76494 0.76317-0.8418 1.3379-0.07686 0.57472 0.13572 1.1312 0.4668 1.5879a1 1 0 0 0 1.3965 0.22266 1 1 0 0 0 0.22266-1.3984c-0.13312-0.18362-0.09532-0.20779-0.10352-0.14648-0.0082 0.0613-0.0597 0.08319 0.04297 0.0078 0.20534-0.15076 0.96196-0.4037 1.9414-0.44141 1.8193-0.07005 5.1953 0.97671 6.7754 2.9375a1 1 0 0 0 1.4062 0.15234 1 1 0 0 0 0.15039-1.4062c-2.1629-2.684-5.8537-3.7819-8.4082-3.6836z" color="#000000" fill="#fff" stroke-linecap="round" stroke-linejoin="round" style="-inkscape-stroke:none"/>
 <path id="path24" d="m34.369 36.475a1 1 0 0 0-0.90234 1.0898c0.27295 2.9177 1.6934 5.4219 1.6934 5.4219a1 1 0 0 0 1.3613 0.38867 1 1 0 0 0 0.38867-1.3613s-1.2295-2.2674-1.4512-4.6367a1 1 0 0 0-1.0898-0.90234z" color="#000000" fill="#fff" stroke-linecap="round" stroke-linejoin="round" style="-inkscape-stroke:none"/>
 <path id="path26" d="m28.172 30.941a1 1 0 0 0-0.71875 0.26562c-1.2311 1.1387-2.7683 2.3585-4.2227 2.6816a1 1 0 0 0-0.75977 1.1934 1 1 0 0 0 1.1934 0.75977c2.1414-0.47583 3.8541-1.9706 5.1465-3.166a1 1 0 0 0 0.05469-1.4141 1 1 0 0 0-0.69336-0.32031z" color="#000000" fill="#fff" stroke-linecap="round" stroke-linejoin="round" style="-inkscape-stroke:none"/>
 <path id="ellipse28" transform="translate(-16.705 45.247) rotate(-82.85)" d="m17.285 29.863c-0.63029 0-1.131 0.38556-1.4102 0.80274-0.27915 0.41718-0.4082 0.90262-0.4082 1.4219s0.12905 1.0067 0.4082 1.4238 0.77986 0.80273 1.4102 0.80273c0.6303 0 1.133-0.38556 1.4121-0.80273 0.27915-0.41718 0.4082-0.90457 0.4082-1.4238s-0.12905-1.0047-0.4082-1.4219c-0.27915-0.41718-0.78182-0.80274-1.4121-0.80274z" color="#000000" fill="#fff" stroke-linecap="round" stroke-linejoin="round" style="-inkscape-stroke:none"/>
 <path id="path30" d="m5.8105 6.7871a1.0001 1.0001 0 0 0-0.89648 1.2285c0.22158 0.93108 0.78296 2.6144 1.6113 4.3594 0.72659 1.5306 1.6639 3.0083 2.8555 4.0586-0.29798 1.5005-0.26667 3.1273-0.11719 4.4863 0.16891 1.5357 0.44141 2.7148 0.44141 2.7148a1 1 0 0 0 1.2012 0.75 1 1 0 0 0 0.74805-1.1992s-0.24671-1.0694-0.40234-2.4844c-0.15564-1.415-0.18936-3.1678 0.13281-4.3262a1.0001 1.0001 0 0 0-0.13867-0.82031c0.18662-0.07425 0.19621-0.03692 0.38867-0.13281 0.50764-0.25293 1.037-0.58074 1.4473-1.1172 0.41032-0.53645 0.62656-1.3801 0.36719-2.1582-0.47598-1.4279-1.7785-2.6027-3.2168-3.6191-1.4383-1.0165-2.9202-1.8552-4.4219-1.7402zm1.7715 2.7109c0.56249 0.23821 0.90106 0.24159 1.4961 0.66211 1.2384 0.8752 2.3057 2.1124 2.4746 2.6191 0.06307 0.18921 0.05188 0.16356-0.06055 0.31055-0.11243 0.14699-0.39943 0.3683-0.75 0.54297-0.43268 0.21558-0.64354 0.24262-0.95313 0.32617-0.52071-0.71136-1.0309-1.5437-1.457-2.4414-0.38764-0.81659-0.496-1.3069-0.75-2.0195z" color="#000000" fill="#fff" stroke-linecap="round" stroke-linejoin="round" style="-inkscape-stroke:none"/>
 <path id="path32" d="m17.105 4.6875c-0.6645 0.47541-1.2279 1.0097-1.7969 1.3418-0.56894 0.33212-1.0614 0.49135-1.8047 0.32617-2.0689-0.45976-4.8777-0.96787-6.9629-0.67969a1 1 0 0 0-0.85352 1.127 1 1 0 0 0 1.127 0.85352c1.4632-0.20222 4.2854 0.2149 6.2539 0.65234 1.2754 0.28343 2.4081-0.062406 3.248-0.55273 0.83996-0.49033 1.4681-1.0964 1.9531-1.4434a1 1 0 0 0 0.23242-1.3945 1 1 0 0 0-1.3965-0.23047z" color="#000000" fill="#fff" stroke-linecap="round" stroke-linejoin="round" style="-inkscape-stroke:none"/>
 <path id="path34" d="m30.389 4.7051a1.0001 1.0001 0 0 0-0.25586 0.1582l-0.01758-0.11914c-3.727 1.0637-5.549 4.1776-6.1621 5.4297-0.3214 0.65611-0.25079 1.5091 0.33594 2.0762 0.85198 0.82326 2.0514 1.2307 3.3359 1.5293s2.6531 0.43642 3.8027 0.42578c1.0295-0.0094 1.8406-0.88388 1.8477-1.877 0.01724-2.4024-0.37144-4.9071-2.0684-7.1816a1.0001 1.0001 0 0 0-0.0098-0.023437c-0.0047-0.00633-5e-3 -0.013208-0.0098-0.019531l-0.0059 0.011719a1.0001 1.0001 0 0 0-0.79286-0.41016zm-0.46289 2.3066c0.97476 1.6062 1.3401 3.2928 1.3379 5.1777-0.94918-0.0026-2.1272-0.11338-3.1855-0.35938-1.0217-0.23746-1.8202-0.62803-2.2148-0.94141 0.49194-0.96308 1.7855-2.8994 4.0625-3.877z" color="#000000" fill="#fff" stroke-linecap="round" stroke-linejoin="round" style="-inkscape-stroke:none"/>
 <path id="path36" d="m32.592 4.5508a1 1 0 0 0-0.76367 0.054687 1 1 0 0 0-0.44727 1.3418s0.21518 0.43178 0.44727 0.99414c0.23209 0.56236 0.46534 1.2791 0.50391 1.6133a1 1 0 0 0 1.1094 0.87891 1 1 0 0 0 0.87695-1.1094c-0.08763-0.75931-0.37901-1.5126-0.64062-2.1465-0.26161-0.63391-0.50781-1.125-0.50781-1.125a1 1 0 0 0-0.57812-0.50195z" color="#000000" fill="#fff" stroke-linecap="round" stroke-linejoin="round" style="-inkscape-stroke:none"/>
 <path id="path38" d="m27.496 4.5586a1 1 0 0 0-0.76367 0.037109s-2.0329 0.92927-3.4102 2.959a1 1 0 0 0 0.26758 1.3887 1 1 0 0 0 1.3887-0.26562c1.0199-1.5031 2.6055-2.2734 2.6055-2.2734a1 1 0 0 0 0.47852-1.3301 1 1 0 0 0-0.56641-0.51562z" color="#000000" fill="#fff" stroke-linecap="round" stroke-linejoin="round" style="-inkscape-stroke:none"/>
 <path id="ellipse40" transform="translate(-3.1752 3.4393) rotate(-7.3195)" d="m25.299 22.979c-0.45682 0-0.86253 0.2121-1.1367 0.46484-0.27419 0.25274-0.4569 0.54767-0.60352 0.86719-0.29322 0.63903-0.43555 1.3988-0.43555 2.2305 0 0.83172 0.14232 1.5895 0.43555 2.2285 0.14661 0.31951 0.32933 0.61445 0.60352 0.86719 0.27419 0.25274 0.6799 0.4668 1.1367 0.4668 0.45682 0 0.86058-0.21406 1.1348-0.4668 0.27419-0.25274 0.45886-0.54767 0.60547-0.86719 0.29322-0.63903 0.43555-1.3968 0.43555-2.2285 0-0.83172-0.14232-1.5914-0.43555-2.2305-0.14661-0.31951-0.33128-0.61445-0.60547-0.86719-0.27419-0.25274-0.67794-0.46484-1.1348-0.46484zm0 2.5918c0.08008 0.28868 0.17578 0.565 0.17578 0.9707 0 0.40546-0.09577 0.68013-0.17578 0.96875-0.08004-0.28864-0.17578-0.56319-0.17578-0.96875 0-0.4058 0.09567-0.68199 0.17578-0.9707z" color="#000000" fill="#fff" stroke-linecap="round" stroke-linejoin="round" style="-inkscape-stroke:none"/>
 <path id="path42" d="m14.271 24.045a1 1 0 0 0-0.54297 0.53711c-0.312 0.74285-0.36736 1.6003-0.25 2.5156 0.10584 0.82725 0.34362 1.5638 0.71484 2.1602 0.18576 0.29843 0.40628 0.56712 0.70898 0.7832 0.3027 0.21608 0.72809 0.37701 1.1816 0.32031 0.6844-0.08555 1.1313-0.57783 1.3672-1.0664a1 1 0 0 0-0.4668-1.3359 1 1 0 0 0-1.0039 0.35156c-0.03176-0.0356-0.04646-0.03968-0.08984-0.10938-0.16847-0.27064-0.35345-0.7755-0.42773-1.3574a1.0001 1.0001 0 0 0-2e-3 0c-0.08265-0.64463 0.0033-1.2292 0.11133-1.4863a1 1 0 0 0-0.53516-1.3086 1 1 0 0 0-0.76562-0.0039z" color="#000000" fill="#fff" stroke-linecap="round" stroke-linejoin="round" style="-inkscape-stroke:none"/>
 <path id="path44" d="m40.676 31.9c-0.34382-0.0028-0.68573 0.08489-0.95117 0.24609-0.53088 0.32241-0.88918 0.81635-1.1816 1.4297a1 1 0 0 0 0.47266 1.332 1 1 0 0 0 1.332-0.4707c0.09672-0.20284 0.14108-0.21692 0.2207-0.3125 0.03214 0.07576 0.02795 0.02439 0.05664 0.16016 0.08492 0.40184 0.12161 1.0444 0.0332 1.9043-0.08749 0.85101-0.24316 1.4243-0.38477 1.7578-0.01993-0.0463-0.03182-0.03984-0.04883-0.0957a1 1 0 0 0-1.248-0.66602 1 1 0 0 0-0.66602 1.248c0.15925 0.52312 0.40378 0.98911 0.8125 1.3516 0.40872 0.36245 1.1224 0.58793 1.7344 0.34961s0.97852-0.74856 1.2441-1.3594c0.26562-0.61081 0.44376-1.3798 0.54688-2.3828 0.10375-1.0092 0.07878-1.8345-0.06641-2.5215-0.14518-0.68699-0.39762-1.2771-0.94336-1.6758-0.27287-0.19932-0.61907-0.2921-0.96289-0.29492z" color="#000000" fill="#fff" stroke-linecap="round" stroke-linejoin="round" style="-inkscape-stroke:none"/>
 <path id="path46" d="m39.16 38.021a1 1 0 0 0-0.38281 1.3613c1.0419 1.858 3.0273 2.1426 3.0273 2.1426a1 1 0 0 0 1.1289-0.85156 1 1 0 0 0-0.85352-1.1289s-0.99094-0.1284-1.5586-1.1406a1 1 0 0 0-1.3613-0.38281z" color="#000000" fill="#fff" stroke-linecap="round" stroke-linejoin="round" style="-inkscape-stroke:none"/>
 <path id="path48" d="m42.545 31.17s-1.7723-0.15474-3.0371 1.1465a1 1 0 0 0 0.01953 1.4141 1 1 0 0 0 1.4141-0.01953c0.49802-0.51237 1.5137-0.54297 1.5137-0.54297a1 1 0 0 0 1.043-0.95312 1 1 0 0 0-0.95312-1.0449z" color="#000000" fill="#fff" stroke-linecap="round" stroke-linejoin="round" style="-inkscape-stroke:none"/>
 <path id="path50" d="m15.752 33.621a1 1 0 0 0-1.332 0.47461c-0.26694 0.56098-0.21902 1.0679-0.10156 1.5879 0.11746 0.51997 0.35115 1.0509 0.7207 1.5391 0.7391 0.97633 2.1857 1.7197 3.8652 1.2754l-0.25586 0.0332c0.14677 0 0.44035 0.03664 0.69141 0.07422 0.12553 0.01879 0.23521 0.03705 0.37109 0.04883 0.06794 0.0059 0.12669 0.02031 0.30078-2e-3 0.08704-0.01113 0.21251-0.0053 0.45703-0.17188 0.24452-0.16656 0.4965-0.76429 0.4082-1.0957a1 1 0 0 0-1.1895-0.68941c0.01441-0.0013 0.05884-0.02588 0.07031-0.02734 0.13503-0.01727 0.13476-0.0052 0.12695-0.0059-0.01562-0.0014-0.12375-0.01431-0.25-0.0332-0.2525-0.0378-0.6004-0.09766-0.98633-0.09766a1.0001 1.0001 0 0 0-0.25586 0.0332c-0.96997 0.2566-1.3939-0.06556-1.7598-0.54883-0.18292-0.24164-0.31011-0.53806-0.36328-0.77344-0.05317-0.23538 0.01367-0.41024-0.04492-0.28711a1 1 0 0 0-0.47266-1.334zm3.8789 3.0957a1 1 0 0 0-0.68555 1.1836c-0.08561-0.32132 0.16282-0.91177 0.39844-1.0723 0.16343-0.11132 0.21636-0.10096 0.28711-0.11133z" color="#000000" fill="#fff" stroke-linecap="round" stroke-linejoin="round" style="-inkscape-stroke:none"/>
 <path id="path52" d="m13.914 32.592a1 1 0 0 0-0.73047 0.22852c-1.0533 0.87638-1.8472 2.1597-2.1426 3.5117-0.14769 0.67601-0.1691 1.3876 0.07813 2.0703 0.16228 0.44817 0.62919 0.73333 1.0293 1.0566 0.27966 0.72056 0.81723 1.1871 1.4805 1.627 0.67033 0.44454 1.4931 0.82096 2.4023 1.0684 1.8184 0.4948 4.0805 0.47199 5.8008-0.99805a1 1 0 0 0 0.11133-1.4082 1 1 0 0 0-1.4102-0.11133c-1.0585 0.90456-2.573 0.96979-3.9766 0.58789-0.70177-0.19095-1.3529-0.49342-1.8223-0.80469-0.46936-0.31126-0.72703-0.67642-0.73047-0.68555a1.0001 1.0001 0 0 0-0.55273-0.57031c-0.29514-0.122-0.37585-0.23534-0.45117-0.44336-0.07532-0.20802-0.09603-0.55018-0.0059-0.96289 0.18034-0.82542 0.81537-1.8568 1.4688-2.4004a1 1 0 0 0 0.12891-1.4082 1 1 0 0 0-0.67773-0.35742z" color="#000000" fill="#fff" stroke-linecap="round" stroke-linejoin="round" style="-inkscape-stroke:none"/>
</svg>
