<?xml version="1.0" encoding="UTF-8"?>
<svg id="b" version="1.1" viewBox="0 0 48 48" xmlns="http://www.w3.org/2000/svg">
 <defs id="defs4">
  <style id="style2">.d{fill:none;stroke:#fff;stroke-width:2px;stroke-linecap:round;stroke-linejoin:round;}</style>
 </defs>
 <path id="c" d="m11.5 4.5c-3.8607 0-7 3.1393-7 7v25c0 3.8607 3.1393 7 7 7h25c3.8607 0 7-3.1393 7-7v-25c0-3.8607-3.1393-7-7-7zm0 2h25c2.7873 0 5 2.2127 5 5v25c0 2.7873-2.2127 5-5 5h-25c-2.7873 0-5-2.2127-5-5v-25c0-2.7873 2.2127-5 5-5z" color="#000000" fill="#fff" stroke-linecap="round" stroke-linejoin="round" style="-inkscape-stroke:none"/>
 <path id="circle7" d="m13.125 29.375c-2.5425 0-4.625 2.0825-4.625 4.625s2.0825 4.625 4.625 4.625 4.625-2.0825 4.625-4.625-2.0825-4.625-4.625-4.625zm0 2c1.4616 0 2.625 1.1634 2.625 2.625s-1.1634 2.625-2.625 2.625-2.625-1.1634-2.625-2.625 1.1634-2.625 2.625-2.625z" color="#000000" fill="#fff" stroke-linecap="round" stroke-linejoin="round" style="-inkscape-stroke:none"/>
 <path id="circle9" d="m34.875 29.375c-2.5425 0-4.625 2.0825-4.625 4.625s2.0825 4.625 4.625 4.625 4.625-2.0825 4.625-4.625-2.0825-4.625-4.625-4.625zm0 2c1.4616 0 2.625 1.1634 2.625 2.625s-1.1634 2.625-2.625 2.625-2.625-1.1634-2.625-2.625 1.1634-2.625 2.625-2.625z" color="#000000" fill="#fff" stroke-linecap="round" stroke-linejoin="round" style="-inkscape-stroke:none"/>
 <path id="path11" d="m20.375 33a1.0001 1.0001 0 0 0-1 1c0 2.5425 2.0825 4.625 4.625 4.625s4.625-2.0825 4.625-4.625a1.0001 1.0001 0 0 0-1-1zm1.4102 2h4.4297c-0.41148 0.90616-1.1459 1.625-2.2148 1.625s-1.8034-0.71884-2.2148-1.625z" color="#000000" fill="#fff" stroke-linecap="round" stroke-linejoin="round" style="-inkscape-stroke:none"/>
</svg>
