<?xml version="1.0" encoding="UTF-8"?>
<svg id="a" version="1.1" viewBox="0 0 48 48" xmlns="http://www.w3.org/2000/svg">
 <defs id="defs4">
  <style id="style2">.b{fill:none;stroke:#fff;stroke-width:2px;stroke-linecap:round;stroke-linejoin:round;}</style>
 </defs>
 <path id="circle6" d="m24 1.5c-12.415 0-22.5 10.085-22.5 22.5s10.085 22.5 22.5 22.5 22.5-10.085 22.5-22.5-10.085-22.5-22.5-22.5zm0 2c11.334 0 20.5 9.1663 20.5 20.5s-9.1663 20.5-20.5 20.5-20.5-9.1663-20.5-20.5 9.1663-20.5 20.5-20.5z" color="#000000" fill="#fff" stroke-linecap="round" stroke-linejoin="round" style="-inkscape-stroke:none"/>
 <path id="path8" d="m25.059 6.1367c-1.3269-0.00532-2.6765 0.098555-3.7598 0.50195a1.0001 1.0001 0 0 0-0.0098 0.00391c-5.6724 2.1783-8.6907 8.2168-8.7578 8.3516-0.36882 0.28022-0.72326 0.55492-1.0684 1.0117-0.46531 0.61592-0.93196 1.395-1.3438 2.3066-0.54605 1.2089-0.88509 2.7041-1.0547 4.2891-0.067434-0.03769-0.25977-0.17188-0.25977-0.17188a1 1 0 0 0-1.3554 0.40039 1 1 0 0 0 0.40039 1.3574s0.8979 0.57683 1.166 1.1855a1.0001 1.0001 0 0 0 1.9102-0.49805c-0.2035-2.1361 0.30952-4.1751 1.0156-5.7383 0.35306-0.78161 0.75413-1.4433 1.1172-1.9238 0.36306-0.48057 0.7333-0.77923 0.78125-0.80469a1.0001 1.0001 0 0 0 0.42188-0.42969s2.9932-5.6384 7.7383-7.4648c0.62723-0.23279 1.8653-0.3817 3.0508-0.37695 1.1861 0.00475 2.3822 0.15678 2.8906 0.30859 0.8557 0.25628 2.7618 0.65295 4.9355 2.0195 2.1738 1.3666 4.4945 3.6304 5.8242 7.6406a1 1 0 0 0 1.2637 0.63476 1 1 0 0 0 0.63476-1.2637c-1.4802-4.4641-4.1732-7.1429-6.6582-8.7051-2.485-1.5622-4.8845-2.0801-5.4258-2.2422-0.88953-0.26608-2.1301-0.38726-3.457-0.39258z" color="#000000" fill="#fff" stroke-linecap="round" stroke-linejoin="round" style="-inkscape-stroke:none"/>
 <path id="path10" d="m31.734 13.301a1 1 0 0 0-0.54297 1.3047c0.12329 0.29886 0.29006 1.3953 0.29492 2.7559 0.0049 1.3606-0.09931 3.0396-0.29688 4.793-0.39512 3.5068-1.1854 7.3476-2.1152 9.5586-1.9258 4.5799-4.5781 6.5879-4.5781 6.5879a1 1 0 0 0-0.18555 1.4004 1 1 0 0 0 1.4004 0.1875s3.1005-2.3955 5.2051-7.4004c1.0854-2.581 1.8505-6.4772 2.2598-10.109 0.20463-1.8161 0.31579-3.558 0.31055-5.0254-0.0052-1.4674-0.07315-2.6076-0.44531-3.5098a1 1 0 0 0-1.3066-0.54297z" color="#000000" fill="#fff" stroke-linecap="round" stroke-linejoin="round" style="-inkscape-stroke:none"/>
 <path id="path12" d="m4.4531 15.652a1 1 0 0 0-1.3965 0.2207 1 1 0 0 0 0.2207 1.3965c0.93771 0.6826 1.4058 1.8142 1.9238 3.1367 0.44204 1.1284 1.0435 2.3524 2.127 3.2617 0.17849 1.9001-0.18091 3.1553-0.8418 3.9434-0.69347 0.82687-1.7733 1.2879-3.1992 1.3906a1 1 0 0 0-0.92578 1.0684 1 1 0 0 0 1.0703 0.92578c1.7946-0.12934 3.4678-0.76403 4.5879-2.0996 1.1201-1.3356 1.5921-3.2753 1.3008-5.707a1.0001 1.0001 0 0 0-0.49023-0.74609c-0.81576-0.47388-1.2502-1.4518-1.7656-2.7676-0.51543-1.3158-1.105-2.9269-2.6113-4.0234z" color="#000000" fill="#fff" stroke-linecap="round" stroke-linejoin="round" style="-inkscape-stroke:none"/>
 <path id="path14" d="m10.725 23.816c-0.35918 0.0082-0.64714 0.0589-0.85937 0.11719-0.21224 0.05829-0.41211 0.1582-0.41211 0.1582a1.0001 1.0001 0 0 0-0.47266 1.1914s0.81141 2.5254-0.80859 4.4551c-0.31782 0.37862-1.3777 0.89288-2.3438 1.1699s-1.7949 0.39062-1.7949 0.39062a1 1 0 0 0-0.85547 1.125 1 1 0 0 0 1.125 0.85742s0.95865-0.12817 2.0781-0.44922c1.1195-0.32105 2.4451-0.76166 3.3223-1.8066 1.6856-2.0079 1.5594-3.9371 1.3516-5.1406 0.34726 0.01366 0.8779 0.12499 1.5879 0.38867 0.85677 1.2616 0.91466 3.4494 0.77539 4.6191-0.0069 0.05834-0.20993 0.72781-0.56836 1.4395-0.35842 0.71164-0.86382 1.5484-1.4453 2.3125-0.58149 0.76411-1.2449 1.4532-1.875 1.8867-0.63011 0.43351-1.1732 0.59146-1.6289 0.51758a1 1 0 0 0-1.1465 0.82812 1 1 0 0 0 0.82617 1.1465c1.1289 0.18302 2.1929-0.2307 3.084-0.84375 0.89107-0.61305 1.6635-1.4457 2.332-2.3242s1.2278-1.8053 1.6406-2.625c0.41285-0.81969 0.68967-1.4473 0.76758-2.1016 0.17064-1.4332 0.381-4.2601-1.2773-6.3242a1.0001 1.0001 0 0 0-0.38281-0.29102c-1.2995-0.56095-2.3012-0.71376-3.0195-0.69727z" color="#000000" fill="#fff" stroke-linecap="round" stroke-linejoin="round" style="-inkscape-stroke:none"/>
 <path id="path16" d="m15.92 28.975a1 1 0 0 0-0.73828 0.19922 1 1 0 0 0-0.18164 1.4043s0.90611 1.173 2.0352 2.4707c1.0586 1.2168 2.2064 2.4723 3.3438 3.1777a1 1 0 0 0 0.04492 0.03516c0.0607 0.03681 0.12102 0.11129 0.18164 0.14453a1 1 0 0 0 0.25586 0.02734 1 1 0 0 0 0.24023 0.0957c0.08051-0.0012 0.1759-0.0353 0.25781-0.03906a1 1 0 0 0 0.0078-2e-3c1.7329-0.08126 3.7462-0.69043 5.4512-1.3047 1.7881-0.6442 3.1895-1.2832 3.1895-1.2832a1 1 0 0 0 0.49414-1.3242 1 1 0 0 0-1.3242-0.49414s-1.3326 0.6066-3.0371 1.2207c-1.6053 0.57836-3.5023 1.0754-4.7754 1.1543-0.59259-0.39842-1.808-1.5572-2.8203-2.7207-1.0847-1.2467-1.9609-2.3809-1.9609-2.3809a1 1 0 0 0-0.66406-0.38086z" color="#000000" fill="#fff" stroke-linecap="round" stroke-linejoin="round" style="-inkscape-stroke:none"/>
 <path id="path18" d="m21.461 27.684c-0.66908 0.02069-1.3575 0.14629-2.0293 0.40625a1.0001 1.0001 0 0 0-0.62305 0.75391c-0.212 1.1617-0.25202 2.3941 0.08594 3.5117 0.33796 1.1176 1.2317 2.1801 2.5664 2.3926 1.2792 0.20372 2.4884-0.30276 3.3105-1.1484 0.82212-0.84568 1.3187-2.0132 1.4102-3.2832a1.0001 1.0001 0 0 0-0.087894-0.48828c-0.48612-1.0609-1.5294-1.6085-2.7188-1.9238-0.59468-0.15767-1.245-0.2414-1.9141-0.2207zm1.4023 2.1543c0.68195 0.18081 1.0031 0.50254 1.1777 0.6875-0.12528 0.65615-0.33096 1.2988-0.70312 1.6816-0.44993 0.46282-0.94792 0.66428-1.5625 0.56641-0.55907-0.08901-0.76978-0.34457-0.9668-0.99609-0.14145-0.46777-0.07171-1.1789-0.02148-1.8496 0.70663-0.14198 1.4495-0.25599 2.0762-0.08984z" color="#000000" fill="#fff" stroke-linecap="round" stroke-linejoin="round" style="-inkscape-stroke:none"/>
 <path id="path20" d="m19.627 19.389c-0.90777-0.19828-1.7643 0.10368-2.3965 0.53516-1.2645 0.86296-1.9738 2.2113-2.2773 2.8164a1.0001 1.0001 0 0 0 0.01758 0.93164l0.47656 0.85742a1 1 0 0 0 1.3574 0.39062 1 1 0 0 0 0.39258-1.3574l-0.16602-0.29688c0.31567-0.53756 0.77416-1.3127 1.3262-1.6895 0.33661-0.22973 0.57614-0.2924 0.8418-0.23438 0.26566 0.05803 0.69564 0.29044 1.2461 1.0781a1 1 0 0 0 1.3926 0.24805 1 1 0 0 0 0.24609-1.3926c-0.72889-1.043-1.5493-1.6884-2.457-1.8867z" color="#000000" fill="#fff" stroke-linecap="round" stroke-linejoin="round" style="-inkscape-stroke:none"/>
 <path id="path22" d="m29.541 21.684c-0.87015-0.12335-1.8365 0.08078-2.9316 0.60156a1 1 0 0 0-0.47461 1.334 1 1 0 0 0 1.332 0.47266c0.86181-0.40982 1.4463-0.47687 1.793-0.42774 0.34663 0.04914 0.51272 0.17319 0.69336 0.41992 0.32882 0.44914 0.42152 1.4235 0.36719 2.1387l-0.64453 0.7168a1 1 0 0 0 0.07422 1.4121 1 1 0 0 0 1.4121-0.07422l0.92774-1.0312a1.0001 1.0001 0 0 0 0.24609-0.52539c0.16353-1.1251 0.11425-2.6138-0.76758-3.8184-0.44091-0.60226-1.1572-1.0954-2.0273-1.2188z" color="#000000" fill="#fff" stroke-linecap="round" stroke-linejoin="round" style="-inkscape-stroke:none"/>
 <path id="path24" d="m20.793 3.3145c-0.29576 0.052554-0.52435 0.16286-0.74219 0.28906-0.43567 0.25241-0.83252 0.59774-1.2402 1.0059-0.75489 0.75564-1.4873 1.7368-2.0723 2.6777-0.03508 0.032062-0.09999 0.075688-0.3418 0.10352-0.24726 0.028455-0.62497 0.019395-1.0684 0.021484-0.88678 0.00418-2.1742 0.11097-3.1309 1.1406a1.0001 1.0001 0 0 0-0.20703 1.0195c0.33482 0.93255 1.0399 1.6162 1.6816 2.2793 0.64171 0.66309 1.2305 1.1836 1.2305 1.1836a1 1 0 0 0 1.4102-0.08398 1 1 0 0 0-0.08398-1.4121s-0.54018-0.47786-1.1211-1.0781c-0.2945-0.30431-0.39457-0.48955-0.62695-0.79297 0.27276-0.072313 0.46171-0.25399 0.85742-0.25586 0.38682-0.00182 0.81453 0.019229 1.2871-0.035156 0.47258-0.054386 1.037-0.20799 1.4922-0.63672a1.0001 1.0001 0 0 0 0.17383-0.2168c0.50084-0.84244 1.2691-1.8349 1.9355-2.502 0.17971-0.17989 0.29437-0.24921 0.44531-0.37109 0.01521 0.1677 0.04084 0.30988 0.04297 0.49609 0.0077 0.67583-0.06055 1.3223-0.06055 1.3223a1 1 0 0 0 0.88672 1.1016 1 1 0 0 0 1.1016-0.88672s0.08166-0.7374 0.07227-1.5605c-0.004701-0.41157-0.028234-0.84705-0.11524-1.2754-0.087007-0.42835-0.17068-0.92218-0.75391-1.3223-0.34212-0.23473-0.75697-0.26349-1.0527-0.21094z" color="#000000" fill="#fff" stroke-linecap="round" stroke-linejoin="round" style="-inkscape-stroke:none"/>
 <path id="path26" d="m23.656 24.928a1 1 0 0 0-1.2637 0.63672l-0.19727 0.59766a1 1 0 0 0 0.63477 1.2637 1 1 0 0 0 1.2637-0.63672l0.19727-0.59766a1 1 0 0 0-0.63477-1.2637z" color="#000000" fill="#fff" stroke-linecap="round" stroke-linejoin="round" style="-inkscape-stroke:none"/>
 <path id="path28" d="m15.773 26.727a1 1 0 0 0-1.0859 0.90625c-0.0856 0.93712 0.07773 1.8447 0.24805 2.7402a1 1 0 0 0-0.84766-0.16797 1 1 0 0 0-0.65234 1.2539c0.96241 3.043 3.0231 5.4337 5.2324 6.2461 0.0266 0.01426 0.02067 0.0283 0.05078 0.04297l0.0059-0.01367c0.04203 0.0149 0.08092 0.05072 0.12305 0.06445a1.0001 1.0001 0 0 0 0.74805-1.8496c0.22805 0.1111 0.07775 0.05152-0.0332-0.07227-0.11096-0.12379-0.26842-0.31984-0.44336-0.56641-0.34989-0.49314-0.77646-1.1911-1.1719-2-0.79083-1.6179-1.433-3.685-1.2676-5.4961a1 1 0 0 0-0.90625-1.0879z" color="#000000" fill="#fff" stroke-linecap="round" stroke-linejoin="round" style="-inkscape-stroke:none"/>
 <path id="path30" d="m32.547 8.127a1 1 0 0 0-0.70508 0.29883 1 1 0 0 0 0.0098 1.4141c2.9943 2.949 5.3574 9.3184 4.8184 15.213-0.539 5.8945-3.6745 11.272-11.783 13.064a1 1 0 0 0-0.75977 1.1934 1 1 0 0 0 1.1914 0.75976c8.8535-1.9568 12.747-8.3102 13.344-14.836 0.59672-6.5258-1.7967-13.265-5.4062-16.82a1 1 0 0 0-0.70898-0.28711z" color="#000000" fill="#fff" stroke-linecap="round" stroke-linejoin="round" style="-inkscape-stroke:none"/>
 <path id="path32" d="m39.756 21.291a1 1 0 0 0-0.79883 1.168c0.69783 3.7094 0.59943 6.8832-0.18945 9.3496-0.78888 2.4664-2.2236 4.2323-4.3555 5.3145a1 1 0 0 0-0.43945 1.3438 1 1 0 0 0 1.3438 0.43945c2.6084-1.3241 4.4314-3.5992 5.3555-6.4883 0.92407-2.889 0.99402-6.3836 0.25195-10.328a1 1 0 0 0-1.168-0.79883z" color="#000000" fill="#fff" stroke-linecap="round" stroke-linejoin="round" style="-inkscape-stroke:none"/>
 <path id="path34" d="m39.469 7.8574a1 1 0 0 0-0.76367 0.064453l-1.041 0.53516c-0.42165 0.03139-2.3816 0.22643-3.2852 2.1309a1 1 0 0 0 0.47461 1.332 1 1 0 0 0 1.332-0.47461c0.36024-0.75932 1.9395-1.0586 1.9395-1.0586a1.0001 1.0001 0 0 0 0.36523-0.10547l1.1309-0.58203a1 1 0 0 0 0.43164-1.3457 1 1 0 0 0-0.58398-0.49609z" color="#000000" fill="#fff" stroke-linecap="round" stroke-linejoin="round" style="-inkscape-stroke:none"/>
 <path id="path36" d="m41.871 10.572a1 1 0 0 0-1.3203 0.50976c-0.43688 0.98853-1.0109 1.7499-1.4941 2.2109-0.24162 0.23052-0.46342 0.38573-0.59375 0.45312-0.13033 0.06739-0.15743-0.01407 0.11133 0.05664a1 1 0 0 0-1.2227 0.71289 1 1 0 0 0 0.71289 1.2207c0.56486 0.14861 0.95613-0.02753 1.3184-0.21484 0.36223-0.18731 0.70602-0.44859 1.0547-0.78125 0.69734-0.66531 1.4011-1.6227 1.9434-2.8496a1 1 0 0 0-0.50976-1.3184z" color="#000000" fill="#fff" stroke-linecap="round" stroke-linejoin="round" style="-inkscape-stroke:none"/>
 <path id="path38" d="m15.65 32.883a1 1 0 0 0-0.93945 1.0566c0.25321 4.326-1.6895 8.6113-1.6895 8.6113a1 1 0 0 0 0.48633 1.3281 1 1 0 0 0 1.3281-0.48828s2.1629-4.5833 1.8711-9.5684a1 1 0 0 0-1.0566-0.93945z" color="#000000" fill="#fff" stroke-linecap="round" stroke-linejoin="round" style="-inkscape-stroke:none"/>
 <path id="path40" d="m25.049 33.746a1 1 0 0 0-0.7168 0.26562l-3.9941 3.6836-0.19922-1.0352a1 1 0 0 0-1.1699-0.79297 1 1 0 0 0-0.79297 1.1699l0.53711 2.8027a1.0001 1.0001 0 0 0 1.6602 0.54688l5.3145-4.9062a1 1 0 0 0 0.05664-1.4121 1 1 0 0 0-0.69531-0.32226z" color="#000000" fill="#fff" stroke-linecap="round" stroke-linejoin="round" style="-inkscape-stroke:none"/>
 <path id="path42" d="m20.037 38.711a1.0001 1.0001 0 0 0-0.82617 0.06445c-2.8609 1.583-3.7079 3.7771-3.6914 5.1094a1 1 0 0 0 1.0137 0.98633 1 1 0 0 0 0.98633-1.0117c-0.0012-0.09922 0.17358-0.52601 0.32812-0.90234 0.0016 0.58753 0.03711 1.1719 0.03711 1.1719a1 1 0 0 0 1.1699 0.79492 1 1 0 0 0 0.79492-1.1699s-0.32707-1.6523 0.72852-3.6328a1.0001 1.0001 0 0 0-0.54102-1.4102z" color="#000000" fill="#fff" stroke-linecap="round" stroke-linejoin="round" style="-inkscape-stroke:none"/>
 <path id="path44" d="m19.863 38.666a1 1 0 0 0-0.38281 0.08789 1 1 0 0 0-0.10156-0.05078 1 1 0 0 0-0.11523 0.09961 1 1 0 0 0-0.27734 0.24024 1 1 0 0 0-0.19727 0.31055 1 1 0 0 0-0.08008 0.12891 1 1 0 0 0 0.06445 0.0918 1 1 0 0 0-0.02734 0.39258c0.78363 2.3518 1.8952 3.7827 3.1133 4.4961s2.6074 0.67394 3.457-0.14844c0.42481-0.41119 0.67149-1.0253 0.63477-1.6445-0.03672-0.61923-0.32932-1.2146-0.80274-1.7285-0.94684-1.0278-2.6038-1.8192-5.2852-2.2754zm1.6875 2.543c1.0448 0.36825 1.8279 0.7633 2.127 1.0879 0.23367 0.25367 0.2714 0.42482 0.27539 0.49219 4e-3 0.06736 9.16e-4 0.05865-0.0293 0.08789-0.06043 0.05849-0.40162 0.24267-1.0527-0.13867-0.38846-0.22751-0.85549-0.77718-1.3203-1.5293z" color="#000000" fill="#fff" stroke-linecap="round" stroke-linejoin="round" style="-inkscape-stroke:none"/>
 <path id="path46" d="m26.521 33.648a1 1 0 0 0-1.3984 0.21484 1 1 0 0 0 0.21484 1.3965c0.2079 0.15249 0.44099 0.59589 0.55273 1.0527s0.12109 0.83008 0.12109 0.83008a1 1 0 0 0 1.0195 0.97852 1 1 0 0 0 0.97852-1.0176s-8e-3 -0.57978-0.17578-1.2656c-0.16776-0.68585-0.4766-1.5763-1.3125-2.1895z" color="#000000" fill="#fff" stroke-linecap="round" stroke-linejoin="round" style="-inkscape-stroke:none"/>
 <path id="path48" d="m27.023 38.088a1 1 0 0 0-0.78711 1.1738c0.12429 0.62674 0.14489 2.2004 0.09766 3.5098-0.04723 1.3094-0.13672 2.4102-0.13672 2.4102a1 1 0 0 0 0.91602 1.0781 1 1 0 0 0 1.0781-0.91602s0.09158-1.1406 0.14062-2.5c0.04904-1.3594 0.08065-2.8844-0.13476-3.9707a1 1 0 0 0-1.1738-0.78516z" color="#000000" fill="#fff" stroke-linecap="round" stroke-linejoin="round" style="-inkscape-stroke:none"/>
 <path id="path50" d="m27.219 38.068a1 1 0 0 0-1.002 0.99805 1 1 0 0 0 0.99805 1.002c0.99925 0.0017 1.4593 0.33092 1.7402 0.68164s0.31461 0.828 0.30273 0.88281c-0.19062 0.87965 0.07716 1.6226 0.30664 2.2031 0.22948 0.58052 0.49219 1.0176 0.49219 1.0176a1 1 0 0 0 1.373 0.3418 1 1 0 0 0 0.3418-1.373s-0.18356-0.30755-0.34766-0.72266c-0.16409-0.41511-0.23782-0.91892-0.21094-1.043 0.18123-0.83659-0.04342-1.7447-0.69531-2.5586-0.65189-0.8139-1.7982-1.4271-3.2988-1.4297z" color="#000000" fill="#fff" stroke-linecap="round" stroke-linejoin="round" style="-inkscape-stroke:none"/>
 <path id="path52" d="m30.424 36.047a1 1 0 0 0-0.57227 0.50977 1 1 0 0 0 0.46484 1.3359c0.12361 0.05984 0.05163-0.03463 0.10352 0.17383 0.05189 0.20845 0.07966 0.66801 0.17578 1.2578 0.19223 1.1796 0.80627 2.8457 2.8184 4.4668a1 1 0 0 0 1.4062-0.15039 1 1 0 0 0-0.15234-1.4062c-1.6831-1.3561-1.9507-2.3306-2.0977-3.2324-0.07348-0.45091-0.07842-0.89342-0.20898-1.418-0.13056-0.52455-0.53424-1.1826-1.1738-1.4922a1 1 0 0 0-0.76367-0.04492z" color="#000000" fill="#fff" stroke-linecap="round" stroke-linejoin="round" style="-inkscape-stroke:none"/>
 <path id="path54" d="m36.941 15.852a1 1 0 0 0-0.98438 1.0137 1 1 0 0 0 1.0137 0.98633c1.4603-0.02063 2.0935 0.58682 2.5137 1.3398 0.21008 0.37651 0.33577 0.79804 0.38477 1.1523 0.04899 0.35431-0.01146 0.66896-2e-3 0.64258-0.02253 0.06252-0.34147 0.40869-0.67383 0.51172s-0.47659 0.09894-0.65625-0.12695a1 1 0 0 0-1.4062-0.16016 1 1 0 0 0-0.16016 1.4062c0.72774 0.91501 1.9339 1.064 2.8145 0.79102s1.6357-0.83096 1.9648-1.7441c0.1853-0.51423 0.18032-1.0101 0.09961-1.5938-0.08071-0.58366-0.26986-1.2275-0.61914-1.8535-0.69856-1.252-2.1671-2.3952-4.2891-2.3652z" color="#000000" fill="#fff" stroke-linecap="round" stroke-linejoin="round" style="-inkscape-stroke:none"/>
 <path id="path56" d="m16.246 3.0195c-0.8693 0.071481-1.8333 0.64363-2.2422 1.6387-0.40892 0.99504-0.39392 2.2546 0.0059 3.9844a1 1 0 0 0 1.1992 0.75 1 1 0 0 0 0.75-1.1992c-0.34931-1.5112-0.25819-2.4039-0.10551-2.7754 0.15268-0.37153 0.23627-0.37991 0.55664-0.40625 0.32037-0.026344 0.85062 0.10003 1.3008 0.32422 0.45016 0.22419 0.82745 0.59498 0.83789 0.61133a1 1 0 0 0 1.3809 0.30469 1 1 0 0 0 0.30469-1.3828c-0.38761-0.60656-0.94782-0.98113-1.6328-1.3223-0.68499-0.34114-1.4862-0.59883-2.3555-0.52734z" color="#000000" fill="#fff" stroke-linecap="round" stroke-linejoin="round" style="-inkscape-stroke:none"/>
 <path id="path58" d="m28.092 6.4961c-2.8013 0.38904-5.3702 2.5533-7.5254 5.1328-2.1005 2.514-3.7532 5.4561-4.584 7.9297-0.0012 2e-3 -0.0047 0.0038-0.0059 0.0059h2e-3c-0.02096 0.06248-0.06999 0.13737-0.08984 0.19922a1.0001 1.0001 0 0 0 1.8164 0.80859c0.3758-0.64406 2.0881-2.287 3.8613-3.8438 0.86317-0.7578 1.4595-1.4091 2.252-2.1328-0.14014 0.52359-0.2472 0.99204-0.42578 1.5723-0.6496 2.1106-1.5296 4.4541-2.2773 5.8281a1.0001 1.0001 0 0 0 1.0391 1.4648c2.2219-0.3644 3.7826-1.2408 5.0117-2.4746a1.0001 1.0001 0 0 0 1.6445 0.79102c2.0847-2.1921 2.6967-5.3353 2.5508-8.1816-0.14588-2.8464-0.94749-5.4349-2.4492-6.8399a1.0001 1.0001 0 0 0-0.82031-0.25977zm-0.26562 2.2285c0.68579 0.94086 1.4258 2.8013 1.5371 4.9727 0.05577 1.0882-0.08733 2.1845-0.32812 3.2285a1 1 0 0 0-0.27539-0.20703 1 1 0 0 0-0.10742-0.0059 1 1 0 0 0-0.27344-0.26172 1 1 0 0 0-0.22656 0.23633 1 1 0 0 0-0.72461 0.50586c-0.91113 1.9165-2.0417 2.8879-3.6953 3.5625 0.55054-1.318 1.1349-2.5852 1.5703-4 0.33729-1.0959 0.62015-2.1375 0.81641-3.0059 0.19626-0.86839 0.33257-1.4718 0.28711-2.0957a1.0001 1.0001 0 0 0-1.7812-0.54879c-0.61268 0.77337-2.1703 2.1314-3.6523 3.4375 0.38647-0.54563 0.70377-1.122 1.1289-1.6309 1.8153-2.1726 3.9201-3.71 5.7246-4.1875z" color="#000000" fill="#fff" stroke-linecap="round" stroke-linejoin="round" style="-inkscape-stroke:none"/>
 <path id="path60" d="m15.156 10.973c-0.3955-0.09556-0.80063-0.09033-1.1582 0.01563-0.71514 0.2119-1.2488 0.69602-1.6328 1.2656-0.384 0.5696-0.6285 1.2482-0.62109 1.9824 0.0074 0.7342 0.33072 1.5483 1.0137 2.0781a1 1 0 0 0 1.4023-0.17578 1 1 0 0 0-0.17578-1.4043c-0.1934-0.15003-0.23974-0.27438-0.24219-0.51758-0.0025-0.2432 0.10322-0.57968 0.28125-0.84375 0.17802-0.26407 0.41881-0.43001 0.54297-0.4668 0.12416-0.03679 0.11765-0.07506 0.31055 0.10742a1 1 0 0 0 1.4141-0.03906 1 1 0 0 0-0.03906-1.4121c-0.31453-0.29754-0.70021-0.49429-1.0957-0.58985z" color="#000000" fill="#fff" stroke-linecap="round" stroke-linejoin="round" style="-inkscape-stroke:none"/>
 <path id="path62" d="m13.906 17.451a1 1 0 0 0-0.55078 0.5332s-1.5963 3.5924-0.99805 7.5957a1 1 0 0 0 1.1367 0.8418 1 1 0 0 0 0.8418-1.1367c-0.49377-3.3043 0.85547-6.5059 0.85547-6.5059a1 1 0 0 0-0.51953-1.3145 1 1 0 0 0-0.76562-0.01367z" color="#000000" fill="#fff" stroke-linecap="round" stroke-linejoin="round" style="-inkscape-stroke:none"/>
</svg>
