<?xml version="1.0" encoding="UTF-8"?>
<svg id="a" version="1.1" viewBox="0 0 48 48" xmlns="http://www.w3.org/2000/svg">
 <defs id="defs4">
  <style id="style2">.b{fill:none;stroke:#000;stroke-width:2px;stroke-linecap:round;stroke-linejoin:round;}</style>
 </defs>
 <path id="path6" d="m34.557 16.062a1.0001 1.0001 0 0 0-1 1v13.875a1.0001 1.0001 0 0 0 1 1h4.625a1.0001 1.0001 0 0 0 1-1v-13.875a1.0001 1.0001 0 0 0-1-1zm1 2h2.625v11.875h-2.625z" color="#000000" stroke-linecap="round" stroke-linejoin="round" style="-inkscape-stroke:none"/>
 <path id="path8" d="m18.367 4.5a1.0001 1.0001 0 0 0-1 1v37a1.0001 1.0001 0 0 0 1 1h2.3125a1.0001 1.0001 0 0 0 0.70703-0.29297l11.562-11.562a1.0001 1.0001 0 0 0 0.29297-0.70703v-13.875a1.0001 1.0001 0 0 0-0.29297-0.70703l-11.562-11.563a1.0001 1.0001 0 0 0-0.70703-0.29297zm1 2h0.89844l10.977 10.977v13.047l-10.977 10.977h-0.89844z" color="#000000" stroke-linecap="round" stroke-linejoin="round" style="-inkscape-stroke:none"/>
 <path id="path10" d="m39.814 4.7266a1 1 0 0 0-1.4062 0.13867l-30.361 37a1 1 0 0 0 0.13867 1.4082 1 1 0 0 0 1.4062-0.13867l30.361-37a1 1 0 0 0-0.13867-1.4082z" color="#000000" stroke-linecap="round" stroke-linejoin="round" style="-inkscape-stroke:none"/>
</svg>
