<?xml version="1.0" encoding="UTF-8"?>
<svg id="a" version="1.1" viewBox="0 0 48 48" xmlns="http://www.w3.org/2000/svg">
 <defs id="defs4">
  <style id="style2">.b{fill:none;stroke:#000;stroke-width:2px;stroke-linecap:round;stroke-linejoin:round;}</style>
 </defs>
 <path id="path6" d="m13.594 16.062a1.0001 1.0001 0 0 0-1 1v13.875a1.0001 1.0001 0 0 0 1 1h4.625a1.0001 1.0001 0 0 0 1-1v-13.875a1.0001 1.0001 0 0 0-1-1zm1 2h2.625v11.875h-2.625z" color="#000000" stroke-linecap="round" stroke-linejoin="round" style="-inkscape-stroke:none"/>
 <path id="path8" d="m32.094 4.5a1.0001 1.0001 0 0 0-0.70703 0.29297l-11.562 11.563a1.0001 1.0001 0 0 0-0.29297 0.70703v13.875a1.0001 1.0001 0 0 0 0.29297 0.70703l11.562 11.562a1.0001 1.0001 0 0 0 0.70703 0.29297h2.3125a1.0001 1.0001 0 0 0 1-1v-37a1.0001 1.0001 0 0 0-1-1zm0.41406 2h0.89844v35h-0.89844l-10.977-10.977v-13.047z" color="#000000" stroke-linecap="round" stroke-linejoin="round" style="-inkscape-stroke:none"/>
</svg>
