<?xml version="1.0" encoding="UTF-8"?>
<svg id="svg4" version="1.1" viewBox="0 0 48 48" xmlns="http://www.w3.org/2000/svg">
 <defs id="defs1">
  <style id="style1">.c{fill:none;stroke:#fff;stroke-width:2px;stroke-linecap:round;stroke-linejoin:round;}</style>
 </defs>
 <path id="path1" d="m10.5 3.5c-1.645 0-3 1.355-3 3v35c0 1.645 1.355 3 3 3h27c1.645 0 3-1.355 3-3v-26a1.0001 1.0001 0 0 0-1-1h-9c-0.56419 0-1-0.43581-1-1v-9a1.0001 1.0001 0 0 0-1-1zm0 2h17v8c0 1.645 1.355 3 3 3h8v25c0 0.56419-0.43581 1-1 1h-27c-0.56419 0-1-0.43581-1-1v-35c0-0.56419 0.43581-1 1-1z" fill="#fff" stop-color="#000000" stroke-linecap="round" stroke-linejoin="round"/>
 <path id="line1" d="m27.793 3.793a1 1 0 0 0 0 1.4141l11 11a1 1 0 0 0 1.4141 0 1 1 0 0 0 0-1.4141l-11-11a1 1 0 0 0-1.4141 0z" fill="#fff" stop-color="#000000" stroke-linecap="round" stroke-linejoin="round"/>
 <path id="path2" d="m24.869 19.08c-0.56014 0-1.1043 0.07364-1.6309 0.38867l0.06641-0.03516-5.9492 2.9746a1.0001 1.0001 0 0 0-0.45508 0.46094l-2.9746 6.1992a1.0001 1.0001 0 0 0-2e-3 0.0039c-0.15177 0.3212-0.34375 0.66829-0.34375 1.2949 0 0.83462 0.33872 1.6054 0.90234 2.1855a1.0001 1.0001 0 0 0 0.0098 0.0098l7.0664 7.0664a1.0001 1.0001 0 0 0 0.70703 0.29297h7.8086a1.0001 1.0001 0 0 0 1-1v-2.3477h2.3477a1.0001 1.0001 0 0 0 1-1v-7.6855a1.0001 1.0001 0 0 0-0.29297-0.70703l-7.1895-7.1875c-0.49083-0.49298-1.1211-0.91406-2.0703-0.91406zm0 2c0.04247 0 0.58235 0.25196 0.6543 0.32422a1.0001 1.0001 0 0 0 2e-3 2e-3l6.8965 6.8965v6.2715h-2.3477a1.0001 1.0001 0 0 0-1 1v2.3477h-6.3945l-6.7637-6.7637c-0.19996-0.20583-0.33594-0.54219-0.33594-0.79102 0 0.12585 0.09092-0.30945 0.15234-0.43945l2.8242-5.8848 5.6426-2.8203a1.0001 1.0001 0 0 0 0.06641-0.03711c0.01629-0.0097 0.31081-0.10547 0.60352-0.10547z" fill="#fff" stop-color="#000000" stroke-linecap="round" stroke-linejoin="round"/>
 <path id="path3" d="m17.803 22.301a1.0001 1.0001 0 0 0-1 1v10.041c0 0.53904 0.02356 0.9706 0.1875 1.4062 0.16394 0.43565 0.44734 0.7585 0.72266 1.0352a1 1 0 0 0 1.4141 0.0039 1 1 0 0 0 0.0039-1.4141c-0.21927-0.22034-0.24723-0.26886-0.26953-0.32812-0.0223-0.05927-0.05859-0.24804-0.05859-0.70312v-9.041h8.916c0.6237 0 0.6547-0.04811 1.0273 0.32617a1 1 0 0 0 1.4141 2e-3 1 1 0 0 0 2e-3 -1.4141c-0.74058-0.74383-1.7011-0.9141-2.4434-0.9141z" fill="#fff" stop-color="#000000" stroke-linecap="round" stroke-linejoin="round"/>
 <path id="path4" d="m17.096 22.596a1 1 0 0 0 0 1.4141l12.271 12.271a1 1 0 0 0 1.4141 0 1 1 0 0 0 0-1.4141l-12.271-12.271a1 1 0 0 0-1.4141 0z" fill="#fff" stop-color="#000000" stroke-linecap="round" stroke-linejoin="round"/>
</svg>
