<?xml version='1.0' encoding='UTF-8'?>
<svg xmlns="http://www.w3.org/2000/svg" viewBox="0 0 48 48"><defs><style>.b{fill:none;stroke:#000;stroke-linecap:round;stroke-linejoin:round;stroke-width:2px;}</style></defs><path class="b" d="m7.1308 37.251s.11135 5.9016 5.6788 6.1243c7.013.28052 23.049 0 23.049 0s5.0108.11135 5.0108-7.0151c0-8.4692-1.5589-27.503-1.5589-27.503s-.55675-4.0086-5.4562-4.2313c-6.2302-.28319-20.934 0-20.934 0s-3.7858.22269-4.1199 4.2313c-.3341 4.0086-1.6702 28.394-1.6702 28.394z"/><path class="b" d="m32.78 35.937 1.9699 5.0453h-4.5l-1.8596-5.0447m-1.4745-3.9999-2.9159-7.91-2.9159 7.91m-1.4745 3.9999-1.8596 5.0447h-4.5l1.9699-5.0453m1.5616-3.9996 4.9684-12.725h4.5v0l4.9684 12.725"/><rect class="b" x="12.5" y="31.938" width="23" height="4" rx="2" ry="2"/></svg>