<?xml version='1.0' encoding='UTF-8'?>
<svg xmlns="http://www.w3.org/2000/svg" viewBox="0 0 48 48"><defs><style>.b{fill:none;stroke:#000;stroke-linecap:round;stroke-linejoin:round;stroke-width:2px;}</style></defs><path class="b" d="m5.5011 18.972s0-2.277 1.7836-5.4646c1.7836-3.1877 2.5426-3.9087 2.5426-5.6544v-1.7077h4.4779v1.5558c0 1.8247.83504 2.5098 2.6943 5.7302.69117 1.1972 1.7456 3.207 1.7456 5.5025v22.921h-10.967s-2.3148-.53129-2.3148-2.7323c0-2.201.037949-20.151.037949-20.151z"/><path class="b" d="m15.146 10.926h-5.8497"/><path class="b" d="m10.276 8.4573h3.5555"/><path class="b" d="m5.8883 18.979 12.444-.0011"/><circle class="b" cx="12.152" cy="24.824" r="3.5766"/><path class="b" d="m18.745 41.854h10.602v-26.203l-1.7773-5.1664v-1.7982h-7.1092v1.7982l-1.7773 5.1597z"/><path class="b" d="m19.182 15.643h9.6389"/><path class="b" d="m20.529 10.795h7.1482"/><path class="b" d="m19.105 30.377h9.7675"/><path class="b" d="m19.145 25.233h2.2051s.01014-3.3616 2.6659-3.3616c2.6559 0 2.6659 3.3616 2.6659 3.3616h2.1634"/><path class="b" d="m29.348 41.854h10.499s2.6527-.0563 2.6527-2.296v-20.375s.39525-1.2971-1.2242-2.8722l-1.6194-1.5751v-2.8298h-7.4647v3.1908s-2.7536 1.4544-2.7536 2.1681c0 .71369-.09003 24.59-.09003 24.59z"/><path class="b" d="m32.613 15.04h6.7881"/><path class="b" d="m42.5 37.319h-4.266v1.6024h4.266"/></svg>