<?xml version='1.0' encoding='UTF-8'?>
<svg xmlns="http://www.w3.org/2000/svg" version="1.1" viewBox="0 0 48 48" xml:space="preserve"><defs><style>.b{fill:none;stroke:#000;stroke-linecap:round;stroke-linejoin:round;stroke-width:2px;}</style></defs><rect class="b" x="5.5" y="5.5" height="37" width="37" rx="4" ry="4"/><rect class="b" x="10.5" y="10.5" width="27" height="27" rx="2" ry="2"/><path class="b" d="m13.97 33.648h9.5598"/><path class="b" d="m22.846 21.191c0.49056 0.63866 1.1057 0.87654 1.9615 0.87654l1.1844-1e-6c1.1022 0 1.9957-0.8935 1.9957-1.9957v-0.0086c0-1.1022-0.89351-1.9957-1.9957-1.9957h-1.3065c-1.1034 0-1.9978-0.89447-1.9978-1.9978v-4e-6c0-1.1058 0.89639-2.0022 2.0022-2.0022h1.1779c0.85581 0 1.471 0.23789 1.9615 0.87654"/><path class="b" d="m13.684 22.068v-8h1.8c1.933 0 3.5 1.567 3.5 3.5v1c0 1.933-1.567 3.5-3.5 3.5z"/></svg>