<?xml version='1.0' encoding='UTF-8'?>
<svg xmlns="http://www.w3.org/2000/svg" version="1.1" viewBox="0 0 48 48" xml:space="preserve"><defs><style>.b{fill:none;stroke:#000;stroke-linecap:round;stroke-linejoin:round;stroke-width:2px;}</style></defs><rect class="b" x="5.5" y="5.5" height="37" width="37" rx="4" ry="4"/><rect class="b" x="10.5" y="10.5" width="27" height="27" rx="2" ry="2"/><path class="b" d="m13.97 33.648h9.5598"/><path class="b" d="m13.727 22.057v-8h1.8c1.933 0 3.5 1.567 3.5 3.5v1c0 1.933-1.567 3.5-3.5 3.5z"/><path class="b" d="m28.35 16.707c0-1.4636-1.1864-2.65-2.65-2.65h-1e-5c-1.4636 0-2.65 1.1864-2.65 2.65v2.7c0 1.4636 1.1864 2.65 2.65 2.65h1e-5c1.4636 0 2.65-1.1864 2.65-2.65h-2.65"/></svg>