<?xml version='1.0' encoding='UTF-8'?>
<svg xmlns="http://www.w3.org/2000/svg" id="a" viewBox="0 0 48 48"><defs><style>.b{fill:none;stroke:#000;stroke-width:2px;stroke-linecap:round;stroke-linejoin:round;}</style></defs><path class="b" d="m10.558 22.908 12.586 7.2694-12.586 7.2684m27.329-.001h-13.443"/><path class="b" d="m38.5 5.5h-29c-2.2091 0-4 1.7909-4 4v29c0 2.2091 1.7909 4 4 4h29c2.2091 0 4-1.7909 4-4v-29c0-2.2091-1.7909-4-4-4z"/><path class="b" d="m28.603 12.56 1.25.625-1.25.625"/><path class="b" d="m32.078 13.185h1.5"/><path class="b" d="m25.954 13.186c0-2.7614 2.2386-5.0005 5-5.0005 2.7614 5e-7 5 2.2391 5 5.0005l-3e-6 5.9991c0 2.3216-3 1.5-3 .49987 0 0-.35155 1.0001-2 1.0001s-2-1.0001-2-1.0001c0 1.0001-3 1.8217-3-.49987z"/></svg>