<?xml version='1.0' encoding='UTF-8'?>
<svg xmlns="http://www.w3.org/2000/svg" viewBox="0 0 48 48"><defs><style>.a{fill:none;stroke:#000;stroke-width:2px;stroke-linecap:round;stroke-linejoin:round;}</style></defs><path class="a" d="m24.992 11.5 6-6h8.5c2.216 0 4 1.784 4 4v8.5l-6 6m-12.5 12.5-6 6h-8.5c-2.216 0-4-1.784-4-4l-4e-7-4.502"/><path class="a" d="m30.992 42.5h8.5c2.216 0 4-1.784 4-4l1e-6-8.5-6-6h-6.5c-3.3137 0-6 2.6863-6 6v6.5z"/><path class="a" d="m24.502 20.379c.31537-.72941.49014-1.5338.49014-2.379v-6.5l-6-6h-8.5c-2.216 0-4 1.784-4 4v4.502"/><path class="a" d="m4.5 16v16a2 2 0 002 2h16a2 2 0 002-2v-16a2 2 0 00-2-2h-16a2 2 0 00-2 2z"/><line class="a" x1="11.75" x2="15.325" y1="23.51" y2="23.51"/><path class="a" d="m17.25 29.01h-5.5v-11h5.5"/></svg>