<?xml version='1.0' encoding='UTF-8'?>
<svg xmlns="http://www.w3.org/2000/svg" class="a" viewBox="0 0 48 48"><style>.b{fill:none;stroke:#000;stroke-width:2px;stroke-linecap:round;stroke-linejoin:round;}</style><path class="b" d="m29.708 30.608-1.8082-1.8082 2.9-2.9-2.9-2.9.2-4c3.2-1.5 5.4-4.8 5.4-8.6 0-.6 0-1.2-.2-1.9 5.4 3.3 8.8 9.2 8.8 15.5 0 1.6685-.22549 3.2841-.64768 4.818m-13.951 12.944c-1.1328.22183-2.3035.33808-3.5015.33808-10 0-18.1-8.1-18.1-18.1 0-6.4 3.3-12.2 8.8-15.5-.1.6-.2 1.2-.2 1.9 0 3.8 2.2 7.1 5.4 8.6v17.2l4.1 4.1 3.5005-3.5005"/><path class="b" d="m22.7 21.1v13.6"/><path class="b" d="m20.7 6.2c1.1-.2 2.2-.3 3.3-.3s2.2.1 3.3.3c0 .2.1.5.1.7 0 1.9-1.5 3.4-3.4 3.4s-3.4-1.5-3.4-3.4c0-.2.1-.5.1-.7"/><path class="b" d="m44.305 31.104c.77448-2.2226 1.1952-4.6131 1.1952-7.1043 0-11.9-9.6-21.5-21.5-21.5s-21.5 9.6-21.5 21.5 9.6 21.5 21.5 21.5c1.6466 0 3.2492-.18381 4.7884-.53209"/><path class="b" d="m44.304 31.106.000604-.001733"/><path class="b" d="m28.788 44.968.003708-.000839"/><path class="b" d="m31.5 30.5v-1c0-2.7614 2.2386-5 5-5s5 2.2386 5 5v1"/><rect class="b" x="27.5" y="30.5" width="18" height="15" rx="3" ry="3"/></svg>