<?xml version='1.0' encoding='UTF-8'?>
<svg xmlns="http://www.w3.org/2000/svg" version="1.1" viewBox="0 0 48 48" xml:space="preserve"><defs><style>.b{fill:none;stroke:#000;stroke-linecap:round;stroke-linejoin:round;stroke-width:2px;}</style></defs><path class="b" d="m38.91,20.12l-15-15c-.3734-.3756-.8804-.5878-1.41-.59h-12c-1.1046,0-2,.8954-2,2v35c0,1.1046.8954,2,2,2h27c1.1046,0,2-.8954,2-2v-20c-.0022-.5296-.2144-1.0366-.59-1.41Z"/><path class="b" d="m29.89,5.52l8.59,8.59c.2467.2212.626.2006.8473-.0461.0926-.1032.1466-.2354.1527-.3739v-7.19c0-1.1046-.8954-2-2-2h-7.17c-.3313.0047-.5962.277-.5915.6084.0022.1541.0636.3016.1715.4116Z"/><path class="b" d="m14.693 25.906h1.4914l2.3199 4.9712 4.8055-9.7768h9.832"/><path class="b" d="m25.57 24.492 6.6334 6.6334"/><path class="b" d="m32.204 24.492-6.6334 6.6334"/><path class="b" d="m14.184 34.547h4.9008"/><path class="b" d="m21.535 34.547h4.9008"/><path class="b" d="m28.886 34.547h4.9008"/></svg>