<?xml version='1.0' encoding='UTF-8'?>
<svg xmlns="http://www.w3.org/2000/svg" id="a" viewBox="0 0 48 48"><defs><style>.d{fill:none;stroke:#000;stroke-width:2px;stroke-linecap:round;stroke-linejoin:round;}</style></defs><rect class="d" x="5.5" y="5.5" width="37" height="37" rx="4" ry="4"/><path class="d" d="m5.5 19.375h4.625v4.6242h4.625v-9.2491h4.625v-4.6247h4.625v9.2505l4.625-.0012v-4.6253l4.625.0016v4.6236l4.625.000595v-4.6253h4.625"/><path class="d" d="m36.807 30.301c0-2.0711-2.4624-3.75-5.5-3.75-4.1194 0-6.5 3.75-6.5 3.75s-2.3806 3.75-6.5 3.75c-3.0376 0-5.5-1.6789-5.5-3.75s2.4624-3.75 5.5-3.75c4.1194 0 6.5 3.75 6.5 3.75s2.3806 3.75 6.5 3.75c3.0376 0 5.5-1.6789 5.5-3.75z"/></svg>