<?xml version='1.0' encoding='UTF-8'?>
<svg xmlns="http://www.w3.org/2000/svg" id="a" viewBox="0 0 48 48"><defs><style>.d{fill:none;stroke:#000;stroke-width:2px;stroke-linecap:round;stroke-linejoin:round;}</style></defs><path class="d" d="m32.771 42.5-23.271 1e-6c-2.216 0-4-1.784-4-4v-29c0-2.216 1.784-4 4-4h29c2.216 0 4 1.784 4 4v23.258"/><circle class="d" cx="24" cy="24" r="4.5"/><path class="d" d="m32.872 34.366-2.9111-5.0416a8 8 0 001.623-2.8242h6.416v-5h-6.4023a8 8 0 00-1.6328-2.8301l3.2012-5.5449-4.332-2.5-3.2012 5.5449a8 8 0 00-1.6328-.16992 8 8 0 00-1.623.1875l-3.2109-5.5625 1e-4 2e-5-4.332 2.5 3.2051 5.5508a8 8 0 00-1.623 2.8242h-6.416v5h6.416a8 8 0 001.623 2.8242l-3.2051 5.5508 4.332 2.5 3.2109-5.5625a8 8 0 001.623.1875 8 8 0 001.623-.1875l3.2109 5.5625 3.3945-1.959"/><circle class="d" cx="38.5" cy="38.5" r="7"/><line class="d" x1="36.5" x2="40.5" y1="38.5" y2="38.5"/></svg>