<?xml version='1.0' encoding='UTF-8'?>
<svg xmlns="http://www.w3.org/2000/svg" id="a" viewBox="0 0 48 48"><defs><style>.d{fill:none;stroke:#000;stroke-width:2px;stroke-linecap:round;stroke-linejoin:round;}</style></defs><rect class="d" x="5.5" y="5.5" width="37" height="37" rx="4" ry="4"/><circle class="d" cx="24" cy="24" r="4.5"/><path class="d" d="m19.166 10.625-4.332 2.5 3.2051 5.5508a8 8 0 00-1.623 2.8242h-6.416v5h6.416a8 8 0 001.623 2.8242l-3.2051 5.5508 4.332 2.5 3.2109-5.5625a8 8 0 001.623.1875 8 8 0 001.623-.1875l3.2109 5.5625 4.332-2.5-3.2051-5.5508a8 8 0 001.623-2.8242h6.416v-5h-6.4023a8 8 0 00-1.6328-2.8301l3.2012-5.5449-4.332-2.5-3.2012 5.5449a8 8 0 00-1.6328-.16992 8 8 0 00-1.623.1875l-3.2109-5.5625z"/></svg>