<?xml version='1.0' encoding='UTF-8'?>
<svg xmlns="http://www.w3.org/2000/svg" id="a" viewBox="0 0 48 48"><defs><style>.b{fill:none;stroke:#000;stroke-width:2px;stroke-linecap:round;stroke-linejoin:round;}.c{fill:#000;stroke-width:0px;}</style></defs><path class="b" d="m30.928 28a8.0003 8.0003 0 01-3.2343 3.0962"/><path class="b" d="m15.75 9.7153h16.5l8.25 14.285-8.25 14.285h-16.5l-8.25-14.285z"/><path class="b" d="m7.5 24h5m23 0h5m-24.75-14.279 2.5 4.327m11.5 19.904 2.5 4.327m0-28.559-2.5 4.327m-11.5 19.904-2.5 4.327"/><path class="b" d="m32 24h-1.8577a.99998.99998 135 00-.99998 1l.000102 4.1282c1.3e-5.55228.34872.71584.72413.31125 2.0213-2.1784 2.6864-5.3319 1.6512-8.176-1.1503-3.1603-4.1543-5.2638-7.5175-5.2638-3.3632 1.1e-5-6.3672 2.1035-7.5175 5.2638-1.0352 2.8441-.37008 5.9975 1.651 8.1759.3754.40463.72409.24111.72408-.31118l-.000102-4.1282a1 1 44.999 00-1-1h-1.8577"/><path class="b" d="m27.694 31.096a.75 1 80 01-.85457.91225.75 1 80 01-1.115-.56496.75 1 80 01.85457-.91225.75 1 80 011.115.56496z"/><circle class="c" cx="24" cy="27.875" r="1.5"/><line class="b" x1="24" x2="24" y1="19.875" y2="25.825"/><path class="b" d="m9.5435 20.46-4.1623-7.2101h8.3276m20.583 0h8.3276l-4.1634 7.2111m-10.291 17.824-4.1652 7.215-4.1656-7.2151m-10.29-10.746-4.1631 7.2114h8.3276m20.583 1e-6 8.3276-1e-6-4.1626-7.2097m-10.291-17.825-4.1652-7.215-4.1656 7.2151"/></svg>