<?xml version='1.0' encoding='UTF-8'?>
<svg xmlns="http://www.w3.org/2000/svg" id="a" viewBox="0 0 48 48"><defs><style>.d{fill:none;stroke:#000;stroke-width:2px;stroke-linecap:round;stroke-linejoin:round;}</style></defs><path class="d" d="m21.075 22.444v18.131c0 1.6154 1.3096 2.925 2.925 2.925s2.925-1.3096 2.925-2.925v-18.131"/><path class="d" d="m18.394 4.5a3.9 3.9 0 00-2.7574 1.1426 3.9 3.9 0 000 5.5148l2.8488 2.8488-2.8488 2.8488a3.9 3.9 0 000 5.5148 3.9 3.9 0 005.5148 0l2.8488-2.8488 2.8488 2.8488a3.9 3.9 0 005.5148 0 3.9 3.9 0 000-5.5148l-2.8488-2.8488 2.8488-2.8488a3.9 3.9 0 000-5.5148 3.9 3.9 0 00-5.5148 0l-2.8488 2.8488-2.8488-2.8488a3.9 3.9 0 00-2.7574-1.1426z"/></svg>