<?xml version='1.0' encoding='UTF-8'?>
<svg xmlns="http://www.w3.org/2000/svg" id="a" viewBox="0 0 48 48"><defs><style>.b{fill:none;stroke:#000;stroke-width:2px;stroke-linecap:round;stroke-linejoin:round;}</style></defs><path class="b" d="m32.228 4.1366c-10.97-4.544-23.547.66547-28.091 11.636-4.544 10.97.66547 23.547 11.636 28.091s23.547-.66547 28.091-11.636l-7.391-3.0615c-2.8532 6.8883-10.75 10.159-17.639 7.3061-6.8883-2.8532-10.159-10.75-7.3061-17.639 2.8532-6.8883 10.75-10.159 17.639-7.3061 3.4441 1.4266 5.9852 4.1137 7.3074 7.3056l7.3902-3.0611c-2.1056-5.0835-6.151-9.3635-11.636-11.636z"/><path class="b" d="m11.528 29.166-7.391 3.0615m11.636-28.091 3.0615 7.391m10.332 24.945 3.0615 7.391m-20.7-25.03-7.391-3.0615m28.091-11.636-3.0615 7.391m-10.332 24.945-3.0615 7.391"/></svg>