<?xml version='1.0' encoding='UTF-8'?>
<svg xmlns="http://www.w3.org/2000/svg" id="a" viewBox="0 0 48 48"><defs><style>.b{fill:none;stroke:#000;stroke-width:2px;stroke-linecap:round;stroke-linejoin:round;}</style></defs><path class="b" d="M31.7341,42.4999c0-1.2736-.746-4.129-1.4948-5.426.2943-1.0985.2272-4.0646-.4102-5.1687,9.0444-.657,13.651-9.759,6.9348-15.19,0-7.5119-3.0626-11.216-3.9012-11.216-1.7777,0-5.9867,4.2117-6.6276,5.3217"/><path class="b" d="M24.2551,41.4139c.1939.3687.772,1.0857.772,1.0857"/><path class="b" d="M19.0151,11.9769c1.6991-1.3872,5.6773-1.8349,7.6506-1.002"/><path class="b" d="M32.7701,7.4321c-1.3845,1.3845-1.6674,3.258-1.5047,4.948.5366.5366,1.5431.9303,1.5431.9303"/><path class="b" d="M10.8101,10.9699c2.0517,0,4.0939,2.2233,4.2273,2.7212-.2931.2931-2.11,1.3838-2.11,1.3838"/><path class="b" d="M19.1951,11.8389c-2.7822-2.7822-9.0984-3.0381-9.9828-2.1536-1.3325,1.3325-1.1301,6.368-.2912,9.499-1.9425,3.3644-1.3442,12.269,8.7102,12.269-2.9946,2.9946-6.9546,7.2755-6.1458,10.294,0,0-1.2775.7535-2.3628.7535"/><path class="b" d="M24.7001,23.6839c.4712,0,1.4726-.7275,1.8083-1.3089.2997.519.7325,1.0023,1.4189,1.0023"/><path class="b" d="M25.6901,21.1889l.5284.3824.4873-.4308"/><circle class="b" cx="19.8241" cy="21.6999" r="1.25"/><circle class="b" cx="30.9251" cy="20.7399" r="1.25"/><path class="b" d="M23.3701,10.5819c.3964,1.2989.4718,3.4602.4718,3.4602"/><path class="b" d="M25.9821,10.7539c.4447.9827.512,2.3832.3866,3.2945"/><path class="b" d="M20.1211,11.3239c.1229.889.5986,2.7033.8276,3.2167"/><path class="b" d="M36.9051,21.5159c.262-.0926,2.7424-.0768,2.9229-.0284"/><path class="b" d="M36.8821,23.9349c.304.0606,1.9979.181,3.0091-.09"/><path class="b" d="M8.1499,24.4029c.9184-.2541,4.8904-.6842,4.8904-.6842"/><path class="b" d="M9.0614,27.1609c1.0141-.0282,2.9321-.158,4.0086-.7795"/><path class="b" d="M15.4171,33.7639s1.2537-.1388,1.582-.006"/><path class="b" d="M13.1471,36.5689c.8794-.141,2.5539.0457,2.7843.2678"/><path class="b" d="M11.4601,40.1029c.6766-.2005,2.8393-.3073,3.3622-.1927"/></svg>