<?xml version='1.0' encoding='UTF-8'?>
<svg xmlns="http://www.w3.org/2000/svg" id="a" viewBox="0 0 48 48"><defs><style>.c{fill:none;stroke:#000;stroke-width:2px;stroke-linecap:round;stroke-linejoin:round;}</style></defs><path class="c" d="m39.5 15.5h-9c-1.1046 0-2-.8954-2-2v-9h-18c-1.1046 0-2 .8954-2 2v35c0 1.1046.8954 2 2 2h27c1.1046 0 2-.8954 2-2v-26z"/><line class="c" x1="28.5" x2="39.5" y1="4.5" y2="15.5"/><path class="c" d="m22.691 21.151c-1.9666.4533-3.5674 2.0409-4.0334 4.0044-.5633 2.3735.412 4.5739 2.1283 5.8112.4141.2986.6341.7978.6341 1.3084v2.8104h5.1603v-2.9159c0-.4483.19-.8929.558-1.1489 1.4286-.9936 2.3644-2.6459 2.3644-4.518-5e-5-3.4656-3.204-6.183-6.8116-5.3516z"/><line class="c" x1="21.42" x2="26.58" y1="38" y2="38"/></svg>