<?xml version='1.0' encoding='UTF-8'?>
<svg xmlns="http://www.w3.org/2000/svg" viewBox="0 0 48 48"><defs><style>.c{fill:none;stroke:#000;stroke-width:2px;stroke-linecap:round;stroke-linejoin:round;}</style></defs><path class="c" d="m39.5 15.5h-9c-1.1046 0-2-.8954-2-2v-9h-18c-1.1046 0-2 .8954-2 2v35c0 1.1046.8954 2 2 2h27c1.1046 0 2-.8954 2-2v-26z"/><line class="c" x1="28.5" x2="39.5" y1="4.5" y2="15.5"/><path class="c" d="m33.421 35.574v-7.6853l-7.1893-7.1893c-.28139-.28262-.86768-.61979-1.3635-.61979-.42642 0-.84416.08553-1.1156.24792l-5.9499 2.975-2.975 6.1979c-.1066.2256-.24791.61729-.24791.86768 0 .54172.238 1.0945.61979 1.4875l7.0656 7.0656h7.8096l1e-6-3.3469z"/><path class="c" d="m29.454 23.921c-.55659-.55904-1.0524-.61979-1.7354-.61979h-9.9168v10.041c0 .99412.1252 1.2384.61979 1.7354"/><path class="c" d="m17.802 23.302 12.272 12.272"/></svg>