<?xml version="1.0" encoding="UTF-8"?>
<svg id="a" version="1.1" viewBox="0 0 48 48" xmlns="http://www.w3.org/2000/svg">
 <defs id="defs4">
  <style id="style2">.e{fill:none;stroke:#000;stroke-width:2px;stroke-linecap:round;stroke-linejoin:round;}</style>
 </defs>
 <path id="path6" d="m24 4.5c-2.4403 0-4.4395 1.9991-4.4395 4.4395 0 0.30631 0.12905 0.56174 0.18945 0.84766-1.6148 0.61144-3.1697 1.4464-4.4492 2.9395-1.5029 1.7537-2.6276 4.2627-3.3184 7.9238-0.7867 4.1696-1.2809 6.3812-1.7969 7.6406-0.51595 1.2594-0.97208 1.6302-2.1289 2.5293-1.5146 1.1771-2.2196 3.0243-2.0664 4.7129 0.076596 0.84428 0.38515 1.6765 1 2.3105 0.61485 0.63404 1.5305 1.0156 2.5645 1.0156h8.957c0.51748 2.6152 2.7257 4.6406 5.4883 4.6406s4.9708-2.0254 5.4883-4.6406h8.957c1.0339 0 1.9496-0.38158 2.5645-1.0156 0.61484-0.63404 0.9234-1.4663 1-2.3105 0.15321-1.6886-0.55184-3.5358-2.0664-4.7129-1.1568-0.89916-1.613-1.2699-2.1289-2.5293-0.51595-1.2594-1.0102-3.471-1.7969-7.6406-0.6908-3.6612-1.8155-6.1701-3.3184-7.9238-1.2795-1.493-2.8344-2.328-4.4492-2.9395 0.0604-0.28586 0.18945-0.54139 0.18945-0.84766 0-2.4403-1.9991-4.4395-4.4395-4.4395zm0 2c1.3595 0 2.4395 1.08 2.4395 2.4395 0 0.35798-0.08185 0.69587-0.23047 1.0176a1.0001 1.0001 0 0 0 0.60547 1.373c1.7208 0.54495 3.1565 1.2846 4.3672 2.6973 1.2107 1.4127 2.2227 3.5575 2.8711 6.9941 0.79027 4.1885 1.2646 6.4468 1.9121 8.0273 0.64752 1.5806 1.5507 2.4194 2.75 3.3516 0.91871 0.71402 1.3901 1.9902 1.3027 2.9531-0.04368 0.48144-0.20864 0.85561-0.44336 1.0977-0.23472 0.24205-0.54344 0.4082-1.1289 0.4082h-9.7441a1.0001 1.0001 0 0 0-1 0.98438c-0.028989 2.0346-1.6599 3.6562-3.7012 3.6562s-3.6722-1.6216-3.7012-3.6562a1.0001 1.0001 0 0 0-1-0.98438h-9.7441c-0.58549 0-0.89419-0.16616-1.1289-0.4082-0.23472-0.24205-0.39968-0.61622-0.44336-1.0977-0.087356-0.96288 0.38402-2.2391 1.3027-2.9531 1.1993-0.93216 2.1025-1.771 2.75-3.3516 0.64752-1.5806 1.1218-3.8388 1.9121-8.0273 0.64839-3.4366 1.6604-5.5814 2.8711-6.9941 1.2107-1.4127 2.6464-2.1523 4.3672-2.6973a1.0001 1.0001 0 0 0 0.60547-1.373c-0.1486-0.32165-0.23047-0.65936-0.23047-1.0176 0-1.3595 1.08-2.4395 2.4395-2.4395z" color="#000000" stroke-linecap="round" stroke-linejoin="round" style="-inkscape-stroke:none"/>
 <path id="line8" d="m19.299 36.859a1 1 0 0 0-1 1 1 1 0 0 0 1 1h9.4023a1 1 0 0 0 1-1 1 1 0 0 0-1-1z" color="#000000" stroke-linecap="round" stroke-linejoin="round" style="-inkscape-stroke:none"/>
</svg>
