<?xml version="1.0" encoding="UTF-8"?>
<svg id="a" version="1.1" viewBox="0 0 48 48" xmlns="http://www.w3.org/2000/svg">
 <defs id="defs4">
  <style id="style2">.c{fill:none;stroke:#fff;stroke-width:2px;stroke-linecap:round;stroke-linejoin:round;}</style>
 </defs>
 <path id="rect6" d="m9.5 4.5c-2.7527 0-5 2.2473-5 5v29c0 2.7527 2.2473 5 5 5h29c2.7527 0 5-2.2473 5-5v-29c0-2.7527-2.2473-5-5-5zm0 2h29c1.6793 0 3 1.3207 3 3v29c0 1.6793-1.3207 3-3 3h-29c-1.6793 0-3-1.3207-3-3v-29c0-1.6793 1.3207-3 3-3z" color="#000000" fill="#fff" stroke-linecap="round" stroke-linejoin="round" style="-inkscape-stroke:none"/>
 <path id="line8" d="m5.5 34.5a1 1 0 0 0-1 1 1 1 0 0 0 1 1h37a1 1 0 0 0 1-1 1 1 0 0 0-1-1z" color="#000000" fill="#fff" stroke-linecap="round" stroke-linejoin="round" style="-inkscape-stroke:none"/>
 <g id="b" fill="#fff" stroke-linecap="round" stroke-linejoin="round">
  <path id="circle10" d="m22.053 10c-4.7117 0-8.5527 3.841-8.5527 8.5527 0 4.7117 3.841 8.5527 8.5527 8.5527 4.7117 0 8.5527-3.841 8.5527-8.5527 0-4.7117-3.841-8.5527-8.5527-8.5527zm0 2c3.6309 0 6.5527 2.9219 6.5527 6.5527 0 3.6309-2.9219 6.5527-6.5527 6.5527-3.6309 0-6.5527-2.9219-6.5527-6.5527 0-3.6309 2.9219-6.5527 6.5527-6.5527z" color="#000000" style="-inkscape-stroke:none"/>
  <path id="line12" d="m26.686 23.186a1 1 0 0 0 0 1.4141l6.1074 6.1074a1 1 0 0 0 1.4141 0 1 1 0 0 0 0-1.4141l-6.1074-6.1074a1 1 0 0 0-1.4141 0z" color="#000000" style="-inkscape-stroke:none"/>
 </g>
</svg>
