<?xml version='1.0' encoding='UTF-8'?>
<svg xmlns="http://www.w3.org/2000/svg" id="a" viewBox="0 0 48 48"><defs><style>.b{fill:none;stroke:#fff;stroke-width:2px;stroke-linecap:round;stroke-linejoin:round;}</style></defs><path class="b" d="m18.809 45.4c-.7265-.1717-1.3334-.5746-2.184-1.4465-1.42-1.4575-2.5729-2.0636-4.5764-2.4086-2.0776-.3581-3.0015-1.1302-3.5563-2.9751-.6854-2.2779-1.4017-3.3684-2.9758-4.5309-1.7855-1.3188-2.2434-2.4812-1.8075-4.5889.4036-1.9521.2495-3.3391-.5709-5.1239-.9775-2.1282-.8572-3.2657.5321-5.0101 1.2733-1.5998 1.6732-2.6566 1.864-4.9286.1923-2.2933.8307-3.2341 2.7094-3.9959 1.569-.6355 2.9105-1.7393 3.6547-3.0044.8601-1.4641.9856-1.6314 1.5184-2.0291.8601-.6414 1.5558-.8197 2.8797-.7368 2.3007.1446 3.5336-.1321 5.0784-1.1375 2.0145-1.3114 3.2356-1.3114 5.2501 0 1.5448 1.0054 2.7777 1.2821 5.0784 1.1375 2.1752-.1358 3.08.4352 4.4061 2.7806.6575 1.1624 2.0005 2.2933 3.4712 2.9223 2.093.8961 2.7021 1.7143 2.8562 3.8396.1673 2.3014.6392 3.5886 1.8897 5.1517 1.3921 1.7415 1.5132 2.8804.5343 5.0108-.8197 1.7848-.9738 3.1725-.5702 5.1239.4352 2.1077-.022 3.2701-1.8082 4.5889-1.5734 1.1624-2.2897 2.253-2.9751 4.5309-.5555 1.8449-1.4787 2.617-3.5571 2.9751-2.0071.3449-3.1615.954-4.5757 2.413-1.5683 1.6174-2.6933 1.8838-4.8853 1.1595-1.7928-.593-3.174-.5952-4.9602-.0095-1.2505.411-1.9176.4822-2.7197.2921z"/><path class="b" d="m22.648 12.291v-2.1062c0-.7706.6238-1.3943 1.3943-1.3943s1.3943.6238 1.3943 1.3943v2.1429"/><path class="b" d="m29.363 19.983c.30651-.074319.63064-.11144.96094-.11144 2.4805 0 4.4986 2.0181 4.4986 4.5059 0 1.7017-.95437 3.1874-2.3541 3.9482"/><line class="b" x1="34.485" x2="33.413" y1="19.875" y2="21.105"/><line class="b" x1="36.275" x2="34.823" y1="25.23" y2="24.974"/><line class="b" x1="31.387" x2="31.707" y1="21.58" y2="21.58"/><line class="b" x1="32.933" x2="33.142" y1="25.946" y2="25.701"/><line class="b" x1="14.576" x2="15.554" y1="37.521" y2="34.957"/><line class="b" x1="33.631" x2="32.556" y1="37.456" y2="34.96"/><circle class="b" cx="24.006" cy="15.454" r="3.4418"/><path class="b" d="m20.785 14.244-6.5898 17.707c-.4515 1.2119.165 2.5603 1.377 3.0117 1.2125.45131 2.5611-.16618 3.0117-1.3789l5.4218-14.567 5.4365 14.602c.45058 1.2127 1.7993 1.8302 3.0117 1.3789 1.212-.45137 1.8285-1.7998 1.377-3.0117l-6.5898-17.707"/><path class="b" d="m19.749 30.451c1.2059.3367 2.4657.5134 3.749.5134 1.6091 0 3.1814-.27785 4.6568-.8006m-1.3855-3.7227c-1.0373.35978-2.1409.55059-3.2713.55059-.80377 0-1.5941-.09648-2.3568-.28159m-4.1906-2.1641c-.717-.62283-1.3504-1.3527-1.8745-2.1754a1.9865 1.9865 0 00-2.7422-.60742 1.9865 1.9865 0 00-.60742 2.7422c1.0014 1.5719 2.2905 2.902 3.7741 3.9391"/></svg>