<?xml version='1.0' encoding='UTF-8'?>
<svg xmlns="http://www.w3.org/2000/svg" version="1.1" viewBox="0 0 48 48" xml:space="preserve"><defs><style>.b{fill:none;stroke:#fff;stroke-linecap:round;stroke-linejoin:round;stroke-width:2px;}</style></defs><rect class="b" x="5.5" y="5.5" height="37" width="37" rx="4" ry="4"/><rect class="b" x="10.5" y="10.5" width="27" height="27" rx="2" ry="2"/><path class="b" d="m13.832 21.99v-8h2.619c1.4806 0 2.681 1.2029 2.681 2.6867 0 1.4838-1.2003 2.6867-2.681 2.6867h-2.619"/><path class="b" d="m28.413 19.307v0.03277c0 1.4636-1.1864 2.65-2.65 2.65h-1e-5c-1.4636 0-2.65-1.1864-2.65-2.65v-2.7c0-1.4636 1.1864-2.65 2.65-2.65v0c1.4636 2e-6 2.65 1.1864 2.65 2.65v0.03277"/><path class="b" d="m13.945 33.64h9.5598"/></svg>