<?xml version='1.0' encoding='UTF-8'?>
<svg xmlns="http://www.w3.org/2000/svg" xmlns:xlink="http://www.w3.org/1999/xlink" version="1.1" viewBox="0 0 48 48" xml:space="preserve"><defs><style>.b{fill:none;stroke:#fff;stroke-linecap:round;stroke-linejoin:round;stroke-width:2px;}</style></defs><rect class="b" x="5.5" y="5.5" height="37" width="37" rx="4" ry="4"/><g class="b"><circle cx="36.433" cy="11.921" r="3.3328"/><circle cx="36.433" cy="36.362" r="3.3328"/><circle cx="29.768" cy="29.696" r="2.2219"/><circle cx="29.768" cy="18.587" r="2.2219"/><circle cx="11.993" cy="11.921" r="3.3328"/><circle cx="11.993" cy="36.362" r="3.3328"/><circle cx="18.658" cy="18.587" r="2.2219"/><circle cx="18.658" cy="29.696" r="2.2219"/><path d="m15.326 11.921h17.775"/><path d="m36.433 15.254v17.775"/><path d="m33.101 36.362h-17.775"/><path d="m11.993 33.029v-17.775"/><path d="m18.658 20.809v6.6656"/><path d="m29.768 27.474v-6.6656"/><path d="m27.546 18.587h-6.6656"/><path d="m20.88 29.696h6.6656"/><path d="m31.575 30.989 2.7731 2.7731"/><path d="m33.804 13.969-2.654 2.8782"/><path d="m14.595 14.003 2.7741 2.7741"/><path d="m16.79 30.899-2.797 2.797"/></g></svg>