<?xml version='1.0' encoding='UTF-8'?>
<svg xmlns="http://www.w3.org/2000/svg" viewBox="0 0 48 48"><defs><style>.b{fill:none;stroke:#fff;stroke-width:2px;stroke-linecap:round;stroke-linejoin:round;}</style></defs><path class="b" d="m21.877 19.547 2.5047-3.5404m2.9113 2.919-3.5365 2.5009m-4.5875.6981-2.9266-1.0778c2.2589 6.2834 10.66 7.4142 14.5 1.9522s-.06702-12.985-6.7442-12.984l-3e-6 3e-6c-4.5537.0021-8.2446 3.6931-8.2468 8.2468v.34905l4.1387 1.5151"/><path class="b" d="m36.692 27.573 5.4345 10.967s.85252 2.6869-2.5169 1.6422c-1.9842-.61522-2.9671-.7515-2.9671-.7515s-1.4347-.36604-2.0361 1.4758c-.53869 1.6499-.89844 2.8588-.89844 2.8588s-1.0736 2.677-2.3303.14527c-.94568-1.9053-4.8618-10.113-4.8618-10.113"/><path class="b" d="m11.275 27.534-5.3783 11.288s-.85252 2.6869 2.5169 1.6422c1.9842-.61522 2.9671-.7515 2.9671-.7515s1.4347-.36604 2.0361 1.4758c.53869 1.6499.89844 2.8588.89844 2.8588s1.0736 2.677 2.3303.14527c.94568-1.9053 4.8091-10.399 4.8091-10.399"/><circle class="b" cx="23.998" cy="18.25" r="15.75"/><circle class="b" cx="21.476" cy="21.812" r="2.2496"/><circle class="b" cx="27.321" cy="16.012" r="2.9274"/></svg>