<?xml version='1.0' encoding='UTF-8'?>
<svg xmlns="http://www.w3.org/2000/svg" viewBox="0 0 48 48"><defs><style>.b{fill:none;stroke:#fff;stroke-linecap:round;stroke-linejoin:round;stroke-width:2px;}</style></defs><circle class="b" cx="24" cy="24" r="21.5"/><path class="b" d="m16.957 30.31-4.0626 4.0626-2.5258-2.5258 2.0489-2.0489-1.7297-2.996h-2.4564v-6.9484h2.5082l1.6953-2.9363-1.923-1.923 4.8555-4.8555 1.7663 1.7663 3.13-1.8071v-2.4674h7.6093v2.5788l2.865 1.6541 1.7614-1.7614 5.053 5.053-1.8017 1.8017 1.853 3.2095h1.9623v6.5053h-2.7201l-1.7282 2.9934 2.0522 2.0522-2.4612 2.4612-4.0626-4.0626s4.4688-4.1509 2.6318-9.2732c-1.837-5.1223-5.1577-6.8887-9.5382-6.818-4.3805 0.07065-9.6088 3.9566-9.6088 8.3017s0.77718 5.2283 2.8261 7.9838z"/><path class="b" d="m28.173 17.641-9.9711 3.4515-1.77 2.2715 1.829 1.2095 10.237-3.7465 2.0945-2.419z"/><path class="b" d="m27.381 23.557-8.2611 2.8596-1.4665 1.882 1.5154 1.0021 8.4811-3.104 1.7353-2.0042z"/><path class="b" d="m26.777 28.17-7.0817 2.4514-1.2571 1.6133 1.299 0.85902 7.2703-2.6609 1.4876-1.718z"/><path class="b" d="m27.304 32.138-7.0817 2.4514s1.7602 3.5823 3.482 6.5646z"/></svg>