<?xml version='1.0' encoding='UTF-8'?>
<svg xmlns="http://www.w3.org/2000/svg" id="a" viewBox="0 0 48 48"><defs><style>.d{fill:none;stroke:#fff;stroke-width:2px;stroke-linecap:round;stroke-linejoin:round;}</style></defs><path class="d" d="m32.163 34.43h-1.814v9.0698h-4.9884v-3.6279h-2.7209v3.6279h-4.9884v-13.605h-9.9767v-25.395h8.1628v3.6279h16.326v-3.6279h8.1628v25.395h-8.1628v8.1628h-1.814"/><rect class="d" x="15.837" y="19.465" width="6.3488" height="6.3488"/><rect class="d" x="32.163" y="19.465" width="6.3488" height="6.3488"/><rect class="d" x="17.651" y="34.43" width="3.6279" height="3.6279"/><path class="d" d="m35.85 37.15c0-1.6355 1.4816-2.925 3.1759-2.5994 1.1113.21358 1.9988 1.1747 2.1094 2.301.0823.83776-.18282 1.6644-.7615 2.1722-1.072.94078-4.5238 3.4762-4.5238 3.4762h5.3"/></svg>