<?xml version='1.0' encoding='UTF-8'?>
<svg xmlns="http://www.w3.org/2000/svg" id="a" viewBox="0 0 48 48"><defs><style>.d{fill:none;stroke:#fff;stroke-width:2px;stroke-linecap:round;stroke-linejoin:round;}</style></defs><circle class="d" cx="24" cy="24" r="21.5"/><path class="d" d="m5.3797 34.749 8.508-19.79c.93531-2.1755 3.9884-2.2608 5.0437-.14092l5.0686 10.182 5.0686-10.182c1.0553-2.1199 4.1084-2.0346 5.0437.14092l8.508 19.79h-5.8039l-5.0738-11.802-5.0686 10.182c-1.099 2.2077-4.2487 2.2077-5.3478 0l-5.0686-10.182-5.0738 11.802z"/><path class="d" d="m11.184 34.749h25.633"/><path class="d" d="m7.9002 38.249h32.2"/><path class="d" d="m5.351 13.301h6.0139m10.153 0h4.965m10.153 0h6.0139"/><path class="d" d="m18.965 3.1481-3.142 7.3089"/><path class="d" d="m29.035 3.1481 3.142 7.3089"/></svg>